<svg xmlns="http://www.w3.org/2000/svg" width="26.937" height="25.969" viewBox="0 0 26.937 25.969">
  <defs>
    <style>
      .cls-1 {
        fill: #000;
        fill-rule: evenodd;
      }
    </style>
  </defs>
  <path id="icon_clouse" class="cls-1" d="M556.742,885.011l12.033,11.829,0.014,0.014a0.678,0.678,0,0,1-.014.955,0.706,0.706,0,0,1-.492.2h0a0.7,0.7,0,0,1-.493-0.2l-12.275-12.071L543.24,897.81a0.7,0.7,0,0,1-.493.2h0a0.708,0.708,0,0,1-.492-0.2,0.678,0.678,0,0,1-.014-0.955l0.014-.014,12.033-11.829-12.033-11.832a0.677,0.677,0,0,1-.015-0.953l0.015-.015a0.7,0.7,0,0,1,.984,0l12.276,12.07,12.275-12.07a0.7,0.7,0,0,1,.984,0l0.015,0.015a0.677,0.677,0,0,1-.015.953Z" transform="translate(-542.063 -872.031)"/>
</svg>
