<svg width="44" height="43" viewBox="0 0 44 43" fill="none" xmlns="http://www.w3.org/2000/svg"><path fill-rule="evenodd" clip-rule="evenodd" d="M24.4804 42.8581C34.957 41.6406 43.0888 32.7367 43.0888 21.9336C43.0888 10.2989 33.6571 0.867188 22.0224 0.867188C10.3878 0.867188 0.956055 10.2989 0.956055 21.9336C0.956055 32.4211 8.61972 41.1188 18.6524 42.7318L18.6523 26.4648H13.7791V21.0916H18.6524V17.129C18.6524 12.5304 21.6023 10.0265 25.911 10.0265C27.9748 10.0265 29.7487 10.1727 30.2658 10.238V15.0437L27.2773 15.045C24.934 15.045 24.4803 16.1052 24.4803 17.6608V21.0914H30.0688L29.3411 26.4646H24.4803L24.4804 42.8581Z" fill="white"/></svg>
