<svg width="18" height="17" viewBox="0 0 18 17" fill="none" xmlns="http://www.w3.org/2000/svg">
<path d="M4.72956 0.374919L13.9723 0.37492L13.9723 10.5083L8.47018 16.2083L7.81706 15.6937C7.67192 15.5881 7.57626 15.4694 7.53008 15.3374C7.4839 15.2055 7.46081 15.0537 7.46081 14.8822L7.46081 14.6843L8.35143 10.5083L1.97852 10.5083C1.67504 10.5083 1.40126 10.3862 1.15716 10.1421C0.913064 9.89801 0.791016 9.62422 0.791016 9.32075L0.791016 7.69783C0.791016 7.5527 0.807509 7.38447 0.840495 7.19315C0.873481 7.00183 0.922961 6.8336 0.988932 6.68846L3.28477 1.38429C3.40352 1.10721 3.59814 0.86971 3.86862 0.671793C4.13911 0.473877 4.42609 0.374919 4.72956 0.374919ZM15.1598 10.5083L15.1598 0.37492L17.416 0.37492L17.416 10.5083L15.1598 10.5083Z" fill="#6B3267"/>
</svg>
