<svg width="21" height="27" viewBox="0 0 21 27" fill="none" xmlns="http://www.w3.org/2000/svg">
<path d="M10.4999 18.5051C10.8224 18.5051 11.1021 18.3865 11.3389 18.1494C11.5757 17.9122 11.6941 17.6323 11.6941 17.3098C11.6941 16.9872 11.5756 16.7076 11.3384 16.4708C11.1012 16.2339 10.8214 16.1155 10.4988 16.1155C10.1762 16.1155 9.89657 16.2341 9.65977 16.4713C9.42296 16.7085 9.30456 16.9883 9.30456 17.3109C9.30456 17.6334 9.42314 17.9131 9.66031 18.1499C9.89749 18.3867 10.1773 18.5051 10.4999 18.5051ZM9.69206 14.501H11.3066C11.3066 14.178 11.312 13.8982 11.3228 13.6614C11.3336 13.4246 11.3928 13.2201 11.5004 13.0478C11.5865 12.8756 11.7049 12.7142 11.8556 12.5635C12.0063 12.4128 12.2754 12.1544 12.6629 11.7885C13.158 11.3579 13.5079 10.9327 13.7124 10.5129C13.9169 10.0931 14.0191 9.60339 14.0191 9.04367C14.0191 8.08146 13.7124 7.31886 13.0988 6.75587C12.4853 6.19287 11.6549 5.91138 10.6077 5.91138C9.78199 5.91138 9.03546 6.13537 8.3681 6.58337C7.70074 7.03134 7.24865 7.6254 7.01185 8.36554L8.46497 8.94679C8.6372 8.51624 8.91706 8.16103 9.30456 7.88117C9.69206 7.60131 10.1269 7.46138 10.6091 7.46138C11.1603 7.46138 11.5973 7.61207 11.9202 7.91346C12.2431 8.21485 12.4046 8.61311 12.4046 9.10825C12.4046 9.48294 12.3184 9.80803 12.1462 10.0835C11.974 10.359 11.6777 10.692 11.2573 11.0823C10.8812 11.4239 10.5908 11.7077 10.3863 11.9338C10.1818 12.1598 10.0365 12.38 9.95039 12.5942C9.86428 12.789 9.7997 13.0317 9.75664 13.3223C9.71358 13.6129 9.69206 14.0058 9.69206 14.501ZM10.4993 26.4166C7.03338 23.4673 4.44466 20.7279 2.7332 18.1984C1.02174 15.6688 0.166016 13.3277 0.166016 11.1749C0.166016 7.94575 1.20473 5.37318 3.28216 3.45721C5.35959 1.54124 7.76532 0.583252 10.4993 0.583252C13.2334 0.583252 15.6391 1.54124 17.7165 3.45721C19.794 5.37318 20.8327 7.94575 20.8327 11.1749C20.8327 13.3277 19.977 15.6688 18.2655 18.1984C16.554 20.7279 13.9653 23.4673 10.4993 26.4166Z" fill="#F47A87"/>
</svg>
