<svg width="27" height="27" viewBox="0 0 27 27" fill="none" xmlns="http://www.w3.org/2000/svg">
<path d="M13.5007 26.4166C11.7138 26.4166 10.0347 26.0775 8.46315 25.3994C6.89162 24.7213 5.52461 23.801 4.36211 22.6385C3.19961 21.476 2.2793 20.1089 1.60117 18.5374C0.923047 16.9659 0.583984 15.2867 0.583984 13.4999C0.583984 11.7131 0.923047 10.0339 1.60117 8.46242C2.2793 6.89089 3.19961 5.52388 4.36211 4.36138C5.52461 3.19888 6.89162 2.27856 8.46315 1.60044C10.0347 0.922314 11.7138 0.583252 13.5007 0.583252C15.2875 0.583252 16.9666 0.922314 18.5382 1.60044C20.1097 2.27856 21.4767 3.19888 22.6392 4.36138C23.8017 5.52388 24.722 6.89089 25.4001 8.46242C26.0783 10.0339 26.4173 11.7131 26.4173 13.4999C26.4173 15.2867 26.0783 16.9659 25.4001 18.5374C24.722 20.1089 23.8017 21.476 22.6392 22.6385C21.4767 23.801 20.1097 24.7213 18.5382 25.3994C16.9666 26.0775 15.2875 26.4166 13.5007 26.4166ZM12.1121 24.4468V21.7989C11.3586 21.7989 10.7236 21.519 10.2069 20.9593C9.69023 20.3996 9.4319 19.743 9.4319 18.9895V17.5687L2.81211 10.9489C2.70447 11.3794 2.62912 11.8046 2.58607 12.2244C2.54301 12.6442 2.52148 13.0694 2.52148 13.4999C2.52148 16.2985 3.43103 18.7419 5.25013 20.8301C7.06923 22.9183 9.35655 24.1239 12.1121 24.4468ZM21.6059 20.9593C22.0795 20.4426 22.4939 19.8937 22.8491 19.3124C23.2043 18.7312 23.5057 18.123 23.7533 17.4879C24.0008 16.8529 24.1838 16.2017 24.3022 15.5343C24.4206 14.8669 24.4798 14.1888 24.4798 13.4999C24.4798 11.218 23.8555 9.14593 22.6069 7.28377C21.3583 5.42162 19.6899 4.05999 17.6017 3.19888V3.78013C17.6017 4.5336 17.3434 5.1902 16.8267 5.74992C16.31 6.30964 15.675 6.5895 14.9215 6.5895H12.1121V9.39888C12.1121 9.76485 11.9668 10.0662 11.6762 10.303C11.3855 10.5398 11.0572 10.6583 10.6913 10.6583H8.01107V13.4999H16.3423C16.7083 13.4999 17.0097 13.6398 17.2465 13.9197C17.4833 14.1996 17.6017 14.5225 17.6017 14.8885V18.9895H18.9902C19.6145 18.9895 20.1635 19.1725 20.6371 19.5385C21.1107 19.9044 21.4336 20.378 21.6059 20.9593Z" fill="#F47A87"/>
</svg>
