<svg width="13" height="11" viewBox="0 0 13 11" fill="none" xmlns="http://www.w3.org/2000/svg">
<mask id="path-1-inside-1_763_1317" fill="white">
<path fill-rule="evenodd" clip-rule="evenodd" d="M1.08951 1.12876C-0.0644863 2.28275 -0.0644877 4.15374 1.0895 5.30773L2.03924 6.25747L2.03923 6.25749L6.2182 10.4365L6.21822 10.4364L6.21825 10.4365L10.3972 6.2575L10.3972 6.25747L11.3469 5.30772C12.5009 4.15373 12.5009 2.28274 11.3469 1.12874C10.193 -0.0252487 8.32196 -0.02525 7.16797 1.12874L6.21822 2.07849L5.26848 1.12875C4.11449 -0.0252371 2.2435 -0.0252362 1.08951 1.12876Z"/>
</mask>
<path d="M2.03924 6.25747L2.74635 6.96458L3.45346 6.25747L2.74635 5.55036L2.03924 6.25747ZM2.03923 6.25749L1.33212 5.55038L0.625013 6.25749L1.33212 6.96459L2.03923 6.25749ZM6.2182 10.4365L5.5111 11.1436L6.2182 11.8507L6.92531 11.1436L6.2182 10.4365ZM6.21822 10.4364L6.92533 9.72934L6.21822 9.02223L5.51111 9.72934L6.21822 10.4364ZM6.21825 10.4365L5.51114 11.1436L6.21825 11.8507L6.92536 11.1436L6.21825 10.4365ZM10.3972 6.2575L11.1043 6.96461L11.8114 6.2575L11.1043 5.55039L10.3972 6.2575ZM10.3972 6.25747L9.69009 5.55036L8.98298 6.25747L9.69009 6.96458L10.3972 6.25747ZM7.16797 1.12874L6.46086 0.421635L7.16797 1.12874ZM6.21822 2.07849L5.51111 2.7856L6.21822 3.49271L6.92533 2.7856L6.21822 2.07849ZM1.79661 4.60062C1.03314 3.83716 1.03314 2.59933 1.79661 1.83586L0.382399 0.421649C-1.16212 1.96616 -1.16212 4.47032 0.382397 6.01484L1.79661 4.60062ZM2.74635 5.55036L1.79661 4.60062L0.382397 6.01484L1.33214 6.96458L2.74635 5.55036ZM2.74633 6.96459L2.74635 6.96458L1.33214 5.55036L1.33212 5.55038L2.74633 6.96459ZM6.92531 9.72936L2.74633 5.55038L1.33212 6.96459L5.5111 11.1436L6.92531 9.72936ZM5.51111 9.72934L5.5111 9.72936L6.92531 11.1436L6.92533 11.1436L5.51111 9.72934ZM6.92536 9.72937L6.92533 9.72934L5.51111 11.1436L5.51114 11.1436L6.92536 9.72937ZM9.69012 5.55039L5.51114 9.72937L6.92536 11.1436L11.1043 6.96461L9.69012 5.55039ZM9.69009 6.96458L9.69012 6.96461L11.1043 5.55039L11.1043 5.55036L9.69009 6.96458ZM10.6398 4.60061L9.69009 5.55036L11.1043 6.96458L12.0541 6.01483L10.6398 4.60061ZM10.6398 1.83585C11.4033 2.59932 11.4033 3.83715 10.6398 4.60061L12.0541 6.01483C13.5986 4.47031 13.5986 1.96615 12.0541 0.421637L10.6398 1.83585ZM7.87508 1.83585C8.63855 1.07238 9.87637 1.07238 10.6398 1.83585L12.0541 0.421637C10.5095 -1.12288 8.00538 -1.12288 6.46086 0.421635L7.87508 1.83585ZM6.92533 2.7856L7.87508 1.83585L6.46086 0.421635L5.51111 1.37139L6.92533 2.7856ZM4.56137 1.83586L5.51111 2.7856L6.92533 1.37139L5.97559 0.421648L4.56137 1.83586ZM1.79661 1.83586C2.56008 1.07239 3.79791 1.07239 4.56137 1.83586L5.97559 0.421648C4.43107 -1.12287 1.92691 -1.12287 0.382399 0.421649L1.79661 1.83586Z" fill="#6B3267" mask="url(#path-1-inside-1_763_1317)"/>
</svg>
