<svg width="27" height="27" viewBox="0 0 27 27" fill="none" xmlns="http://www.w3.org/2000/svg">
<path d="M8.33398 16.0833H18.6673V15.4697C18.6673 14.5655 18.2099 13.8659 17.2949 13.3708C16.38 12.8756 15.1152 12.628 13.5007 12.628C11.8861 12.628 10.6213 12.8756 9.70638 13.3708C8.79145 13.8659 8.33398 14.5655 8.33398 15.4697V16.0833ZM13.5007 10.4968C14.168 10.4968 14.7331 10.2654 15.196 9.80252C15.6588 9.33967 15.8902 8.77457 15.8902 8.10721C15.8902 7.43985 15.6588 6.87474 15.196 6.4119C14.7331 5.94905 14.168 5.71763 13.5007 5.71763C12.8333 5.71763 12.2682 5.94905 11.8053 6.4119C11.3425 6.87474 11.1111 7.43985 11.1111 8.10721C11.1111 8.77457 11.3425 9.33967 11.8053 9.80252C12.2682 10.2654 12.8333 10.4968 13.5007 10.4968ZM0.583984 26.4166V2.52075C0.583984 2.02561 0.777734 1.57891 1.16523 1.18065C1.55273 0.782384 2.00482 0.583252 2.52148 0.583252H24.4798C24.975 0.583252 25.4217 0.782384 25.8199 1.18065C26.2182 1.57891 26.4173 2.02561 26.4173 2.52075V19.3124C26.4173 19.8076 26.2182 20.2543 25.8199 20.6525C25.4217 21.0508 24.975 21.2499 24.4798 21.2499H5.75065L0.583984 26.4166Z" fill="#F47A87"/>
</svg>
