<svg width="29" height="29" viewBox="0 0 29 29" fill="none" xmlns="http://www.w3.org/2000/svg">
<path d="M20.9577 28.7084V26.7709C22.5723 26.7709 23.9447 26.2058 25.0749 25.0756C26.2051 23.9454 26.7702 22.573 26.7702 20.9584H28.7077C28.7077 23.1112 27.9542 24.9411 26.4473 26.448C24.9403 27.9549 23.1105 28.7084 20.9577 28.7084ZM0.291016 8.04175C0.291016 5.88897 1.04449 4.05911 2.55143 2.55216C4.05838 1.04522 5.88824 0.291748 8.04102 0.291748V2.22925C6.42643 2.22925 5.05404 2.79435 3.92383 3.92456C2.79362 5.05477 2.22852 6.42716 2.22852 8.04175H0.291016ZM3.39102 25.6084C2.35768 24.5751 1.58268 23.4018 1.06602 22.0886C0.549349 20.7754 0.291016 19.4353 0.291016 18.0683C0.291016 16.7013 0.549349 15.3612 1.06602 14.048C1.58268 12.7348 2.35768 11.5615 3.39102 10.5282L9.33268 4.58654C9.63407 4.28515 10.0162 4.12369 10.479 4.10216C10.9419 4.08064 11.3348 4.23133 11.6577 4.55425C11.9591 4.85564 12.1098 5.23775 12.1098 5.7006C12.1098 6.16345 11.9591 6.54557 11.6577 6.84696L6.39414 12.1105C7.25525 12.7994 7.78268 13.7197 7.97643 14.8714C8.17018 16.0232 7.79345 17.0834 6.84622 18.0522L7.75039 18.9563C8.63303 18.1383 9.13355 17.0511 9.25195 15.6949C9.37036 14.3386 9.00977 13.1546 8.17018 12.1428L18.0191 2.29383C18.3421 1.97091 18.7242 1.80946 19.1655 1.80946C19.6068 1.80946 19.9889 1.97091 20.3118 2.29383C20.6132 2.59522 20.7747 2.96657 20.7962 3.40789C20.8178 3.84921 20.6563 4.2421 20.3118 4.58654L13.24 11.6584L14.1118 12.5626L23.0243 3.65008C23.3257 3.34869 23.7079 3.198 24.1707 3.198C24.6335 3.198 25.0157 3.34869 25.3171 3.65008C25.6184 3.95147 25.7691 4.33359 25.7691 4.79644C25.7691 5.25928 25.6184 5.6414 25.3171 5.94279L16.4046 14.8553L17.341 15.7595L24.865 8.2355C25.1879 7.91258 25.57 7.75112 26.0113 7.75112C26.4526 7.75112 26.8348 7.91258 27.1577 8.2355C27.4591 8.53689 27.6098 8.919 27.6098 9.38185C27.6098 9.8447 27.4591 10.2268 27.1577 10.5282L18.6973 18.9563L19.6014 19.8928L25.3171 14.1772C25.6615 13.8327 26.0544 13.6713 26.4957 13.6928C26.937 13.7143 27.3084 13.8758 27.6098 14.1772C27.9112 14.4786 28.0726 14.8499 28.0941 15.2912C28.1157 15.7325 27.9542 16.1254 27.6098 16.4699L18.4712 25.6084C17.4379 26.6417 16.2646 27.4167 14.9514 27.9334C13.6382 28.4501 12.2981 28.7084 10.9311 28.7084C9.56411 28.7084 8.224 28.4501 6.91081 27.9334C5.59761 27.4167 4.42435 26.6417 3.39102 25.6084Z" fill="#F47A87"/>
</svg>
