<svg width="20" height="26" viewBox="0 0 20 26" fill="none" xmlns="http://www.w3.org/2000/svg">
<path d="M0 21.75V19.875H2.625V10.3125C2.625 8.5625 3.14062 7.00521 4.17188 5.64062C5.20312 4.27604 6.5625 3.41667 8.25 3.0625V2.15625C8.25 1.67708 8.42188 1.28125 8.76562 0.96875C9.10938 0.65625 9.52083 0.5 10 0.5C10.4792 0.5 10.8906 0.65625 11.2344 0.96875C11.5781 1.28125 11.75 1.67708 11.75 2.15625V3.0625C13.4375 3.41667 14.8021 4.27604 15.8438 5.64062C16.8854 7.00521 17.4062 8.5625 17.4062 10.3125V19.875H20V21.75H0ZM10 25.5C9.33333 25.5 8.75 25.2552 8.25 24.7656C7.75 24.276 7.5 23.6875 7.5 23H12.5C12.5 23.6875 12.2552 24.276 11.7656 24.7656C11.276 25.2552 10.6875 25.5 10 25.5Z" fill="#6B3267"/>
</svg>
