<svg width="28" height="27" viewBox="0 0 28 27" fill="none" xmlns="http://www.w3.org/2000/svg">
<path d="M19.8598 14.2105C18.848 13.3063 17.8846 12.4237 16.9697 11.5625C16.0547 10.7014 15.2528 9.86185 14.5639 9.0438C13.875 8.22574 13.3261 7.4346 12.9171 6.67036C12.508 5.90613 12.3035 5.1688 12.3035 4.45838C12.3035 3.33894 12.6803 2.40248 13.4337 1.64901C14.1872 0.895535 15.1237 0.518799 16.2431 0.518799C16.8889 0.518799 17.5294 0.696403 18.1645 1.05161C18.7995 1.40682 19.3646 1.88581 19.8598 2.48859C20.3549 1.88581 20.92 1.40682 21.5551 1.05161C22.1901 0.696403 22.8306 0.518799 23.4764 0.518799C24.5959 0.518799 25.5323 0.895535 26.2858 1.64901C27.0393 2.40248 27.416 3.33894 27.416 4.45838C27.416 5.1688 27.2115 5.90613 26.8025 6.67036C26.3934 7.4346 25.8445 8.22574 25.1556 9.0438C24.4667 9.86185 23.6648 10.7014 22.7499 11.5625C21.8349 12.4237 20.8716 13.3063 19.8598 14.2105ZM17.2764 26.998L7.23372 24.124V13.2417H10.2691L18.5035 16.3417C19.0848 16.557 19.5745 16.9068 19.9728 17.3912C20.371 17.8756 20.5702 18.5698 20.5702 19.474H18.5035C17.4487 19.474 16.679 19.4417 16.1947 19.3771C15.7103 19.3125 15.199 19.1941 14.6608 19.0219L12.3035 18.2469L11.9806 19.1511L14.4025 19.9907C14.8976 20.1629 15.452 20.2813 16.0655 20.3459C16.679 20.4105 17.3087 20.4428 17.9546 20.4428H24.2514C25.4785 20.4428 26.3127 20.6796 26.754 21.1532C27.1954 21.6268 27.416 22.2619 27.416 23.0584V23.898L17.2764 26.998ZM0.291016 25.9646V13.2417H5.26393V25.9646H0.291016Z" fill="#F47A87"/>
</svg>
