<svg width="14" height="14" viewBox="0 0 14 14" fill="none" xmlns="http://www.w3.org/2000/svg">
<path d="M12.925 13.7312L7.99375 8.79995C7.61875 9.12495 7.18125 9.37808 6.68125 9.55933C6.18125 9.74058 5.65 9.8312 5.0875 9.8312C3.7375 9.8312 2.59375 9.36245 1.65625 8.42495C0.71875 7.48745 0.25 6.3562 0.25 5.0312C0.25 3.7062 0.71875 2.57495 1.65625 1.63745C2.59375 0.699951 3.73125 0.231201 5.06875 0.231201C6.39375 0.231201 7.52187 0.699951 8.45312 1.63745C9.38437 2.57495 9.85 3.7062 9.85 5.0312C9.85 5.5687 9.7625 6.08745 9.5875 6.58745C9.4125 7.08745 9.15 7.5562 8.8 7.9937L13.75 12.9062L12.925 13.7312ZM5.06875 8.7062C6.08125 8.7062 6.94375 8.34683 7.65625 7.62808C8.36875 6.90933 8.725 6.0437 8.725 5.0312C8.725 4.0187 8.36875 3.15308 7.65625 2.43433C6.94375 1.71558 6.08125 1.3562 5.06875 1.3562C4.04375 1.3562 3.17188 1.71558 2.45312 2.43433C1.73438 3.15308 1.375 4.0187 1.375 5.0312C1.375 6.0437 1.73438 6.90933 2.45312 7.62808C3.17188 8.34683 4.04375 8.7062 5.06875 8.7062Z" fill="white"/>
</svg>
