<svg width="64" height="51" viewBox="0 0 64 51" fill="none" xmlns="http://www.w3.org/2000/svg">
<path d="M51.4515 50.2202C57.35 50.2202 62.7569 44.8742 62.7569 39.0422C62.7569 31.4282 57.8415 27.2162 51.9431 27.2162C42.9315 27.2162 47.6831 12.6362 63.0846 5.50822L59.6438 0.324219C49.6492 3.88822 36.5415 16.0382 36.5415 32.4002C36.5415 39.5282 39.3269 50.2202 51.4515 50.2202ZM15.4054 50.2202C21.3038 50.2202 26.7107 44.8742 26.7107 39.0422C26.7107 31.4282 21.7954 27.2162 15.8969 27.2162C6.88536 27.2162 11.6369 12.6362 27.0384 5.50822L23.5977 0.324219C13.6031 3.88822 0.495361 16.0382 0.495361 32.4002C0.495361 39.5282 3.28075 50.2202 15.4054 50.2202Z" fill="#6B3267"/>
</svg>
