<svg width="71" height="255" viewBox="0 0 71 255" fill="none" xmlns="http://www.w3.org/2000/svg">
<path d="M70 222.781L70 222.631L69.0651 222L67 226.336L67.9907 227L70 222.781Z" fill="black"/>
<path d="M37 209.776L37.6667 211L42 208.414L41.7667 208L39.9667 208L37 209.776Z" fill="black"/>
<path d="M43.3903 223.241L41.7632 219.812L39 220.82L39.4452 221.977L41.1184 221.361L42.8377 225L50.5132 220.534L52.125 222.098L53 221.241L50.7127 219L43.3903 223.241Z" fill="black"/>
<path d="M43 253.675L43 254.992C43.5122 255.024 44.026 254.958 44.5097 254.797C44.9933 254.637 45.4364 254.385 45.8115 254.057C46.1865 253.73 46.4856 253.334 46.69 252.894C46.8945 252.454 47 251.98 47 251.5C47 251.02 46.8945 250.546 46.69 250.106C46.4856 249.666 46.1865 249.27 45.8115 248.943C45.4364 248.615 44.9933 248.363 44.5097 248.203C44.026 248.042 43.5122 247.976 43 248.008L43 249.276C43.6199 249.276 44.2143 249.506 44.6527 249.916C45.091 250.325 45.3372 250.881 45.3372 251.46C45.3372 252.039 45.091 252.594 44.6527 253.004C44.2143 253.413 43.6199 253.643 43 253.643" fill="black"/>
<path d="M69.0366 245.081C69.0695 245.466 69.1618 245.833 69.3058 246.153C69.4499 246.474 69.6417 246.739 69.8659 246.926L70 247L70 244.97C69.978 244.856 69.978 244.734 70 244.62L70 242C69.7025 242.374 69.4599 242.838 69.2877 243.362C69.1155 243.887 69.0175 244.459 69 245.044" fill="black"/>
<path d="M52 208L51 208L51.5 209L52 208Z" fill="black"/>
<path d="M54.6409 237.948L48.7517 235.036L54.6409 232.125L54.6409 237.948ZM56 240L56 230L46 235.036L56 240Z" fill="black"/>
<path d="M30.85 234.789L31.6328 233.751L27.8337 230.887L27.0509 231.926L30.85 234.789Z" fill="black"/>
<path d="M12.1206 208.649C11.9856 209.052 11.9634 209.485 12.0566 209.9C12.1498 210.315 12.3547 210.696 12.6485 211L13.6083 210.092C13.4793 209.971 13.3858 209.816 13.3378 209.644C13.2899 209.472 13.2894 209.291 13.3364 209.119C13.3854 209.003 13.4685 208.905 13.5743 208.838C13.6802 208.771 13.8037 208.739 13.9282 208.746C14.2336 208.832 14.5247 208.963 14.792 209.135C15.5439 209.573 16.9516 210.384 17.8154 208.924C17.9629 208.641 18.0242 208.319 17.9914 208L16.6637 208C16.684 208.08 16.684 208.163 16.6637 208.243C16.5197 208.486 16.4557 208.584 15.4319 208L12.5045 208C12.3279 208.189 12.1869 208.408 12.0886 208.649" fill="black"/>
<path d="M13.0073 228.283L10.0961 222.433L15.9185 222.433L13.0073 228.283ZM13.0073 231L18 221L8 221L13.0073 231Z" fill="black"/>
<path d="M14.1096 253.662L14.1096 243.338L16.3973 243.338L15.4247 244.61L16.9178 246.559L15.4247 248.492L16.9178 250.441L15.4247 252.39L16.3973 253.662L14.1096 253.662ZM13 242L13 255L19 255L17 252.39L18.4931 250.441L17 248.492L18.4931 246.559L17 244.61L19 242L13 242Z" fill="black"/>
<path d="M1.20804 26.1129L2.45117 25.7893L1.25273 21.1851L0.00959101 21.5087L1.20804 26.1129Z" fill="black"/>
<path d="M4.49172 37.3473L3.20716 37.3473C3.20716 38.26 3.56973 39.1353 4.2151 39.7807C4.86048 40.426 5.7358 40.7886 6.6485 40.7886C7.56121 40.7886 8.43652 40.426 9.0819 39.7807C9.72728 39.1353 10.0898 38.26 10.0898 37.3473L8.80529 37.3473C8.80529 37.9193 8.57805 38.4679 8.17358 38.8723C7.7691 39.2768 7.22052 39.504 6.6485 39.504C6.07649 39.504 5.5279 39.2768 5.12343 38.8723C4.71895 38.4679 4.49172 37.9193 4.49172 37.3473Z" fill="black"/>
<path d="M16.23 5.2576L21.48 8.45993L16.23 11.6623L16.23 5.2576ZM15 14L24 8.49199L15 3L15 14Z" fill="black"/>
<path d="M62.0175 25.1495L62.5605 23.9854L58.249 21.9739L57.706 23.1381L62.0175 25.1495Z" fill="black"/>
<path d="M68.7975 3.44132C69.3849 3.44239 69.9632 3.29508 70.4785 3.01311L70.4785 1.33208C70.2027 1.68184 69.8246 1.93689 69.397 2.06162C68.9694 2.18635 68.5135 2.17454 68.0928 2.02794C67.6722 1.88133 67.3078 1.60722 67.0503 1.24371C66.7929 0.880199 66.6552 0.445449 66.6566 5.86476e-06L65.3086 5.74691e-06C65.3085 0.455961 65.3991 0.907364 65.575 1.32802C65.7509 1.74867 66.0087 2.13016 66.3333 2.45034C66.6579 2.77053 67.0429 3.02302 67.4659 3.19314C67.889 3.36326 68.3416 3.44762 68.7975 3.44132Z" fill="black"/>
<path d="M48.9437 11.0852C48.9469 11.6418 48.7845 12.1867 48.4773 12.6507C48.17 13.1147 47.7318 13.4769 47.2183 13.6913C46.7047 13.9057 46.139 13.9627 45.593 13.8549C45.0471 13.7471 44.5454 13.4794 44.1519 13.0859C43.7584 12.6924 43.4908 12.1908 43.3829 11.6448C43.2751 11.0988 43.3321 10.5331 43.5465 10.0195C43.7609 9.50599 44.1231 9.06777 44.5872 8.76054C45.0512 8.45332 45.5961 8.29096 46.1526 8.29409C46.8916 8.29826 47.5991 8.59362 48.1216 9.11616C48.6442 9.6387 48.9396 10.3463 48.9437 11.0852ZM42.061 11.0852C42.061 11.8945 42.301 12.6855 42.7506 13.3584C43.2002 14.0312 43.8392 14.5557 44.5868 14.8653C45.3345 15.175 46.1571 15.256 46.9508 15.0981C47.7445 14.9403 48.4735 14.5506 49.0458 13.9784C49.618 13.4062 50.0076 12.6771 50.1655 11.8834C50.3234 11.0897 50.2424 10.2671 49.9327 9.5195C49.623 8.77187 49.0986 8.13281 48.4257 7.68323C47.7529 7.23364 46.9618 6.99367 46.1526 6.99367C45.0687 6.99784 44.0305 7.43031 43.264 8.19672C42.4976 8.96313 42.0652 10.0014 42.061 11.0852Z" fill="black"/>
<path d="M67.9881 42.5647C67.9851 41.891 68.2259 41.239 68.666 40.7289C69.1062 40.2188 69.7159 39.8851 70.3828 39.7894L70.3828 38.4256C69.4785 38.4948 68.623 38.8636 67.9519 39.4737C67.2809 40.0839 66.8325 40.9005 66.6778 41.7942C66.523 42.6879 66.6708 43.6076 67.0978 44.4078C67.5247 45.208 68.2064 45.843 69.0348 46.2122L70.3828 46.2122L70.3828 45.2765C69.7073 45.1914 69.0862 44.8623 68.6364 44.3512C68.1866 43.8401 67.9391 43.1821 67.9406 42.5013" fill="black"/>
<path d="M54.7424 39.2681L51.54 44.7631L48.3377 39.2681L54.7424 39.2681ZM57 38L46 38L50.8035 46L52.4047 46L57 38Z" fill="black"/>
<path d="M26.338 25.3075L36.662 25.3075L36.662 28.0341L35.3901 26.9021L33.4409 28.6242L31.5083 26.9021L29.5591 28.6242L27.6099 26.9021L26.338 28.0341L26.338 25.3075ZM25 31L27.6099 28.672L29.5591 30.3941L31.5083 28.672L33.4409 30.3941L35.3901 28.672L38 31L38 24L25 24L25 31Z" fill="black"/>
<path d="M18.0488 45.4035C17.8902 44.8485 17.8268 44.5788 17.9537 44.4678C18.0805 44.3568 18.4294 44.5471 18.7466 44.6898C19.2054 44.9862 19.7489 45.1234 20.2934 45.0804C20.8379 45.0374 21.3531 44.8166 21.7598 44.4519L20.8717 43.5163C20.4276 43.9445 20.0629 43.8494 19.2858 43.5163C18.8995 43.3248 18.4791 43.2115 18.0488 43.1833C17.718 43.1861 17.3985 43.3039 17.1449 43.5163C16.3361 44.1824 16.6533 45.1021 16.8594 45.8158C16.8594 45.9585 16.9546 46.1488 16.9863 46.3074L18.3026 46.3074C18.2625 46.009 18.188 45.7164 18.0805 45.4352" fill="black"/>
<path d="M15.7969 46.2598C15.3341 45.9255 14.7817 45.7376 14.211 45.7205C13.7345 45.7441 13.2831 45.9417 12.9423 46.2756L15.7969 46.2756" fill="black"/>
<path d="M70 60.7807L70 60.6312L69.0651 60L67 64.3356L67.9907 65L70 60.7807Z" fill="black"/>
<path d="M42.7148 120.687L45.0547 116.545L43.9362 115.913L41.5964 120.056L42.7148 120.687Z" fill="black"/>
<path d="M37 47.7759L37.6667 49L42 46.4138L41.7667 46L39.9667 46L37 47.7759Z" fill="black"/>
<path d="M43.3903 61.2406L41.7632 57.812L39 58.8196L39.4452 59.9774L41.1184 59.3609L42.8377 63L50.5132 58.5339L52.125 60.0977L53 59.2406L50.7127 57L43.3903 61.2406Z" fill="black"/>
<path d="M43.3459 91.9329L43.3459 93.2333C43.8185 93.2653 44.2927 93.2 44.739 93.0411C45.1853 92.8823 45.5942 92.6334 45.9403 92.31C46.2865 91.9865 46.5624 91.5954 46.7511 91.1609C46.9398 90.7264 47.0371 90.2577 47.0371 89.784C47.0371 89.3103 46.9398 88.8417 46.7511 88.4071C46.5624 87.9726 46.2865 87.5814 45.9403 87.258C45.5942 86.9346 45.1853 86.6857 44.739 86.5269C44.2927 86.3681 43.8185 86.3027 43.3459 86.3348L43.3459 87.5876C43.9179 87.5876 44.4665 87.8148 44.871 88.2193C45.2754 88.6237 45.5027 89.1723 45.5027 89.7443C45.5027 90.3164 45.2754 90.865 44.871 91.2694C44.4665 91.6739 43.9179 91.9011 43.3459 91.9011" fill="black"/>
<path d="M56.73 103.923C56.1742 103.926 55.6299 103.764 55.1662 103.457C54.7025 103.151 54.3403 102.713 54.1254 102.201C53.9105 101.688 53.8527 101.123 53.9592 100.578C54.0657 100.032 54.3318 99.5305 54.7237 99.1364C55.1156 98.7422 55.6157 98.4733 56.1607 98.3637C56.7056 98.2541 57.2708 98.3088 57.7847 98.5207C58.2985 98.7327 58.7378 99.0925 59.047 99.5544C59.3561 100.016 59.5211 100.56 59.5211 101.116C59.5212 101.857 59.2276 102.569 58.7046 103.095C58.1816 103.621 57.4717 103.918 56.73 103.923ZM56.73 97.024C55.9229 97.0334 55.1365 97.2813 54.47 97.7365C53.8034 98.1918 53.2864 98.8341 52.984 99.5825C52.6816 100.331 52.6073 101.152 52.7705 101.943C52.9337 102.733 53.3271 103.458 53.9012 104.025C54.4753 104.593 55.2043 104.978 55.9967 105.132C56.7891 105.286 57.6093 105.202 58.3541 104.891C59.099 104.58 59.7352 104.055 60.1828 103.384C60.6303 102.712 60.8691 101.923 60.8691 101.116C60.8691 100.03 60.4381 98.9897 59.6708 98.2224C58.9034 97.4551 57.8627 97.024 56.7776 97.024" fill="black"/>
<path d="M65.073 118.163C64.7393 118.125 64.433 117.96 64.2167 117.703C63.9092 117.354 63.4909 117.12 63.0318 117.042C62.5727 116.964 62.1008 117.047 61.6951 117.275C61.3994 117.41 61.1348 117.604 60.918 117.846C60.6326 118.116 60.5533 118.163 60.363 118.148C60.1727 118.132 59.9982 117.941 59.7286 117.656C59.3399 117.134 58.7774 116.769 58.1428 116.625L57.889 117.894C58.2309 117.999 58.5272 118.217 58.7295 118.512C59.0826 118.992 59.6037 119.32 60.1885 119.432C60.4869 119.456 60.7866 119.408 61.0625 119.292C61.3385 119.176 61.5826 118.996 61.7744 118.766C61.8743 118.642 61.9984 118.539 62.1392 118.465C62.7894 118.195 62.9162 118.306 63.2969 118.671C63.7187 119.107 64.2796 119.382 64.8827 119.448C65.2163 119.464 65.5489 119.401 65.8543 119.267C66.1598 119.132 66.4298 118.928 66.643 118.671C67.0237 118.322 67.1029 118.243 67.5787 118.449L68.0069 118.75C68.7047 119.274 69.5928 119.924 70.3223 119.813L70.3223 118.528L70.0368 118.528C69.5862 118.311 69.1608 118.045 68.7681 117.735C68.5688 117.571 68.3567 117.422 68.1338 117.291C67.7462 117.072 67.2926 116.999 66.8558 117.086C66.4191 117.174 66.0283 117.415 65.755 117.767C65.4536 118.052 65.2951 118.195 64.962 118.179" fill="black"/>
<path d="M69.1319 83.2269C69.1748 83.5573 69.2947 83.8729 69.4821 84.1484C69.6694 84.4239 69.9188 84.6515 70.2103 84.8128L70.3848 84.8762L70.3848 83.1318C70.3561 83.0334 70.3561 82.9289 70.3848 82.8305L70.3848 80.5786C69.9979 80.9002 69.6824 81.2991 69.4585 81.7497C69.2345 82.2003 69.1071 82.6926 69.0844 83.1952" fill="black"/>
<path d="M52 46L51 46L51.5 48L52 46Z" fill="black"/>
<path d="M54.6409 76.7424L48.7517 73.5401L54.6409 70.3377L54.6409 76.7424ZM56 79L56 68L46 73.5401L56 79Z" fill="black"/>
<path d="M30.85 73.0313L31.6328 71.9929L27.8337 69.1291L27.0509 70.1675L30.85 73.0313Z" fill="black"/>
<path d="M27.8456 129.716L28.3887 128.552L24.0772 126.541L23.5341 127.705L27.8456 129.716Z" fill="black"/>
<path d="M1.19827 187.874L2.44141 187.55L1.24296 182.946L-0.000174611 183.27L1.19827 187.874Z" fill="black"/>
<path d="M26.1347 93.7814L30.5527 92.0161L30.0761 90.8233L25.6581 92.5885L26.1347 93.7814Z" fill="black"/>
<path d="M4.49172 199.106L3.20716 199.106C3.20716 200.019 3.56973 200.894 4.2151 201.539C4.86048 202.185 5.7358 202.547 6.6485 202.547C7.56121 202.547 8.43652 202.185 9.0819 201.539C9.72728 200.894 10.0898 200.019 10.0898 199.106L8.80529 199.106C8.80529 199.678 8.57805 200.227 8.17358 200.631C7.7691 201.036 7.22052 201.263 6.6485 201.263C6.07649 201.263 5.5279 201.036 5.12343 200.631C4.71895 200.227 4.49172 199.678 4.49172 199.106Z" fill="black"/>
<path d="M31.5466 110.059C31.2641 110.059 30.9844 110.003 30.7236 109.895C30.4628 109.786 30.2261 109.627 30.0271 109.426C29.8281 109.226 29.6707 108.988 29.5641 108.726C29.4574 108.465 29.4036 108.185 29.4057 107.902L28.1052 107.902C28.0732 108.375 28.1386 108.849 28.2974 109.295C28.4562 109.742 28.7051 110.151 29.0285 110.497C29.352 110.843 29.7431 111.119 30.1776 111.307C30.6121 111.496 31.0808 111.594 31.5545 111.594C32.0282 111.594 32.4969 111.496 32.9314 111.307C33.366 111.119 33.7571 110.843 34.0805 110.497C34.4039 110.151 34.6528 109.742 34.8116 109.295C34.9704 108.849 35.0359 108.375 35.0038 107.902L33.7034 107.902C33.7034 108.474 33.4761 109.023 33.0717 109.427C32.6672 109.832 32.1186 110.059 31.5466 110.059Z" fill="black"/>
<path d="M12 142L23 142L23 140L12 140L12 142Z" fill="black"/>
<path d="M18.8583 144.479L17 143L15.1575 144.479L13.2992 143L11 144.836L11.8819 145.644L13.2992 144.507L15.1575 146L17 144.507L18.8583 146L20.7008 144.507L22.1181 145.644L23 144.836L20.7008 143L18.8583 144.479Z" fill="black"/>
<path d="M5.36324 111.756C5.48433 112.055 5.67363 112.321 5.91598 112.533C6.15833 112.745 6.44698 112.897 6.75881 112.978C7.35275 113.117 7.97059 113.122 8.56639 112.99C9.16219 112.858 9.72061 112.594 10.2001 112.216C10.745 111.822 11.3858 111.581 12.0556 111.519C12.2618 111.519 12.4045 111.519 12.4362 111.661C12.4679 111.804 12.5472 112.232 11.8812 113.564L11.6116 114.056C11.0565 115.055 10.0257 116.926 11.6116 118.116C12.0471 118.351 12.53 118.484 13.0243 118.506C13.5187 118.528 14.0115 118.438 14.4661 118.243C14.7705 118.143 15.044 117.966 15.2606 117.73C15.4772 117.494 15.6296 117.206 15.7031 116.895L14.4186 116.673C14.4186 116.8 14.2283 116.942 13.9745 117.053C13.4664 117.261 12.8968 117.261 12.3887 117.053C11.7702 116.609 11.9922 115.959 12.7058 114.674C12.8168 114.468 12.9278 114.294 13.0071 114.119C13.5622 113.009 14.0062 111.852 13.5305 110.948C13.3894 110.703 13.1857 110.501 12.9404 110.362C12.6951 110.222 12.417 110.151 12.1349 110.155C11.1987 110.17 10.2902 110.475 9.53408 111.027C8.66185 111.519 7.94821 111.947 7.15528 111.677C7.02609 111.653 6.90382 111.6 6.797 111.523C6.69018 111.447 6.60137 111.348 6.53679 111.233C6.36234 110.757 6.96497 109.647 7.44073 108.902C8.18609 107.617 9.0266 106.174 8.21781 105.032L7.17113 105.794C7.50416 106.238 6.86982 107.379 6.33062 108.252C5.79142 109.124 4.93505 110.615 5.33152 111.677" fill="black"/>
<path d="M12.5151 46.9102C12.3812 47.3044 12.3593 47.728 12.4516 48.1339C12.544 48.5399 12.7471 48.9123 13.0384 49.2097L13.9899 48.3216C13.8621 48.203 13.7693 48.0514 13.7218 47.8836C13.6742 47.7158 13.6737 47.5382 13.7203 47.3701C13.7689 47.2565 13.8513 47.1606 13.9562 47.0953C14.0612 47.0301 14.1837 46.9986 14.3071 47.0053C14.6098 47.0891 14.8984 47.2174 15.1635 47.386C15.9088 47.8142 17.3044 48.6071 18.1608 47.1799C18.307 46.9024 18.3677 46.5878 18.3352 46.2759L17.0189 46.2759C17.0391 46.3539 17.0391 46.4357 17.0189 46.5137C16.8762 46.7516 16.8128 46.8468 15.7978 46.2759L12.8957 46.2759C12.7206 46.4603 12.5808 46.6753 12.4833 46.9102" fill="black"/>
<path d="M13.0073 66.555L10.0961 61.29L15.9185 61.29L13.0073 66.555ZM13.0073 69L18 60L8 60L13.0073 69Z" fill="black"/>
<path d="M16.23 167.258L21.48 170.46L16.23 173.662L16.23 167.258ZM15 176L24 170.492L15 165L15 176Z" fill="black"/>
<path d="M14.1096 91.662L14.1096 81.338L16.3973 81.338L15.4247 82.6098L16.9178 84.5591L15.4247 86.4917L16.9178 88.4409L15.4247 90.3901L16.3973 91.662L14.1096 91.662ZM13 80L13 93L19 93L17 90.3901L18.4931 88.4409L17 86.4917L18.4931 84.5591L17 82.6098L19 80L13 80Z" fill="black"/>
<path d="M62.0116 186.914L62.5547 185.75L58.2432 183.739L57.7001 184.903L62.0116 186.914Z" fill="black"/>
<path d="M56.1936 129.404L57.1562 128.553L54.0062 124.988L53.0436 125.838L56.1936 129.404Z" fill="black"/>
<path d="M41 208L40.75 207L40 208L41 208Z" fill="black"/>
<path d="M68.7975 165.2C69.3849 165.201 69.9632 165.054 70.4785 164.772L70.4785 163.091C70.2027 163.441 69.8246 163.696 69.397 163.821C68.9694 163.945 68.5135 163.934 68.0928 163.787C67.6722 163.64 67.3078 163.366 67.0503 163.003C66.7929 162.639 66.6552 162.204 66.6566 161.759L65.3086 161.759C65.3085 162.215 65.3991 162.666 65.575 163.087C65.7509 163.508 66.0087 163.889 66.3333 164.209C66.6579 164.53 67.0429 164.782 67.4659 164.952C67.889 165.122 68.3416 165.207 68.7975 165.2Z" fill="black"/>
<path d="M48.9437 172.844C48.9469 173.401 48.7845 173.945 48.4773 174.409C48.17 174.874 47.7318 175.236 47.2183 175.45C46.7047 175.665 46.139 175.721 45.593 175.614C45.0471 175.506 44.5454 175.238 44.1519 174.845C43.7584 174.451 43.4908 173.95 43.3829 173.404C43.2751 172.858 43.3321 172.292 43.5465 171.778C43.7609 171.265 44.1231 170.827 44.5872 170.519C45.0512 170.212 45.5961 170.05 46.1526 170.053C46.8916 170.057 47.5991 170.352 48.1216 170.875C48.6442 171.397 48.9396 172.105 48.9437 172.844ZM42.061 172.844C42.061 173.653 42.301 174.444 42.7506 175.117C43.2002 175.79 43.8392 176.314 44.5868 176.624C45.3345 176.934 46.1571 177.015 46.9508 176.857C47.7445 176.699 48.4735 176.309 49.0458 175.737C49.618 175.165 50.0076 174.436 50.1655 173.642C50.3234 172.849 50.2424 172.026 49.9327 171.278C49.623 170.531 49.0986 169.892 48.4257 169.442C47.7529 168.992 46.9618 168.752 46.1526 168.752C45.0687 168.757 44.0305 169.189 43.264 169.956C42.4976 170.722 42.0652 171.76 42.061 172.844Z" fill="black"/>
<path d="M67.9881 204.324C67.9851 203.65 68.2259 202.998 68.666 202.488C69.1062 201.978 69.7159 201.644 70.3828 201.548L70.3828 200.185C69.4785 200.254 68.623 200.623 67.9519 201.233C67.2809 201.843 66.8325 202.66 66.6778 203.553C66.523 204.447 66.6708 205.367 67.0978 206.167C67.5247 206.967 68.2064 207.602 69.0348 207.971L70.3828 207.971L70.3828 207.036C69.7073 206.95 69.0862 206.621 68.6364 206.11C68.1866 205.599 67.9391 204.941 67.9406 204.26" fill="black"/>
<path d="M68 145L69 145L69 134L68 134L68 145Z" fill="black"/>
<path d="M65.1727 145L67 142.714L65.5136 140.853L67 139.008L65.5136 137.147L67 135.286L65.1727 133L64.3545 133.867L65.4864 135.286L64 137.147L65.4864 139.008L64 140.853L65.4864 142.714L64.3545 144.133L65.1727 145Z" fill="black"/>
<path d="M37.0808 155.78C36.7901 155.923 36.527 156.117 36.3037 156.351C36.0341 156.621 35.9548 156.668 35.7645 156.653C35.5742 156.637 35.3839 156.446 35.1143 156.161C34.7285 155.636 34.1648 155.27 33.5284 155.13L33.2906 156.415C33.6302 156.516 33.9261 156.728 34.1311 157.017C34.4814 157.492 34.9957 157.82 35.5742 157.937C35.8728 157.964 36.1734 157.917 36.4498 157.801C36.7262 157.685 36.97 157.503 37.1601 157.271C37.2686 157.149 37.3974 157.048 37.5407 156.97C38.175 156.7 38.3178 156.827 38.6984 157.176C39.1177 157.615 39.68 157.891 40.2843 157.953C40.6176 157.967 40.9499 157.905 41.2551 157.77C41.5604 157.635 41.8305 157.432 42.0446 157.176C42.4093 156.827 42.5045 156.748 42.9802 156.954L43.3926 157.255C44.1855 157.858 45.1687 158.587 45.9934 158.238C46.2014 158.144 46.3785 157.992 46.5047 157.802C46.6308 157.611 46.701 157.389 46.707 157.16L45.4225 157.002C44.9757 156.786 44.5553 156.52 44.1696 156.209C43.9682 156.039 43.7504 155.891 43.5194 155.765C43.1342 155.546 42.6832 155.474 42.2492 155.562C41.8151 155.649 41.4272 155.89 41.1565 156.24C40.8393 156.526 40.6807 156.668 40.3635 156.653C40.0299 156.614 39.7235 156.45 39.5072 156.193C39.2008 155.872 38.7993 155.659 38.3623 155.585C37.9252 155.511 37.4758 155.579 37.0808 155.78Z" fill="black"/>
<path d="M54.7424 201.268L51.54 206.763L48.3377 201.268L54.7424 201.268ZM57 200L46 200L50.8035 208L52.4047 208L57 200Z" fill="black"/>
<path d="M49.6387 144.742L43.7395 141.54L49.6387 138.338L49.6387 144.742ZM51 136L41 141.508L51 147L51 136Z" fill="black"/>
<path d="M26.338 187.308L36.662 187.308L36.662 190.034L35.3901 188.902L33.4409 190.624L31.5083 188.902L29.5591 190.624L27.6099 188.902L26.338 190.034L26.338 187.308ZM25 193L27.6099 190.672L29.5591 192.394L31.5083 190.672L33.4409 192.394L35.3901 190.672L38 193L38 186L25 186L25 193Z" fill="black"/>
<path d="M18.0488 207.163C17.8902 206.607 17.8268 206.338 17.9537 206.227C18.0805 206.116 18.4294 206.306 18.7466 206.449C19.2054 206.745 19.7489 206.882 20.2934 206.839C20.8379 206.796 21.3531 206.576 21.7598 206.211L20.8717 205.275C20.4276 205.704 20.0629 205.608 19.2858 205.275C18.8995 205.084 18.4791 204.971 18.0488 204.942C17.718 204.945 17.3985 205.063 17.1449 205.275C16.3361 205.941 16.6533 206.861 16.8594 207.575C16.8594 207.718 16.9546 207.908 16.9863 208.066L18.3026 208.066C18.2625 207.768 18.188 207.475 18.0805 207.194" fill="black"/>
<path d="M15.7969 208.019C15.3341 207.685 14.7817 207.497 14.211 207.48C13.7345 207.503 13.2831 207.701 12.9423 208.035L15.7969 208.035" fill="black"/>
</svg>
