<svg width="77" height="315" viewBox="0 0 77 315" fill="none" xmlns="http://www.w3.org/2000/svg">
<path d="M0.0390625 260.401L0.0390625 260.521L0.934507 261.029L2.9125 257.54L1.9636 257.006L0.0390625 260.401Z" fill="#21150B"/>
<path d="M23.3625 210.018L21.3906 213.509L22.3332 214.041L24.3051 210.55L23.3625 210.018Z" fill="#21150B"/>
<path d="M28.32 271.293L27.7854 270.344L24.3105 272.349L24.4977 272.67H25.9411L28.32 271.293Z" fill="#21150B"/>
<path d="M22.6808 259.799L24.0975 262.846L26.5032 261.951L26.1156 260.922L24.6588 261.47L23.162 258.236L16.4796 262.205L15.0762 260.815L14.3145 261.577L16.3058 263.568L22.6808 259.799Z" fill="#21150B"/>
<path d="M22.8666 234.192L22.8666 233.096C22.4683 233.069 22.0687 233.124 21.6926 233.258C21.3165 233.392 20.9719 233.602 20.6802 233.874C20.3885 234.147 20.1559 234.477 19.9969 234.843C19.8379 235.209 19.7559 235.604 19.7559 236.003C19.7559 236.402 19.8379 236.797 19.9969 237.164C20.1559 237.53 20.3885 237.859 20.6802 238.132C20.9719 238.404 21.3165 238.614 21.6926 238.748C22.0687 238.882 22.4683 238.937 22.8666 238.91L22.8666 237.854C22.3845 237.854 21.9222 237.663 21.5814 237.322C21.2405 236.981 21.049 236.519 21.049 236.037C21.049 235.554 21.2405 235.092 21.5814 234.751C21.9222 234.41 22.3845 234.219 22.8666 234.219" fill="#21150B"/>
<path d="M11.5878 224.088C12.0563 224.086 12.5149 224.222 12.9057 224.48C13.2965 224.739 13.6018 225.107 13.7828 225.539C13.9639 225.971 14.0127 226.447 13.9229 226.907C13.8332 227.367 13.6089 227.79 13.2786 228.122C12.9484 228.454 12.5269 228.68 12.0676 228.773C11.6084 228.865 11.1321 228.819 10.699 228.641C10.266 228.462 9.89577 228.159 9.63524 227.769C9.37471 227.38 9.23563 226.922 9.23562 226.454C9.23561 225.829 9.48301 225.229 9.92375 224.786C10.3645 224.342 10.9628 224.092 11.5878 224.088ZM11.5878 229.902C12.268 229.894 12.9307 229.685 13.4925 229.301C14.0542 228.918 14.4899 228.376 14.7448 227.746C14.9996 227.115 15.0622 226.423 14.9247 225.757C14.7871 225.091 14.4556 224.48 13.9718 224.002C13.488 223.524 12.8736 223.199 12.2058 223.069C11.5381 222.939 10.8468 223.01 10.2191 223.272C9.59137 223.534 9.0552 223.976 8.67806 224.542C8.30091 225.108 8.09966 225.774 8.09961 226.454C8.09961 227.368 8.46289 228.245 9.10954 228.892C9.75619 229.539 10.6332 229.902 11.5477 229.902" fill="#21150B"/>
<path d="M4.55657 212.087C4.83778 212.119 5.09597 212.258 5.27828 212.474C5.53735 212.769 5.8899 212.966 6.2768 213.032C6.6637 213.097 7.06143 213.028 7.40329 212.835C7.65252 212.722 7.87552 212.558 8.05816 212.354C8.29873 212.127 8.36555 212.087 8.52593 212.1C8.68631 212.113 8.83332 212.274 9.06053 212.514C9.38815 212.954 9.86216 213.262 10.397 213.383L10.6108 212.314C10.3227 212.225 10.0731 212.041 9.90251 211.793C9.60496 211.389 9.16583 211.112 8.67295 211.018C8.42152 210.997 8.16894 211.038 7.93639 211.136C7.70384 211.233 7.49811 211.385 7.33646 211.579C7.2523 211.684 7.14771 211.77 7.02907 211.833C6.48111 212.06 6.37419 211.966 6.05344 211.659C5.69796 211.292 5.22519 211.06 4.71695 211.004C4.43586 210.991 4.15556 211.043 3.89813 211.157C3.64069 211.271 3.41316 211.443 3.23346 211.659C2.9127 211.953 2.84588 212.02 2.44493 211.846L2.08408 211.592C1.49603 211.151 0.747595 210.603 0.132813 210.697L0.132813 211.779H0.373379C0.753101 211.962 1.11163 212.187 1.44257 212.448C1.61051 212.586 1.78928 212.712 1.97716 212.822C2.30381 213.007 2.68606 213.068 3.05412 212.994C3.42218 212.921 3.75148 212.717 3.98189 212.421C4.23582 212.18 4.36947 212.06 4.65013 212.073" fill="#21150B"/>
<path d="M1.1359 241.529C1.09978 241.251 0.9987 240.985 0.840833 240.753C0.682966 240.521 0.47273 240.329 0.227092 240.193L0.0800781 240.139L0.0800781 241.61C0.104209 241.692 0.104209 241.781 0.0800781 241.863L0.0800781 243.761C0.406126 243.49 0.672007 243.154 0.860716 242.774C1.04943 242.395 1.15681 241.98 1.176 241.556" fill="#21150B"/>
<path d="M15.4355 272.669H16.7186L16.0771 271.56L15.4355 272.669Z" fill="#21150B"/>
<path d="M13.4458 247.209L18.1369 249.882L13.4458 252.555L13.4458 247.209ZM12.3633 245.325L12.3633 254.507L20.3287 249.882L12.3633 245.325Z" fill="#21150B"/>
<path d="M33.396 250.126L32.7363 251.001L35.938 253.414L36.5977 252.539L33.396 250.126Z" fill="#21150B"/>
<path d="M35.944 202.343L35.4863 203.324L39.1198 205.019L39.5775 204.038L35.944 202.343Z" fill="#21150B"/>
<path d="M61.9205 231.154L58.1973 232.642L58.5989 233.647L62.3222 232.159L61.9205 231.154Z" fill="#21150B"/>
<path d="M58.4129 153.32L57.3652 153.593L58.3752 157.473L59.4229 157.2L58.4129 153.32Z" fill="#21150B"/>
<path d="M37.3814 232.629L33.6582 234.117L34.0599 235.122L37.7831 233.634L37.3814 232.629Z" fill="#21150B"/>
<path d="M68.7881 243.507H69.884C69.834 242.77 69.506 242.08 68.9664 241.576C68.4268 241.071 67.7157 240.791 66.9772 240.791C66.2386 240.791 65.5276 241.071 64.9879 241.576C64.4483 242.08 64.1203 242.77 64.0703 243.507H65.1662C65.1447 243.256 65.1755 243.004 65.2567 242.765C65.3379 242.527 65.4677 242.308 65.638 242.122C65.8083 241.937 66.0152 241.789 66.2457 241.687C66.4763 241.586 66.7253 241.534 66.9772 241.534C67.229 241.534 67.4781 241.586 67.7086 241.687C67.9391 241.789 68.1461 241.937 68.3163 242.122C68.4866 242.308 68.6165 242.527 68.6977 242.765C68.7789 243.004 68.8097 243.256 68.7881 243.507Z" fill="#21150B"/>
<path d="M55.6104 143.873H56.6929C56.6929 143.103 56.3874 142.366 55.8435 141.822C55.2996 141.278 54.5619 140.972 53.7927 140.972C53.0236 140.972 52.2859 141.278 51.742 141.822C51.1981 142.366 50.8926 143.103 50.8926 143.873H51.9751C51.9751 143.634 52.0221 143.398 52.1135 143.177C52.2048 142.956 52.3387 142.756 52.5075 142.587C52.6763 142.419 52.8767 142.285 53.0972 142.193C53.3177 142.102 53.5541 142.055 53.7927 142.055C54.0314 142.055 54.2678 142.102 54.4883 142.193C54.7088 142.285 54.9092 142.419 55.078 142.587C55.2468 142.756 55.3807 142.956 55.472 143.177C55.5634 143.398 55.6104 143.634 55.6104 143.873Z" fill="#21150B"/>
<path d="M32.8108 218.916C33.0489 218.916 33.2846 218.963 33.5044 219.055C33.7242 219.146 33.9237 219.28 34.0914 219.449C34.2591 219.618 34.3917 219.819 34.4816 220.039C34.5715 220.26 34.6169 220.496 34.6151 220.734H35.711C35.738 220.335 35.6829 219.936 35.5491 219.56C35.4152 219.184 35.2055 218.839 34.9329 218.547C34.6604 218.256 34.3307 218.023 33.9645 217.864C33.5984 217.705 33.2034 217.623 32.8042 217.623C32.4049 217.623 32.01 217.705 31.6438 217.864C31.2776 218.023 30.948 218.256 30.6754 218.547C30.4028 218.839 30.1931 219.184 30.0593 219.56C29.9254 219.936 29.8703 220.335 29.8973 220.734H30.9932C30.9932 220.252 31.1847 219.789 31.5256 219.449C31.8665 219.108 32.3288 218.916 32.8108 218.916Z" fill="#21150B"/>
<path d="M65.2742 205.284C65.7421 205.287 66.1986 205.428 66.5862 205.69C66.9737 205.952 67.2748 206.323 67.4514 206.757C67.628 207.19 67.6722 207.666 67.5783 208.124C67.4844 208.582 67.2568 209.003 66.9241 209.332C66.5914 209.661 66.1686 209.883 65.7092 209.972C65.2498 210.061 64.7745 210.011 64.3432 209.83C63.912 209.648 63.5443 209.343 63.2865 208.953C63.0288 208.562 62.8927 208.104 62.8953 207.636C62.8953 207.326 62.9566 207.019 63.0756 206.733C63.1947 206.447 63.3691 206.187 63.589 205.968C63.8088 205.75 64.0697 205.577 64.3566 205.459C64.6435 205.342 64.9508 205.282 65.2609 205.284M65.2609 211.084C65.9428 211.084 66.6095 210.882 67.1765 210.503C67.7436 210.124 68.1855 209.586 68.4465 208.956C68.7075 208.326 68.7758 207.632 68.6427 206.963C68.5097 206.295 68.1813 205.68 67.6991 205.198C67.2168 204.716 66.6024 204.387 65.9336 204.254C65.2647 204.121 64.5714 204.189 63.9413 204.45C63.3113 204.711 62.7727 205.153 62.3939 205.72C62.015 206.287 61.8127 206.954 61.8127 207.636C61.8074 208.093 61.8931 208.547 62.0649 208.971C62.2366 209.395 62.4909 209.78 62.8131 210.105C63.1352 210.43 63.5187 210.687 63.9412 210.862C64.3638 211.037 64.8169 211.126 65.2742 211.124" fill="#21150B"/>
<path d="M49.6114 192.24L40.1758 192.24L40.1758 193.323L49.6114 193.323V192.24Z" fill="#21150B"/>
<path d="M43.3157 189.874L44.8928 191.318L46.4565 189.874L48.0335 191.318L49.9848 189.527L49.2364 188.725L48.0335 189.847L46.4565 188.391L44.8928 189.847L43.3157 188.391L41.752 189.847L40.5492 188.725L39.8008 189.527L41.752 191.318L43.3157 189.874Z" fill="#21150B"/>
<path d="M72.9308 144.674C73.1801 144.561 73.4031 144.397 73.5857 144.193C73.8263 143.966 73.8931 143.926 74.0535 143.939C74.2138 143.953 74.3609 144.113 74.5881 144.354C74.9157 144.793 75.3897 145.102 75.9245 145.222L76.1384 144.153C75.8502 144.064 75.6006 143.881 75.43 143.632C75.1325 143.228 74.6934 142.951 74.2005 142.857C73.9491 142.837 73.6965 142.877 73.4639 142.975C73.2314 143.072 73.0256 143.225 72.864 143.418C72.7798 143.523 72.6752 143.609 72.5566 143.672C72.022 143.899 71.9017 143.806 71.581 143.498C71.2255 143.131 70.7527 142.899 70.2445 142.843C69.9634 142.83 69.6831 142.883 69.4257 142.996C69.1682 143.11 68.9407 143.282 68.761 143.498C68.4402 143.792 68.3734 143.859 67.9725 143.685L67.6116 143.432C66.9567 142.937 66.1281 142.309 65.4331 142.603C65.2554 142.681 65.1033 142.808 64.9945 142.969C64.8857 143.129 64.8247 143.318 64.8184 143.512L65.9009 143.645C66.2782 143.825 66.6326 144.05 66.9567 144.314C67.1311 144.45 67.3141 144.575 67.5047 144.688C67.8313 144.873 68.2136 144.934 68.5817 144.86C68.9497 144.787 69.279 144.583 69.5094 144.287C69.7634 144.046 69.897 143.926 70.1777 143.939C70.4589 143.972 70.7171 144.11 70.8994 144.327C71.1584 144.622 71.511 144.818 71.8979 144.884C72.2848 144.95 72.6825 144.881 73.0244 144.688" fill="#21150B"/>
<path d="M54.876 217.486C54.7739 217.234 54.6144 217.01 54.4102 216.832C54.2059 216.653 53.9627 216.525 53.6999 216.457C53.1993 216.339 52.6787 216.335 52.1765 216.446C51.6744 216.557 51.2038 216.78 50.7997 217.098C50.3405 217.431 49.8005 217.634 49.236 217.686C49.0623 217.686 48.942 217.686 48.9153 217.566C48.8885 217.446 48.8217 217.085 49.383 215.962L49.6102 215.548C50.078 214.706 50.9467 213.129 49.6102 212.127C49.2432 211.929 48.8362 211.816 48.4196 211.798C48.0031 211.779 47.5877 211.855 47.2046 212.02C46.9481 212.104 46.7176 212.253 46.535 212.452C46.3525 212.651 46.2241 212.893 46.1621 213.156L47.2447 213.343C47.2447 213.236 47.405 213.116 47.6189 213.022C48.0471 212.847 48.5271 212.847 48.9554 213.022C49.4766 213.396 49.2895 213.944 48.6881 215.027C48.5945 215.201 48.501 215.348 48.4341 215.495C47.9664 216.43 47.5921 217.406 47.9931 218.168C48.112 218.373 48.2836 218.544 48.4904 218.661C48.6971 218.779 48.9314 218.839 49.1692 218.836C49.9582 218.823 50.7238 218.566 51.361 218.101C52.0961 217.686 52.6975 217.326 53.3658 217.553C53.4746 217.573 53.5777 217.618 53.6677 217.682C53.7577 217.747 53.8326 217.83 53.887 217.927C54.034 218.328 53.5261 219.263 53.1252 219.892C52.497 220.974 51.7887 222.19 52.4703 223.153L53.3524 222.511C53.0717 222.137 53.6063 221.175 54.0607 220.44C54.5151 219.704 55.2368 218.448 54.9027 217.553" fill="#21150B"/>
<path d="M61.9855 170.268C62.6404 169.546 63.8566 168.223 62.7206 166.927C62.4082 166.648 62.0365 166.444 61.6335 166.331C61.2305 166.217 60.807 166.197 60.3951 166.272C60.1142 166.281 59.8411 166.366 59.6054 166.519C59.3698 166.673 59.1806 166.887 59.0586 167.141L60.061 167.555C60.061 167.461 60.2748 167.381 60.502 167.341C60.7331 167.299 60.9703 167.304 61.1997 167.354C61.4291 167.405 61.6462 167.5 61.8385 167.635C62.2662 168.116 61.9588 168.611 61.1301 169.533L60.7693 169.92C60.101 170.736 59.513 171.591 59.7402 172.366C59.8082 172.594 59.9356 172.8 60.1095 172.962C60.2833 173.124 60.4972 173.237 60.7292 173.288C61.5021 173.462 62.3098 173.392 63.0413 173.088C63.8566 172.847 64.5515 172.647 65.1129 173.008C65.3668 173.168 65.5138 173.342 65.5272 173.489C65.5272 173.917 64.899 174.652 64.3377 175.226C63.4824 176.135 62.5067 177.164 63.0012 178.247L64.0036 177.832C63.8298 177.405 64.5515 176.643 65.1797 175.975C65.8078 175.307 66.7835 174.304 66.6632 173.369C66.6271 173.09 66.526 172.824 66.3681 172.592C66.2103 172.36 66 172.168 65.7544 172.032C65.2918 171.808 64.7847 171.692 64.2709 171.692C63.7571 171.692 63.2499 171.808 62.7874 172.032C62.2655 172.256 61.6917 172.33 61.1301 172.246C60.9698 172.246 60.8628 172.126 60.8361 172.059C60.8094 171.992 60.8361 171.578 61.6647 170.602L61.9855 170.255" fill="#21150B"/>
<path d="M48.8476 272.135C48.9604 271.802 48.9789 271.445 48.9011 271.103C48.8232 270.761 48.6521 270.447 48.4066 270.197L47.6047 270.945C47.7124 271.045 47.7906 271.173 47.8307 271.314C47.8708 271.456 47.8712 271.605 47.8319 271.747C47.791 271.843 47.7215 271.924 47.6331 271.979C47.5446 272.034 47.4414 272.06 47.3374 272.054C47.0823 271.984 46.8391 271.876 46.6157 271.734C45.9876 271.373 44.8115 270.705 44.0898 271.907C43.9665 272.141 43.9153 272.406 43.9427 272.669H45.052C45.0351 272.604 45.0351 272.535 45.052 272.469C45.1723 272.268 45.2258 272.188 46.0811 272.669H48.5269C48.6745 272.514 48.7922 272.333 48.8744 272.135" fill="#21150B"/>
<path d="M48.4084 255.616L51.0813 260.307H45.7354L48.4084 255.616ZM48.4084 253.437L43.8242 261.456L53.0059 261.456L48.4084 253.437Z" fill="#21150B"/>
<path d="M45.7081 170.548L41.0304 167.875L45.7081 165.202L45.7081 170.548ZM46.8041 163.251L38.7852 167.849L46.8041 172.433L46.8041 163.251Z" fill="#21150B"/>
<path d="M47.7537 234.406L47.7537 242.759L45.5217 242.759L46.4706 241.73L45.0139 240.153L46.4706 238.589L45.0139 237.012L46.4706 235.435L45.5217 234.406L47.7537 234.406ZM48.8362 243.842L48.8362 233.323L42.9824 233.323L44.9337 235.435L43.4769 237.012L44.9337 238.589L43.4769 240.153L44.9337 241.73L42.9824 243.842L48.8362 243.842Z" fill="#21150B"/>
<path d="M7.13736 154.14L6.67969 155.121L10.3132 156.816L10.7709 155.835L7.13736 154.14Z" fill="#21150B"/>
<path d="M11.9988 202.65L11.1875 203.366L13.8421 206.371L14.6534 205.654L11.9988 202.65Z" fill="#21150B"/>
<path d="M24.498 136.348L24.8589 136.976L25.9414 136.348H24.498Z" fill="#21150B"/>
<path d="M1.41667 172.447C0.9216 172.446 0.434314 172.57 0 172.807L0 174.224C0.232466 173.929 0.551082 173.714 0.911461 173.609C1.27184 173.504 1.65603 173.514 2.01051 173.638C2.36499 173.761 2.67211 173.992 2.88907 174.299C3.10603 174.605 3.22204 174.971 3.22093 175.347L4.35694 175.347C4.35697 174.962 4.28065 174.582 4.1324 174.228C3.98416 173.873 3.76694 173.552 3.49337 173.282C3.2198 173.012 2.89534 172.799 2.53884 172.656C2.18233 172.512 1.80089 172.441 1.41667 172.447Z" fill="#21150B"/>
<path d="M18.1487 166.005C18.146 165.536 18.2828 165.077 18.5418 164.686C18.8007 164.294 19.17 163.989 19.6028 163.808C20.0356 163.628 20.5123 163.58 20.9724 163.671C21.4325 163.762 21.8553 163.987 22.1869 164.319C22.5185 164.65 22.7441 165.073 22.835 165.533C22.9258 165.993 22.8778 166.47 22.6971 166.903C22.5164 167.336 22.2112 167.705 21.8201 167.964C21.4291 168.223 20.9699 168.36 20.5009 168.357C19.8781 168.353 19.2818 168.105 18.8415 167.664C18.4011 167.224 18.1522 166.628 18.1487 166.005ZM23.949 166.005C23.949 165.323 23.7468 164.656 23.3679 164.089C22.989 163.522 22.4505 163.08 21.8204 162.819C21.1903 162.558 20.497 162.49 19.8282 162.623C19.1593 162.756 18.5449 163.084 18.0627 163.567C17.5804 164.049 17.252 164.663 17.119 165.332C16.9859 166.001 17.0542 166.694 17.3152 167.324C17.5762 167.954 18.0181 168.493 18.5852 168.872C19.1522 169.251 19.8189 169.453 20.5009 169.453C21.4143 169.449 22.2893 169.085 22.9352 168.439C23.5811 167.793 23.9455 166.918 23.949 166.005Z" fill="#21150B"/>
<path d="M2.09817 139.476C2.1007 140.043 1.89779 140.593 1.52687 141.023C1.15596 141.453 0.642088 141.734 0.0800781 141.814L0.0800781 142.964C0.842212 142.905 1.56312 142.595 2.12868 142.08C2.69423 141.566 3.07211 140.878 3.2025 140.125C3.33288 139.372 3.20832 138.597 2.84852 137.922C2.48873 137.248 1.91427 136.713 1.21609 136.402H0.0800781L0.0800781 137.19C0.64822 137.265 1.17003 137.543 1.54857 137.973C1.92711 138.403 2.13665 138.956 2.13826 139.529" fill="#21150B"/>
<path d="M1.99076 189.527H0.908203L0.908203 198.963H1.99076L1.99076 189.527Z" fill="#21150B"/>
<path d="M4.70495 189.166L2.91406 191.104L4.37083 192.681L2.91406 194.245L4.37083 195.822L2.91406 197.399L4.70495 199.337L5.50684 198.602L4.39756 197.399L5.85433 195.822L4.39756 194.245L5.85433 192.681L4.39756 191.104L5.50684 189.901L4.70495 189.166Z" fill="#21150B"/>
<path d="M28.1476 180.385C28.3926 180.265 28.6143 180.102 28.8025 179.904C29.0297 179.677 29.0965 179.637 29.2569 179.65C29.4173 179.664 29.5777 179.824 29.8049 180.064C30.13 180.507 30.6051 180.816 31.1413 180.933L31.3418 179.851C31.0556 179.765 30.8062 179.586 30.6335 179.343C30.3383 178.942 29.9048 178.666 29.4173 178.568C29.1656 178.545 28.9123 178.585 28.6794 178.682C28.4465 178.78 28.241 178.934 28.0808 179.129C27.9893 179.231 27.8808 179.317 27.76 179.383C27.2254 179.61 27.1052 179.503 26.7844 179.209C26.431 178.839 25.9571 178.607 25.4479 178.554C25.167 178.542 24.887 178.595 24.6297 178.708C24.3724 178.822 24.1448 178.993 23.9644 179.209C23.657 179.503 23.5768 179.57 23.1759 179.396L22.8284 179.142C22.1602 178.634 21.3315 178.02 20.6366 178.314C20.4613 178.394 20.312 178.521 20.2057 178.682C20.0994 178.843 20.0403 179.03 20.0352 179.222L21.1177 179.356C21.4942 179.537 21.8485 179.762 22.1735 180.024C22.3433 180.167 22.5269 180.292 22.7215 180.399C23.0461 180.583 23.4262 180.643 23.792 180.57C24.1578 180.496 24.4847 180.293 24.7129 179.998C24.9801 179.757 25.1138 179.637 25.3811 179.65C25.6623 179.683 25.9205 179.821 26.1028 180.038C26.361 180.308 26.6993 180.487 27.0677 180.55C27.436 180.613 27.8147 180.555 28.1476 180.385Z" fill="#21150B"/>
<path d="M13.445 142.095L16.118 137.404L18.7909 142.095L13.445 142.095ZM11.5605 143.178L20.7422 143.178L16.7327 136.348L15.3963 136.348L11.5605 143.178Z" fill="#21150B"/>
<path d="M17.8814 189.995L22.5724 192.668L17.8814 195.34L17.8814 189.995ZM16.7988 197.292L24.7509 192.694L16.7988 188.11L16.7988 197.292Z" fill="#21150B"/>
<path d="M36.9805 154.057L28.6275 154.057L28.6275 151.771L29.6566 152.72L31.2336 151.277L32.7973 152.72L34.3744 151.277L35.9514 152.72L36.9805 151.771L36.9805 154.057ZM38.063 149.286L35.9514 151.237L34.3744 149.794L32.7973 151.237L31.2336 149.794L29.6566 151.237L27.5449 149.286L27.5449 155.153L38.063 155.153L38.063 149.286Z" fill="#21150B"/>
<path d="M44.184 137.083C44.3177 137.551 44.3711 137.778 44.2642 137.872C44.1573 137.965 43.8633 137.872 43.596 137.685C43.2093 137.435 42.7513 137.319 42.2924 137.355C41.8335 137.392 41.3993 137.578 41.0566 137.885L41.8051 138.674C42.1793 138.313 42.4867 138.393 43.1416 138.674C43.4671 138.835 43.8214 138.93 44.184 138.954C44.4628 138.952 44.7321 138.853 44.9458 138.674C45.6274 138.112 45.3601 137.337 45.1864 136.736C45.1864 136.615 45.1062 136.455 45.0795 136.321L43.9702 136.321C44.004 136.573 44.0668 136.819 44.1573 137.056" fill="#21150B"/>
<path d="M46.082 136.362C46.4721 136.643 46.9376 136.801 47.4185 136.816C47.8201 136.796 48.2005 136.63 48.4877 136.348H46.082" fill="#21150B"/>
<path d="M0.0390625 124.079L0.0390625 124.2L0.934507 124.707L2.9125 121.219L1.9636 120.685L0.0390625 124.079Z" fill="#21150B"/>
<path d="M23.3606 73.7033L21.3887 77.1943L22.3313 77.7268L24.3032 74.2357L23.3606 73.7033Z" fill="#21150B"/>
<path d="M28.32 134.971L27.7854 134.022L24.3105 136.041L24.4977 136.348H25.9411L28.32 134.971Z" fill="#21150B"/>
<path d="M22.6808 123.464L24.0975 126.525L26.5032 125.629L26.1156 124.6L24.6588 125.148L23.162 121.914L16.4796 125.883L15.0762 124.493L14.3145 125.255L16.3058 127.246L22.6808 123.464Z" fill="#21150B"/>
<path d="M22.8666 97.8707L22.8666 96.7747C22.4683 96.7477 22.0687 96.8028 21.6926 96.9367C21.3165 97.0705 20.9719 97.2803 20.6802 97.5528C20.3885 97.8254 20.1559 98.155 19.9969 98.5212C19.8379 98.8874 19.7559 99.2824 19.7559 99.6816C19.7559 100.081 19.8379 100.476 19.9969 100.842C20.1559 101.208 20.3885 101.538 20.6802 101.81C20.9719 102.083 21.3165 102.293 21.6926 102.427C22.0687 102.56 22.4683 102.615 22.8666 102.588L22.8666 101.533C22.3845 101.533 21.9222 101.341 21.5814 101C21.2405 100.659 21.049 100.197 21.049 99.715C21.049 99.2329 21.2405 98.7706 21.5814 98.4298C21.9222 98.0889 22.3845 97.8974 22.8666 97.8974" fill="#21150B"/>
<path d="M11.5878 87.7669C12.0563 87.7642 12.5149 87.9007 12.9057 88.159C13.2965 88.4174 13.6018 88.7859 13.7828 89.2179C13.9639 89.6499 14.0127 90.126 13.9229 90.5857C13.8332 91.0455 13.6089 91.4682 13.2786 91.8004C12.9484 92.1326 12.5269 92.3592 12.0676 92.4516C11.6084 92.5439 11.1321 92.4979 10.699 92.3192C10.266 92.1406 9.89577 91.8374 9.63524 91.4481C9.37471 91.0588 9.23563 90.6009 9.23562 90.1325C9.23561 89.5074 9.48301 88.9077 9.92375 88.4645C10.3645 88.0212 10.9628 87.7704 11.5878 87.7669ZM11.5878 93.5806C12.268 93.5727 12.9307 93.3638 13.4925 92.9801C14.0542 92.5964 14.4899 92.0552 14.7448 91.4245C14.9996 90.7937 15.0622 90.1017 14.9247 89.4355C14.7871 88.7693 14.4556 88.1587 13.9718 87.6805C13.488 87.2022 12.8736 86.8778 12.2058 86.748C11.5381 86.6181 10.8468 86.6887 10.2191 86.9508C9.59137 87.2129 9.0552 87.6549 8.67806 88.221C8.30091 88.7872 8.09966 89.4522 8.09961 90.1325C8.09961 91.047 8.46289 91.924 9.10954 92.5707C9.75619 93.2173 10.6332 93.5806 11.5477 93.5806" fill="#21150B"/>
<path d="M4.5573 75.7652C4.83851 75.7976 5.0967 75.9362 5.279 76.1528C5.53808 76.4475 5.89063 76.6443 6.27753 76.71C6.66443 76.7757 7.06215 76.7063 7.40401 76.5136C7.65325 76.4003 7.87625 76.2365 8.05889 76.0325C8.29945 75.8053 8.36628 75.7652 8.52666 75.7786C8.68703 75.7919 8.83405 75.9523 9.06125 76.1929C9.38888 76.6326 9.86289 76.9407 10.3977 77.0616L10.6116 75.9924C10.3234 75.9035 10.0738 75.7198 9.90324 75.4712C9.60569 75.0671 9.16655 74.7902 8.67367 74.696C8.42225 74.6759 8.16966 74.7163 7.93711 74.814C7.70456 74.9117 7.49883 75.0637 7.33719 75.2573C7.25302 75.362 7.14843 75.4484 7.02979 75.5113C6.48184 75.7385 6.37492 75.6449 6.05416 75.3375C5.69868 74.97 5.22592 74.7384 4.71768 74.6826C4.43658 74.6695 4.15628 74.7218 3.89885 74.8355C3.64142 74.9491 3.41389 75.121 3.23418 75.3375C2.91342 75.6315 2.8466 75.6984 2.44565 75.5246L2.0848 75.2707C1.41656 74.8029 0.681496 74.2817 0.0800781 74.3752L0.0800781 75.4578H0.320645C0.710276 75.6433 1.07788 75.872 1.41656 76.1394C1.58451 76.2782 1.76327 76.4033 1.95116 76.5136C2.2778 76.6985 2.66006 76.7598 3.02812 76.6862C3.39618 76.6125 3.72548 76.409 3.95588 76.1127C4.20981 75.8721 4.34346 75.7518 4.62412 75.7652" fill="#21150B"/>
<path d="M1.1359 105.208C1.09978 104.93 0.9987 104.664 0.840833 104.431C0.682966 104.199 0.47273 104.008 0.227092 103.872L0.0800781 103.818L0.0800781 105.288C0.104209 105.371 0.104209 105.459 0.0800781 105.542L0.0800781 107.413C0.406126 107.142 0.672007 106.806 0.860716 106.426C1.04943 106.047 1.15681 105.632 1.176 105.208" fill="#21150B"/>
<path d="M15.4355 136.348H16.7186L16.0771 135.239L15.4355 136.348Z" fill="#21150B"/>
<path d="M13.4458 110.888L18.1369 113.561L13.4458 116.234L13.4458 110.888ZM12.3633 109.004L12.3633 118.185L20.3287 113.561L12.3633 109.004Z" fill="#21150B"/>
<path d="M33.396 113.805L32.7363 114.68L35.938 117.094L36.5977 116.219L33.396 113.805Z" fill="#21150B"/>
<path d="M35.9479 66.0038L35.4902 66.9849L39.1237 68.68L39.5814 67.6989L35.9479 66.0038Z" fill="#21150B"/>
<path d="M61.9264 94.8341L58.2031 96.3218L58.6048 97.327L62.328 95.8394L61.9264 94.8341Z" fill="#21150B"/>
<path d="M58.4207 16.9978L57.373 17.2705L58.383 21.1507L59.4307 20.878L58.4207 16.9978Z" fill="#21150B"/>
<path d="M37.3873 96.3092L33.6641 97.7969L34.0657 98.8021L37.789 97.3145L37.3873 96.3092Z" fill="#21150B"/>
<path d="M68.7881 107.186H69.884C69.834 106.449 69.506 105.759 68.9664 105.254C68.4268 104.75 67.7157 104.469 66.9772 104.469C66.2386 104.469 65.5276 104.75 64.9879 105.254C64.4483 105.759 64.1203 106.449 64.0703 107.186H65.1662C65.1447 106.935 65.1755 106.682 65.2567 106.444C65.3379 106.206 65.4677 105.987 65.638 105.801C65.8083 105.616 66.0152 105.467 66.2457 105.366C66.4763 105.265 66.7253 105.212 66.9772 105.212C67.229 105.212 67.4781 105.265 67.7086 105.366C67.9391 105.467 68.1461 105.616 68.3163 105.801C68.4866 105.987 68.6165 106.206 68.6977 106.444C68.7789 106.682 68.8097 106.935 68.7881 107.186Z" fill="#21150B"/>
<path d="M55.6104 7.55105L56.6929 7.55105C56.6929 6.78188 56.3874 6.04421 55.8435 5.50032C55.2996 4.95643 54.5619 4.65088 53.7927 4.65088C53.0236 4.65088 52.2859 4.95643 51.742 5.50032C51.1981 6.04421 50.8926 6.78188 50.8926 7.55105L51.9751 7.55105C51.9751 7.06899 52.1666 6.60667 52.5075 6.2658C52.8484 5.92493 53.3107 5.73343 53.7927 5.73343C54.2748 5.73343 54.7371 5.92493 55.078 6.2658C55.4189 6.60667 55.6104 7.06899 55.6104 7.55105Z" fill="#21150B"/>
<path d="M32.8108 82.5949C33.0489 82.5949 33.2846 82.642 33.5044 82.7335C33.7242 82.825 33.9237 82.9591 34.0914 83.1281C34.2591 83.297 34.3917 83.4975 34.4816 83.7179C34.5715 83.9384 34.6169 84.1744 34.6151 84.4125H35.711C35.738 84.0142 35.6829 83.6146 35.5491 83.2385C35.4152 82.8623 35.2055 82.5177 34.9329 82.2261C34.6604 81.9344 34.3307 81.7018 33.9645 81.5428C33.5984 81.3838 33.2034 81.3018 32.8042 81.3018C32.4049 81.3018 32.01 81.3838 31.6438 81.5428C31.2776 81.7018 30.948 81.9344 30.6754 82.2261C30.4028 82.5177 30.1931 82.8623 30.0593 83.2385C29.9254 83.6146 29.8703 84.0142 29.8973 84.4125H30.9932C30.9932 83.9304 31.1847 83.4681 31.5256 83.1273C31.8665 82.7864 32.3288 82.5949 32.8108 82.5949Z" fill="#21150B"/>
<path d="M65.2742 68.9626C65.7421 68.9653 66.1986 69.1066 66.5862 69.3687C66.9737 69.6309 67.2748 70.002 67.4514 70.4353C67.628 70.8685 67.6722 71.3444 67.5783 71.8028C67.4844 72.2611 67.2568 72.6813 66.9241 73.0103C66.5914 73.3392 66.1686 73.5622 65.7092 73.6508C65.2498 73.7395 64.7745 73.69 64.3432 73.5085C63.912 73.327 63.5443 73.0218 63.2865 72.6313C63.0288 72.2408 62.8927 71.7827 62.8953 71.3148C62.8953 71.0048 62.9566 70.6978 63.0756 70.4116C63.1947 70.1253 63.3691 69.8654 63.589 69.6468C63.8088 69.4282 64.0697 69.2552 64.3566 69.1378C64.6435 69.0204 64.9508 68.9609 65.2609 68.9626M65.2609 74.763C65.9428 74.763 66.6095 74.5607 67.1765 74.1818C67.7436 73.803 68.1855 73.2644 68.4465 72.6344C68.7075 72.0043 68.7758 71.311 68.6427 70.6421C68.5097 69.9733 68.1813 69.3589 67.6991 68.8766C67.2168 68.3944 66.6024 68.066 65.9336 67.933C65.2647 67.7999 64.5714 67.8682 63.9413 68.1292C63.3113 68.3902 62.7727 68.8321 62.3939 69.3992C62.015 69.9662 61.8127 70.6329 61.8127 71.3148C61.8074 71.7721 61.8931 72.2259 62.0649 72.6498C62.2366 73.0737 62.4909 73.4591 62.8131 73.7837C63.1352 74.1084 63.5187 74.3657 63.9412 74.5407C64.3638 74.7157 64.8169 74.8049 65.2742 74.8031" fill="#21150B"/>
<path d="M49.6114 55.9321L40.1758 55.9321L40.1758 57.0147L49.6114 57.0147V55.9321Z" fill="#21150B"/>
<path d="M43.3157 53.5528L44.8928 54.9962L46.4565 53.5528L48.0335 54.9962L49.9848 53.2054L49.2364 52.4168L48.0335 53.5261L46.4565 52.0693L44.8928 53.5261L43.3157 52.0693L41.752 53.5261L40.5492 52.4168L39.8008 53.2054L41.752 54.9962L43.3157 53.5528Z" fill="#21150B"/>
<path d="M72.9306 8.35284C73.1799 8.23952 73.4029 8.07568 73.5855 7.87171C73.8261 7.6445 73.8929 7.60441 74.0533 7.61777C74.2136 7.63114 74.3607 7.79152 74.5879 8.03208C74.9155 8.47179 75.3895 8.7799 75.9243 8.9008L76.1382 7.83161C75.85 7.74275 75.6004 7.55906 75.4298 7.31038C75.1323 6.9063 74.6932 6.62946 74.2003 6.53522C73.9489 6.51509 73.6963 6.55556 73.4637 6.65323C73.2312 6.7509 73.0254 6.90292 72.8638 7.09655C72.7796 7.20118 72.675 7.28758 72.5564 7.35048C72.0218 7.57768 71.9015 7.48413 71.5808 7.17673C71.2253 6.80924 70.7525 6.57759 70.2443 6.52186C69.9632 6.50873 69.6829 6.56105 69.4255 6.67469C69.168 6.78833 68.9405 6.96019 68.7608 7.17673C68.44 7.47076 68.3732 7.53759 67.9723 7.36384L67.6114 7.10991C66.9031 6.64214 66.0344 5.98726 65.3394 6.28129C65.1616 6.35935 65.0096 6.48611 64.9008 6.64693C64.792 6.80774 64.7309 6.99605 64.7246 7.1901L65.8072 7.32375C66.1977 7.49667 66.5658 7.71658 66.9031 7.97863C67.0774 8.11511 67.2605 8.24012 67.451 8.35284C67.7777 8.53774 68.1599 8.59898 68.528 8.52537C68.8961 8.45176 69.2254 8.24821 69.4558 7.9519C69.7097 7.71133 69.8433 7.59104 70.124 7.60441C70.4052 7.63679 70.6634 7.77545 70.8457 7.99199C71.1048 8.28675 71.4573 8.48348 71.8442 8.54918C72.2311 8.61488 72.6289 8.54556 72.9707 8.35284" fill="#21150B"/>
<path d="M54.876 81.1646C54.7739 80.9131 54.6144 80.6891 54.4102 80.5103C54.2059 80.3316 53.9627 80.2033 53.6999 80.1355C53.1993 80.0176 52.6787 80.0141 52.1765 80.1251C51.6744 80.2362 51.2038 80.459 50.7997 80.777C50.3405 81.1094 49.8005 81.3125 49.236 81.3651C49.0623 81.3651 48.942 81.3651 48.9153 81.2448C48.8885 81.1245 48.8217 80.7636 49.383 79.641L49.6102 79.2267C50.078 78.3847 50.9467 76.8077 49.6102 75.8053C49.2432 75.6073 48.8362 75.4949 48.4196 75.4764C48.0031 75.4578 47.5877 75.5337 47.2046 75.6984C46.9481 75.7827 46.7176 75.9314 46.535 76.1303C46.3525 76.3292 46.2241 76.5716 46.1621 76.8344L47.2447 77.0215C47.2447 76.9146 47.405 76.7943 47.6189 76.7007C48.0471 76.5255 48.5271 76.5255 48.9554 76.7007C49.4766 77.0749 49.2895 77.6229 48.6881 78.7055C48.5945 78.8792 48.501 79.0262 48.4341 79.1732C47.9664 80.1088 47.5921 81.0844 47.9931 81.8462C48.112 82.0521 48.2836 82.2226 48.4904 82.3401C48.6971 82.4576 48.9314 82.5178 49.1692 82.5144C49.9582 82.5015 50.7238 82.2448 51.361 81.7794C52.0961 81.3651 52.6975 81.0042 53.3658 81.2314C53.4746 81.2521 53.5777 81.2963 53.6677 81.361C53.7577 81.4256 53.8326 81.5091 53.887 81.6056C54.034 82.0066 53.5261 82.9421 53.1252 83.5703C52.497 84.6528 51.7887 85.869 52.4703 86.8313L53.3524 86.1898C53.0717 85.8156 53.6063 84.8533 54.0607 84.1182C54.6354 83.1292 55.2368 82.1269 54.9027 81.2314" fill="#21150B"/>
<path d="M61.9855 33.9464C62.6404 33.2247 63.8566 31.9016 62.7206 30.6052C62.4082 30.3264 62.0365 30.1226 61.6335 30.0091C61.2305 29.8956 60.807 29.8755 60.3951 29.9503C60.1142 29.9591 59.8411 30.0447 59.6054 30.1979C59.3698 30.3511 59.1806 30.5659 59.0586 30.8191L60.061 31.2334C60.061 31.1398 60.2748 31.0596 60.502 31.0195C60.7331 30.9778 60.9703 30.9823 61.1997 31.0328C61.4291 31.0832 61.6462 31.1787 61.8385 31.3136C62.2662 31.7947 61.9588 32.2892 61.1301 33.2114L60.7693 33.5989C60.101 34.4142 59.513 35.2696 59.7402 36.0447C59.8082 36.2725 59.9356 36.478 60.1095 36.6401C60.2833 36.8022 60.4972 36.915 60.7292 36.9669C61.5021 37.1404 62.3098 37.0704 63.0413 36.7664C63.8566 36.5258 64.5515 36.3254 65.1129 36.6862C65.3668 36.8466 65.5138 37.0203 65.5272 37.1674C65.5272 37.595 64.899 38.3301 64.3377 38.9048C63.4824 39.8136 62.5067 40.8427 63.0012 41.9252L64.0036 41.5109C63.8298 41.0833 64.5515 40.3215 65.1797 39.6532C65.8078 38.985 66.7835 37.9826 66.6632 37.0471C66.6271 36.7687 66.526 36.5026 66.3681 36.2705C66.2103 36.0383 66 35.8465 65.7544 35.7106C65.2918 35.4869 64.7847 35.3708 64.2709 35.3708C63.7571 35.3708 63.2499 35.4869 62.7874 35.7106C62.2655 35.9342 61.6917 36.0083 61.1301 35.9244C60.9698 35.9244 60.8628 35.8041 60.8361 35.7373C60.8094 35.6705 60.8361 35.2562 61.6647 34.2806L61.9855 33.9331" fill="#21150B"/>
<path d="M48.8476 135.813C48.9604 135.481 48.9789 135.124 48.9011 134.782C48.8232 134.44 48.6521 134.126 48.4066 133.875L47.6047 134.624C47.7124 134.724 47.7906 134.852 47.8307 134.993C47.8708 135.134 47.8712 135.284 47.8319 135.426C47.791 135.522 47.7215 135.602 47.6331 135.657C47.5446 135.712 47.4414 135.739 47.3374 135.733C47.0823 135.663 46.8391 135.555 46.6157 135.412C45.9876 135.052 44.8115 134.383 44.0898 135.586C43.9665 135.82 43.9153 136.085 43.9427 136.348H45.052C45.0351 136.282 45.0351 136.213 45.052 136.148C45.1723 135.947 45.2258 135.867 46.0811 136.348L48.5269 136.348C48.6745 136.193 48.7922 136.011 48.8744 135.813" fill="#21150B"/>
<path d="M48.4084 119.294L51.0813 123.985L45.7354 123.985L48.4084 119.294ZM48.4084 117.116L43.8242 125.135L53.0059 125.135L48.4084 117.116Z" fill="#21150B"/>
<path d="M45.7074 34.2274L41.0297 31.5544L45.7074 28.8814L45.7074 34.2274ZM46.8568 26.9302L38.8379 31.5277L46.8568 36.1118L46.8568 26.9302Z" fill="#21150B"/>
<path d="M47.7537 98.0847L47.7537 106.438H45.5217L46.4706 105.409L45.0139 103.832L46.4706 102.268L45.0139 100.691L46.4706 99.1138L45.5217 98.0847H47.7537ZM48.8362 107.52L48.8362 97.0022L42.9824 97.0022L44.9337 99.1138L43.4769 100.691L44.9337 102.268L43.4769 103.832L44.9337 105.409L42.9824 107.52L48.8362 107.52Z" fill="#21150B"/>
<path d="M7.14322 17.8012L6.68555 18.7822L10.319 20.4773L10.7767 19.4963L7.14322 17.8012Z" fill="#21150B"/>
<path d="M11.9949 66.3272L11.1836 67.0439L13.8382 70.0487L14.6495 69.3319L11.9949 66.3272Z" fill="#21150B"/>
<path d="M1.41656 36.125C0.948697 36.1372 0.490504 36.2609 0.0800781 36.4859L0.0800781 37.9026C0.312544 37.6078 0.631161 37.3929 0.991539 37.2878C1.35192 37.1827 1.73611 37.1926 2.09059 37.3161C2.44507 37.4397 2.75219 37.6707 2.96915 37.9771C3.18611 38.2834 3.30212 38.6498 3.301 39.0252H4.35683C4.35686 38.641 4.28054 38.2605 4.13229 37.906C3.98404 37.5515 3.76683 37.23 3.49326 36.9602C3.21969 36.6903 2.89523 36.4775 2.53873 36.3342C2.18222 36.1908 1.80078 36.1197 1.41656 36.125Z" fill="#21150B"/>
<path d="M18.1506 29.6835C18.148 29.2145 18.2848 28.7553 18.5437 28.3642C18.8026 27.9732 19.1719 27.6679 19.6047 27.4872C20.0375 27.3065 20.5143 27.2585 20.9744 27.3494C21.4345 27.4402 21.8572 27.6658 22.1889 27.9974C22.5205 28.3291 22.7461 28.7518 22.8369 29.2119C22.9278 29.672 22.8798 30.1488 22.6991 30.5816C22.5184 31.0144 22.2131 31.3837 21.8221 31.6426C21.431 31.9015 20.9718 32.0383 20.5028 32.0357C19.8801 32.0322 19.2838 31.7832 18.8434 31.3429C18.4031 30.9025 18.1541 30.3062 18.1506 29.6835ZM23.9509 29.6835C23.9509 29.0015 23.7487 28.3348 23.3698 27.7678C22.9909 27.2008 22.4524 26.7588 21.8224 26.4978C21.1923 26.2368 20.499 26.1686 19.8301 26.3016C19.1612 26.4347 18.5469 26.7631 18.0646 27.2453C17.5824 27.7275 17.254 28.3419 17.1209 29.0108C16.9879 29.6797 17.0562 30.373 17.3172 31.003C17.5781 31.6331 18.0201 32.1716 18.5871 32.5505C19.1542 32.9294 19.8208 33.1316 20.5028 33.1316C21.4162 33.1281 22.2912 32.7637 22.9371 32.1178C23.583 31.4719 23.9474 30.5969 23.9509 29.6835Z" fill="#21150B"/>
<path d="M2.09817 3.15423C2.1007 3.72199 1.89779 4.2715 1.52688 4.70137C1.15596 5.13123 0.642088 5.41243 0.0800781 5.49307L0.0800781 6.64245C0.860333 6.59978 1.60272 6.29234 2.18468 5.77086C2.76665 5.24939 3.15341 4.54507 3.28111 3.77415C3.40882 3.00324 3.26984 2.21182 2.88712 1.53054C2.5044 0.849263 1.90081 0.318848 1.176 0.0268555L0.0800781 0.0268555L0.0800781 0.815381C0.640923 0.898668 1.1532 1.18063 1.52361 1.60991C1.89401 2.03919 2.09791 2.58723 2.09817 3.15423Z" fill="#21150B"/>
<path d="M1.99076 53.2056L0.908203 53.2056L0.908203 62.6411H1.99076L1.99076 53.2056Z" fill="#21150B"/>
<path d="M4.70495 52.8447L2.91406 54.7826L4.37083 56.3597L2.91406 57.9234L4.37083 59.5004L2.91406 61.0775L4.70495 63.0154L5.50684 62.2803L4.39756 61.0775L5.85433 59.5004L4.39756 57.9234L5.85433 56.3597L4.39756 54.7826L5.50684 53.5798L4.70495 52.8447Z" fill="#21150B"/>
<path d="M28.147 44.0641C28.392 43.9436 28.6137 43.7808 28.8019 43.583C29.0291 43.3558 29.0959 43.3157 29.2563 43.329C29.4167 43.3424 29.577 43.5028 29.8042 43.7434C30.1294 44.1857 30.6045 44.4945 31.1407 44.6121L31.3412 43.5295C31.055 43.4441 30.8056 43.2653 30.6329 43.0216C30.3377 42.6213 29.9042 42.3451 29.4167 42.2465C29.165 42.2241 28.9117 42.2635 28.6788 42.3613C28.4458 42.4592 28.2403 42.6124 28.0802 42.8078C27.9887 42.9103 27.8802 42.9963 27.7594 43.0617C27.2248 43.2889 27.1045 43.182 26.7838 42.888C26.4304 42.5177 25.9565 42.2855 25.4473 42.2331C25.1663 42.221 24.8864 42.2738 24.6291 42.3874C24.3718 42.5009 24.1442 42.6723 23.9638 42.888C23.6564 43.182 23.5762 43.2489 23.1753 43.0751L22.8011 42.8078C22.1328 42.2999 21.3042 41.6852 20.6092 41.9792C20.434 42.0592 20.2847 42.1868 20.1783 42.3475C20.072 42.5081 20.0129 42.6954 20.0078 42.888L21.0904 43.0216C21.4669 43.203 21.8212 43.4272 22.1462 43.6899C22.316 43.8325 22.4995 43.9579 22.6941 44.0641C23.0188 44.2481 23.3988 44.3089 23.7646 44.2352C24.1304 44.1616 24.4574 43.9585 24.6855 43.6632C24.9528 43.4226 25.0865 43.3023 25.3537 43.3157C25.635 43.3481 25.8931 43.4867 26.0755 43.7033C26.3339 43.9815 26.6763 44.1675 27.0504 44.2326C27.4246 44.2978 27.8097 44.2386 28.147 44.0641Z" fill="#21150B"/>
<path d="M16.1178 1.08268L18.7907 5.77374L13.4448 5.77374L16.1178 1.08268ZM15.4762 0.0268555L11.4668 6.85629L20.6618 6.85629L16.6524 0.0268555L15.4762 0.0268555Z" fill="#21150B"/>
<path d="M17.8814 53.673L22.5724 56.346L17.8814 59.019L17.8814 53.673ZM16.7988 60.9702L24.7509 56.3727L16.7988 51.7886L16.7988 60.9702Z" fill="#21150B"/>
<path d="M36.9805 17.7356L28.6275 17.7356L28.6275 15.4502L29.6566 16.3991L31.2336 14.9557L32.7973 16.3991L34.3744 14.9557L35.9514 16.3991L36.9805 15.4502L36.9805 17.7356ZM38.063 12.9644L35.9514 14.9156L34.3744 13.4722L32.7973 14.9156L31.2336 13.4722L29.6566 14.9156L27.5449 12.9644L27.5449 18.8315L38.063 18.8315L38.063 12.9644Z" fill="#21150B"/>
<path d="M44.184 0.761796C44.3177 1.22957 44.3711 1.45677 44.2642 1.55032C44.1573 1.64388 43.8633 1.55032 43.596 1.36321C43.2093 1.11348 42.7513 0.997822 42.2924 1.03405C41.8335 1.07027 41.3993 1.25638 41.0566 1.56369L41.8051 2.35221C42.1793 1.99136 42.4867 2.07155 43.1416 2.35221C43.4671 2.51365 43.8214 2.60903 44.184 2.63287C44.4628 2.63043 44.7321 2.53122 44.9458 2.35221C45.6274 1.79089 45.3601 1.01573 45.1864 0.41431C45.1864 0.294026 45.1062 0.133648 45.0795 0L43.9702 0C44.0105 0.261614 44.0823 0.517398 44.184 0.761796Z" fill="#21150B"/>
<path d="M46.082 0.0402203C46.4721 0.321927 46.9376 0.480211 47.4185 0.494625C47.8201 0.474715 48.2005 0.308296 48.4877 0.0268555L46.082 0.0268555" fill="#21150B"/>
<path d="M58.4051 289.643L57.3574 289.915L58.3674 293.795L59.415 293.523L58.4051 289.643Z" fill="#21150B"/>
<path d="M55.6104 280.194H56.6929C56.6929 279.425 56.3874 278.687 55.8435 278.143C55.2996 277.599 54.5619 277.294 53.7927 277.294C53.0236 277.294 52.2859 277.599 51.742 278.143C51.1981 278.687 50.8926 279.425 50.8926 280.194H51.9751C51.9751 279.712 52.1666 279.25 52.5075 278.909C52.8484 278.568 53.3107 278.376 53.7927 278.376C54.2748 278.376 54.7371 278.568 55.078 278.909C55.4189 279.25 55.6104 279.712 55.6104 280.194Z" fill="#21150B"/>
<path d="M72.9308 280.996C73.1801 280.882 73.4031 280.719 73.5857 280.515C73.8263 280.287 73.8931 280.247 74.0535 280.261C74.2138 280.274 74.3609 280.434 74.5881 280.675C74.9157 281.115 75.3897 281.423 75.9245 281.544L76.1384 280.475C75.8502 280.386 75.6006 280.202 75.43 279.953C75.1325 279.549 74.6934 279.272 74.2005 279.178C73.9491 279.158 73.6965 279.198 73.4639 279.296C73.2314 279.394 73.0256 279.546 72.864 279.739C72.7798 279.844 72.6752 279.93 72.5566 279.993C72.022 280.221 71.9017 280.127 71.581 279.82C71.2255 279.452 70.7527 279.22 70.2445 279.165C69.9634 279.152 69.6831 279.204 69.4257 279.318C69.1682 279.431 68.9407 279.603 68.761 279.82C68.4402 280.114 68.3734 280.18 67.9725 280.007L67.6116 279.753C66.9567 279.258 66.1281 278.63 65.4331 278.924C65.2554 279.002 65.1033 279.129 64.9945 279.29C64.8857 279.451 64.8247 279.639 64.8184 279.833L65.9009 279.967C66.2782 280.147 66.6326 280.371 66.9567 280.635C67.1311 280.771 67.3141 280.896 67.5047 281.009C67.8313 281.194 68.2136 281.255 68.5817 281.182C68.9497 281.108 69.279 280.904 69.5094 280.608C69.7634 280.368 69.897 280.247 70.1777 280.261C70.4589 280.293 70.7171 280.432 70.8994 280.648C71.1584 280.943 71.511 281.14 71.8979 281.205C72.2848 281.271 72.6825 281.202 73.0244 281.009" fill="#21150B"/>
<path d="M61.9855 306.589C62.6404 305.868 63.8566 304.544 62.7206 303.248C62.4082 302.969 62.0365 302.765 61.6335 302.652C61.2305 302.538 60.807 302.518 60.3951 302.593C60.1142 302.602 59.8411 302.688 59.6054 302.841C59.3698 302.994 59.1806 303.209 59.0586 303.462L60.061 303.876C60.061 303.783 60.2748 303.702 60.502 303.662C60.7331 303.621 60.9703 303.625 61.1997 303.676C61.4291 303.726 61.6462 303.822 61.8385 303.956C62.2662 304.438 61.9588 304.932 61.1301 305.854L60.7693 306.242C60.101 307.057 59.513 307.912 59.7402 308.688C59.8082 308.915 59.9356 309.121 60.1095 309.283C60.2833 309.445 60.4972 309.558 60.7292 309.61C61.5021 309.783 62.3098 309.713 63.0413 309.409C63.8566 309.169 64.5515 308.968 65.1129 309.329C65.3668 309.489 65.5138 309.663 65.5272 309.81C65.5272 310.238 64.899 310.973 64.3377 311.548C63.4824 312.456 62.5067 313.486 63.0012 314.568L64.0036 314.154C63.8298 313.726 64.5515 312.964 65.1797 312.296C65.8078 311.628 66.7835 310.625 66.6632 309.69C66.6271 309.411 66.526 309.145 66.3681 308.913C66.2103 308.681 66 308.489 65.7544 308.353C65.2918 308.13 64.7847 308.014 64.2709 308.014C63.7571 308.014 63.2499 308.13 62.7874 308.353C62.2655 308.577 61.6917 308.651 61.1301 308.567C60.9698 308.567 60.8628 308.447 60.8361 308.38C60.8094 308.313 60.8361 307.899 61.6647 306.923L61.9855 306.576" fill="#21150B"/>
<path d="M45.7081 306.87L41.0304 304.197L45.7081 301.524L45.7081 306.87ZM46.8041 299.573L38.7852 304.17L46.8041 308.754L46.8041 299.573Z" fill="#21150B"/>
<path d="M7.13151 290.465L6.67383 291.447L10.3073 293.142L10.765 292.161L7.13151 290.465Z" fill="#21150B"/>
<path d="M24.498 272.669L24.8589 273.298L25.9414 272.669H24.498Z" fill="#21150B"/>
<path d="M1.41667 308.768C0.9216 308.767 0.434314 308.891 0 309.129L0 310.545C0.232466 310.251 0.551082 310.036 0.911461 309.931C1.27184 309.825 1.65603 309.835 2.01051 309.959C2.36499 310.082 2.67211 310.314 2.88907 310.62C3.10603 310.926 3.22204 311.293 3.22093 311.668H4.35694C4.35697 311.284 4.28065 310.903 4.1324 310.549C3.98416 310.194 3.76694 309.873 3.49337 309.603C3.2198 309.333 2.89534 309.12 2.53884 308.977C2.18233 308.834 1.80089 308.763 1.41667 308.768Z" fill="#21150B"/>
<path d="M18.1487 302.326C18.146 301.857 18.2828 301.398 18.5418 301.007C18.8007 300.616 19.17 300.311 19.6028 300.13C20.0356 299.949 20.5123 299.901 20.9724 299.992C21.4325 300.083 21.8553 300.309 22.1869 300.64C22.5185 300.972 22.7441 301.395 22.835 301.855C22.9258 302.315 22.8778 302.792 22.6971 303.224C22.5164 303.657 22.2112 304.027 21.8201 304.285C21.4291 304.544 20.9699 304.681 20.5009 304.679C19.8781 304.675 19.2818 304.426 18.8415 303.986C18.4011 303.545 18.1522 302.949 18.1487 302.326ZM23.949 302.326C23.949 301.644 23.7468 300.978 23.3679 300.411C22.989 299.844 22.4505 299.402 21.8204 299.141C21.1903 298.88 20.497 298.811 19.8282 298.944C19.1593 299.077 18.5449 299.406 18.0627 299.888C17.5804 300.37 17.252 300.985 17.119 301.654C16.9859 302.322 17.0542 303.016 17.3152 303.646C17.5762 304.276 18.0181 304.814 18.5852 305.193C19.1522 305.572 19.8189 305.774 20.5009 305.774C21.4143 305.771 22.2893 305.407 22.9352 304.761C23.5811 304.115 23.9455 303.24 23.949 302.326Z" fill="#21150B"/>
<path d="M2.09817 275.797C2.1007 276.365 1.89779 276.914 1.52687 277.344C1.15596 277.774 0.642088 278.055 0.0800781 278.136L0.0800781 279.285C0.842212 279.227 1.56312 278.916 2.12868 278.402C2.69423 277.887 3.07211 277.199 3.2025 276.446C3.33288 275.693 3.20832 274.918 2.84852 274.244C2.48873 273.569 1.91427 273.034 1.21609 272.723H0.0800781L0.0800781 273.511C0.64822 273.586 1.17003 273.864 1.54857 274.294C1.92711 274.724 2.13665 275.277 2.13826 275.85" fill="#21150B"/>
<path d="M13.445 278.416L16.118 273.725L18.7909 278.416H13.445ZM11.5605 279.499L20.7422 279.499L16.7327 272.669H15.3963L11.5605 279.499Z" fill="#21150B"/>
<path d="M36.9805 290.378L28.6275 290.378L28.6275 288.093L29.6566 289.041L31.2336 287.598L32.7973 289.041L34.3744 287.598L35.9514 289.041L36.9805 288.093L36.9805 290.378ZM38.063 285.607L35.9514 287.558L34.3744 286.115L32.7973 287.558L31.2336 286.115L29.6566 287.558L27.5449 285.607L27.5449 291.474L38.063 291.474L38.063 285.607Z" fill="#21150B"/>
<path d="M44.184 273.404C44.3177 273.872 44.3711 274.099 44.2642 274.193C44.1573 274.286 43.8633 274.126 43.596 274.006C43.2093 273.756 42.7513 273.64 42.2924 273.677C41.8335 273.713 41.3993 273.899 41.0566 274.206L41.8051 274.995C42.1793 274.634 42.4867 274.714 43.1416 274.995C43.4671 275.156 43.8214 275.252 44.184 275.275C44.4628 275.273 44.7321 275.174 44.9458 274.995C45.6274 274.433 45.3601 273.658 45.1864 273.057C45.1864 272.937 45.1062 272.776 45.0795 272.643H43.9702C44.004 272.894 44.0668 273.141 44.1573 273.378" fill="#21150B"/>
<path d="M46.082 272.683C46.4721 272.964 46.9376 273.123 47.4185 273.137C47.8201 273.117 48.2005 272.951 48.4877 272.669H46.082" fill="#21150B"/>
</svg>
