<svg width="292" height="50" viewBox="0 0 292 50" fill="none" xmlns="http://www.w3.org/2000/svg">
<path d="M260.401 49.9443L260.521 49.9443L261.029 49.0489L257.54 47.0709L257.006 48.0198L260.401 49.9443Z" fill="#21150B"/>
<path d="M210.019 26.6221L213.51 28.594L214.042 27.6514L210.551 25.6795L210.019 26.6221Z" fill="#21150B"/>
<path d="M271.293 21.6641L270.344 22.1987L272.348 25.6736L272.669 25.4865L272.669 24.0431L271.293 21.6641Z" fill="#21150B"/>
<path d="M259.8 27.304L262.847 25.8873L261.952 23.4817L260.923 23.8693L261.471 25.326L258.236 26.8229L262.206 33.5053L260.816 34.9086L261.578 35.6704L263.569 33.679L259.8 27.304Z" fill="#21150B"/>
<path d="M234.19 27.117L233.095 27.117C233.068 27.5153 233.123 27.915 233.257 28.2911C233.39 28.6672 233.6 29.0118 233.873 29.3035C234.145 29.5952 234.475 29.8277 234.841 29.9867C235.207 30.1457 235.602 30.2278 236.001 30.2278C236.401 30.2278 236.796 30.1457 237.162 29.9867C237.528 29.8277 237.858 29.5952 238.13 29.3035C238.403 29.0118 238.612 28.6672 238.746 28.2911C238.88 27.915 238.935 27.5153 238.908 27.117L237.852 27.117C237.852 27.5991 237.661 28.0614 237.32 28.4023C236.979 28.7432 236.517 28.9346 236.035 28.9346C235.553 28.9346 235.09 28.7432 234.75 28.4023C234.409 28.0614 234.217 27.5991 234.217 27.117" fill="#21150B"/>
<path d="M224.088 38.3975C224.086 37.9291 224.222 37.4704 224.48 37.0797C224.739 36.6889 225.107 36.3836 225.539 36.2025C225.971 36.0214 226.447 35.9727 226.907 36.0624C227.367 36.1522 227.79 36.3764 228.122 36.7067C228.454 37.037 228.68 37.4585 228.773 37.9177C228.865 38.377 228.819 38.8533 228.641 39.2863C228.462 39.7193 228.159 40.0896 227.769 40.3501C227.38 40.6106 226.922 40.7497 226.454 40.7497C225.829 40.7497 225.229 40.5023 224.786 40.0616C224.342 39.6209 224.092 39.0226 224.088 38.3975ZM229.902 38.3975C229.894 37.7173 229.685 37.0546 229.301 36.4929C228.918 35.9311 228.376 35.4954 227.746 35.2406C227.115 34.9857 226.423 34.9232 225.757 35.0607C225.091 35.1982 224.48 35.5298 224.002 36.0136C223.524 36.4973 223.199 37.1118 223.069 37.7795C222.939 38.4473 223.01 39.1385 223.272 39.7662C223.534 40.394 223.976 40.9302 224.542 41.3073C225.108 41.6844 225.774 41.8857 226.454 41.8857C227.368 41.8857 228.245 41.5225 228.892 40.8758C229.539 40.2292 229.902 39.3521 229.902 38.4376" fill="#21150B"/>
<path d="M212.086 45.4273C212.118 45.1461 212.257 44.8879 212.474 44.7056C212.768 44.4465 212.965 44.094 213.031 43.7071C213.097 43.3202 213.027 42.9225 212.834 42.5806C212.721 42.3314 212.557 42.1084 212.353 41.9257C212.126 41.6852 212.086 41.6183 212.099 41.458C212.113 41.2976 212.273 41.1506 212.514 40.9234C212.953 40.5957 213.262 40.1217 213.382 39.5869L212.313 39.373C212.224 39.6612 212.041 39.9108 211.792 40.0814C211.388 40.3789 211.111 40.8181 211.017 41.3109C210.997 41.5624 211.037 41.8149 211.135 42.0475C211.233 42.28 211.385 42.4858 211.578 42.6474C211.683 42.7316 211.769 42.8362 211.832 42.9548C212.059 43.5028 211.966 43.6097 211.658 43.9304C211.291 44.2859 211.059 44.7587 211.003 45.2669C210.99 45.548 211.043 45.8283 211.156 46.0858C211.27 46.3432 211.442 46.5707 211.658 46.7504C211.952 47.0712 212.019 47.138 211.845 47.539L211.592 47.8998C211.151 48.4879 210.603 49.2363 210.696 49.8511L211.779 49.8511L211.779 49.6105C211.962 49.2308 212.186 48.8723 212.447 48.5413C212.586 48.3734 212.711 48.1946 212.821 48.0067C213.006 47.6801 213.067 47.2978 212.994 46.9298C212.92 46.5617 212.716 46.2324 212.42 46.002C212.18 45.7481 212.059 45.6144 212.073 45.3338" fill="#21150B"/>
<path d="M241.529 48.8485C241.25 48.8846 240.984 48.9857 240.752 49.1435C240.52 49.3014 240.328 49.5116 240.192 49.7573L240.139 49.9043L241.609 49.9043C241.692 49.8802 241.78 49.8802 241.863 49.9043L243.761 49.9043C243.489 49.5782 243.153 49.3124 242.774 49.1237C242.394 48.9349 241.979 48.8276 241.555 48.8084" fill="#21150B"/>
<path d="M272.67 34.5481L272.67 33.2651L271.561 33.9066L272.67 34.5481Z" fill="#21150B"/>
<path d="M247.209 36.5393L249.882 31.8482L252.555 36.5393L247.209 36.5393ZM245.324 37.6218L254.506 37.6218L249.882 29.6564L245.324 37.6218Z" fill="#21150B"/>
<path d="M250.125 16.5879L251 17.2476L253.414 14.0459L252.538 13.3862L250.125 16.5879Z" fill="#21150B"/>
<path d="M202.343 14.0409L203.324 14.4985L205.019 10.865L204.038 10.4074L202.343 14.0409Z" fill="#21150B"/>
<path d="M232.63 12.6024L234.117 16.3257L235.122 15.924L233.635 12.2008L232.63 12.6024Z" fill="#21150B"/>
<path d="M218.916 17.1735C218.916 16.9355 218.963 16.6997 219.055 16.48C219.146 16.2602 219.28 16.0607 219.449 15.893C219.618 15.7253 219.819 15.5926 220.039 15.5028C220.26 15.4129 220.496 15.3675 220.734 15.3693L220.734 14.2734C220.335 14.2463 219.936 14.3015 219.56 14.4353C219.184 14.5692 218.839 14.7789 218.547 15.0514C218.256 15.324 218.023 15.6536 217.864 16.0198C217.705 16.386 217.623 16.781 217.623 17.1802C217.623 17.5794 217.705 17.9744 217.864 18.3406C218.023 18.7068 218.256 19.0364 218.547 19.309C218.839 19.5816 219.184 19.7913 219.56 19.9251C219.936 20.059 220.335 20.1141 220.734 20.0871L220.734 18.9912C220.252 18.9912 219.789 18.7997 219.449 18.4588C219.108 18.1179 218.916 17.6556 218.916 17.1735Z" fill="#21150B"/>
<path d="M192.24 0.373994L192.24 9.80957L193.323 9.80957L193.323 0.373994L192.24 0.373994Z" fill="#21150B"/>
<path d="M189.874 6.66913L191.318 5.09208L189.874 3.52839L191.318 1.95134L189.527 7.52906e-05L188.725 0.748504L189.847 1.95134L188.391 3.52839L189.847 5.09208L188.391 6.66913L189.847 8.23282L188.725 9.43565L189.527 10.1841L191.318 8.23282L189.874 6.66913Z" fill="#21150B"/>
<path d="M170.549 4.27672L167.876 8.95441L165.203 4.27672L170.549 4.27672ZM163.252 3.1808L167.849 11.1997L172.434 3.1808L163.252 3.1808Z" fill="#21150B"/>
<path d="M154.14 42.8468L155.121 43.3044L156.816 39.6709L155.835 39.2133L154.14 42.8468Z" fill="#21150B"/>
<path d="M202.65 37.9851L203.367 38.7964L206.372 36.1417L205.655 35.3305L202.65 37.9851Z" fill="#21150B"/>
<path d="M136.348 25.4866L136.976 25.1257L136.348 24.0432L136.348 25.4866Z" fill="#21150B"/>
<path d="M172.448 48.5675C172.447 49.0625 172.571 49.5498 172.808 49.9841L174.225 49.9841C173.93 49.7517 173.715 49.433 173.61 49.0727C173.505 48.7123 173.515 48.3281 173.639 47.9736C173.762 47.6191 173.993 47.312 174.3 47.0951C174.606 46.8781 174.972 46.7621 175.348 46.7632L175.348 45.6272C174.963 45.6272 174.583 45.7035 174.229 45.8517C173.874 46 173.553 46.2172 173.283 46.4908C173.013 46.7643 172.8 47.0888 172.657 47.4453C172.513 47.8018 172.442 48.1832 172.448 48.5675Z" fill="#21150B"/>
<path d="M166.005 31.8352C165.536 31.8379 165.077 31.701 164.686 31.4421C164.294 31.1832 163.989 30.8139 163.808 30.3811C163.628 29.9483 163.58 29.4716 163.671 29.0115C163.762 28.5513 163.987 28.1286 164.319 27.797C164.65 27.4653 165.073 27.2398 165.533 27.1489C165.993 27.0581 166.47 27.106 166.903 27.2867C167.336 27.4674 167.705 27.7727 167.964 28.1638C168.223 28.5548 168.36 29.014 168.357 29.483C168.353 30.1058 168.105 30.702 167.664 31.1424C167.224 31.5828 166.628 31.8317 166.005 31.8352ZM166.005 26.0349C165.323 26.0349 164.656 26.2371 164.089 26.616C163.522 26.9949 163.08 27.5334 162.819 28.1635C162.558 28.7935 162.49 29.4868 162.623 30.1557C162.756 30.8246 163.084 31.439 163.567 31.9212C164.049 32.4034 164.663 32.7318 165.332 32.8649C166.001 32.9979 166.694 32.9297 167.324 32.6687C167.954 32.4077 168.493 31.9657 168.872 31.3987C169.251 30.8317 169.453 30.165 169.453 29.483C169.449 28.5696 169.085 27.6946 168.439 27.0487C167.793 26.4028 166.918 26.0384 166.005 26.0349Z" fill="#21150B"/>
<path d="M139.476 47.8855C140.044 47.8829 140.594 48.0859 141.023 48.4568C141.453 48.8277 141.734 49.3416 141.815 49.9036L142.964 49.9036C142.906 49.1414 142.595 48.4205 142.081 47.855C141.567 47.2894 140.879 46.9115 140.126 46.7811C139.372 46.6508 138.597 46.7753 137.923 47.1351C137.249 47.4949 136.713 48.0694 136.402 48.7676L136.402 49.9036L137.191 49.9036C137.265 49.3354 137.543 48.8136 137.974 48.4351C138.404 48.0565 138.957 47.847 139.53 47.8454" fill="#21150B"/>
<path d="M189.527 47.9929L189.527 49.0754L198.963 49.0754L198.963 47.9929L189.527 47.9929Z" fill="#21150B"/>
<path d="M189.166 45.2797L191.104 47.0706L192.681 45.6138L194.245 47.0706L195.822 45.6138L197.399 47.0706L199.337 45.2797L198.602 44.4778L197.399 45.5871L195.822 44.1303L194.245 45.5871L192.681 44.1303L191.104 45.5871L189.901 44.4778L189.166 45.2797Z" fill="#21150B"/>
<path d="M180.384 21.8375C180.264 21.5925 180.101 21.3708 179.903 21.1826C179.676 20.9554 179.636 20.8886 179.649 20.7282C179.663 20.5678 179.823 20.4075 180.063 20.1803C180.506 19.8551 180.815 19.38 180.932 18.8438L179.85 18.6433C179.764 18.9295 179.585 19.1789 179.342 19.3516C178.941 19.6468 178.665 20.0803 178.567 20.5678C178.544 20.8195 178.584 21.0728 178.681 21.3057C178.779 21.5387 178.933 21.7441 179.128 21.9043C179.23 21.9958 179.316 22.1043 179.382 22.2251C179.609 22.7597 179.502 22.88 179.208 23.2007C178.838 23.5541 178.606 24.028 178.553 24.5372C178.541 24.8182 178.594 25.0981 178.708 25.3554C178.821 25.6127 178.992 25.8403 179.208 26.0207C179.502 26.3281 179.569 26.4083 179.395 26.8092L179.141 27.1567C178.633 27.8249 178.019 28.6536 178.313 29.3485C178.393 29.5238 178.52 29.6731 178.681 29.7794C178.842 29.8857 179.029 29.9448 179.222 29.95L179.355 28.8674C179.536 28.4909 179.761 28.1366 180.023 27.8116C180.166 27.6418 180.291 27.4582 180.398 27.2636C180.582 26.939 180.642 26.5589 180.569 26.1931C180.495 25.8273 180.292 25.5004 179.997 25.2723C179.756 25.005 179.636 24.8713 179.649 24.604C179.682 24.3228 179.82 24.0646 180.037 23.8823C180.307 23.6241 180.487 23.2858 180.549 22.9174C180.612 22.5491 180.554 22.1704 180.384 21.8375Z" fill="#21150B"/>
<path d="M142.095 36.5394L137.403 33.8664L142.095 31.1934L142.095 36.5394ZM143.177 38.4238L143.177 29.2422L136.348 33.2516L136.348 34.5881L143.177 38.4238Z" fill="#21150B"/>
<path d="M189.994 32.1023L192.667 27.4112L195.34 32.1023L189.994 32.1023ZM197.291 33.1848L192.694 25.2327L188.109 33.1848L197.291 33.1848Z" fill="#21150B"/>
<path d="M154.056 13.0041L154.056 21.3571L151.771 21.3571L152.72 20.3281L151.277 18.751L152.72 17.1873L151.277 15.6103L152.72 14.0332L151.771 13.0041L154.056 13.0041ZM149.285 11.9216L151.236 14.0332L149.793 15.6103L151.236 17.1873L149.793 18.751L151.236 20.3281L149.285 22.4397L155.152 22.4397L155.152 11.9216L149.285 11.9216Z" fill="#21150B"/>
<path d="M137.082 5.79963C137.55 5.66598 137.777 5.61252 137.871 5.71944C137.964 5.82636 137.871 6.12038 137.684 6.38768C137.434 6.77433 137.318 7.23238 137.354 7.69124C137.391 8.1501 137.577 8.58432 137.884 8.927L138.673 8.17857C138.312 7.80435 138.392 7.49696 138.673 6.84208C138.834 6.51653 138.929 6.16223 138.953 5.79963C138.951 5.52084 138.852 5.25157 138.673 5.03783C138.111 4.35623 137.336 4.62352 136.735 4.79727C136.614 4.79727 136.454 4.87746 136.32 4.90419L136.32 6.01347C136.572 5.97966 136.818 5.91688 137.055 5.82636" fill="#21150B"/>
<path d="M124.078 49.9443L124.199 49.9443L124.706 49.0489L121.218 47.0709L120.684 48.0198L124.078 49.9443Z" fill="#21150B"/>
<path d="M73.7023 26.6243L77.1934 28.5962L77.7258 27.6536L74.2347 25.6817L73.7023 26.6243Z" fill="#21150B"/>
<path d="M134.97 21.6641L134.021 22.1987L136.04 25.6736L136.347 25.4865L136.347 24.0431L134.97 21.6641Z" fill="#21150B"/>
<path d="M123.464 27.304L126.525 25.8873L125.629 23.4817L124.6 23.8693L125.148 25.326L121.914 26.8229L125.883 33.5053L124.493 34.9086L125.255 35.6704L127.247 33.679L123.464 27.304Z" fill="#21150B"/>
<path d="M97.8702 27.117L96.7743 27.117C96.7472 27.5153 96.8024 27.915 96.9362 28.2911C97.0701 28.6672 97.2798 29.0118 97.5523 29.3035C97.8249 29.5952 98.1545 29.8277 98.5207 29.9867C98.8869 30.1457 99.2819 30.2278 99.6811 30.2278C100.08 30.2278 100.475 30.1457 100.841 29.9867C101.208 29.8277 101.537 29.5952 101.81 29.3035C102.082 29.0118 102.292 28.6672 102.426 28.2911C102.56 27.915 102.615 27.5153 102.588 27.117L101.532 27.117C101.532 27.5991 101.341 28.0614 101 28.4023C100.659 28.7432 100.197 28.9346 99.7145 28.9346C99.2325 28.9346 98.7701 28.7432 98.4293 28.4023C98.0884 28.0614 97.8969 27.5991 97.8969 27.117" fill="#21150B"/>
<path d="M87.7659 38.3975C87.7633 37.9291 87.8998 37.4704 88.1581 37.0797C88.4164 36.6889 88.7849 36.3836 89.2169 36.2025C89.6489 36.0214 90.125 35.9727 90.5847 36.0624C91.0445 36.1522 91.4673 36.3764 91.7994 36.7067C92.1316 37.037 92.3582 37.4585 92.4506 37.9177C92.543 38.377 92.4969 38.8533 92.3182 39.2863C92.1396 39.7193 91.8364 40.0896 91.4471 40.3501C91.0578 40.6106 90.5999 40.7497 90.1315 40.7497C89.5064 40.7497 88.9067 40.5023 88.4635 40.0616C88.0202 39.6209 87.7694 39.0226 87.7659 38.3975ZM93.5796 38.3975C93.5717 37.7173 93.3628 37.0546 92.9791 36.4929C92.5955 35.9311 92.0542 35.4954 91.4235 35.2406C90.7928 34.9857 90.1008 34.9232 89.4346 35.0607C88.7683 35.1982 88.1577 35.5298 87.6795 36.0136C87.2012 36.4973 86.8768 37.1118 86.747 37.7795C86.6171 38.4473 86.6877 39.1385 86.9498 39.7662C87.212 40.394 87.6539 40.9302 88.22 41.3073C88.7862 41.6844 89.4512 41.8857 90.1315 41.8857C91.046 41.8857 91.923 41.5225 92.5697 40.8758C93.2163 40.2292 93.5796 39.3521 93.5796 38.4376" fill="#21150B"/>
<path d="M75.7642 45.4271C75.7966 45.1459 75.9353 44.8877 76.1518 44.7054C76.4466 44.4463 76.6433 44.0937 76.709 43.7068C76.7747 43.3199 76.7054 42.9222 76.5126 42.5804C76.3993 42.3311 76.2355 42.1081 76.0315 41.9255C75.8043 41.6849 75.7642 41.6181 75.7776 41.4577C75.7909 41.2973 75.9513 41.1503 76.1919 40.9231C76.6316 40.5955 76.9397 40.1215 77.0606 39.5866L75.9914 39.3728C75.9026 39.661 75.7189 39.9106 75.4702 40.0811C75.0661 40.3787 74.7893 40.8178 74.695 41.3107C74.6749 41.5621 74.7154 41.8147 74.813 42.0473C74.9107 42.2798 75.0627 42.4855 75.2564 42.6472C75.361 42.7314 75.4474 42.8359 75.5103 42.9546C75.7375 43.5025 75.6439 43.6095 75.3365 43.9302C74.9691 44.2857 74.7374 44.7585 74.6817 45.2667C74.6685 45.5478 74.7209 45.8281 74.8345 46.0855C74.9481 46.343 75.12 46.5705 75.3365 46.7502C75.6306 47.071 75.6974 47.1378 75.5236 47.5387L75.2697 47.8996C74.8019 48.5678 74.2807 49.3029 74.3743 49.9043L75.4568 49.9043L75.4568 49.6637C75.6424 49.2741 75.871 48.9065 76.1384 48.5678C76.2772 48.3999 76.4023 48.2211 76.5126 48.0332C76.6975 47.7066 76.7588 47.3243 76.6852 46.9563C76.6116 46.5882 76.408 46.2589 76.1117 46.0285C75.8711 45.7746 75.7509 45.6409 75.7642 45.3603" fill="#21150B"/>
<path d="M105.206 48.8485C104.928 48.8846 104.662 48.9857 104.43 49.1435C104.198 49.3014 104.006 49.5116 103.87 49.7573L103.816 49.9043L105.287 49.9043C105.369 49.8802 105.458 49.8802 105.54 49.9043L107.412 49.9043C107.14 49.5782 106.804 49.3124 106.425 49.1237C106.045 48.9349 105.63 48.8276 105.206 48.8084" fill="#21150B"/>
<path d="M136.348 34.5481L136.348 33.2651L135.238 33.9066L136.348 34.5481Z" fill="#21150B"/>
<path d="M110.888 36.5393L113.561 31.8482L116.234 36.5393L110.888 36.5393ZM109.004 37.6218L118.186 37.6218L113.561 29.6564L109.004 37.6218Z" fill="#21150B"/>
<path d="M113.805 16.5884L114.68 17.248L117.093 14.0464L116.218 13.3867L113.805 16.5884Z" fill="#21150B"/>
<path d="M66.0033 14.0357L66.9844 14.4934L68.6795 10.8599L67.6984 10.4022L66.0033 14.0357Z" fill="#21150B"/>
<path d="M96.3092 12.5978L97.7969 16.321L98.8021 15.9194L97.3145 12.1961L96.3092 12.5978Z" fill="#21150B"/>
<path d="M82.5939 17.1735C82.5939 16.9355 82.641 16.6997 82.7325 16.48C82.824 16.2602 82.9581 16.0607 83.1271 15.893C83.296 15.7253 83.4965 15.5926 83.717 15.5028C83.9374 15.4129 84.1735 15.3675 84.4115 15.3693L84.4115 14.2734C84.0132 14.2463 83.6136 14.3015 83.2375 14.4353C82.8614 14.5692 82.5168 14.7789 82.2251 15.0514C81.9334 15.324 81.7008 15.6536 81.5418 16.0198C81.3828 16.386 81.3008 16.781 81.3008 17.1802C81.3008 17.5794 81.3828 17.9744 81.5418 18.3406C81.7008 18.7068 81.9334 19.0364 82.2251 19.309C82.5168 19.5816 82.8614 19.7913 83.2375 19.9251C83.6136 20.059 84.0132 20.1141 84.4115 20.0871L84.4115 18.9912C83.9295 18.9912 83.4672 18.7997 83.1263 18.4588C82.7854 18.1179 82.5939 17.6556 82.5939 17.1735Z" fill="#21150B"/>
<path d="M55.9316 0.373994L55.9316 9.80957L57.0142 9.80957L57.0142 0.373994L55.9316 0.373994Z" fill="#21150B"/>
<path d="M53.5519 6.66913L54.9953 5.09208L53.5519 3.52839L54.9953 1.95134L53.2044 7.52906e-05L52.4158 0.748504L53.5251 1.95134L52.0684 3.52839L53.5251 5.09208L52.0684 6.66913L53.5251 8.23282L52.4158 9.43565L53.2044 10.1841L54.9953 8.23282L53.5519 6.66913Z" fill="#21150B"/>
<path d="M34.2269 4.27647L31.5539 8.95416L28.881 4.27647L34.2269 4.27647ZM26.9297 3.12709L31.5272 11.146L36.1113 3.12709L26.9297 3.12709Z" fill="#21150B"/>
<path d="M17.8002 42.8416L18.7812 43.2993L20.4764 39.6658L19.4953 39.2081L17.8002 42.8416Z" fill="#21150B"/>
<path d="M66.3262 37.9902L67.043 38.8015L70.0477 36.1469L69.331 35.3356L66.3262 37.9902Z" fill="#21150B"/>
<path d="M36.1253 48.5678C36.1375 49.0357 36.2612 49.4939 36.4861 49.9043L37.9028 49.9043C37.608 49.6718 37.3931 49.3532 37.288 48.9928C37.1829 48.6325 37.1928 48.2483 37.3164 47.8938C37.4399 47.5393 37.671 47.2322 37.9773 47.0152C38.2837 46.7983 38.6501 46.6823 39.0254 46.6834L39.0254 45.6275C38.6412 45.6275 38.2608 45.7038 37.9063 45.8521C37.5518 46.0003 37.2302 46.2175 36.9604 46.4911C36.6906 46.7647 36.4778 47.0891 36.3344 47.4456C36.1911 47.8022 36.12 48.1836 36.1253 48.5678Z" fill="#21150B"/>
<path d="M29.6845 31.8347C29.2155 31.8374 28.7563 31.7006 28.3652 31.4416C27.9742 31.1827 27.6689 30.8134 27.4882 30.3806C27.3075 29.9478 27.2595 29.4711 27.3504 29.011C27.4412 28.5509 27.6668 28.1281 27.9984 27.7965C28.3301 27.4649 28.7528 27.2393 29.2129 27.1484C29.673 27.0576 30.1498 27.1056 30.5826 27.2863C31.0153 27.467 31.3847 27.7722 31.6436 28.1633C31.9025 28.5543 32.0393 29.0135 32.0367 29.4825C32.0332 30.1053 31.7842 30.7016 31.3438 31.1419C30.9035 31.5823 30.3072 31.8312 29.6845 31.8347ZM29.6845 26.0344C29.0025 26.0344 28.3358 26.2366 27.7688 26.6155C27.2017 26.9944 26.7598 27.5329 26.4988 28.163C26.2378 28.7931 26.1695 29.4864 26.3026 30.1552C26.4356 30.8241 26.764 31.4385 27.2463 31.9207C27.7285 32.403 28.3429 32.7314 29.0118 32.8644C29.6806 32.9975 30.3739 32.9292 31.004 32.6682C31.6341 32.4072 32.1726 31.9653 32.5515 31.3982C32.9304 30.8312 33.1326 30.1645 33.1326 29.4825C33.1291 28.5691 32.7647 27.6941 32.1188 27.0482C31.4729 26.4023 30.5979 26.0379 29.6845 26.0344Z" fill="#21150B"/>
<path d="M3.15472 47.8862C3.72248 47.8837 4.27199 48.0866 4.70186 48.4575C5.13172 48.8284 5.41292 49.3423 5.49356 49.9043L6.64294 49.9043C6.60027 49.124 6.29283 48.3817 5.77135 47.7997C5.24988 47.2177 4.54555 46.831 3.77464 46.7033C3.00373 46.5756 2.21231 46.7145 1.53103 47.0973C0.849751 47.48 0.319337 48.0836 0.0273437 48.8084L0.0273438 49.9043L0.815869 49.9043C0.899157 49.3435 1.18112 48.8312 1.6104 48.4608C2.03968 48.0904 2.58772 47.8865 3.15472 47.8862Z" fill="#21150B"/>
<path d="M53.2051 47.9929L53.2051 49.0754L62.6407 49.0754L62.6407 47.9929L53.2051 47.9929Z" fill="#21150B"/>
<path d="M52.8437 45.2797L54.7817 47.0706L56.3587 45.6138L57.9224 47.0706L59.4994 45.6138L61.0765 47.0706L63.0144 45.2797L62.2793 44.4778L61.0765 45.5871L59.4994 44.1303L57.9224 45.5871L56.3587 44.1303L54.7817 45.5871L53.5788 44.4778L52.8437 45.2797Z" fill="#21150B"/>
<path d="M44.0636 21.8379C43.9432 21.5929 43.7803 21.3712 43.5825 21.183C43.3553 20.9558 43.3152 20.889 43.3286 20.7286C43.3419 20.5682 43.5023 20.4078 43.7429 20.1806C44.1852 19.8555 44.4941 19.3804 44.6116 18.8441L43.529 18.6437C43.4436 18.9299 43.2648 19.1793 43.0212 19.352C42.6208 19.6472 42.3446 20.0807 42.246 20.5682C42.2236 20.8198 42.263 21.0732 42.3608 21.3061C42.4587 21.539 42.6119 21.7445 42.8073 21.9047C42.9099 21.9961 42.9958 22.1047 43.0613 22.2254C43.2885 22.76 43.1815 22.8803 42.8875 23.2011C42.5172 23.5545 42.285 24.0284 42.2326 24.5376C42.2205 24.8185 42.2733 25.0985 42.3869 25.3558C42.5005 25.613 42.6718 25.8407 42.8875 26.0211C43.1815 26.3284 43.2484 26.4086 43.0746 26.8096L42.8073 27.1838C42.2995 27.852 41.6847 28.6807 41.9787 29.3756C42.0587 29.5509 42.1863 29.7002 42.347 29.8065C42.5076 29.9128 42.6949 29.9719 42.8875 29.9771L43.0212 28.8945C43.2025 28.518 43.4267 28.1637 43.6894 27.8387C43.832 27.6689 43.9574 27.4853 44.0636 27.2907C44.2476 26.9661 44.3084 26.586 44.2347 26.2202C44.1611 25.8544 43.958 25.5275 43.6627 25.2994C43.4221 25.0321 43.3018 24.8984 43.3152 24.6311C43.3476 24.3499 43.4862 24.0917 43.7028 23.9094C43.981 23.651 44.167 23.3085 44.2322 22.9344C44.2973 22.5603 44.2381 22.1751 44.0636 21.8379Z" fill="#21150B"/>
<path d="M1.08317 33.8664L5.77422 31.1934L5.77422 36.5393L1.08317 33.8664ZM0.0273436 34.5079L6.85678 38.5173L6.85678 29.3223L0.0273435 33.3318L0.0273436 34.5079Z" fill="#21150B"/>
<path d="M53.6735 32.1023L56.3465 27.4112L59.0194 32.1023L53.6735 32.1023ZM60.9707 33.1848L56.3732 25.2327L51.7891 33.1848L60.9707 33.1848Z" fill="#21150B"/>
<path d="M17.7361 13.0041L17.7361 21.3571L15.4507 21.3571L16.3996 20.3281L14.9562 18.751L16.3996 17.1873L14.9562 15.6103L16.3996 14.0332L15.4507 13.0041L17.7361 13.0041ZM12.9648 11.9216L14.9161 14.0332L13.4727 15.6103L14.9161 17.1873L13.4727 18.751L14.9161 20.3281L12.9648 22.4397L18.832 22.4397L18.832 11.9216L12.9648 11.9216Z" fill="#21150B"/>
<path d="M0.761796 5.79963C1.22957 5.66598 1.45677 5.61252 1.55032 5.71944C1.64388 5.82636 1.55032 6.12038 1.36321 6.38768C1.11348 6.77433 0.997822 7.23238 1.03405 7.69124C1.07027 8.1501 1.25638 8.58432 1.56369 8.927L2.35221 8.17857C1.99136 7.80435 2.07155 7.49696 2.35221 6.84208C2.51365 6.51653 2.60903 6.16223 2.63287 5.79963C2.63043 5.52084 2.53122 5.25157 2.35221 5.03783C1.79089 4.35623 1.01573 4.62352 0.41431 4.79727C0.294026 4.79727 0.133648 4.87746 -1.75843e-07 4.90419L-1.27355e-07 6.01347C0.261614 5.97311 0.517398 5.90132 0.761796 5.79963Z" fill="#21150B"/>
<path d="M272.67 25.4866L273.298 25.1257L272.67 24.0432L272.67 25.4866Z" fill="#21150B"/>
<path d="M275.797 47.8855C276.364 47.8829 276.914 48.0859 277.344 48.4568C277.774 48.8277 278.055 49.3416 278.135 49.9036L279.285 49.9036C279.226 49.1414 278.916 48.4205 278.401 47.855C277.887 47.2894 277.199 46.9115 276.446 46.7811C275.693 46.6508 274.918 46.7753 274.243 47.1351C273.569 47.4949 273.034 48.0694 272.723 48.7676L272.723 49.9036L273.511 49.9036C273.586 49.3354 273.864 48.8136 274.294 48.4351C274.724 48.0565 275.277 47.847 275.85 47.8454" fill="#21150B"/>
<path d="M278.417 36.5394L273.726 33.8664L278.417 31.1934L278.417 36.5394ZM279.499 38.4238L279.499 29.2422L272.67 33.2516L272.67 34.5881L279.499 38.4238Z" fill="#21150B"/>
<path d="M290.379 13.0041L290.379 21.3571L288.093 21.3571L289.042 20.3281L287.599 18.751L289.042 17.1873L287.599 15.6103L289.042 14.0332L288.093 13.0041L290.379 13.0041ZM285.607 11.9216L287.559 14.0332L286.115 15.6103L287.559 17.1873L286.115 18.751L287.559 20.3281L285.607 22.4397L291.475 22.4397L291.475 11.9216L285.607 11.9216Z" fill="#21150B"/>
<path d="M273.404 5.79963C273.872 5.66598 274.099 5.61252 274.193 5.71944C274.286 5.82636 274.126 6.12038 274.006 6.38768C273.756 6.77433 273.64 7.23238 273.677 7.69124C273.713 8.1501 273.899 8.58432 274.206 8.927L274.995 8.17857C274.634 7.80435 274.714 7.49696 274.995 6.84208C275.156 6.51653 275.252 6.16223 275.275 5.79963C275.273 5.52084 275.174 5.25157 274.995 5.03783C274.433 4.35623 273.658 4.62352 273.057 4.79727C272.937 4.79727 272.776 4.87746 272.643 4.90419L272.643 6.01347C272.894 5.97966 273.141 5.91688 273.378 5.82636" fill="#21150B"/>
</svg>
