<svg width="295" height="77" viewBox="0 0 295 77" fill="none" xmlns="http://www.w3.org/2000/svg">
<path d="M34.3827 0.0400389L34.2624 0.0400389L33.7545 0.935483L37.2428 2.91348L37.7773 1.96458L34.3827 0.0400389Z" fill="#21150B"/>
<path d="M84.7684 23.362L81.2773 21.3901L80.7449 22.3327L84.236 24.3046L84.7684 23.362Z" fill="#21150B"/>
<path d="M23.4925 28.3205L24.4414 27.7859L22.4367 24.311L22.1159 24.4981L22.1159 25.9415L23.4925 28.3205Z" fill="#21150B"/>
<path d="M34.9871 22.6804L31.9399 24.097L32.8354 26.5027L33.8644 26.1151L33.3165 24.6583L36.5508 23.1615L32.5814 16.4791L33.9714 15.0758L33.2096 14.314L31.2182 16.3053L34.9871 22.6804Z" fill="#21150B"/>
<path d="M60.5927 22.8671L61.6886 22.8671C61.7157 22.4688 61.6605 22.0692 61.5267 21.6931C61.3928 21.3169 61.1831 20.9723 60.9105 20.6807C60.638 20.389 60.3084 20.1564 59.9422 19.9974C59.576 19.8384 59.181 19.7563 58.7818 19.7563C58.3825 19.7563 57.9876 19.8384 57.6214 19.9974C57.2552 20.1564 56.9256 20.389 56.653 20.6807C56.3804 20.9723 56.1707 21.3169 56.0369 21.6931C55.903 22.0692 55.8479 22.4688 55.8749 22.8671L56.9307 22.8671C56.9307 22.385 57.1222 21.9227 57.4631 21.5818C57.804 21.241 58.2663 21.0495 58.7484 21.0495C59.2304 21.0495 59.6928 21.241 60.0336 21.5818C60.3745 21.9227 60.566 22.385 60.566 22.8671" fill="#21150B"/>
<path d="M70.695 11.5869C70.6977 12.0553 70.5612 12.514 70.3029 12.9047C70.0445 13.2955 69.676 13.6008 69.244 13.7819C68.812 13.963 68.3359 14.0117 67.8762 13.922C67.4164 13.8322 66.9937 13.608 66.6615 13.2777C66.3293 12.9474 66.1027 12.5259 66.0104 12.0667C65.918 11.6074 65.964 11.1311 66.1427 10.6981C66.3213 10.265 66.6245 9.89479 67.0138 9.63426C67.4031 9.37373 67.861 9.23465 68.3294 9.23464C68.9545 9.23463 69.5542 9.48203 69.9975 9.92277C70.4407 10.3635 70.6915 10.9618 70.695 11.5869ZM64.8813 11.5869C64.8892 12.2671 65.0982 12.9297 65.4818 13.4915C65.8655 14.0532 66.4067 14.4889 67.0375 14.7438C67.6682 14.9986 68.3602 15.0612 69.0264 14.9237C69.6926 14.7861 70.3032 14.4546 70.7814 13.9708C71.2597 13.487 71.5841 12.8726 71.714 12.2048C71.8438 11.5371 71.7732 10.8459 71.5111 10.2181C71.249 9.5904 70.807 9.05422 70.2409 8.67708C69.6747 8.29994 69.0097 8.09868 68.3294 8.09863C67.4149 8.09863 66.5379 8.46192 65.8912 9.10857C65.2446 9.75522 64.8813 10.6323 64.8813 11.5468" fill="#21150B"/>
<path d="M82.6972 4.55706C82.6648 4.83827 82.5261 5.09646 82.3096 5.27876C82.0148 5.53784 81.8181 5.89039 81.7524 6.27729C81.6867 6.66419 81.756 7.06191 81.9487 7.40377C82.0621 7.65301 82.2259 7.87601 82.4299 8.05865C82.6571 8.29922 82.6972 8.36604 82.6838 8.52642C82.6704 8.6868 82.5101 8.83381 82.2695 9.06102C81.8298 9.38864 81.5217 9.86265 81.4008 10.3975L82.47 10.6113C82.5588 10.3232 82.7425 10.0736 82.9912 9.903C83.3953 9.60545 83.6721 9.16632 83.7663 8.67343C83.7865 8.42201 83.746 8.16943 83.6483 7.93688C83.5507 7.70433 83.3986 7.4986 83.205 7.33695C83.1004 7.25279 83.014 7.1482 82.9511 7.02956C82.7239 6.4816 82.8175 6.37468 83.1248 6.05393C83.4923 5.69845 83.724 5.22568 83.7797 4.71744C83.7928 4.43635 83.7405 4.15605 83.6269 3.89861C83.5132 3.64118 83.3414 3.41365 83.1248 3.23394C82.8308 2.91319 82.764 2.84636 82.9377 2.44542L83.1917 2.08457C83.6327 1.49651 84.1807 0.748083 84.0871 0.133301L83.0045 0.133301L83.0045 0.373868C82.8215 0.753589 82.5974 1.11212 82.3363 1.44306C82.1975 1.611 82.0724 1.78977 81.9621 1.97765C81.7772 2.30429 81.716 2.68655 81.7896 3.05461C81.8632 3.42267 82.0667 3.75197 82.363 3.98238C82.6036 4.23631 82.7239 4.36996 82.7105 4.65062" fill="#21150B"/>
<path d="M53.2546 1.1359C53.533 1.09978 53.799 0.9987 54.0312 0.840833C54.2633 0.682966 54.4551 0.47273 54.5911 0.227092L54.6445 0.0800781L53.1744 0.0800781C53.0915 0.104209 53.0034 0.104209 52.9205 0.080078L51.0227 0.080078C51.2938 0.406126 51.6299 0.672007 52.0096 0.860716C52.3894 1.04942 52.8043 1.15681 53.2279 1.176" fill="#21150B"/>
<path d="M22.1173 15.4365L22.1173 16.7195L23.2266 16.078L22.1173 15.4365Z" fill="#21150B"/>
<path d="M47.5765 13.4449L44.9035 18.1359L42.2306 13.4449L47.5765 13.4449ZM49.4609 12.3623L40.2793 12.3623L44.9035 20.3277L49.4609 12.3623Z" fill="#21150B"/>
<path d="M44.6603 33.3965L43.7852 32.7368L41.3716 35.9385L42.2468 36.5982L44.6603 33.3965Z" fill="#21150B"/>
<path d="M92.442 35.9435L91.4609 35.4858L89.7658 39.1193L90.7469 39.577L92.442 35.9435Z" fill="#21150B"/>
<path d="M63.6322 61.9215L62.1445 58.1982L61.1392 58.5999L62.6269 62.3232L63.6322 61.9215Z" fill="#21150B"/>
<path d="M141.464 58.4139L141.191 57.3662L137.311 58.3762L137.584 59.4238L141.464 58.4139Z" fill="#21150B"/>
<path d="M62.1556 37.3819L60.668 33.6587L59.6627 34.0604L61.1504 37.7836L62.1556 37.3819Z" fill="#21150B"/>
<path d="M51.2759 68.7891L51.2759 69.885C52.0128 69.835 52.7032 69.507 53.2074 68.9674C53.7117 68.4277 53.9922 67.7167 53.9922 66.9781C53.9922 66.2396 53.7117 65.5285 53.2074 64.9889C52.7032 64.4493 52.0128 64.1213 51.2759 64.0713L51.2759 65.1672C51.5268 65.1456 51.7794 65.1764 52.0178 65.2576C52.2561 65.3388 52.475 65.4687 52.6606 65.639C52.8461 65.8092 52.9942 66.0162 53.0956 66.2467C53.1969 66.4773 53.2492 66.7263 53.2492 66.9781C53.2492 67.23 53.1969 67.479 53.0956 67.7096C52.9942 67.9401 52.8461 68.147 52.6606 68.3173C52.475 68.4876 52.2561 68.6174 52.0178 68.6986C51.7794 68.7799 51.5268 68.8106 51.2759 68.7891Z" fill="#21150B"/>
<path d="M150.912 55.6109L150.912 56.6934C151.682 56.6934 152.419 56.3879 152.963 55.844C153.507 55.3001 153.812 54.5624 153.812 53.7932C153.812 53.0241 153.507 52.2864 152.963 51.7425C152.419 51.1986 151.682 50.8931 150.912 50.8931L150.912 51.9756C151.151 51.9756 151.387 52.0226 151.608 52.114C151.828 52.2053 152.029 52.3392 152.198 52.508C152.366 52.6768 152.5 52.8771 152.592 53.0977C152.683 53.3182 152.73 53.5545 152.73 53.7932C152.73 54.0319 152.683 54.2683 152.592 54.4888C152.5 54.7093 152.366 54.9097 152.198 55.0785C152.029 55.2473 151.828 55.3812 151.608 55.4725C151.387 55.5638 151.151 55.6109 150.912 55.6109Z" fill="#21150B"/>
<path d="M75.867 32.8108C75.867 33.0489 75.8199 33.2846 75.7284 33.5044C75.6369 33.7242 75.5028 33.9237 75.3339 34.0914C75.1649 34.2591 74.9644 34.3917 74.744 34.4816C74.5235 34.5715 74.2875 34.6169 74.0494 34.6151L74.0494 35.711C74.4477 35.738 74.8473 35.6829 75.2235 35.5491C75.5996 35.4152 75.9442 35.2055 76.2359 34.9329C76.5276 34.6604 76.7601 34.3307 76.9191 33.9645C77.0781 33.5984 77.1602 33.2034 77.1602 32.8042C77.1602 32.4049 77.0781 32.01 76.9191 31.6438C76.7601 31.2776 76.5276 30.948 76.2359 30.6754C75.9442 30.4028 75.5996 30.1931 75.2235 30.0593C74.8473 29.9254 74.4477 29.8703 74.0494 29.8973L74.0494 30.9932C74.5315 30.9932 74.9938 31.1847 75.3347 31.5256C75.6755 31.8665 75.867 32.3288 75.867 32.8108Z" fill="#21150B"/>
<path d="M89.5017 65.2737C89.4991 65.7416 89.3578 66.1982 89.0956 66.5857C88.8335 66.9732 88.4623 67.2743 88.0291 67.4509C87.5958 67.6275 87.1199 67.6717 86.6616 67.5778C86.2032 67.4839 85.783 67.2563 85.4541 66.9236C85.1251 66.5909 84.9022 66.1681 84.8135 65.7087C84.7248 65.2494 84.7744 64.774 84.9558 64.3428C85.1373 63.9115 85.4426 63.5438 85.8331 63.2861C86.2235 63.0283 86.6817 62.8922 87.1495 62.8948C87.4596 62.8948 87.7665 62.9561 88.0528 63.0751C88.339 63.1942 88.5989 63.3686 88.8175 63.5885C89.0361 63.8083 89.2091 64.0692 89.3265 64.3561C89.444 64.643 89.5035 64.9504 89.5017 65.2604M83.7014 65.2604C83.7014 65.9424 83.9036 66.609 84.2825 67.1761C84.6614 67.7431 85.1999 68.1851 85.83 68.446C86.4601 68.707 87.1533 68.7753 87.8222 68.6422C88.4911 68.5092 89.1055 68.1808 89.5877 67.6986C90.07 67.2163 90.3984 66.6019 90.5314 65.9331C90.6644 65.2642 90.5962 64.5709 90.3352 63.9408C90.0742 63.3108 89.6322 62.7722 89.0652 62.3934C88.4982 62.0145 87.8315 61.8122 87.1495 61.8122C86.6922 61.8069 86.2384 61.8926 85.8146 62.0644C85.3907 62.2361 85.0052 62.4905 84.6806 62.8126C84.356 63.1347 84.0987 63.5182 83.9237 63.9408C83.7487 64.3633 83.6595 64.8164 83.6613 65.2737" fill="#21150B"/>
<path d="M102.547 49.6104L102.547 40.1748L101.464 40.1748L101.464 49.6104L102.547 49.6104Z" fill="#21150B"/>
<path d="M104.911 43.3152L103.468 44.8923L104.911 46.456L103.468 48.033L105.259 49.9843L106.06 49.2359L104.938 48.033L106.395 46.456L104.938 44.8923L106.395 43.3152L104.938 41.7516L106.06 40.5487L105.259 39.8003L103.468 41.7516L104.911 43.3152Z" fill="#21150B"/>
<path d="M150.111 72.9313C150.224 73.1805 150.388 73.4035 150.592 73.5862C150.819 73.8268 150.859 73.8936 150.846 74.054C150.833 74.2143 150.672 74.3613 150.432 74.5885C149.992 74.9162 149.684 75.3902 149.563 75.925L150.632 76.1389C150.721 75.8507 150.905 75.6011 151.153 75.4305C151.557 75.133 151.834 74.6938 151.929 74.201C151.949 73.9495 151.908 73.697 151.811 73.4644C151.713 73.2319 151.561 73.0261 151.367 72.8645C151.263 72.7803 151.176 72.6757 151.113 72.5571C150.886 72.0225 150.98 71.9022 151.287 71.5815C151.655 71.226 151.886 70.7532 151.942 70.245C151.955 69.9639 151.903 69.6836 151.789 69.4261C151.675 69.1687 151.504 68.9412 151.287 68.7615C150.993 68.4407 150.926 68.3739 151.1 67.973L151.354 67.6121C151.848 66.9572 152.477 66.1286 152.183 65.4336C152.104 65.2559 151.978 65.1038 151.817 64.995C151.656 64.8862 151.468 64.8252 151.274 64.8188L151.14 65.9014C150.96 66.2787 150.736 66.6331 150.472 66.9572C150.335 67.1316 150.21 67.3146 150.098 67.5052C149.913 67.8318 149.851 68.2141 149.925 68.5821C149.999 68.9502 150.202 69.2795 150.499 69.5099C150.739 69.7638 150.859 69.8975 150.846 70.1782C150.814 70.4594 150.675 70.7175 150.458 70.8999C150.164 71.1589 149.967 71.5115 149.901 71.8984C149.836 72.2853 149.905 72.683 150.098 73.0249" fill="#21150B"/>
<path d="M77.3012 54.8755C77.5527 54.7735 77.7767 54.6139 77.9555 54.4097C78.1342 54.2054 78.2625 53.9622 78.3303 53.6994C78.4482 53.1988 78.4517 52.6782 78.3407 52.1761C78.2296 51.674 78.0068 51.2033 77.6888 50.7992C77.3564 50.34 77.1533 49.8 77.1007 49.2355C77.1007 49.0618 77.1007 48.9415 77.221 48.9148C77.3413 48.8881 77.7022 48.8212 78.8248 49.3825L79.2391 49.6098C80.0811 50.0775 81.6582 50.9462 82.6605 49.6098C82.8585 49.2427 82.9709 48.8357 82.9895 48.4192C83.008 48.0026 82.9321 47.5872 82.7674 47.2041C82.6831 46.9476 82.5344 46.7171 82.3355 46.5346C82.1366 46.352 81.8942 46.2236 81.6314 46.1616L81.4443 47.2442C81.5512 47.2442 81.6715 47.4046 81.7651 47.6184C81.9404 48.0466 81.9404 48.5266 81.7651 48.9549C81.3909 49.4761 80.8429 49.289 79.7604 48.6876C79.5866 48.594 79.4396 48.5005 79.2926 48.4336C78.357 47.9659 77.3814 47.5917 76.6196 47.9926C76.4137 48.1115 76.2432 48.2831 76.1257 48.4899C76.0082 48.6966 75.9481 48.931 75.9514 49.1687C75.9643 49.9577 76.221 50.7233 76.6864 51.3605C77.1007 52.0956 77.4616 52.697 77.2344 53.3653C77.2137 53.4741 77.1695 53.5772 77.1048 53.6672C77.0402 53.7572 76.9567 53.8321 76.8602 53.8865C76.4592 54.0335 75.5237 53.5256 74.8955 53.1247C73.813 52.4966 72.5968 51.7882 71.6345 52.4698L72.276 53.3519C72.6502 53.0712 73.6125 53.6058 74.3476 54.0602C75.0827 54.5146 76.339 55.2363 77.2344 54.9022" fill="#21150B"/>
<path d="M124.518 61.986C125.24 62.6409 126.563 63.8571 127.859 62.721C128.138 62.4087 128.342 62.0369 128.456 61.634C128.569 61.231 128.589 60.8075 128.514 60.3956C128.505 60.1147 128.42 59.8415 128.267 59.6059C128.114 59.3703 127.899 59.1811 127.646 59.0591L127.231 60.0614C127.325 60.0614 127.405 60.2753 127.445 60.5025C127.487 60.7336 127.482 60.9708 127.432 61.2002C127.381 61.4296 127.286 61.6467 127.151 61.839C126.67 62.2666 126.175 61.9593 125.253 61.1306L124.866 60.7698C124.05 60.1015 123.195 59.5135 122.42 59.7407C122.192 59.8086 121.987 59.9361 121.824 60.11C121.662 60.2838 121.55 60.4977 121.498 60.7297C121.324 61.5026 121.394 62.3103 121.698 63.0418C121.939 63.8571 122.139 64.552 121.778 65.1134C121.618 65.3673 121.444 65.5143 121.297 65.5277C120.87 65.5277 120.135 64.8995 119.56 64.3382C118.651 63.4828 117.622 62.5072 116.539 63.0017L116.954 64.0041C117.381 63.8303 118.143 64.552 118.811 65.1802C119.48 65.8083 120.482 66.784 121.418 66.6637C121.696 66.6275 121.962 66.5265 122.194 66.3686C122.426 66.2107 122.618 66.0005 122.754 65.7549C122.978 65.2923 123.094 64.7852 123.094 64.2714C123.094 63.7576 122.978 63.2504 122.754 62.7879C122.53 62.266 122.456 61.6922 122.54 61.1306C122.54 60.9703 122.66 60.8633 122.727 60.8366C122.794 60.8099 123.208 60.8366 124.184 61.6652L124.532 61.986" fill="#21150B"/>
<path d="M22.6519 48.8481C22.9842 48.9609 23.3411 48.9794 23.6832 48.9016C24.0253 48.8237 24.3392 48.6526 24.5898 48.4071L23.8414 47.6052C23.7414 47.7129 23.6137 47.7911 23.4723 47.8312C23.3309 47.8712 23.1812 47.8717 23.0395 47.8324C22.9438 47.7914 22.8629 47.722 22.8079 47.6336C22.7529 47.5451 22.7265 47.4419 22.7321 47.3379C22.8027 47.0828 22.9108 46.8396 23.0529 46.6162C23.4137 45.9881 24.082 44.812 22.8791 44.0903C22.6453 43.967 22.3802 43.9158 22.1173 43.9432L22.1173 45.0525C22.1831 45.0355 22.2521 45.0355 22.3178 45.0525C22.5183 45.1728 22.5985 45.2263 22.1173 46.0816L22.1173 48.5274C22.2728 48.675 22.454 48.7927 22.6519 48.8749" fill="#21150B"/>
<path d="M39.1692 48.4079L34.4781 51.0808L34.4781 45.7349L39.1692 48.4079ZM41.3477 48.4079L33.3288 43.8237L33.3288 53.0054L41.3477 48.4079Z" fill="#21150B"/>
<path d="M124.238 45.7077L126.911 41.03L129.584 45.7077L124.238 45.7077ZM131.535 46.8036L126.938 38.7847L122.354 46.8036L131.535 46.8036Z" fill="#21150B"/>
<path d="M60.3784 47.7527L52.0254 47.7527L52.0254 45.5208L53.0545 46.4697L54.6315 45.0129L56.1952 46.4697L57.7722 45.0129L59.3493 46.4697L60.3784 45.5208L60.3784 47.7527ZM50.9428 48.8352L61.4609 48.8352L61.4609 42.9814L59.3493 44.9327L57.7722 43.4759L56.1952 44.9327L54.6315 43.4759L53.0545 44.9327L50.9428 42.9814L50.9428 48.8352Z" fill="#21150B"/>
<path d="M140.645 7.13736L139.664 6.67969L137.969 10.3132L138.95 10.7709L140.645 7.13736Z" fill="#21150B"/>
<path d="M92.1347 11.9993L91.418 11.188L88.4132 13.8426L89.13 14.6539L92.1347 11.9993Z" fill="#21150B"/>
<path d="M158.438 24.498L157.809 24.8589L158.437 25.9414L158.438 24.498Z" fill="#21150B"/>
<path d="M122.34 1.41667C122.34 0.9216 122.216 0.434314 121.979 -1.57856e-08L120.562 -7.77103e-08C120.857 0.232466 121.072 0.551082 121.177 0.911461C121.282 1.27184 121.272 1.65603 121.148 2.01051C121.025 2.36499 120.794 2.67211 120.488 2.88907C120.181 3.10603 119.815 3.22204 119.439 3.22093L119.439 4.35694C119.824 4.35697 120.204 4.28065 120.559 4.1324C120.913 3.98416 121.235 3.76694 121.504 3.49337C121.774 3.2198 121.987 2.89534 122.13 2.53884C122.274 2.18233 122.345 1.80089 122.34 1.41667Z" fill="#21150B"/>
<path d="M128.778 18.1491C129.247 18.1465 129.707 18.2833 130.098 18.5422C130.489 18.8012 130.794 19.1705 130.975 19.6033C131.155 20.0361 131.203 20.5128 131.113 20.9729C131.022 21.433 130.796 21.8558 130.464 22.1874C130.133 22.519 129.71 22.7446 129.25 22.8355C128.79 22.9263 128.313 22.8783 127.88 22.6976C127.448 22.5169 127.078 22.2117 126.819 21.8206C126.56 21.4295 126.424 20.9703 126.426 20.5014C126.43 19.8786 126.679 19.2823 127.119 18.842C127.559 18.4016 128.156 18.1526 128.778 18.1491ZM128.778 23.9495C129.46 23.9495 130.127 23.7473 130.694 23.3684C131.261 22.9895 131.703 22.451 131.964 21.8209C132.225 21.1908 132.293 20.4975 132.16 19.8287C132.027 19.1598 131.699 18.5454 131.217 18.0632C130.734 17.5809 130.12 17.2525 129.451 17.1195C128.782 16.9864 128.089 17.0547 127.459 17.3157C126.829 17.5767 126.29 18.0186 125.911 18.5857C125.533 19.1527 125.33 19.8194 125.33 20.5014C125.334 21.4148 125.698 22.2898 126.344 22.9357C126.99 23.5815 127.865 23.946 128.778 23.9495Z" fill="#21150B"/>
<path d="M155.309 2.09866C154.741 2.10119 154.192 1.89827 153.762 1.52736C153.332 1.15645 153.051 0.642576 152.97 0.0805662L151.821 0.0805661C151.879 0.8427 152.19 1.56361 152.704 2.12916C153.218 2.69472 153.906 3.0726 154.66 3.20299C155.413 3.33337 156.188 3.2088 156.862 2.84901C157.537 2.48922 158.072 1.91476 158.383 1.21658L158.383 0.0805664L157.594 0.0805664C157.52 0.648709 157.242 1.17052 156.812 1.54906C156.381 1.92759 155.828 2.13713 155.255 2.13875" fill="#21150B"/>
<path d="M105.258 1.99124L105.258 0.908691L95.8222 0.908691L95.8222 1.99124L105.258 1.99124Z" fill="#21150B"/>
<path d="M105.617 4.70495L103.679 2.91406L102.102 4.37083L100.539 2.91406L98.9615 4.37083L97.3845 2.91406L95.4465 4.70495L96.1816 5.50684L97.3845 4.39756L98.9615 5.85433L100.539 4.39756L102.102 5.85433L103.679 4.39756L104.882 5.50684L105.617 4.70495Z" fill="#21150B"/>
<path d="M114.399 28.1471C114.519 28.3921 114.682 28.6138 114.88 28.802C115.107 29.0292 115.147 29.096 115.134 29.2564C115.121 29.4168 114.96 29.5772 114.72 29.8044C114.277 30.1295 113.969 30.6046 113.851 31.1408L114.934 31.3413C115.019 31.0551 115.198 30.8057 115.441 30.633C115.842 30.3378 116.118 29.9043 116.217 29.4168C116.239 29.1651 116.2 28.9118 116.102 28.6789C116.004 28.446 115.851 28.2405 115.655 28.0803C115.553 27.9889 115.467 27.8803 115.401 27.7595C115.174 27.2249 115.281 27.1047 115.575 26.7839C115.945 26.4305 116.178 25.9566 116.23 25.4474C116.242 25.1665 116.189 24.8865 116.076 24.6292C115.962 24.372 115.791 24.1443 115.575 23.9639C115.281 23.6565 115.214 23.5764 115.388 23.1754L115.642 22.8279C116.15 22.1597 116.765 21.3311 116.471 20.6361C116.391 20.4608 116.263 20.3115 116.102 20.2052C115.942 20.0989 115.754 20.0398 115.562 20.0347L115.428 21.1172C115.247 21.4937 115.022 21.848 114.76 22.173C114.617 22.3428 114.492 22.5264 114.386 22.721C114.202 23.0456 114.141 23.4257 114.215 23.7915C114.288 24.1573 114.491 24.4842 114.787 24.7124C115.027 24.9797 115.147 25.1133 115.134 25.3806C115.102 25.6618 114.963 25.92 114.746 26.1023C114.476 26.3605 114.297 26.6988 114.234 27.0672C114.172 27.4355 114.229 27.8142 114.399 28.1471Z" fill="#21150B"/>
<path d="M152.691 13.445L157.382 16.118L152.691 18.7909L152.691 13.445ZM151.608 11.5605L151.608 20.7422L158.437 16.7327L158.437 15.3963L151.608 11.5605Z" fill="#21150B"/>
<path d="M104.791 17.8819L102.118 22.5729L99.4454 17.8819L104.791 17.8819ZM97.4941 16.7993L102.092 24.7514L106.676 16.7993L97.4941 16.7993Z" fill="#21150B"/>
<path d="M140.729 36.9805L140.729 28.6275L143.014 28.6275L142.065 29.6566L143.509 31.2336L142.065 32.7973L143.509 34.3744L142.065 35.9514L143.014 36.9805L140.729 36.9805ZM145.5 38.063L143.549 35.9514L144.992 34.3744L143.549 32.7973L144.992 31.2336L143.549 29.6566L145.5 27.5449L139.633 27.5449L139.633 38.063L145.5 38.063Z" fill="#21150B"/>
<path d="M157.703 44.1845C157.235 44.3182 157.008 44.3716 156.915 44.2647C156.821 44.1578 156.915 43.8637 157.102 43.5965C157.351 43.2098 157.467 42.7518 157.431 42.2929C157.395 41.834 157.208 41.3998 156.901 41.0571L156.113 41.8056C156.473 42.1798 156.393 42.4872 156.113 43.142C155.951 43.4676 155.856 43.8219 155.832 44.1845C155.834 44.4633 155.934 44.7326 156.113 44.9463C156.674 45.6279 157.449 45.3606 158.051 45.1869C158.171 45.1869 158.331 45.1067 158.465 45.0799L158.465 43.9707C158.213 44.0045 157.967 44.0673 157.73 44.1578" fill="#21150B"/>
<path d="M158.424 46.0815C158.142 46.4716 157.984 46.9371 157.97 47.418C157.99 47.8196 158.156 48.2 158.437 48.4872L158.438 46.0815" fill="#21150B"/>
<path d="M170.707 0.0400389L170.587 0.0400389L170.079 0.935483L173.567 2.91348L174.102 1.96458L170.707 0.0400389Z" fill="#21150B"/>
<path d="M221.081 23.3601L217.59 21.3882L217.057 22.3308L220.548 24.3027L221.081 23.3601Z" fill="#21150B"/>
<path d="M159.813 28.3205L160.762 27.7859L158.744 24.311L158.436 24.4981L158.436 25.9415L159.813 28.3205Z" fill="#21150B"/>
<path d="M171.321 22.6804L168.26 24.097L169.156 26.5027L170.185 26.1151L169.637 24.6583L172.871 23.1615L168.902 16.4791L170.292 15.0758L169.53 14.314L167.539 16.3053L171.321 22.6804Z" fill="#21150B"/>
<path d="M196.917 22.8671L198.013 22.8671C198.04 22.4688 197.985 22.0692 197.851 21.6931C197.717 21.3169 197.507 20.9723 197.235 20.6807C196.962 20.389 196.633 20.1564 196.266 19.9974C195.9 19.8384 195.505 19.7563 195.106 19.7563C194.707 19.7563 194.312 19.8384 193.946 19.9974C193.579 20.1564 193.25 20.389 192.977 20.6807C192.705 20.9723 192.495 21.3169 192.361 21.6931C192.227 22.0692 192.172 22.4688 192.199 22.8671L193.255 22.8671C193.255 22.385 193.446 21.9227 193.787 21.5818C194.128 21.241 194.591 21.0495 195.073 21.0495C195.555 21.0495 196.017 21.241 196.358 21.5818C196.699 21.9227 196.89 22.385 196.89 22.8671" fill="#21150B"/>
<path d="M207.019 11.5869C207.022 12.0553 206.885 12.514 206.627 12.9047C206.369 13.2955 206 13.6008 205.568 13.7819C205.136 13.963 204.66 14.0117 204.2 13.922C203.741 13.8322 203.318 13.608 202.986 13.2777C202.654 12.9474 202.427 12.5259 202.335 12.0667C202.242 11.6074 202.288 11.1311 202.467 10.6981C202.646 10.265 202.949 9.89479 203.338 9.63426C203.727 9.37373 204.185 9.23465 204.654 9.23464C205.279 9.23463 205.878 9.48203 206.322 9.92277C206.765 10.3635 207.016 10.9618 207.019 11.5869ZM201.206 11.5869C201.213 12.2671 201.422 12.9297 201.806 13.4915C202.19 14.0532 202.731 14.4889 203.362 14.7438C203.992 14.9986 204.684 15.0612 205.351 14.9237C206.017 14.7861 206.627 14.4546 207.106 13.9708C207.584 13.487 207.908 12.8726 208.038 12.2048C208.168 11.5371 208.097 10.8459 207.835 10.2181C207.573 9.5904 207.131 9.05422 206.565 8.67708C205.999 8.29994 205.334 8.09868 204.654 8.09863C203.739 8.09863 202.862 8.46192 202.215 9.10857C201.569 9.75522 201.206 10.6323 201.206 11.5468" fill="#21150B"/>
<path d="M219.021 4.5573C218.989 4.83851 218.85 5.0967 218.633 5.279C218.339 5.53808 218.142 5.89063 218.076 6.27753C218.01 6.66443 218.08 7.06215 218.273 7.40401C218.386 7.65325 218.55 7.87625 218.754 8.05889C218.981 8.29945 219.021 8.36628 219.008 8.52666C218.994 8.68703 218.834 8.83405 218.593 9.06125C218.154 9.38887 217.845 9.86289 217.725 10.3977L218.794 10.6116C218.883 10.3234 219.066 10.0738 219.315 9.90324C219.719 9.60569 219.996 9.16655 220.09 8.67367C220.11 8.42225 220.07 8.16966 219.972 7.93711C219.874 7.70456 219.722 7.49883 219.529 7.33719C219.424 7.25302 219.338 7.14843 219.275 7.02979C219.048 6.48184 219.141 6.37492 219.449 6.05416C219.816 5.69868 220.048 5.22592 220.103 4.71768C220.117 4.43658 220.064 4.15628 219.951 3.89885C219.837 3.64142 219.665 3.41389 219.449 3.23418C219.155 2.91342 219.088 2.8466 219.262 2.44565L219.515 2.0848C219.983 1.41656 220.504 0.681496 220.411 0.0800781L219.328 0.0800781L219.328 0.320645C219.143 0.710276 218.914 1.07788 218.647 1.41656C218.508 1.58451 218.383 1.76327 218.273 1.95116C218.088 2.2778 218.026 2.66006 218.1 3.02812C218.174 3.39618 218.377 3.72548 218.673 3.95588C218.914 4.20981 219.034 4.34346 219.021 4.62412" fill="#21150B"/>
<path d="M189.579 1.1359C189.857 1.09978 190.123 0.9987 190.355 0.840833C190.588 0.682966 190.779 0.47273 190.915 0.227092L190.969 0.0800781L189.499 0.0800781C189.416 0.104209 189.328 0.104209 189.245 0.080078L187.374 0.080078C187.645 0.406126 187.981 0.672007 188.361 0.860716C188.74 1.04942 189.155 1.15681 189.579 1.176" fill="#21150B"/>
<path d="M158.438 15.4365L158.438 16.7195L159.547 16.078L158.438 15.4365Z" fill="#21150B"/>
<path d="M183.897 13.4449L181.224 18.1359L178.551 13.4449L183.897 13.4449ZM185.781 12.3623L176.6 12.3623L181.224 20.3277L185.781 12.3623Z" fill="#21150B"/>
<path d="M180.981 33.396L180.105 32.7363L177.692 35.938L178.567 36.5977L180.981 33.396Z" fill="#21150B"/>
<path d="M228.782 35.9489L227.801 35.4912L226.106 39.1247L227.087 39.5824L228.782 35.9489Z" fill="#21150B"/>
<path d="M199.953 61.9259L198.465 58.2026L197.46 58.6043L198.947 62.3275L199.953 61.9259Z" fill="#21150B"/>
<path d="M277.788 58.4217L277.516 57.374L273.635 58.384L273.908 59.4317L277.788 58.4217Z" fill="#21150B"/>
<path d="M198.476 37.3868L196.988 33.6636L195.983 34.0652L197.471 37.7885L198.476 37.3868Z" fill="#21150B"/>
<path d="M187.596 68.7891L187.596 69.885C188.333 69.835 189.023 69.507 189.528 68.9674C190.032 68.4277 190.312 67.7167 190.312 66.9781C190.312 66.2396 190.032 65.5285 189.528 64.9889C189.023 64.4493 188.333 64.1213 187.596 64.0713L187.596 65.1672C187.847 65.1456 188.1 65.1764 188.338 65.2576C188.576 65.3388 188.795 65.4687 188.981 65.639C189.166 65.8092 189.315 66.0162 189.416 66.2467C189.517 66.4773 189.57 66.7263 189.57 66.9781C189.57 67.23 189.517 67.479 189.416 67.7096C189.315 67.9401 189.166 68.147 188.981 68.3173C188.795 68.4876 188.576 68.6174 188.338 68.6986C188.1 68.7799 187.847 68.8106 187.596 68.7891Z" fill="#21150B"/>
<path d="M287.233 55.6109L287.233 56.6934C288.002 56.6934 288.739 56.3879 289.283 55.844C289.827 55.3001 290.133 54.5624 290.133 53.7932C290.133 53.0241 289.827 52.2864 289.283 51.7425C288.739 51.1986 288.002 50.8931 287.233 50.8931L287.233 51.9756C287.715 51.9756 288.177 52.1671 288.518 52.508C288.859 52.8489 289.05 53.3112 289.05 53.7932C289.05 54.2753 288.859 54.7376 288.518 55.0785C288.177 55.4194 287.715 55.6109 287.233 55.6109Z" fill="#21150B"/>
<path d="M212.187 32.8108C212.187 33.0489 212.14 33.2846 212.049 33.5044C211.957 33.7242 211.823 33.9237 211.654 34.0914C211.485 34.2591 211.285 34.3917 211.064 34.4816C210.844 34.5715 210.608 34.6169 210.37 34.6151L210.37 35.711C210.768 35.738 211.168 35.6829 211.544 35.5491C211.92 35.4152 212.264 35.2055 212.556 34.9329C212.848 34.6604 213.08 34.3307 213.239 33.9645C213.398 33.5984 213.48 33.2034 213.48 32.8042C213.48 32.4049 213.398 32.01 213.239 31.6438C213.08 31.2776 212.848 30.948 212.556 30.6754C212.264 30.4028 211.92 30.1931 211.544 30.0593C211.168 29.9254 210.768 29.8703 210.37 29.8973L210.37 30.9932C210.852 30.9932 211.314 31.1847 211.655 31.5256C211.996 31.8665 212.187 32.3288 212.187 32.8108Z" fill="#21150B"/>
<path d="M225.822 65.2737C225.819 65.7416 225.678 66.1982 225.416 66.5857C225.154 66.9732 224.783 67.2743 224.349 67.4509C223.916 67.6275 223.44 67.6717 222.982 67.5778C222.524 67.4839 222.103 67.2563 221.774 66.9236C221.445 66.5909 221.223 66.1681 221.134 65.7087C221.045 65.2494 221.095 64.774 221.276 64.3428C221.458 63.9115 221.763 63.5438 222.153 63.2861C222.544 63.0283 223.002 62.8922 223.47 62.8948C223.78 62.8948 224.087 62.9561 224.373 63.0751C224.659 63.1942 224.919 63.3686 225.138 63.5885C225.356 63.8083 225.529 64.0692 225.647 64.3561C225.764 64.643 225.824 64.9504 225.822 65.2604M220.022 65.2604C220.022 65.9424 220.224 66.609 220.603 67.1761C220.982 67.7431 221.52 68.1851 222.15 68.446C222.78 68.707 223.474 68.7753 224.143 68.6422C224.811 68.5092 225.426 68.1808 225.908 67.6986C226.39 67.2163 226.719 66.6019 226.852 65.9331C226.985 65.2642 226.916 64.5709 226.655 63.9408C226.395 63.3108 225.953 62.7722 225.386 62.3934C224.818 62.0145 224.152 61.8122 223.47 61.8122C223.013 61.8069 222.559 61.8926 222.135 62.0644C221.711 62.2361 221.326 62.4905 221.001 62.8126C220.676 63.1347 220.419 63.5182 220.244 63.9408C220.069 64.3633 219.98 64.8164 219.982 65.2737" fill="#21150B"/>
<path d="M238.852 49.6104L238.852 40.1748L237.769 40.1748L237.769 49.6104L238.852 49.6104Z" fill="#21150B"/>
<path d="M241.231 43.3152L239.788 44.8923L241.231 46.456L239.788 48.033L241.579 49.9843L242.367 49.2359L241.258 48.033L242.715 46.456L241.258 44.8923L242.715 43.3152L241.258 41.7516L242.367 40.5487L241.579 39.8003L239.788 41.7516L241.231 43.3152Z" fill="#21150B"/>
<path d="M286.433 72.9316C286.547 73.1808 286.71 73.4038 286.914 73.5865C287.142 73.827 287.182 73.8939 287.168 74.0542C287.155 74.2146 286.995 74.3616 286.754 74.5888C286.314 74.9165 286.006 75.3905 285.885 75.9253L286.955 76.1392C287.043 75.851 287.227 75.6014 287.476 75.4308C287.88 75.1333 288.157 74.6941 288.251 74.2013C288.271 73.9498 288.231 73.6973 288.133 73.4647C288.035 73.2322 287.883 73.0264 287.69 72.8648C287.585 72.7806 287.499 72.676 287.436 72.5574C287.208 72.0228 287.302 71.9025 287.609 71.5817C287.977 71.2263 288.209 70.7535 288.264 70.2453C288.277 69.9642 288.225 69.6839 288.111 69.4264C287.998 69.169 287.826 68.9415 287.609 68.7618C287.315 68.441 287.249 68.3742 287.422 67.9732L287.676 67.6124C288.144 66.9041 288.799 66.0353 288.505 65.3404C288.427 65.1626 288.3 65.0105 288.139 64.9018C287.978 64.793 287.79 64.7319 287.596 64.7256L287.462 65.8081C287.289 66.1987 287.07 66.5667 286.808 66.9041C286.671 67.0784 286.546 67.2614 286.433 67.452C286.248 67.7787 286.187 68.1609 286.261 68.529C286.334 68.897 286.538 69.2263 286.834 69.4567C287.075 69.7107 287.195 69.8443 287.182 70.125C287.149 70.4062 287.011 70.6644 286.794 70.8467C286.499 71.1058 286.303 71.4583 286.237 71.8452C286.171 72.2321 286.241 72.6298 286.433 72.9717" fill="#21150B"/>
<path d="M213.622 54.8755C213.873 54.7735 214.097 54.6139 214.276 54.4097C214.454 54.2054 214.583 53.9622 214.651 53.6994C214.769 53.1988 214.772 52.6782 214.661 52.1761C214.55 51.674 214.327 51.2033 214.009 50.7992C213.677 50.34 213.474 49.8 213.421 49.2355C213.421 49.0618 213.421 48.9415 213.541 48.9148C213.662 48.8881 214.022 48.8212 215.145 49.3825L215.559 49.6098C216.401 50.0775 217.978 50.9462 218.981 49.6098C219.179 49.2427 219.291 48.8357 219.31 48.4192C219.328 48.0026 219.252 47.5872 219.088 47.2041C219.003 46.9476 218.855 46.7171 218.656 46.5346C218.457 46.352 218.214 46.2236 217.952 46.1616L217.765 47.2442C217.872 47.2442 217.992 47.4046 218.085 47.6184C218.261 48.0466 218.261 48.5266 218.085 48.9549C217.711 49.4761 217.163 49.289 216.081 48.6876C215.907 48.594 215.76 48.5005 215.613 48.4336C214.677 47.9659 213.702 47.5917 212.94 47.9926C212.734 48.1115 212.563 48.2831 212.446 48.4899C212.329 48.6966 212.268 48.931 212.272 49.1687C212.285 49.9577 212.541 50.7233 213.007 51.3605C213.421 52.0956 213.782 52.697 213.555 53.3653C213.534 53.4741 213.49 53.5772 213.425 53.6672C213.361 53.7572 213.277 53.8321 213.18 53.8865C212.78 54.0335 211.844 53.5256 211.216 53.1247C210.133 52.4966 208.917 51.7882 207.955 52.4698L208.596 53.3519C208.971 53.0712 209.933 53.6058 210.668 54.0602C211.657 54.6349 212.659 55.2363 213.555 54.9022" fill="#21150B"/>
<path d="M260.838 61.986C261.56 62.6409 262.883 63.8571 264.18 62.721C264.458 62.4087 264.662 62.0369 264.776 61.634C264.889 61.231 264.909 60.8075 264.835 60.3956C264.826 60.1147 264.74 59.8415 264.587 59.6059C264.434 59.3703 264.219 59.1811 263.966 59.0591L263.552 60.0614C263.645 60.0614 263.725 60.2753 263.765 60.5025C263.807 60.7336 263.803 60.9708 263.752 61.2002C263.702 61.4296 263.606 61.6467 263.471 61.839C262.99 62.2666 262.496 61.9593 261.574 61.1306L261.186 60.7698C260.371 60.1015 259.515 59.5135 258.74 59.7407C258.512 59.8086 258.307 59.9361 258.145 60.11C257.983 60.2838 257.87 60.4977 257.818 60.7297C257.644 61.5026 257.715 62.3103 258.018 63.0418C258.259 63.8571 258.46 64.552 258.099 65.1134C257.938 65.3673 257.765 65.5143 257.618 65.5277C257.19 65.5277 256.455 64.8995 255.88 64.3382C254.971 63.4828 253.942 62.5072 252.86 63.0017L253.274 64.0041C253.702 63.8303 254.463 64.552 255.132 65.1802C255.8 65.8083 256.802 66.784 257.738 66.6637C258.016 66.6275 258.282 66.5265 258.514 66.3686C258.747 66.2107 258.938 66.0005 259.074 65.7549C259.298 65.2923 259.414 64.7852 259.414 64.2714C259.414 63.7576 259.298 63.2504 259.074 62.7879C258.851 62.266 258.777 61.6922 258.86 61.1306C258.86 60.9703 258.981 60.8633 259.048 60.8366C259.114 60.8099 259.529 60.8366 260.504 61.6652L260.852 61.986" fill="#21150B"/>
<path d="M158.972 48.8481C159.304 48.9609 159.661 48.9794 160.004 48.9016C160.346 48.8237 160.659 48.6526 160.91 48.4071L160.162 47.6052C160.062 47.7129 159.934 47.7911 159.793 47.8312C159.651 47.8712 159.501 47.8717 159.36 47.8324C159.264 47.7914 159.183 47.722 159.128 47.6336C159.073 47.5451 159.047 47.4419 159.052 47.3379C159.123 47.0828 159.231 46.8396 159.373 46.6162C159.734 45.9881 160.402 44.812 159.199 44.0903C158.966 43.967 158.701 43.9158 158.438 43.9432L158.438 45.0525C158.503 45.0355 158.572 45.0355 158.638 45.0525C158.839 45.1728 158.919 45.2263 158.438 46.0816L158.438 48.5274C158.593 48.675 158.774 48.7927 158.972 48.8749" fill="#21150B"/>
<path d="M175.49 48.4079L170.798 51.0808L170.798 45.7349L175.49 48.4079ZM177.668 48.4079L169.649 43.8237L169.649 53.0054L177.668 48.4079Z" fill="#21150B"/>
<path d="M260.558 45.7079L263.231 41.0302L265.904 45.7079L260.558 45.7079ZM267.855 46.8573L263.258 38.8384L258.674 46.8573L267.855 46.8573Z" fill="#21150B"/>
<path d="M196.699 47.7527L188.346 47.7527L188.346 45.5208L189.375 46.4697L190.952 45.0129L192.515 46.4697L194.093 45.0129L195.67 46.4697L196.699 45.5208L196.699 47.7527ZM187.263 48.8352L197.781 48.8352L197.781 42.9814L195.67 44.9327L194.093 43.4759L192.515 44.9327L190.952 43.4759L189.375 44.9327L187.263 42.9814L187.263 48.8352Z" fill="#21150B"/>
<path d="M276.985 7.14274L276.004 6.68506L274.309 10.3186L275.29 10.7762L276.985 7.14274Z" fill="#21150B"/>
<path d="M228.459 11.9939L227.742 11.1826L224.737 13.8373L225.454 14.6485L228.459 11.9939Z" fill="#21150B"/>
<path d="M258.66 1.41656C258.648 0.948697 258.524 0.490504 258.299 0.0800781L256.882 0.080078C257.177 0.312544 257.392 0.631161 257.497 0.991539C257.602 1.35192 257.592 1.73611 257.469 2.09059C257.345 2.44507 257.114 2.75219 256.808 2.96915C256.501 3.18611 256.135 3.30212 255.76 3.301L255.76 4.35683C256.144 4.35686 256.524 4.28054 256.879 4.13229C257.233 3.98404 257.555 3.76683 257.825 3.49326C258.095 3.21969 258.307 2.89523 258.451 2.53873C258.594 2.18222 258.665 1.80078 258.66 1.41656Z" fill="#21150B"/>
<path d="M265.103 18.1496C265.572 18.147 266.031 18.2838 266.422 18.5427C266.813 18.8016 267.118 19.171 267.299 19.6037C267.48 20.0365 267.528 20.5133 267.437 20.9734C267.346 21.4335 267.12 21.8562 266.789 22.1879C266.457 22.5195 266.034 22.7451 265.574 22.8359C265.114 22.9268 264.637 22.8788 264.205 22.6981C263.772 22.5174 263.402 22.2121 263.144 21.8211C262.885 21.43 262.748 20.9708 262.75 20.5018C262.754 19.8791 263.003 19.2828 263.443 18.8425C263.884 18.4021 264.48 18.1531 265.103 18.1496ZM265.103 23.95C265.785 23.95 266.451 23.7477 267.018 23.3689C267.585 22.99 268.027 22.4514 268.288 21.8214C268.549 21.1913 268.618 20.498 268.485 19.8291C268.351 19.1603 268.023 18.5459 267.541 18.0636C267.059 17.5814 266.444 17.253 265.775 17.12C265.106 16.9869 264.413 17.0552 263.783 17.3162C263.153 17.5772 262.615 18.0191 262.236 18.5862C261.857 19.1532 261.655 19.8199 261.655 20.5018C261.658 21.4153 262.022 22.2903 262.668 22.9361C263.314 23.582 264.189 23.9465 265.103 23.95Z" fill="#21150B"/>
<path d="M291.63 2.09817C291.063 2.1007 290.513 1.89779 290.083 1.52687C289.653 1.15596 289.372 0.642088 289.292 0.0800779L288.142 0.0800778C288.185 0.860333 288.492 1.60272 289.014 2.18468C289.535 2.76665 290.24 3.1534 291.011 3.28111C291.781 3.40882 292.573 3.26984 293.254 2.88712C293.935 2.5044 294.466 1.90081 294.758 1.176L294.758 0.0800781L293.969 0.0800781C293.886 0.640923 293.604 1.1532 293.175 1.52361C292.745 1.89401 292.197 2.09791 291.63 2.09817Z" fill="#21150B"/>
<path d="M241.578 1.99124L241.578 0.908691L232.143 0.908691L232.143 1.99124L241.578 1.99124Z" fill="#21150B"/>
<path d="M241.941 4.70495L240.004 2.91406L238.426 4.37083L236.863 2.91406L235.286 4.37083L233.709 2.91406L231.771 4.70495L232.506 5.50684L233.709 4.39756L235.286 5.85433L236.863 4.39756L238.426 5.85433L240.004 4.39756L241.206 5.50684L241.941 4.70495Z" fill="#21150B"/>
<path d="M250.722 28.1465C250.842 28.3915 251.005 28.6132 251.203 28.8014C251.43 29.0286 251.47 29.0954 251.457 29.2558C251.443 29.4162 251.283 29.5765 251.042 29.8038C250.6 30.1289 250.291 30.604 250.174 31.1402L251.256 31.3407C251.342 31.0545 251.52 30.8051 251.764 30.6324C252.164 30.3372 252.441 29.9037 252.539 29.4162C252.562 29.1645 252.522 28.9112 252.424 28.6783C252.326 28.4454 252.173 28.2399 251.978 28.0797C251.875 27.9882 251.789 27.8797 251.724 27.7589C251.497 27.2243 251.604 27.1041 251.898 26.7833C252.268 26.4299 252.5 25.956 252.553 25.4468C252.565 25.1659 252.512 24.8859 252.398 24.6286C252.285 24.3713 252.113 24.1437 251.898 23.9633C251.604 23.6559 251.537 23.5757 251.711 23.1748L251.978 22.8006C252.486 22.1323 253.1 21.3037 252.806 20.6087C252.726 20.4335 252.599 20.2842 252.438 20.1779C252.278 20.0715 252.09 20.0124 251.898 20.0073L251.764 21.0899C251.583 21.4664 251.358 21.8207 251.096 22.1457C250.953 22.3155 250.828 22.499 250.722 22.6937C250.538 23.0183 250.477 23.3984 250.55 23.7642C250.624 24.1299 250.827 24.4569 251.122 24.685C251.363 24.9523 251.483 25.086 251.47 25.3533C251.438 25.6345 251.299 25.8927 251.082 26.075C250.804 26.3334 250.618 26.6758 250.553 27.05C250.488 27.4241 250.547 27.8092 250.722 28.1465Z" fill="#21150B"/>
<path d="M293.702 16.1182L289.011 18.7912L289.011 13.4453L293.702 16.1182ZM294.758 15.4767L287.928 11.4673L287.928 20.6623L294.758 16.6528L294.758 15.4767Z" fill="#21150B"/>
<path d="M241.112 17.8819L238.439 22.5729L235.766 17.8819L241.112 17.8819ZM233.814 16.7993L238.412 24.7514L242.996 16.7993L233.814 16.7993Z" fill="#21150B"/>
<path d="M277.049 36.9805L277.049 28.6275L279.334 28.6275L278.386 29.6566L279.829 31.2336L278.386 32.7973L279.829 34.3744L278.386 35.9514L279.334 36.9805L277.049 36.9805ZM281.82 38.063L279.869 35.9514L281.312 34.3744L279.869 32.7973L281.312 31.2336L279.869 29.6566L281.82 27.5449L275.953 27.5449L275.953 38.063L281.82 38.063Z" fill="#21150B"/>
<path d="M294.023 44.1845C293.556 44.3182 293.328 44.3716 293.235 44.2647C293.141 44.1578 293.235 43.8637 293.422 43.5965C293.672 43.2098 293.787 42.7518 293.751 42.2929C293.715 41.834 293.529 41.3998 293.221 41.0571L292.433 41.8056C292.794 42.1798 292.714 42.4872 292.433 43.142C292.272 43.4676 292.176 43.8219 292.152 44.1845C292.155 44.4633 292.254 44.7326 292.433 44.9463C292.994 45.6279 293.769 45.3606 294.371 45.1869C294.491 45.1869 294.652 45.1067 294.785 45.0799L294.785 43.9707C294.524 44.011 294.268 44.0828 294.023 44.1845Z" fill="#21150B"/>
<path d="M294.744 46.0815C294.463 46.4716 294.304 46.9371 294.29 47.418C294.31 47.8196 294.476 48.2 294.758 48.4872L294.758 46.0815" fill="#21150B"/>
<path d="M5.14379 58.4056L4.87109 57.3579L0.990934 58.3679L1.26363 59.4155L5.14379 58.4056Z" fill="#21150B"/>
<path d="M14.592 55.6109L14.592 56.6934C15.3612 56.6934 16.0988 56.3879 16.6427 55.844C17.1866 55.3001 17.4922 54.5624 17.4922 53.7932C17.4922 53.0241 17.1866 52.2864 16.6427 51.7425C16.0988 51.1986 15.3612 50.8931 14.592 50.8931L14.592 51.9756C15.0741 51.9756 15.5364 52.1671 15.8773 52.508C16.2181 52.8489 16.4096 53.3112 16.4096 53.7932C16.4096 54.2753 16.2181 54.7376 15.8773 55.0785C15.5364 55.4194 15.0741 55.6109 14.592 55.6109Z" fill="#21150B"/>
<path d="M13.7906 72.9318C13.904 73.181 14.0678 73.404 14.2718 73.5867C14.499 73.8272 14.5391 73.8941 14.5257 74.0544C14.5123 74.2148 14.352 74.3618 14.1114 74.589C13.6717 74.9167 13.3636 75.3907 13.2427 75.9255L14.3119 76.1394C14.4007 75.8512 14.5844 75.6016 14.8331 75.431C15.2372 75.1335 15.514 74.6943 15.6083 74.2015C15.6284 73.95 15.5879 73.6975 15.4902 73.4649C15.3926 73.2324 15.2406 73.0266 15.0469 72.865C14.9423 72.7808 14.8559 72.6762 14.793 72.5576C14.5658 72.023 14.6594 71.9027 14.9667 71.5819C15.3342 71.2265 15.5659 70.7537 15.6216 70.2455C15.6347 69.9644 15.5824 69.6841 15.4688 69.4266C15.3551 69.1692 15.1833 68.9417 14.9667 68.762C14.6727 68.4412 14.6059 68.3744 14.7796 67.9734L15.0336 67.6126C15.5281 66.9577 16.1562 66.1291 15.8622 65.4341C15.7841 65.2564 15.6574 65.1043 15.4965 64.9955C15.3357 64.8867 15.1474 64.8256 14.9534 64.8193L14.8197 65.9019C14.6398 66.2792 14.4155 66.6336 14.1515 66.9577C14.015 67.1321 13.89 67.3151 13.7773 67.5057C13.5924 67.8323 13.5311 68.2146 13.6047 68.5826C13.6783 68.9507 13.8819 69.28 14.1782 69.5104C14.4188 69.7643 14.5391 69.898 14.5257 70.1786C14.4933 70.4598 14.3547 70.718 14.1381 70.9003C13.8434 71.1594 13.6466 71.512 13.5809 71.8989C13.5152 72.2858 13.5846 72.6835 13.7773 73.0254" fill="#21150B"/>
<path d="M4.32089 7.13199L3.33984 6.67432L1.64474 10.3078L2.62579 10.7655L4.32089 7.13199Z" fill="#21150B"/>
<path d="M22.1172 24.498L21.489 24.8589L22.1172 25.9414L22.1172 24.498Z" fill="#21150B"/>
<path d="M18.9886 2.09866C18.4208 2.10119 17.8713 1.89827 17.4414 1.52736C17.0116 1.15645 16.7304 0.642576 16.6497 0.0805662L15.5004 0.0805661C15.5587 0.8427 15.8695 1.56361 16.3837 2.12916C16.8979 2.69472 17.5861 3.0726 18.3392 3.20299C19.0924 3.33337 19.8675 3.2088 20.5419 2.84901C21.2163 2.48922 21.7514 1.91476 22.0625 1.21658L22.0625 0.0805664L21.274 0.0805664C21.1995 0.648709 20.9214 1.17052 20.4912 1.54906C20.0611 1.92759 19.5081 2.13713 18.9351 2.13875" fill="#21150B"/>
<path d="M16.3703 13.445L21.0614 16.118L16.3703 18.7909L16.3703 13.445ZM15.2878 11.5605L15.2878 20.7422L22.1172 16.7327L22.1172 15.3963L15.2878 11.5605Z" fill="#21150B"/>
<path d="M4.40843 36.9805L4.40843 28.6275L6.69383 28.6275L5.74491 29.6566L7.18832 31.2336L5.74491 32.7973L7.18832 34.3744L5.74491 35.9514L6.69383 36.9805L4.40843 36.9805ZM9.17969 38.063L7.22841 35.9514L8.67182 34.3744L7.22841 32.7973L8.67182 31.2336L7.22841 29.6566L9.17969 27.5449L3.31252 27.5449L3.31252 38.063L9.17969 38.063Z" fill="#21150B"/>
<path d="M21.3788 44.1845C20.911 44.3182 20.6839 44.3716 20.5903 44.2647C20.4967 44.1578 20.6571 43.8637 20.7774 43.5965C21.0271 43.2098 21.1428 42.7518 21.1066 42.2929C21.0703 41.834 20.8843 41.3998 20.5769 41.0571L19.7884 41.8056C20.1493 42.1798 20.0691 42.4872 19.7884 43.142C19.627 43.4676 19.5316 43.8219 19.5077 44.1845C19.5102 44.4633 19.6094 44.7326 19.7884 44.9463C20.3497 45.6279 21.1249 45.3606 21.7263 45.1869C21.8466 45.1869 22.007 45.1067 22.1406 45.0799L22.1406 43.9707C21.8892 44.0045 21.6425 44.0673 21.4056 44.1578" fill="#21150B"/>
<path d="M22.0999 46.0815C21.8182 46.4716 21.6599 46.9371 21.6455 47.418C21.6654 47.8196 21.8318 48.2 22.1133 48.4872L22.1133 46.0815" fill="#21150B"/>
</svg>
