<svg width="77" height="220" viewBox="0 0 77 220" fill="none" xmlns="http://www.w3.org/2000/svg">
<path d="M76.1006 96.7392L76.1006 96.65L75.2051 96.2735L73.2271 98.86L74.176 99.2563L76.1006 96.7392Z" fill="#21150B"/>
<path d="M52.7781 134.098L54.75 131.509L53.8074 131.114L51.8355 133.703L52.7781 134.098Z" fill="#21150B"/>
<path d="M47.8206 88.6626L48.3552 89.3662L51.8301 87.8797L51.643 87.6419L50.1996 87.6419L47.8206 88.6626Z" fill="#21150B"/>
<path d="M53.4608 97.1853L52.0441 94.9258L49.6384 95.5898L50.026 96.3528L51.4828 95.9465L52.9796 98.3447L59.662 95.4015L61.0654 96.4321L61.8271 95.8672L59.8358 94.3906L53.4608 97.1853Z" fill="#21150B"/>
<path d="M53.273 116.173L53.273 116.985C53.6713 117.005 54.071 116.964 54.4471 116.865C54.8232 116.766 55.1678 116.61 55.4595 116.408C55.7512 116.206 55.9837 115.962 56.1427 115.69C56.3017 115.419 56.3838 115.126 56.3838 114.83C56.3838 114.534 56.3017 114.241 56.1427 113.969C55.9837 113.698 55.7512 113.454 55.4595 113.251C55.1678 113.049 54.8232 112.894 54.4471 112.795C54.071 112.695 53.6713 112.654 53.273 112.674L53.273 113.457C53.7551 113.457 54.2174 113.599 54.5583 113.852C54.8992 114.105 55.0907 114.448 55.0907 114.805C55.0907 115.163 54.8992 115.505 54.5583 115.758C54.2174 116.011 53.7551 116.153 53.273 116.153" fill="#21150B"/>
<path d="M64.5538 123.665C64.0853 123.667 63.6267 123.566 63.2359 123.374C62.8451 123.182 62.5399 122.909 62.3588 122.589C62.1777 122.268 62.1289 121.916 62.2187 121.575C62.3084 121.234 62.5327 120.92 62.863 120.674C63.1933 120.428 63.6147 120.26 64.074 120.191C64.5332 120.123 65.0095 120.157 65.4426 120.289C65.8756 120.422 66.2458 120.646 66.5064 120.935C66.7669 121.224 66.906 121.563 66.906 121.911C66.906 122.374 66.6586 122.819 66.2179 123.148C65.7771 123.476 65.1788 123.662 64.5538 123.665ZM64.5538 119.354C63.8736 119.36 63.2109 119.515 62.6491 119.799C62.0874 120.084 61.6517 120.485 61.3968 120.953C61.142 121.42 61.0794 121.933 61.217 122.427C61.3545 122.921 61.686 123.374 62.1698 123.729C62.6536 124.083 63.268 124.324 63.9358 124.42C64.6035 124.517 65.2948 124.464 65.9225 124.27C66.5502 124.075 67.0864 123.748 67.4635 123.328C67.8407 122.908 68.0419 122.415 68.042 121.911C68.042 121.233 67.6787 120.582 67.0321 120.103C66.3854 119.623 65.5084 119.354 64.5939 119.354" fill="#21150B"/>
<path d="M71.5841 132.564C71.3028 132.54 71.0447 132.437 70.8623 132.276C70.6033 132.058 70.2507 131.912 69.8638 131.863C69.4769 131.814 69.0792 131.866 68.7373 132.009C68.4881 132.093 68.2651 132.214 68.0825 132.365C67.8419 132.534 67.7751 132.564 67.6147 132.554C67.4543 132.544 67.3073 132.425 67.0801 132.246C66.7525 131.92 66.2785 131.692 65.7436 131.602L65.5298 132.395C65.8179 132.461 66.0676 132.597 66.2381 132.782C66.5357 133.081 66.9748 133.287 67.4677 133.356C67.7191 133.371 67.9717 133.341 68.2042 133.269C68.4368 133.196 68.6425 133.084 68.8042 132.94C68.8883 132.863 68.9929 132.799 69.1116 132.752C69.6595 132.583 69.7664 132.653 70.0872 132.881C70.4427 133.153 70.9154 133.325 71.4237 133.366C71.7048 133.376 71.9851 133.337 72.2425 133.253C72.4999 133.169 72.7275 133.041 72.9072 132.881C73.2279 132.663 73.2947 132.613 73.6957 132.742L74.0565 132.93C74.6446 133.257 75.393 133.664 76.0078 133.594L76.0078 132.792L75.7672 132.792C75.3875 132.656 75.029 132.49 74.6981 132.296C74.5301 132.193 74.3513 132.1 74.1635 132.019C73.8368 131.881 73.4546 131.836 73.0865 131.891C72.7184 131.945 72.3891 132.096 72.1587 132.316C71.9048 132.494 71.7712 132.583 71.4905 132.573" fill="#21150B"/>
<path d="M75.0047 110.732C75.0409 110.939 75.1419 111.136 75.2998 111.308C75.4577 111.48 75.6679 111.622 75.9135 111.723L76.0605 111.763L76.0605 110.673C76.0364 110.611 76.0364 110.546 76.0605 110.484L76.0605 109.077C75.7345 109.278 75.4686 109.527 75.2799 109.809C75.0912 110.09 74.9838 110.398 74.9646 110.712" fill="#21150B"/>
<path d="M60.7041 87.6421L59.4211 87.6421L60.0626 88.4646L60.7041 87.6421Z" fill="#21150B"/>
<path d="M62.6958 106.521L58.0047 104.539L62.6958 102.557L62.6958 106.521ZM63.7783 107.918L63.7783 101.11L55.8129 104.539L63.7783 107.918Z" fill="#21150B"/>
<path d="M42.7446 104.358L43.4043 103.709L40.2026 101.92L39.5429 102.569L42.7446 104.358Z" fill="#21150B"/>
<path d="M40.198 139.788L40.6553 139.062L37.0223 137.805L36.565 138.532L40.198 139.788Z" fill="#21150B"/>
<path d="M14.2195 118.426L17.9424 117.323L17.5411 116.578L13.8182 117.681L14.2195 118.426Z" fill="#21150B"/>
<path d="M17.7268 176.139L18.7744 175.937L17.7644 173.059L16.7168 173.262L17.7268 176.139Z" fill="#21150B"/>
<path d="M38.7596 117.332L42.4824 116.229L42.0811 115.484L38.3583 116.587L38.7596 117.332Z" fill="#21150B"/>
<path d="M7.35155 109.266L6.25563 109.266C6.30563 109.812 6.63361 110.324 7.17325 110.698C7.71289 111.072 8.42391 111.28 9.16248 111.28C9.90106 111.28 10.6121 111.072 11.1517 110.698C11.6914 110.324 12.0193 109.812 12.0693 109.266L10.9734 109.266C10.995 109.452 10.9642 109.639 10.883 109.816C10.8018 109.993 10.6719 110.155 10.5017 110.292C10.3314 110.43 10.1244 110.54 9.8939 110.615C9.66337 110.69 9.4143 110.729 9.16248 110.729C8.91067 110.729 8.66159 110.69 8.43106 110.615C8.20053 110.54 7.99358 110.43 7.82331 110.292C7.65305 110.155 7.52319 109.993 7.44198 109.816C7.36077 109.639 7.32998 109.452 7.35155 109.266Z" fill="#21150B"/>
<path d="M20.5293 183.144L19.4467 183.144C19.4467 183.715 19.7523 184.262 20.2962 184.665C20.8401 185.068 21.5777 185.295 22.3469 185.295C23.1161 185.295 23.8537 185.068 24.3976 184.665C24.9415 184.262 25.2471 183.715 25.2471 183.144L24.1645 183.144C24.1645 183.321 24.1175 183.496 24.0262 183.66C23.9348 183.823 23.8009 183.972 23.6321 184.097C23.4634 184.222 23.263 184.322 23.0425 184.389C22.8219 184.457 22.5856 184.492 22.3469 184.492C22.1082 184.492 21.8719 184.457 21.6513 184.389C21.4308 184.322 21.2304 184.222 21.0617 184.097C20.8929 183.972 20.759 183.823 20.6676 183.66C20.5763 183.496 20.5293 183.321 20.5293 183.144Z" fill="#21150B"/>
<path d="M43.3298 127.5C43.0917 127.5 42.856 127.465 42.6362 127.397C42.4164 127.329 42.217 127.23 42.0492 127.105C41.8815 126.979 41.7489 126.831 41.659 126.667C41.5691 126.504 41.5238 126.329 41.5255 126.152L40.4296 126.152C40.4026 126.447 40.4577 126.744 40.5916 127.023C40.7254 127.302 40.9351 127.557 41.2077 127.773C41.4803 127.99 41.8099 128.162 42.1761 128.28C42.5423 128.398 42.9372 128.459 43.3365 128.459C43.7357 128.459 44.1307 128.398 44.4968 128.28C44.863 128.162 45.1927 127.99 45.4652 127.773C45.7378 127.557 45.9475 127.302 46.0814 127.023C46.2152 126.744 46.2703 126.447 46.2433 126.152L45.1474 126.152C45.1474 126.51 44.9559 126.852 44.615 127.105C44.2742 127.358 43.8118 127.5 43.3298 127.5Z" fill="#21150B"/>
<path d="M10.8664 137.608C10.3985 137.606 9.94198 137.501 9.55444 137.307C9.16691 137.113 8.8658 136.837 8.6892 136.516C8.51261 136.195 8.46845 135.842 8.56232 135.502C8.65619 135.162 8.88387 134.851 9.21656 134.607C9.54925 134.363 9.97202 134.198 10.4314 134.132C10.8908 134.066 11.3661 134.103 11.7974 134.237C12.2286 134.372 12.5963 134.598 12.8541 134.888C13.1118 135.177 13.248 135.517 13.2453 135.864C13.2453 136.094 13.1841 136.321 13.065 136.534C12.946 136.746 12.7715 136.939 12.5517 137.101C12.3318 137.263 12.0709 137.391 11.784 137.478C11.4971 137.565 11.1898 137.609 10.8798 137.608M10.8798 133.307C10.1978 133.307 9.53112 133.457 8.96408 133.738C8.39704 134.019 7.95509 134.418 7.69411 134.885C7.43312 135.353 7.36484 135.867 7.49789 136.363C7.63093 136.859 7.95934 137.314 8.44157 137.672C8.9238 138.029 9.53819 138.273 10.2071 138.372C10.8759 138.47 11.5692 138.42 12.1993 138.226C12.8294 138.033 13.3679 137.705 13.7468 137.284C14.1257 136.864 14.3279 136.37 14.3279 135.864C14.3332 135.525 14.2475 135.188 14.0758 134.874C13.904 134.56 13.6497 134.274 13.3275 134.033C13.0054 133.792 12.6219 133.602 12.1994 133.472C11.7768 133.342 11.3237 133.276 10.8664 133.277" fill="#21150B"/>
<path d="M26.5302 147.28L35.9658 147.28L35.9658 146.477L26.5302 146.477L26.5302 147.28Z" fill="#21150B"/>
<path d="M32.8259 149.034L31.2488 147.964L29.6851 149.034L28.1081 147.964L26.1568 149.292L26.9052 149.887L28.1081 149.054L29.6851 150.134L31.2488 149.054L32.8259 150.134L34.3896 149.054L35.5924 149.887L36.3408 149.292L34.3896 147.964L32.8259 149.034Z" fill="#21150B"/>
<path d="M3.20883 182.55C2.95959 182.634 2.73659 182.755 2.55395 182.906C2.31339 183.075 2.24656 183.105 2.08618 183.095C1.92581 183.085 1.77879 182.966 1.55159 182.788C1.22396 182.462 0.749952 182.233 0.215104 182.143L0.00126758 182.936C0.289419 183.002 0.539052 183.138 0.709602 183.323C1.00715 183.622 1.44629 183.828 1.93917 183.897C2.19059 183.912 2.44317 183.882 2.67572 183.81C2.90827 183.738 3.11401 183.625 3.27565 183.481C3.35982 183.404 3.46441 183.34 3.58305 183.293C4.11764 183.124 4.23792 183.194 4.55868 183.422C4.91416 183.694 5.38692 183.866 5.89516 183.907C6.17626 183.917 6.45656 183.878 6.71399 183.794C6.97142 183.71 7.19895 183.582 7.37866 183.422C7.69942 183.204 7.76624 183.154 8.16719 183.283L8.52804 183.471C9.18291 183.838 10.0115 184.304 10.7065 184.086C10.8843 184.028 11.0363 183.934 11.1451 183.815C11.2539 183.695 11.315 183.556 11.3213 183.412L10.2387 183.313C9.86146 183.179 9.50701 183.013 9.18291 182.817C9.00857 182.716 8.82553 182.623 8.63495 182.54C8.30831 182.403 7.92605 182.357 7.55799 182.412C7.18993 182.466 6.86063 182.617 6.63023 182.837C6.3763 183.015 6.24265 183.105 5.96199 183.095C5.68078 183.071 5.42259 182.968 5.24028 182.807C4.9812 182.589 4.62866 182.443 4.24176 182.394C3.85486 182.346 3.45713 182.397 3.11527 182.54" fill="#21150B"/>
<path d="M21.2646 128.56C21.3667 128.747 21.5262 128.913 21.7305 129.046C21.9347 129.178 22.178 129.273 22.4407 129.324C22.9413 129.411 23.462 129.414 23.9641 129.331C24.4662 129.249 24.9368 129.084 25.3409 128.848C25.8001 128.601 26.3401 128.451 26.9046 128.412C27.0783 128.412 27.1986 128.412 27.2254 128.501C27.2521 128.59 27.3189 128.858 26.7576 129.69L26.5304 129.997C26.0626 130.622 25.1939 131.791 26.5304 132.534C26.8974 132.681 27.3044 132.765 27.721 132.778C28.1376 132.792 28.5529 132.736 28.9361 132.614C29.1925 132.551 29.4231 132.441 29.6056 132.293C29.7881 132.146 29.9165 131.966 29.9785 131.771L28.896 131.633C28.896 131.712 28.7356 131.801 28.5217 131.87C28.0935 132 27.6135 132 27.1853 131.87C26.664 131.593 26.8511 131.187 27.4526 130.384C27.5461 130.255 27.6397 130.146 27.7065 130.037C28.1743 129.343 28.5485 128.62 28.1475 128.055C28.0287 127.902 27.857 127.776 27.6503 127.689C27.4435 127.602 27.2092 127.557 26.9714 127.56C26.1825 127.569 25.4168 127.76 24.7796 128.105C24.0445 128.412 23.4431 128.679 22.7749 128.511C22.666 128.496 22.563 128.463 22.4729 128.415C22.3829 128.367 22.3081 128.305 22.2536 128.233C22.1066 127.936 22.6145 127.242 23.0154 126.777C23.6436 125.974 24.3519 125.072 23.6703 124.359L22.7882 124.834C23.0689 125.112 22.5343 125.825 22.0799 126.37C21.6255 126.915 20.9038 127.847 21.2379 128.511" fill="#21150B"/>
<path d="M14.1542 163.572C13.4993 164.107 12.2831 165.088 13.4191 166.05C13.7314 166.256 14.1032 166.408 14.5062 166.492C14.9091 166.576 15.3327 166.591 15.7446 166.535C16.0255 166.529 16.2986 166.465 16.5342 166.352C16.7699 166.238 16.959 166.079 17.0811 165.891L16.0787 165.584C16.0787 165.653 15.8649 165.713 15.6377 165.742C15.4065 165.773 15.1694 165.77 14.94 165.733C14.7106 165.695 14.4935 165.624 14.3012 165.524C13.8735 165.168 14.1809 164.801 15.0095 164.117L15.3704 163.83C16.0386 163.225 16.6267 162.591 16.3995 162.016C16.3315 161.847 16.204 161.695 16.0302 161.575C15.8563 161.455 15.6424 161.371 15.4105 161.333C14.6375 161.204 13.8298 161.256 13.0983 161.481C12.2831 161.66 11.5881 161.808 11.0268 161.541C10.7729 161.422 10.6258 161.293 10.6125 161.184C10.6125 160.867 11.2406 160.322 11.8019 159.896C12.6573 159.222 13.6329 158.459 13.1384 157.656L12.1361 157.963C12.3098 158.28 11.5881 158.845 10.96 159.341C10.3318 159.836 9.35618 160.579 9.47646 161.273C9.51259 161.479 9.61367 161.677 9.77153 161.849C9.9294 162.021 10.1396 162.163 10.3853 162.264C10.8478 162.43 11.355 162.516 11.8688 162.516C12.3826 162.516 12.8897 162.43 13.3523 162.264C13.8742 162.098 14.448 162.043 15.0095 162.105C15.1699 162.105 15.2768 162.195 15.3035 162.244C15.3303 162.294 15.3035 162.601 14.4749 163.324L14.1542 163.582" fill="#21150B"/>
<path d="M27.292 88.0386C27.1792 88.285 27.1607 88.5497 27.2386 88.8033C27.3164 89.057 27.4876 89.2897 27.733 89.4756L28.5349 88.9206C28.4272 88.8465 28.349 88.7518 28.309 88.6469C28.2689 88.5421 28.2685 88.4311 28.3077 88.326C28.3487 88.255 28.4181 88.1951 28.5066 88.1543C28.595 88.1135 28.6982 88.0939 28.8022 88.0981C29.0574 88.1504 29.3006 88.2306 29.5239 88.3359C30.1521 88.6035 31.3282 89.099 32.0499 88.2071C32.1731 88.0337 32.2243 87.8372 32.1969 87.6422L31.0876 87.6422C31.1046 87.691 31.1046 87.7421 31.0876 87.7909C30.9673 87.9395 30.9139 87.999 30.0585 87.6422L27.6128 87.6422C27.4652 87.7575 27.3474 87.8919 27.2653 88.0386" fill="#21150B"/>
<path d="M27.7332 100.287L25.0603 96.8089L30.4062 96.8089L27.7332 100.287ZM27.7332 101.903L32.3174 95.9566L23.1357 95.9566L27.7332 101.903Z" fill="#21150B"/>
<path d="M30.4325 163.364L35.1102 165.346L30.4325 167.328L30.4325 163.364ZM29.3366 168.775L37.3555 165.366L29.3366 161.967L29.3366 168.775Z" fill="#21150B"/>
<path d="M28.3879 116.014L28.3879 109.82L30.6199 109.82L29.671 110.584L31.1277 111.753L29.671 112.912L31.1277 114.082L29.671 115.251L30.6199 116.014L28.3879 116.014ZM27.3054 109.018L27.3054 116.817L33.1592 116.817L31.2079 115.251L32.6647 114.082L31.2079 112.912L32.6647 111.753L31.2079 110.584L33.1592 109.018L27.3054 109.018Z" fill="#21150B"/>
<path d="M69.0037 175.53L69.4609 174.803L65.8279 173.547L65.3707 174.274L69.0037 175.53Z" fill="#21150B"/>
<path d="M64.1409 139.561L64.9521 139.03L62.2975 136.802L61.4862 137.333L64.1409 139.561Z" fill="#21150B"/>
<path d="M51.6426 188.723L51.2817 188.258L50.1992 188.723L51.6426 188.723Z" fill="#21150B"/>
<path d="M74.724 161.957C75.219 161.957 75.7063 161.865 76.1406 161.689L76.1406 160.639C75.9082 160.857 75.5895 161.016 75.2292 161.094C74.8688 161.172 74.4846 161.165 74.1301 161.073C73.7756 160.982 73.4685 160.81 73.2516 160.583C73.0346 160.356 72.9186 160.084 72.9197 159.806L71.7837 159.806C71.7837 160.091 71.86 160.373 72.0082 160.636C72.1565 160.899 72.3737 161.137 72.6473 161.337C72.9208 161.537 73.2453 161.695 73.6018 161.801C73.9583 161.908 74.3397 161.961 74.724 161.957Z" fill="#21150B"/>
<path d="M57.992 166.733C57.9946 167.081 57.8578 167.422 57.5989 167.711C57.34 168.001 56.9706 168.228 56.5379 168.362C56.1051 168.496 55.6283 168.531 55.1682 168.464C54.7081 168.397 54.2854 168.229 53.9537 167.983C53.6221 167.738 53.3965 167.424 53.3057 167.083C53.2148 166.742 53.2628 166.388 53.4435 166.067C53.6242 165.746 53.9295 165.473 54.3205 165.281C54.7116 165.089 55.1708 164.987 55.6398 164.989C56.2625 164.992 56.8588 165.176 57.2991 165.503C57.7395 165.829 57.9885 166.271 57.992 166.733ZM52.1916 166.733C52.1916 167.239 52.3939 167.733 52.7727 168.154C53.1516 168.574 53.6902 168.902 54.3202 169.095C54.9503 169.289 55.6436 169.34 56.3125 169.241C56.9813 169.142 57.5957 168.899 58.078 168.541C58.5602 168.184 58.8886 167.728 59.0216 167.232C59.1547 166.736 59.0864 166.222 58.8254 165.755C58.5644 165.288 58.1225 164.888 57.5554 164.607C56.9884 164.326 56.3217 164.176 55.6398 164.176C54.7263 164.179 53.8513 164.449 53.2055 164.928C52.5596 165.407 52.1952 166.056 52.1916 166.733Z" fill="#21150B"/>
<path d="M74.0415 186.405C74.0389 185.984 74.2419 185.576 74.6128 185.257C74.9837 184.939 75.4976 184.73 76.0596 184.67L76.0596 183.818C75.2974 183.861 74.5765 184.092 74.011 184.473C73.4454 184.854 73.0675 185.365 72.9372 185.923C72.8068 186.482 72.9313 187.056 73.2911 187.556C73.6509 188.056 74.2254 188.453 74.9236 188.684L76.0596 188.684L76.0596 188.099C75.4914 188.044 74.9696 187.838 74.5911 187.519C74.2125 187.2 74.003 186.79 74.0014 186.365" fill="#21150B"/>
<path d="M74.1489 149.292L75.2314 149.292L75.2314 142.295L74.1489 142.295L74.1489 149.292Z" fill="#21150B"/>
<path d="M71.4357 149.559L73.2266 148.122L71.7698 146.953L73.2266 145.794L71.7698 144.624L73.2266 143.455L71.4357 142.018L70.6338 142.563L71.7431 143.455L70.2863 144.624L71.7431 145.794L70.2863 146.953L71.7431 148.122L70.6338 149.014L71.4357 149.559Z" fill="#21150B"/>
<path d="M47.994 156.07C47.749 156.159 47.5273 156.28 47.3391 156.427C47.1119 156.595 47.0451 156.625 46.8847 156.615C46.7243 156.605 46.564 156.486 46.3367 156.308C46.0116 155.98 45.5365 155.751 45.0003 155.664L44.7998 156.467C45.086 156.53 45.3354 156.662 45.5081 156.843C45.8033 157.14 46.2368 157.345 46.7243 157.418C46.976 157.435 47.2293 157.405 47.4622 157.333C47.6951 157.26 47.9006 157.147 48.0608 157.002C48.1523 156.926 48.2608 156.862 48.3816 156.813C48.9162 156.645 49.0364 156.724 49.3572 156.942C49.7106 157.217 50.1845 157.389 50.6937 157.428C50.9746 157.437 51.2546 157.398 51.5119 157.313C51.7692 157.229 51.9968 157.102 52.1772 156.942C52.4846 156.724 52.5648 156.675 52.9657 156.804L53.3132 156.992C53.9814 157.368 54.8101 157.824 55.505 157.606C55.6803 157.547 55.8296 157.452 55.9359 157.333C56.0422 157.214 56.1013 157.075 56.1064 156.932L55.0239 156.833C54.6474 156.699 54.2931 156.533 53.9681 156.338C53.7983 156.232 53.6147 156.139 53.4201 156.06C53.0955 155.924 52.7154 155.879 52.3496 155.933C51.9838 155.988 51.6569 156.139 51.4288 156.358C51.1615 156.536 51.0278 156.625 50.7605 156.615C50.4793 156.591 50.2211 156.488 50.0388 156.328C49.7806 156.128 49.4423 155.994 49.0739 155.948C48.7056 155.902 48.3269 155.944 47.994 156.07Z" fill="#21150B"/>
<path d="M62.6956 184.462L60.0227 187.941L57.3497 184.462L62.6956 184.462ZM64.5801 183.659L55.3984 183.659L59.4079 188.723L60.7444 188.723L64.5801 183.659Z" fill="#21150B"/>
<path d="M58.2583 148.945L53.5672 146.963L58.2583 144.981L58.2583 148.945ZM59.3408 143.534L51.3887 146.943L59.3408 150.342L59.3408 143.534Z" fill="#21150B"/>
<path d="M39.1601 175.593L47.5131 175.593L47.5131 177.287L46.4841 176.584L44.907 177.654L43.3433 176.584L41.7663 177.654L40.1892 176.584L39.1601 177.287L39.1601 175.593ZM38.0776 179.13L40.1892 177.684L41.7663 178.754L43.3433 177.684L44.907 178.754L46.4841 177.684L48.5957 179.13L48.5957 174.78L38.0776 174.78L38.0776 179.13Z" fill="#21150B"/>
<path d="M31.9556 188.179C31.822 187.832 31.7685 187.663 31.8754 187.594C31.9824 187.524 32.2764 187.594 32.5437 187.733C32.9303 187.918 33.3884 188.004 33.8472 187.977C34.3061 187.95 34.7403 187.812 35.083 187.584L34.3346 186.999C33.9604 187.267 33.653 187.207 32.9981 186.999C32.6725 186.88 32.3182 186.809 31.9556 186.791C31.6769 186.793 31.4076 186.867 31.1938 186.999C30.5122 187.415 30.7795 187.99 30.9533 188.436C30.9533 188.525 31.0335 188.644 31.0602 188.743L32.1695 188.743C32.1357 188.557 32.0729 188.374 31.9824 188.198" fill="#21150B"/>
<path d="M30.0586 188.714C29.6686 188.505 29.203 188.388 28.7221 188.377C28.3205 188.392 27.9401 188.515 27.6529 188.724L30.0586 188.724" fill="#21150B"/>
<path d="M76.1006 197.821L76.1006 197.732L75.2051 197.355L73.2271 199.941L74.176 200.338L76.1006 197.821Z" fill="#21150B"/>
<path d="M47.8206 189.744L48.3552 190.448L51.8301 188.952L51.643 188.724L50.1996 188.724L47.8206 189.744Z" fill="#21150B"/>
<path d="M53.4598 198.277L52.0431 196.008L49.6374 196.672L50.025 197.435L51.4818 197.028L52.9786 199.427L59.6611 196.483L61.0644 197.514L61.8262 196.949L59.8348 195.472L53.4598 198.277Z" fill="#21150B"/>
<path d="M53.274 217.254L53.274 218.067C53.6723 218.087 54.0719 218.046 54.4481 217.947C54.8242 217.847 55.1688 217.692 55.4605 217.49C55.7522 217.288 55.9847 217.043 56.1437 216.772C56.3027 216.5 56.3848 216.207 56.3848 215.911C56.3848 215.615 56.3027 215.323 56.1437 215.051C55.9847 214.779 55.7522 214.535 55.4605 214.333C55.1688 214.131 54.8242 213.975 54.4481 213.876C54.0719 213.777 53.6723 213.736 53.274 213.756L53.274 214.539C53.7561 214.539 54.2184 214.681 54.5593 214.934C54.9001 215.186 55.0916 215.529 55.0916 215.887C55.0916 216.244 54.9001 216.587 54.5593 216.84C54.2184 217.092 53.7561 217.234 53.274 217.234" fill="#21150B"/>
<path d="M75.0047 211.814C75.0409 212.02 75.1419 212.217 75.2998 212.389C75.4577 212.562 75.6679 212.704 75.9135 212.805L76.0605 212.844L76.0605 211.754C76.0364 211.693 76.0364 211.627 76.0605 211.566L76.0605 210.178C75.7345 210.379 75.4686 210.629 75.2799 210.91C75.0912 211.192 74.9838 211.5 74.9646 211.814" fill="#21150B"/>
<path d="M60.7041 188.724L59.4211 188.724L60.0626 189.546L60.7041 188.724Z" fill="#21150B"/>
<path d="M62.6958 207.602L58.0047 205.62L62.6958 203.638L62.6958 207.602ZM63.7783 208.999L63.7783 202.191L55.8129 205.62L63.7783 208.999Z" fill="#21150B"/>
<path d="M42.7446 205.439L43.4043 204.79L40.2026 203.001L39.5429 203.65L42.7446 205.439Z" fill="#21150B"/>
<path d="M14.2146 219.506L17.9375 218.403L17.5362 217.658L13.8134 218.761L14.2146 219.506Z" fill="#21150B"/>
<path d="M38.7537 218.412L42.4766 217.309L42.0753 216.564L38.3524 217.667L38.7537 218.412Z" fill="#21150B"/>
<path d="M7.35155 210.347L6.25563 210.347C6.30563 210.894 6.63361 211.406 7.17325 211.779C7.71289 212.153 8.42391 212.361 9.16248 212.361C9.90106 212.361 10.6121 212.153 11.1517 211.779C11.6914 211.406 12.0193 210.894 12.0693 210.347L10.9734 210.347C10.995 210.533 10.9642 210.721 10.883 210.897C10.8018 211.074 10.6719 211.236 10.5017 211.374C10.3314 211.511 10.1244 211.621 9.8939 211.696C9.66337 211.772 9.4143 211.81 9.16248 211.81C8.91067 211.81 8.66159 211.772 8.43106 211.696C8.20053 211.621 7.99358 211.511 7.82331 211.374C7.65305 211.236 7.52319 211.074 7.44198 210.897C7.36077 210.721 7.32998 210.533 7.35155 210.347Z" fill="#21150B"/>
<path d="M27.292 189.12C27.1792 189.366 27.1607 189.631 27.2386 189.885C27.3164 190.138 27.4876 190.371 27.733 190.557L28.5349 190.002C28.4272 189.928 28.349 189.833 28.309 189.728C28.2689 189.623 28.2685 189.512 28.3077 189.407C28.3487 189.336 28.4181 189.276 28.5066 189.236C28.595 189.195 28.6982 189.175 28.8022 189.179C29.0574 189.232 29.3006 189.312 29.5239 189.417C30.1521 189.685 31.3282 190.18 32.0499 189.288C32.1731 189.115 32.2243 188.918 32.1969 188.724L31.0876 188.724C31.1046 188.772 31.1046 188.823 31.0876 188.872C30.9673 189.021 30.9139 189.08 30.0585 188.724L27.6128 188.724C27.4652 188.839 27.3474 188.973 27.2653 189.12" fill="#21150B"/>
<path d="M27.7323 201.369L25.0593 197.89L30.4052 197.89L27.7323 201.369ZM27.7323 202.984L32.3164 197.038L23.1348 197.038L27.7323 202.984Z" fill="#21150B"/>
<path d="M28.3879 217.095L28.3879 210.902L30.6199 210.902L29.671 211.665L31.1277 212.834L29.671 213.994L31.1277 215.163L29.671 216.332L30.6199 217.095L28.3879 217.095ZM27.3054 210.099L27.3054 217.898L33.1592 217.898L31.2079 216.332L32.6647 215.163L31.2079 213.994L32.6647 212.834L31.2079 211.665L33.1592 210.099L27.3054 210.099Z" fill="#21150B"/>
<path d="M52.7761 33.0305L54.748 30.4419L53.8055 30.0471L51.8336 32.6357L52.7761 33.0305Z" fill="#21150B"/>
<path d="M53.273 15.0911L53.273 15.9037C53.6713 15.9238 54.071 15.8829 54.4471 15.7836C54.8232 15.6844 55.1678 15.5289 55.4595 15.3268C55.7512 15.1247 55.9837 14.8803 56.1427 14.6087C56.3017 14.3372 56.3838 14.0444 56.3838 13.7483C56.3838 13.4523 56.3017 13.1594 56.1427 12.8879C55.9837 12.6164 55.7512 12.372 55.4595 12.1698C55.1678 11.9677 54.8232 11.8122 54.4471 11.713C54.071 11.6137 53.6713 11.5729 53.273 11.5929L53.273 12.3758C53.7551 12.3758 54.2174 12.5178 54.5583 12.7706C54.8992 13.0233 55.0907 13.3661 55.0907 13.7235C55.0907 14.081 54.8992 14.4238 54.5583 14.6765C54.2174 14.9293 53.7551 15.0713 53.273 15.0713" fill="#21150B"/>
<path d="M64.5538 22.5832C64.0853 22.5852 63.6267 22.4839 63.2359 22.2924C62.8451 22.1009 62.5399 21.8276 62.3588 21.5073C62.1777 21.1869 62.1289 20.834 62.2187 20.493C62.3084 20.1521 62.5327 19.8387 62.863 19.5924C63.1933 19.3461 63.6147 19.178 64.074 19.1095C64.5332 19.041 65.0095 19.0752 65.4426 19.2077C65.8756 19.3401 66.2458 19.565 66.5064 19.8536C66.7669 20.1423 66.906 20.4818 66.906 20.8291C66.906 21.2926 66.6586 21.7373 66.2179 22.0659C65.7771 22.3946 65.1788 22.5806 64.5538 22.5832ZM64.5538 18.2724C63.8736 18.2782 63.2109 18.4332 62.6491 18.7176C62.0874 19.0021 61.6517 19.4035 61.3968 19.8711C61.142 20.3388 61.0794 20.8519 61.217 21.3459C61.3545 21.8399 61.686 22.2927 62.1698 22.6473C62.6536 23.0019 63.268 23.2425 63.9358 23.3387C64.6035 23.435 65.2948 23.3827 65.9225 23.1883C66.5502 22.994 67.0864 22.6663 67.4635 22.2465C67.8407 21.8267 68.0419 21.3335 68.042 20.8291C68.042 20.151 67.6787 19.5007 67.0321 19.0212C66.3854 18.5417 65.5084 18.2724 64.5939 18.2724" fill="#21150B"/>
<path d="M71.5841 31.4823C71.3028 31.4583 71.0447 31.3555 70.8623 31.1949C70.6033 30.9763 70.2507 30.8305 69.8638 30.7817C69.4769 30.733 69.0792 30.7844 68.7373 30.9273C68.4881 31.0114 68.2651 31.1328 68.0825 31.2841C67.8419 31.4525 67.7751 31.4823 67.6147 31.4724C67.4543 31.4625 67.3073 31.3435 67.0801 31.1652C66.7525 30.8391 66.2785 30.6107 65.7436 30.521L65.5298 31.3138C65.8179 31.3797 66.0676 31.5159 66.2381 31.7003C66.5357 31.9999 66.9748 32.2052 67.4677 32.2751C67.7191 32.29 67.9717 32.26 68.2042 32.1876C68.4368 32.1152 68.6425 32.0024 68.8042 31.8589C68.8883 31.7813 68.9929 31.7172 69.1116 31.6706C69.6595 31.5021 69.7664 31.5715 70.0872 31.7994C70.4427 32.0719 70.9154 32.2437 71.4237 32.285C71.7048 32.2947 71.9851 32.2559 72.2425 32.1717C72.4999 32.0874 72.7275 31.96 72.9072 31.7994C73.2279 31.5814 73.2947 31.5318 73.6957 31.6607L74.0565 31.849C74.6446 32.176 75.393 32.5823 76.0078 32.5129L76.0078 31.7102L75.7672 31.7102C75.3875 31.5745 75.029 31.4083 74.6981 31.2147C74.5301 31.1118 74.3513 31.019 74.1635 30.9373C73.8368 30.8002 73.4546 30.7547 73.0865 30.8093C72.7184 30.8639 72.3891 31.0148 72.1587 31.2345C71.9048 31.4129 71.7712 31.5021 71.4905 31.4922" fill="#21150B"/>
<path d="M75.0047 9.65075C75.0409 9.85719 75.1419 10.0545 75.2998 10.2266C75.4577 10.3987 75.6679 10.5409 75.9135 10.6417L76.0605 10.6814L76.0605 9.5913C76.0364 9.52981 76.0364 9.46449 76.0605 9.403L76.0605 7.99578C75.7345 8.19679 75.4686 8.44606 75.2799 8.72762C75.0912 9.00918 74.9838 9.31685 74.9646 9.63094" fill="#21150B"/>
<path d="M62.6958 5.43887L58.0047 3.45688L62.6958 1.47489L62.6958 5.43887ZM63.7783 6.83618L63.7783 0.028048L55.8129 3.45688L63.7783 6.83618Z" fill="#21150B"/>
<path d="M42.7446 3.27707L43.4043 2.62817L40.2026 0.838571L39.5429 1.48747L42.7446 3.27707Z" fill="#21150B"/>
<path d="M40.2029 38.7038L40.6602 37.9771L37.0271 36.7203L36.5699 37.4471L40.2029 38.7038Z" fill="#21150B"/>
<path d="M14.2107 17.3449L17.9336 16.2419L17.5323 15.4973L13.8095 16.6003L14.2107 17.3449Z" fill="#21150B"/>
<path d="M17.7356 75.0565L18.7832 74.8542L17.7732 71.9771L16.7256 72.1793L17.7356 75.0565Z" fill="#21150B"/>
<path d="M38.7635 16.2514L42.4863 15.1484L42.085 14.4037L38.3622 15.5067L38.7635 16.2514Z" fill="#21150B"/>
<path d="M7.35155 8.1841L6.25563 8.1841C6.30563 8.7305 6.63361 9.24243 7.17325 9.61634C7.71289 9.99025 8.42391 10.1982 9.16248 10.1982C9.90106 10.1982 10.6121 9.99025 11.1517 9.61634C11.6914 9.24243 12.0193 8.7305 12.0693 8.1841L10.9734 8.1841C10.995 8.37014 10.9642 8.55747 10.883 8.73422C10.8018 8.91096 10.6719 9.07327 10.5017 9.21085C10.3314 9.34842 10.1244 9.45825 9.8939 9.53338C9.66337 9.60852 9.4143 9.64734 9.16248 9.64734C8.91067 9.64734 8.66159 9.60852 8.43106 9.53338C8.20053 9.45825 7.99358 9.34842 7.82331 9.21085C7.65305 9.07327 7.52319 8.91096 7.44198 8.73422C7.36077 8.55747 7.32998 8.37014 7.35155 8.1841Z" fill="#21150B"/>
<path d="M20.5293 82.0627L19.4467 82.0627C19.4467 82.633 19.7523 83.18 20.2962 83.5833C20.8401 83.9866 21.5777 84.2131 22.3469 84.2131C23.1161 84.2131 23.8537 83.9866 24.3976 83.5833C24.9415 83.18 25.2471 82.633 25.2471 82.0627L24.1645 82.0627C24.1645 82.4201 23.973 82.7629 23.6321 83.0157C23.2913 83.2684 22.829 83.4104 22.3469 83.4104C21.8648 83.4104 21.4025 83.2684 21.0617 83.0157C20.7208 82.7629 20.5293 82.4201 20.5293 82.0627Z" fill="#21150B"/>
<path d="M43.3298 26.4183C43.0917 26.4184 42.856 26.3834 42.6362 26.3156C42.4164 26.2477 42.217 26.1483 42.0492 26.023C41.8815 25.8977 41.7489 25.749 41.659 25.5856C41.5691 25.4221 41.5238 25.2471 41.5255 25.0706L40.4296 25.0706C40.4026 25.3659 40.4577 25.6622 40.5916 25.9411C40.7254 26.22 40.9351 26.4755 41.2077 26.6918C41.4803 26.9081 41.8099 27.0806 42.1761 27.1985C42.5423 27.3164 42.9372 27.3772 43.3365 27.3772C43.7357 27.3772 44.1307 27.3164 44.4968 27.1985C44.863 27.0806 45.1927 26.9081 45.4652 26.6918C45.7378 26.4755 45.9475 26.22 46.0814 25.9411C46.2152 25.6622 46.2703 25.3659 46.2433 25.0706L45.1474 25.0706C45.1474 25.2476 45.1004 25.4228 45.009 25.5863C44.9177 25.7499 44.7838 25.8984 44.615 26.0236C44.4462 26.1487 44.2459 26.248 44.0254 26.3157C43.8048 26.3835 43.5685 26.4183 43.3298 26.4183Z" fill="#21150B"/>
<path d="M10.8664 36.5265C10.3985 36.5245 9.94198 36.4197 9.55444 36.2254C9.16691 36.031 8.8658 35.7558 8.6892 35.4345C8.51261 35.1133 8.46845 34.7604 8.56232 34.4205C8.65619 34.0807 8.88387 33.7691 9.21656 33.5252C9.54925 33.2812 9.97202 33.116 10.4314 33.0502C10.8908 32.9844 11.3661 33.0212 11.7974 33.1557C12.2286 33.2903 12.5963 33.5166 12.8541 33.8062C13.1118 34.0957 13.248 34.4354 13.2453 34.7823C13.2453 35.0122 13.1841 35.2398 13.065 35.4521C12.946 35.6644 12.7715 35.8571 12.5517 36.0192C12.3318 36.1813 12.0709 36.3095 11.784 36.3966C11.4971 36.4836 11.1898 36.5278 10.8798 36.5265M10.8798 32.2256C10.1978 32.2256 9.53112 32.3755 8.96408 32.6565C8.39704 32.9374 7.95509 33.3367 7.69411 33.8039C7.43312 34.2711 7.36484 34.7852 7.49789 35.2811C7.63093 35.7771 7.95934 36.2327 8.44157 36.5903C8.9238 36.9478 9.53819 37.1913 10.2071 37.29C10.8759 37.3886 11.5692 37.338 12.1993 37.1445C12.8294 36.951 13.3679 36.6233 13.7468 36.2028C14.1257 35.7823 14.3279 35.288 14.3279 34.7823C14.3332 34.4432 14.2475 34.1068 14.0758 33.7925C13.904 33.4782 13.6497 33.1923 13.3275 32.9516C13.0054 32.7109 12.6219 32.5202 12.1994 32.3904C11.7768 32.2606 11.3237 32.1945 10.8664 32.1958" fill="#21150B"/>
<path d="M26.5302 46.1887L35.9658 46.1887L35.9658 45.386L26.5302 45.386L26.5302 46.1887Z" fill="#21150B"/>
<path d="M32.8259 47.9527L31.2488 46.8825L29.6851 47.9527L28.1081 46.8825L26.1568 48.2104L26.9052 48.805L28.1081 47.9726L29.6851 49.0527L31.2488 47.9726L32.8259 49.0527L34.3896 47.9726L35.5924 48.805L36.3408 48.2104L34.3896 46.8825L32.8259 47.9527Z" fill="#21150B"/>
<path d="M3.20883 81.4682C2.95959 81.5522 2.73659 81.6737 2.55395 81.8249C2.31339 81.9934 2.24656 82.0231 2.08618 82.0132C1.92581 82.0033 1.77879 81.8844 1.55159 81.706C1.22396 81.38 0.749952 81.1515 0.215104 81.0619L0.00126758 81.8547C0.289419 81.9205 0.539052 82.0568 0.709602 82.2411C1.00715 82.5408 1.44629 82.746 1.93917 82.8159C2.19059 82.8309 2.44317 82.8008 2.67572 82.7284C2.90827 82.656 3.11401 82.5433 3.27565 82.3997C3.35982 82.3221 3.46441 82.2581 3.58305 82.2114C4.11764 82.0429 4.23792 82.1123 4.55868 82.3403C4.91416 82.6127 5.38692 82.7845 5.89516 82.8258C6.17626 82.8356 6.45656 82.7968 6.71399 82.7125C6.97142 82.6282 7.19895 82.5008 7.37866 82.3403C7.69942 82.1222 7.76624 82.0727 8.16719 82.2015L8.52804 82.3898C9.18291 82.7565 10.0115 83.2222 10.7065 83.0042C10.8843 82.9463 11.0363 82.8523 11.1451 82.7331C11.2539 82.6138 11.315 82.4742 11.3213 82.3303L10.2387 82.2312C9.86146 82.0978 9.50701 81.9315 9.18291 81.7357C9.00857 81.6345 8.82553 81.5419 8.63495 81.4583C8.30831 81.3212 7.92605 81.2757 7.55799 81.3303C7.18993 81.3849 6.86063 81.5358 6.63023 81.7556C6.3763 81.9339 6.24265 82.0231 5.96199 82.0132C5.68078 81.9892 5.42259 81.8864 5.24028 81.7258C4.9812 81.5073 4.62866 81.3614 4.24176 81.3127C3.85486 81.264 3.45713 81.3154 3.11527 81.4583" fill="#21150B"/>
<path d="M21.2646 27.4789C21.3667 27.6654 21.5262 27.8315 21.7305 27.964C21.9347 28.0965 22.178 28.1917 22.4407 28.242C22.9413 28.3294 23.462 28.332 23.9641 28.2497C24.4662 28.1673 24.9368 28.0021 25.3409 27.7663C25.8001 27.5198 26.3401 27.3692 26.9046 27.3303C27.0783 27.3303 27.1986 27.3798 27.2254 27.4194C27.2521 27.4591 27.3189 27.7762 26.7576 28.6086L26.5304 28.9159C26.0626 29.5402 25.1939 30.7096 26.5304 31.4528C26.8974 31.5996 27.3044 31.683 27.721 31.6967C28.1376 31.7104 28.5529 31.6541 28.9361 31.5321C29.1925 31.4696 29.4231 31.3593 29.6056 31.2118C29.7881 31.0643 29.9165 30.8846 29.9785 30.6897L28.896 30.551C28.896 30.6303 28.7356 30.7194 28.5217 30.7888C28.0935 30.9188 27.6135 30.9188 27.1853 30.7888C26.664 30.5113 26.8511 30.105 27.4526 29.3023C27.5461 29.1735 27.6397 29.0645 27.7065 28.9555C28.1743 28.2618 28.5485 27.5384 28.1475 26.9735C28.0287 26.8208 27.857 26.6944 27.6503 26.6073C27.4435 26.5202 27.2092 26.4756 26.9714 26.478C26.1825 26.4876 25.4168 26.678 24.7796 27.023C24.0445 27.3303 23.4431 27.5978 22.7749 27.4294C22.666 27.414 22.563 27.3812 22.4729 27.3333C22.3829 27.2854 22.3081 27.2235 22.2536 27.1519C22.1066 26.8546 22.6145 26.2104 23.0154 25.6951C23.6436 24.8924 24.3519 23.9906 23.6703 23.2771L22.7882 23.7528C23.0689 24.0303 22.5343 24.7438 22.0799 25.2888C21.5052 26.0221 20.9038 26.7654 21.2379 27.4294" fill="#21150B"/>
<path d="M14.1551 62.4906C13.5003 63.0258 12.2841 64.0068 13.4201 64.9681C13.7324 65.1748 14.1042 65.326 14.5071 65.4101C14.9101 65.4943 15.3336 65.5092 15.7455 65.4537C16.0265 65.4472 16.2996 65.3837 16.5352 65.2701C16.7708 65.1566 16.96 64.9973 17.082 64.8096L16.0797 64.5023C16.0797 64.5717 15.8658 64.6312 15.6386 64.6609C15.4075 64.6918 15.1704 64.6885 14.941 64.6511C14.7116 64.6137 14.4944 64.5429 14.3021 64.4429C13.8745 64.0861 14.1819 63.7194 15.0105 63.0357L15.3713 62.7483C16.0396 62.1438 16.6276 61.5095 16.4004 60.9348C16.3325 60.7659 16.205 60.6135 16.0312 60.4933C15.8573 60.3731 15.6434 60.2894 15.4114 60.251C14.6385 60.1223 13.8308 60.1742 13.0993 60.3996C12.2841 60.578 11.5891 60.7267 11.0278 60.4591C10.7738 60.3402 10.6268 60.2113 10.6134 60.1023C10.6134 59.7852 11.2416 59.2402 11.8029 58.814C12.6583 58.1401 13.6339 57.3771 13.1394 56.5744L12.137 56.8816C12.3108 57.1987 11.5891 57.7636 10.9609 58.2591C10.3328 58.7546 9.35716 59.4978 9.47744 60.1915C9.51357 60.398 9.61464 60.5952 9.77251 60.7673C9.93038 60.9395 10.1406 61.0817 10.3862 61.1825C10.8488 61.3483 11.356 61.4345 11.8697 61.4345C12.3835 61.4345 12.8907 61.3483 13.3532 61.1825C13.8751 61.0167 14.4489 60.9618 15.0105 61.0239C15.1709 61.0239 15.2778 61.1131 15.3045 61.1627C15.3312 61.2122 15.3045 61.5195 14.4759 62.2429L14.1551 62.5005" fill="#21150B"/>
<path d="M30.4325 62.2825L35.1102 64.2645L30.4325 66.2465L30.4325 62.2825ZM29.3366 67.6934L37.3555 64.2843L29.3366 60.8852L29.3366 67.6934Z" fill="#21150B"/>
<path d="M28.3879 14.9326L28.3879 8.7389L30.6199 8.7389L29.671 9.50198L31.1277 10.6713L29.671 11.8308L31.1277 13.0002L29.671 14.1696L30.6199 14.9326L28.3879 14.9326ZM27.3054 7.93619L27.3054 15.7354L33.1592 15.7354L31.2079 14.1696L32.6647 13.0002L31.2079 11.8308L32.6647 10.6713L31.2079 9.50198L33.1592 7.93619L27.3054 7.93619Z" fill="#21150B"/>
<path d="M69.0095 74.4458L69.4668 73.719L65.8338 72.4623L65.3765 73.189L69.0095 74.4458Z" fill="#21150B"/>
<path d="M64.136 38.489L64.9473 37.9575L62.2926 35.7295L61.4813 36.261L64.136 38.489Z" fill="#21150B"/>
<path d="M51.6426 87.6421L51.2817 87.1769L50.1992 87.6421L51.6426 87.6421Z" fill="#21150B"/>
<path d="M74.724 60.875C75.219 60.8757 75.7063 60.7837 76.1406 60.6075L76.1406 59.557C75.9082 59.7756 75.5895 59.9349 75.2292 60.0129C74.8688 60.0908 74.4846 60.0835 74.1301 59.9919C73.7756 59.9002 73.4685 59.7289 73.2516 59.5018C73.0346 59.2746 72.9186 59.0029 72.9197 58.7246L71.7837 58.7246C71.7837 59.0095 71.86 59.2916 72.0082 59.5544C72.1565 59.8173 72.3737 60.0557 72.6473 60.2558C72.9208 60.4559 73.2453 60.6136 73.6018 60.72C73.9583 60.8263 74.3397 60.879 74.724 60.875Z" fill="#21150B"/>
<path d="M57.992 65.6517C57.9946 65.9995 57.8578 66.34 57.5989 66.6299C57.34 66.9199 56.9706 67.1463 56.5379 67.2803C56.1051 67.4142 55.6283 67.4498 55.1682 67.3824C54.7081 67.3151 54.2854 67.1478 53.9537 66.9019C53.6221 66.656 53.3965 66.3426 53.3057 66.0014C53.2148 65.6602 53.2628 65.3067 53.4435 64.9858C53.6242 64.6649 53.9295 64.391 54.3205 64.1991C54.7116 64.0071 55.1708 63.9056 55.6398 63.9076C56.2625 63.9102 56.8588 64.0948 57.2991 64.4213C57.7395 64.7478 57.9885 65.1899 57.992 65.6517ZM52.1916 65.6517C52.1916 66.1574 52.3939 66.6517 52.7727 67.0722C53.1516 67.4927 53.6902 67.8204 54.3202 68.0139C54.9503 68.2074 55.6436 68.258 56.3125 68.1594C56.9813 68.0607 57.5957 67.8172 58.078 67.4596C58.5602 67.1021 58.8886 66.6465 59.0216 66.1505C59.1547 65.6546 59.0864 65.1405 58.8254 64.6733C58.5644 64.2061 58.1225 63.8068 57.5554 63.5259C56.9884 63.2449 56.3217 63.095 55.6398 63.095C54.7263 63.0976 53.8513 63.3678 53.2055 63.8467C52.5596 64.3256 52.1952 64.9744 52.1916 65.6517Z" fill="#21150B"/>
<path d="M74.0415 85.323C74.0389 84.902 74.2419 84.4945 74.6128 84.1758C74.9837 83.8571 75.4976 83.6486 76.0596 83.5888L76.0596 82.7365C75.2974 82.7797 74.5765 83.0102 74.011 83.3915C73.4454 83.7728 73.0675 84.283 72.9372 84.8415C72.8068 85.4 72.9313 85.9747 73.2911 86.4748C73.6509 86.9748 74.2254 87.3716 74.9236 87.6023L76.0596 87.6023L76.0596 87.0176C75.4914 86.9624 74.9696 86.7562 74.5911 86.4372C74.2125 86.1182 74.003 85.7082 74.0014 85.2834" fill="#21150B"/>
<path d="M74.1489 48.2102L75.2314 48.2102L75.2314 41.2138L74.1489 41.2138L74.1489 48.2102Z" fill="#21150B"/>
<path d="M71.4357 48.4778L73.2266 47.0408L71.7698 45.8715L73.2266 44.712L71.7698 43.5426L73.2266 42.3733L71.4357 40.9363L70.6338 41.4814L71.7431 42.3733L70.2863 43.5426L71.7431 44.712L70.2863 45.8715L71.7431 47.0408L70.6338 47.9327L71.4357 48.4778Z" fill="#21150B"/>
<path d="M47.994 54.9886C47.749 55.078 47.5273 55.1987 47.3391 55.3454C47.1119 55.5139 47.0451 55.5436 46.8847 55.5337C46.7243 55.5238 46.564 55.4049 46.3367 55.2265C46.0116 54.8985 45.5365 54.6695 45.0003 54.5823L44.7998 55.385C45.086 55.4483 45.3354 55.5809 45.5081 55.7616C45.8033 56.0584 46.2368 56.2633 46.7243 56.3364C46.976 56.353 47.2293 56.3238 47.4622 56.2512C47.6951 56.1787 47.9006 56.065 48.0608 55.9202C48.1523 55.8441 48.2608 55.7804 48.3816 55.7319C48.9162 55.5634 49.0364 55.6427 49.3572 55.8607C49.7106 56.1353 50.1845 56.3075 50.6937 56.3463C50.9746 56.3553 51.2546 56.3161 51.5119 56.2319C51.7692 56.1477 51.9968 56.0207 52.1772 55.8607C52.4846 55.6427 52.5648 55.5931 52.9657 55.722L53.3132 55.9103C53.9814 56.2868 54.8101 56.7427 55.505 56.5247C55.6803 56.4654 55.8296 56.3707 55.9359 56.2516C56.0422 56.1325 56.1013 55.9936 56.1064 55.8508L55.0239 55.7517C54.6474 55.6172 54.2931 55.451 53.9681 55.2562C53.7983 55.1505 53.6147 55.0575 53.4201 54.9787C53.0955 54.8423 52.7154 54.7972 52.3496 54.8519C51.9838 54.9065 51.6569 55.0571 51.4288 55.276C51.1615 55.4544 51.0278 55.5436 50.7605 55.5337C50.4793 55.5097 50.2211 55.4068 50.0388 55.2463C49.7806 55.046 49.4423 54.9128 49.0739 54.8664C48.7056 54.82 48.3269 54.8628 47.994 54.9886Z" fill="#21150B"/>
<path d="M62.6956 83.3808L60.0227 86.8592L57.3497 83.3808L62.6956 83.3808ZM64.5801 82.5781L55.3984 82.5781L59.4079 87.6421L60.7444 87.6421L64.5801 82.5781Z" fill="#21150B"/>
<path d="M58.2583 47.8634L53.5672 45.8814L58.2583 43.8995L58.2583 47.8634ZM59.3408 42.4526L51.3887 45.8616L59.3408 49.2607L59.3408 42.4526Z" fill="#21150B"/>
<path d="M39.1601 74.5112L47.5131 74.5112L47.5131 76.2058L46.4841 75.5022L44.907 76.5725L43.3433 75.5022L41.7663 76.5725L40.1892 75.5022L39.1601 76.2058L39.1601 74.5112ZM38.0776 78.0491L40.1892 76.6022L41.7663 77.6725L43.3433 76.6022L44.907 77.6725L46.4841 76.6022L48.5957 78.0491L48.5957 73.6986L38.0776 73.6986L38.0776 78.0491Z" fill="#21150B"/>
<path d="M31.9556 87.097C31.822 86.7501 31.7685 86.5817 31.8754 86.5123C31.9824 86.4429 32.2764 86.5619 32.5437 86.651C32.9303 86.8362 33.3884 86.922 33.8472 86.8951C34.3061 86.8683 34.7403 86.7303 35.083 86.5024L34.3346 85.9177C33.9604 86.1853 33.653 86.1258 32.9981 85.9177C32.6725 85.798 32.3182 85.7273 31.9556 85.7096C31.6769 85.7114 31.4076 85.785 31.1938 85.9177C30.5122 86.3339 30.7795 86.9087 30.9533 87.3547C30.9533 87.4438 31.0335 87.5628 31.0602 87.6619L32.1695 87.6619C32.1357 87.4754 32.0729 87.2925 31.9824 87.1168" fill="#21150B"/>
<path d="M30.0586 87.6322C29.6686 87.4236 29.203 87.3064 28.7221 87.2957C28.3205 87.3104 27.9401 87.4337 27.6529 87.6421L30.0586 87.6421" fill="#21150B"/>
</svg>
