<svg width="15" height="13" viewBox="0 0 15 13" fill="none" xmlns="http://www.w3.org/2000/svg">
<path d="M7.5 12.5C7 12.1042 6.45833 11.7969 5.875 11.5781C5.29167 11.3594 4.6875 11.25 4.0625 11.25C3.625 11.25 3.19531 11.3073 2.77344 11.4219C2.35156 11.5365 1.94792 11.6979 1.5625 11.9062C1.34375 12.0208 1.13281 12.0156 0.929687 11.8906C0.726562 11.7656 0.625 11.5833 0.625 11.3438V3.8125C0.625 3.69792 0.653646 3.58854 0.710938 3.48438C0.768229 3.38021 0.854167 3.30208 0.96875 3.25C1.44792 3 1.94792 2.8125 2.46875 2.6875C2.98958 2.5625 3.52083 2.5 4.0625 2.5C4.66667 2.5 5.25781 2.57812 5.83594 2.73438C6.41406 2.89062 6.96875 3.125 7.5 3.4375V11.3438C8.03125 11 8.58854 10.7422 9.17188 10.5703C9.75521 10.3984 10.3438 10.3125 10.9375 10.3125C11.3125 10.3125 11.7214 10.349 12.1641 10.4219C12.6068 10.4948 13.0312 10.6458 13.4375 10.875V2.98438C13.5417 3.02604 13.6432 3.06771 13.7422 3.10938C13.8411 3.15104 13.9375 3.19792 14.0312 3.25C14.1354 3.3125 14.2188 3.39323 14.2812 3.49219C14.3438 3.59115 14.375 3.69792 14.375 3.8125V11.3438C14.375 11.5833 14.2734 11.7656 14.0703 11.8906C13.8672 12.0156 13.6562 12.0208 13.4375 11.9062C13.0521 11.6979 12.6484 11.5365 12.2266 11.4219C11.8047 11.3073 11.375 11.25 10.9375 11.25C10.3125 11.25 9.70833 11.3594 9.125 11.5781C8.54167 11.7969 8 12.1042 7.5 12.5ZM8.4375 9.89062V4.375L12.5 0.3125V6.35938L8.4375 9.89062ZM6.5625 10.875V4.01562C6.20833 3.81771 5.79688 3.67188 5.32812 3.57812C4.85938 3.48438 4.4375 3.4375 4.0625 3.4375C3.57292 3.4375 3.11719 3.48958 2.69531 3.59375C2.27344 3.69792 1.89583 3.83333 1.5625 4V10.875C1.92708 10.6979 2.32031 10.5599 2.74219 10.4609C3.16406 10.362 3.60938 10.3125 4.07812 10.3125C4.53646 10.3125 4.97396 10.362 5.39062 10.4609C5.80729 10.5599 6.19792 10.6979 6.5625 10.875ZM6.5625 10.875V4.01562V10.875Z" fill="white"/>
</svg>
