<svg width="44" height="43" viewBox="0 0 44 43" fill="none" xmlns="http://www.w3.org/2000/svg"><path fill-rule="evenodd" clip-rule="evenodd" d="M21.978 42.9999C33.6126 42.9999 43.0444 33.5682 43.0444 21.9336C43.0444 10.2989 33.6126 0.867188 21.978 0.867188C10.3434 0.867188 0.911621 10.2989 0.911621 21.9336C0.911621 33.5682 10.3434 42.9999 21.978 42.9999ZM35.1428 14.9095C34.8268 13.7085 33.8958 12.7627 32.7134 12.4417C30.5707 11.8583 21.978 11.8583 21.978 11.8583C21.978 11.8583 13.3854 11.8583 11.2426 12.4417C10.0602 12.7627 9.12897 13.7085 8.81316 14.9095C8.23905 17.0863 8.23905 21.6282 8.23905 21.6282C8.23905 21.6282 8.23905 26.1699 8.81316 28.347C9.12897 29.5481 10.0602 30.4937 11.2425 30.815C13.3853 31.3982 21.9779 31.3982 21.9779 31.3982C21.9779 31.3982 30.5706 31.3982 32.7132 30.815C33.8957 30.4938 34.8267 29.5481 35.1427 28.3471C35.7169 26.1701 35.7169 21.6284 35.7169 21.6284C35.7169 21.6284 35.7169 17.0864 35.1427 14.9096L35.1428 14.9095ZM19.2304 25.9026L26.5578 21.6285L19.2304 17.3539V25.9026Z" fill="white"/></svg>