<svg width="18" height="17" viewBox="0 0 18 17" fill="none" xmlns="http://www.w3.org/2000/svg">
<path d="M13.2704 16.6251H4.02773V6.49175L9.52982 0.791748L10.1829 1.30633C10.3281 1.41189 10.4237 1.53064 10.4699 1.66258C10.5161 1.79453 10.5392 1.94626 10.5392 2.11779V2.31571L9.64857 6.49175H16.0215C16.325 6.49175 16.5987 6.6138 16.8428 6.85789C17.0869 7.10199 17.209 7.37578 17.209 7.67925V9.30216C17.209 9.4473 17.1925 9.61553 17.1595 9.80685C17.1265 9.99817 17.077 10.1664 17.0111 10.3115L14.7152 15.6157C14.5965 15.8928 14.4019 16.1303 14.1314 16.3282C13.8609 16.5261 13.5739 16.6251 13.2704 16.6251ZM2.84023 6.49175V16.6251H0.583984V6.49175H2.84023Z" fill="#6B3267"/>
</svg>
