<svg width="43" height="43" viewBox="0 0 43 43" fill="none" xmlns="http://www.w3.org/2000/svg"><path fill-rule="evenodd" clip-rule="evenodd" d="M21.0664 42.9999C32.701 42.9999 42.1327 33.5682 42.1327 21.9336C42.1327 10.2989 32.701 0.867188 21.0664 0.867188C9.43174 0.867188 0 10.2989 0 21.9336C0 33.5682 9.43174 42.9999 21.0664 42.9999ZM14.2592 9.15682C14.4356 9.13878 14.5839 9.11875 14.5879 9.11474C14.5939 9.11073 17.5239 9.10873 21.1011 9.11273L22.1168 9.11357H22.1169C27.2909 9.11777 27.7152 9.11812 28.1292 9.18364C28.1662 9.18949 28.203 9.19586 28.2432 9.2028L28.2433 9.20281C28.2726 9.20788 28.3037 9.21325 28.3378 9.21894C29.5002 9.4093 30.6185 9.9363 31.5564 10.7318C31.8069 10.9442 32.2558 11.4151 32.4662 11.6876C33.2137 12.6555 33.6907 13.8137 33.819 14.9859C33.8308 15.0994 33.8469 15.2377 33.8586 15.3381L33.8691 15.4288C33.8951 15.6452 33.8971 28.2271 33.8691 28.4275C33.8621 28.4831 33.8513 28.5821 33.8407 28.6797L33.8407 28.6797L33.827 28.8042C33.7969 29.1208 33.7408 29.4194 33.6486 29.7801C32.9693 32.4031 30.6826 34.3909 28.0092 34.6854C27.8958 34.6972 27.7576 34.7133 27.6572 34.725L27.5663 34.7355C27.3478 34.7636 14.7783 34.7636 14.5598 34.7355L14.4689 34.725L14.4688 34.725C14.3684 34.7133 14.2302 34.6972 14.1169 34.6854C11.2471 34.3688 8.85423 32.1145 8.35722 29.2551C8.35089 29.2182 8.34492 29.1847 8.3393 29.153L8.33929 29.153C8.33135 29.1084 8.3241 29.0676 8.31747 29.0267C8.24671 28.5903 8.24673 28.1426 8.24696 22.9175V22.9175L8.24699 21.9211C8.24699 15.8235 8.249 15.4107 8.28307 15.1282C8.3512 14.5471 8.42936 14.1844 8.59169 13.6854C8.84421 12.912 9.26105 12.1585 9.79414 11.5173C10.0066 11.2608 10.4996 10.7779 10.7521 10.5775C11.7802 9.76397 12.9325 9.29708 14.2592 9.15682ZM30.6385 12.8438C29.9251 12.0103 28.909 11.4652 27.8108 11.3209C27.6023 11.2949 26.8027 11.2909 21.047 11.2929L20.0688 11.2931C14.6941 11.2944 14.3461 11.2945 14.016 11.3714C13.9932 11.3767 13.9704 11.3824 13.9461 11.3884L13.946 11.3885C13.925 11.3937 13.9028 11.3993 13.8784 11.4051C12.0547 11.8379 10.694 13.3468 10.4515 15.2043C10.4254 15.4127 10.4214 16.2183 10.4214 21.9412L10.4214 22.9076C10.4212 28.283 10.4211 28.6436 10.4997 28.9861C10.5053 29.0108 10.5114 29.0353 10.5179 29.0616C10.5235 29.0843 10.5294 29.1083 10.5356 29.1349C10.9725 30.9904 12.5457 32.375 14.4396 32.5714C14.6019 32.5874 16.3976 32.5914 21.2134 32.5874L27.7667 32.5794L27.9971 32.5353C28.9611 32.349 29.7567 31.9362 30.4121 31.2789C31.0754 30.6177 31.4963 29.8021 31.6686 28.8503L31.7147 28.5938V21.9412C31.7147 15.567 31.7127 15.2805 31.6786 15.0781C31.5263 14.2124 31.1856 13.4831 30.6385 12.8438ZM27.7972 13.4371C27.2761 13.5714 26.8633 13.9922 26.743 14.5092C26.699 14.7015 26.703 15.0101 26.7531 15.2045C26.8693 15.6554 27.22 16.0421 27.6549 16.2004C28.2 16.3988 28.7672 16.2725 29.18 15.8597C29.4706 15.5712 29.6009 15.2546 29.6009 14.8418C29.6009 14.5012 29.5087 14.2206 29.3103 13.9581C28.9676 13.5073 28.3483 13.2929 27.7972 13.4371ZM16.2556 17.7928C17.3659 16.5044 18.9291 15.7209 20.6426 15.5927C20.6927 15.5886 20.865 15.5846 21.0253 15.5826C22.4703 15.5646 23.8791 16.0515 25.0335 16.9633C25.302 17.1737 25.8411 17.7127 26.0536 17.9832C26.777 18.8949 27.2259 19.953 27.3863 21.1112C27.4324 21.4398 27.4464 22.1051 27.4183 22.4537C27.3121 23.7021 26.8492 24.8944 26.1057 25.8382C24.9754 27.2729 23.3861 28.1325 21.5865 28.2848C21.2378 28.3129 20.5724 28.2989 20.2438 28.2528C19.0854 28.0925 18.0272 27.6436 17.1154 26.9202C16.8448 26.7078 16.3078 26.1688 16.0933 25.8983C15.5222 25.1789 15.1073 24.3333 14.8929 23.4536C14.4059 21.4578 14.9129 19.3518 16.2556 17.7928ZM24.8932 19.6564C24.2138 18.5122 23.0274 17.7247 21.7007 17.5324C21.4823 17.5003 20.9572 17.4803 20.7728 17.4943C20.1876 17.5424 19.6505 17.6886 19.1295 17.9431C18.2236 18.384 17.5162 19.0913 17.0753 19.997C16.7607 20.6383 16.6264 21.2234 16.6264 21.9407C16.6264 22.6441 16.7587 23.2312 17.0573 23.8544C17.7086 25.209 18.9411 26.1187 20.4422 26.3511C20.869 26.4173 21.5023 26.3992 21.9653 26.3071C23.5505 25.9885 24.8872 24.7661 25.3401 23.2172C25.4784 22.7463 25.5225 22.4397 25.5205 21.9307C25.5205 21.0951 25.3201 20.3718 24.8932 19.6564Z" fill="white"/></svg>