<svg width="58" height="203" viewBox="0 0 58 203" fill="none" xmlns="http://www.w3.org/2000/svg">
<path d="M21.5738 0.835147L21.1665 0.112305L18.5195 1.63942L18.6621 1.88377L19.7616 1.88377L21.5738 0.835147Z" fill="#21150B"/>
<path d="M11.7588 1.88358H12.7361L12.2475 1.03857L11.7588 1.88358Z" fill="#21150B"/>
<path d="M37.2106 1.47621C37.2965 1.22314 37.3106 0.951204 37.2513 0.690608C37.192 0.430012 37.0616 0.190961 36.8746 0L36.2638 0.570121C36.3458 0.646298 36.4054 0.74357 36.4359 0.851298C36.4664 0.959027 36.4668 1.07307 36.4368 1.18097C36.4056 1.25392 36.3528 1.31552 36.2854 1.3574C36.218 1.39929 36.1394 1.41943 36.0602 1.41513C35.8658 1.36135 35.6805 1.27902 35.5104 1.1708C35.0319 0.895918 34.136 0.386869 33.5862 1.30314C33.4923 1.48124 33.4534 1.6832 33.4742 1.88345L34.3192 1.88345C34.3063 1.83337 34.3063 1.78081 34.3192 1.73073C34.4109 1.57802 34.4516 1.51694 35.1032 1.88345L36.9662 1.88345C37.0787 1.76505 37.1684 1.62701 37.2309 1.47621" fill="#21150B"/>
<path d="M0.0302734 200.226L0.0302734 200.317L0.712386 200.704L2.21914 198.047L1.49631 197.64L0.0302734 200.226Z" fill="#21150B"/>
<path d="M17.8088 161.827L16.3066 164.486L17.0247 164.891L18.5268 162.232L17.8088 161.827Z" fill="#21150B"/>
<path d="M17.2775 199.767L18.3566 202.089L20.1892 201.406L19.8939 200.622L18.7842 201.04L17.644 198.576L12.5536 201.6L11.4846 200.541L10.9043 201.121L12.4212 202.638L17.2775 199.767Z" fill="#21150B"/>
<path d="M17.4185 180.262V179.427C17.1151 179.406 16.8106 179.448 16.5241 179.55C16.2376 179.652 15.9751 179.812 15.7529 180.019C15.5307 180.227 15.3536 180.478 15.2324 180.757C15.1113 181.036 15.0488 181.337 15.0488 181.641C15.0488 181.945 15.1113 182.246 15.2324 182.525C15.3536 182.804 15.5307 183.055 15.7529 183.263C15.9751 183.47 16.2376 183.63 16.5241 183.732C16.8106 183.834 17.1151 183.876 17.4185 183.855V183.051C17.0513 183.051 16.6991 182.905 16.4394 182.646C16.1798 182.386 16.0339 182.034 16.0339 181.667C16.0339 181.299 16.1798 180.947 16.4394 180.687C16.6991 180.428 17.0513 180.282 17.4185 180.282" fill="#21150B"/>
<path d="M8.82613 172.565C9.18296 172.563 9.53235 172.667 9.83003 172.863C10.1277 173.06 10.3602 173.341 10.4982 173.67C10.6362 173.999 10.6733 174.362 10.6049 174.712C10.5365 175.062 10.3657 175.384 10.1141 175.637C9.86252 175.89 9.54145 176.063 9.19162 176.133C8.8418 176.204 8.47895 176.169 8.14909 176.032C7.81922 175.896 7.53719 175.665 7.33873 175.369C7.14027 175.072 7.03432 174.724 7.03431 174.367C7.0343 173.891 7.22276 173.434 7.5585 173.096C7.89424 172.758 8.34998 172.567 8.82613 172.565ZM8.82613 176.993C9.34429 176.987 9.84909 176.828 10.277 176.536C10.7049 176.244 11.0368 175.831 11.2309 175.351C11.4251 174.87 11.4728 174.343 11.368 173.836C11.2632 173.328 11.0107 172.863 10.6421 172.499C10.2736 172.135 9.80556 171.887 9.29689 171.789C8.78822 171.69 8.26167 171.743 7.78349 171.943C7.30531 172.143 6.89687 172.479 6.60958 172.911C6.32229 173.342 6.16898 173.849 6.16895 174.367C6.16895 175.063 6.44568 175.731 6.93827 176.224C7.43086 176.717 8.09896 176.993 8.79559 176.993" fill="#21150B"/>
<path d="M3.47043 163.423C3.68464 163.447 3.88132 163.553 4.02019 163.718C4.21754 163.942 4.4861 164.092 4.78082 164.142C5.07555 164.192 5.37852 164.139 5.63893 163.993C5.82879 163.906 5.99866 163.782 6.13779 163.626C6.32105 163.453 6.37195 163.423 6.49412 163.433C6.61629 163.443 6.72828 163.565 6.90135 163.748C7.15092 164.083 7.512 164.318 7.91943 164.41L8.08232 163.596C7.86282 163.528 7.67266 163.388 7.54274 163.199C7.31608 162.891 6.98157 162.68 6.60611 162.608C6.41458 162.593 6.22218 162.624 6.04503 162.698C5.86788 162.772 5.71117 162.888 5.58803 163.036C5.52392 163.115 5.44425 163.181 5.35387 163.229C4.93646 163.402 4.85501 163.331 4.61067 163.097C4.33989 162.817 3.97975 162.64 3.59259 162.598C3.37847 162.588 3.16495 162.628 2.96885 162.714C2.77274 162.801 2.59942 162.932 2.46253 163.097C2.21819 163.321 2.16729 163.372 1.86186 163.239L1.58698 163.046C1.13903 162.71 0.568902 162.292 0.100586 162.364L0.100586 163.188H0.28384C0.573096 163.328 0.846212 163.499 1.0983 163.697C1.22624 163.803 1.36241 163.898 1.50553 163.982C1.75436 164.123 2.04555 164.17 2.32592 164.114C2.60629 164.058 2.85714 163.903 3.03265 163.677C3.22609 163.494 3.32789 163.402 3.54169 163.412" fill="#21150B"/>
<path d="M0.864829 185.851C0.83731 185.638 0.760315 185.436 0.640059 185.259C0.519802 185.082 0.359653 184.936 0.172536 184.832L0.0605469 184.792L0.0605469 185.912C0.0789289 185.975 0.0789289 186.042 0.0605469 186.105L0.0605469 187.551C0.308917 187.344 0.511454 187.088 0.655205 186.799C0.798955 186.51 0.880755 186.194 0.895371 185.871" fill="#21150B"/>
<path d="M10.2416 190.177L13.8151 192.213L10.2416 194.25V190.177ZM9.41699 188.742L9.41699 195.736L15.4847 192.213L9.41699 188.742Z" fill="#21150B"/>
<path d="M25.44 192.397L24.9375 193.064L27.3764 194.902L27.8789 194.236L25.44 192.397Z" fill="#21150B"/>
<path d="M27.3721 156.006L27.0234 156.753L29.7913 158.045L30.1399 157.297L27.3721 156.006Z" fill="#21150B"/>
<path d="M47.1721 177.944L44.3359 179.077L44.6419 179.843L47.4781 178.71L47.1721 177.944Z" fill="#21150B"/>
<path d="M44.4856 118.658L43.6875 118.866L44.4569 121.821L45.2549 121.614L44.4856 118.658Z" fill="#21150B"/>
<path d="M28.469 179.068L25.6328 180.201L25.9388 180.967L28.775 179.834L28.469 179.068Z" fill="#21150B"/>
<path d="M52.4005 187.357H53.2353C53.1972 186.796 52.9474 186.27 52.5363 185.886C52.1252 185.502 51.5836 185.288 51.021 185.288C50.4583 185.288 49.9167 185.502 49.5056 185.886C49.0946 186.27 48.8447 186.796 48.8066 187.357H49.6415C49.625 187.166 49.6485 186.974 49.7104 186.792C49.7722 186.611 49.8711 186.444 50.0008 186.302C50.1305 186.161 50.2882 186.048 50.4638 185.971C50.6394 185.894 50.8291 185.854 51.021 185.854C51.2128 185.854 51.4025 185.894 51.5781 185.971C51.7537 186.048 51.9114 186.161 52.0411 186.302C52.1708 186.444 52.2697 186.611 52.3316 186.792C52.3934 186.974 52.4169 187.166 52.4005 187.357Z" fill="#21150B"/>
<path d="M42.3624 111.459H43.187C43.187 110.874 42.9543 110.312 42.5399 109.897C42.1256 109.483 41.5637 109.25 40.9778 109.25C40.3919 109.25 39.8299 109.483 39.4156 109.897C39.0013 110.312 38.7686 110.874 38.7686 111.459H39.5932C39.5932 111.092 39.7391 110.74 39.9987 110.48C40.2584 110.221 40.6106 110.075 40.9778 110.075C41.345 110.075 41.6972 110.221 41.9568 110.48C42.2165 110.74 42.3624 111.092 42.3624 111.459Z" fill="#21150B"/>
<path d="M24.994 168.625C25.1754 168.625 25.3549 168.661 25.5224 168.73C25.6898 168.8 25.8417 168.902 25.9695 169.031C26.0973 169.16 26.1983 169.312 26.2668 169.48C26.3352 169.648 26.3698 169.828 26.3684 170.009H27.2033C27.2238 169.706 27.1819 169.401 27.0799 169.115C26.9779 168.828 26.8182 168.566 26.6105 168.344C26.4029 168.122 26.1518 167.944 25.8729 167.823C25.5939 167.702 25.2931 167.64 24.9889 167.64C24.6848 167.64 24.384 167.702 24.105 167.823C23.8261 167.944 23.575 168.122 23.3673 168.344C23.1597 168.566 22.9999 168.828 22.898 169.115C22.796 169.401 22.754 169.706 22.7746 170.009H23.6094C23.6094 169.642 23.7553 169.29 24.015 169.03C24.2746 168.771 24.6268 168.625 24.994 168.625Z" fill="#21150B"/>
<path d="M49.7229 158.24C50.0793 158.242 50.4271 158.35 50.7223 158.55C51.0175 158.749 51.2469 159.032 51.3814 159.362C51.516 159.692 51.5496 160.055 51.4781 160.404C51.4066 160.753 51.2332 161.073 50.9797 161.324C50.7263 161.574 50.4042 161.744 50.0543 161.812C49.7044 161.879 49.3423 161.841 49.0138 161.703C48.6853 161.565 48.4051 161.332 48.2088 161.035C48.0125 160.738 47.9088 160.389 47.9108 160.032C47.9108 159.796 47.9574 159.562 48.0481 159.344C48.1388 159.126 48.2717 158.928 48.4392 158.762C48.6066 158.595 48.8054 158.463 49.0239 158.374C49.2425 158.284 49.4766 158.239 49.7128 158.24M49.7128 162.659C50.2323 162.659 50.7401 162.505 51.172 162.216C51.604 161.928 51.9407 161.517 52.1395 161.037C52.3383 160.557 52.3903 160.029 52.2889 159.52C52.1876 159.01 51.9374 158.542 51.5701 158.175C51.2027 157.808 50.7347 157.557 50.2252 157.456C49.7157 157.355 49.1875 157.407 48.7076 157.605C48.2276 157.804 47.8174 158.141 47.5288 158.573C47.2402 159.005 47.0861 159.513 47.0861 160.032C47.0821 160.381 47.1473 160.726 47.2782 161.049C47.409 161.372 47.6027 161.666 47.8481 161.913C48.0935 162.16 48.3857 162.356 48.7075 162.489C49.0294 162.623 49.3746 162.691 49.7229 162.689" fill="#21150B"/>
<path d="M37.7911 148.314H30.6035V149.139H37.7911V148.314Z" fill="#21150B"/>
<path d="M32.9959 146.501L34.1972 147.601L35.3884 146.501L36.5897 147.601L38.0761 146.237L37.506 145.626L36.5897 146.481L35.3884 145.371L34.1972 146.481L32.9959 145.371L31.8048 146.481L30.8885 145.626L30.3184 146.237L31.8048 147.601L32.9959 146.501Z" fill="#21150B"/>
<path d="M55.5567 112.07C55.7465 111.984 55.9164 111.859 56.0555 111.704C56.2388 111.531 56.2897 111.5 56.4119 111.51C56.534 111.52 56.646 111.643 56.8191 111.826C57.0687 112.161 57.4298 112.396 57.8372 112.488L58.0001 111.673C57.7806 111.605 57.5904 111.466 57.4605 111.276C57.2338 110.968 56.8993 110.757 56.5239 110.686C56.3323 110.67 56.1399 110.701 55.9628 110.776C55.7856 110.85 55.6289 110.966 55.5058 111.113C55.4417 111.193 55.362 111.259 55.2716 111.307C54.8644 111.48 54.7728 111.408 54.5284 111.174C54.2576 110.894 53.8975 110.718 53.5104 110.675C53.2962 110.665 53.0827 110.705 52.8866 110.792C52.6905 110.878 52.5172 111.009 52.3803 111.174C52.1359 111.398 52.085 111.449 51.7796 111.317L51.5047 111.123C51.0059 110.747 50.3747 110.268 49.8453 110.492C49.7099 110.552 49.594 110.648 49.5112 110.771C49.4283 110.893 49.3818 111.037 49.377 111.184L50.2016 111.286C50.489 111.423 50.759 111.594 51.0059 111.795C51.1387 111.899 51.2781 111.995 51.4233 112.08C51.6721 112.221 51.9633 112.268 52.2437 112.212C52.5241 112.156 52.7749 112.001 52.9504 111.775C53.1438 111.592 53.2457 111.5 53.4594 111.51C53.6737 111.535 53.8703 111.641 54.0092 111.805C54.2066 112.03 54.4751 112.18 54.7698 112.23C55.0646 112.28 55.3675 112.227 55.628 112.08" fill="#21150B"/>
<path d="M41.8019 167.535C41.7242 167.344 41.6027 167.173 41.4471 167.037C41.2915 166.901 41.1062 166.803 40.906 166.751C40.5247 166.661 40.1281 166.659 39.7456 166.743C39.3631 166.828 39.0046 166.998 38.6968 167.24C38.347 167.493 37.9356 167.648 37.5056 167.688C37.3733 167.688 37.2817 167.637 37.2613 167.596C37.2409 167.555 37.19 167.23 37.6176 166.374L37.7907 166.059C38.147 165.417 38.8088 164.216 37.7907 163.453C37.5111 163.302 37.2011 163.216 36.8838 163.202C36.5664 163.188 36.25 163.246 35.9582 163.371C35.7628 163.435 35.5872 163.549 35.4481 163.7C35.3091 163.852 35.2113 164.036 35.1641 164.237L35.9887 164.379C35.9887 164.298 36.1109 164.206 36.2738 164.135C36.6 164.001 36.9656 164.001 37.2918 164.135C37.6889 164.42 37.5464 164.837 37.0882 165.662C37.017 165.794 36.9457 165.906 36.8948 166.018C36.5385 166.731 36.2534 167.474 36.5588 168.054C36.6494 168.211 36.7801 168.341 36.9376 168.431C37.0951 168.52 37.2736 168.566 37.4547 168.563C38.0557 168.554 38.639 168.358 39.1244 168.003C39.6843 167.688 40.1425 167.413 40.6515 167.586C40.7344 167.602 40.8129 167.635 40.8815 167.685C40.9501 167.734 41.0071 167.798 41.0486 167.871C41.1605 168.176 40.7737 168.838 40.4683 169.368C39.9898 170.192 39.4502 171.119 39.9694 171.852L40.6413 171.363C40.4275 171.078 40.8348 170.345 41.1809 169.785C41.6187 169.032 42.0768 168.268 41.8223 167.586" fill="#21150B"/>
<path d="M47.2179 131.566C47.7167 131.016 48.6432 130.008 47.7778 129.021C47.5399 128.809 47.2567 128.653 46.9497 128.567C46.6428 128.48 46.3201 128.465 46.0064 128.522C45.7924 128.529 45.5843 128.594 45.4048 128.711C45.2253 128.827 45.0813 128.991 44.9883 129.184L45.7518 129.499C45.7518 129.428 45.9147 129.367 46.0878 129.337C46.2639 129.305 46.4445 129.308 46.6193 129.347C46.794 129.385 46.9594 129.458 47.1059 129.56C47.4317 129.927 47.1975 130.304 46.5663 131.006L46.2914 131.301C45.7824 131.922 45.3344 132.574 45.5075 133.164C45.5593 133.338 45.6564 133.495 45.7888 133.618C45.9212 133.742 46.0842 133.827 46.2609 133.867C46.8497 133.999 47.4649 133.946 48.0222 133.714C48.6432 133.531 49.1726 133.378 49.6002 133.653C49.7936 133.775 49.9056 133.908 49.9158 134.02C49.9158 134.345 49.4373 134.905 49.0097 135.343C48.3581 136.035 47.6149 136.819 47.9916 137.644L48.7552 137.328C48.6228 137.003 49.1726 136.422 49.6511 135.913C50.1296 135.404 50.8728 134.641 50.7811 133.928C50.7536 133.716 50.6766 133.513 50.5564 133.336C50.4361 133.16 50.276 133.014 50.0889 132.91C49.7365 132.74 49.3502 132.651 48.9588 132.651C48.5674 132.651 48.1811 132.74 47.8287 132.91C47.4312 133.08 46.9941 133.137 46.5663 133.073C46.4441 133.073 46.3627 132.981 46.3423 132.93C46.322 132.879 46.3423 132.564 46.9735 131.821L47.2179 131.556" fill="#21150B"/>
<path d="M36.8748 196.581L38.911 200.154H34.8387L36.8748 196.581ZM36.8748 194.921L33.3828 200.979H40.377L36.8748 194.921Z" fill="#21150B"/>
<path d="M34.8186 131.78L31.2553 129.744L34.8186 127.708V131.78ZM35.6534 126.221L29.5449 129.724L35.6534 133.216V126.221Z" fill="#21150B"/>
<path d="M36.3767 180.424V186.787H34.6765L35.3994 186.003L34.2897 184.802L35.3994 183.611L34.2897 182.41L35.3994 181.208L34.6765 180.424H36.3767ZM37.2014 187.612V179.6H32.7422L34.2286 181.208L33.1189 182.41L34.2286 183.611L33.1189 184.802L34.2286 186.003L32.7422 187.612H37.2014Z" fill="#21150B"/>
<path d="M5.42872 119.287L5.08008 120.035L7.84793 121.326L8.19657 120.579L5.42872 119.287Z" fill="#21150B"/>
<path d="M9.14828 156.224L8.53027 156.77L10.5525 159.059L11.1705 158.513L9.14828 156.224Z" fill="#21150B"/>
<path d="M18.6621 105.728L18.937 106.206L19.7616 105.728H18.6621Z" fill="#21150B"/>
<path d="M1.07916 133.226C0.702037 133.225 0.330843 133.32 0 133.501L0 134.58C0.177083 134.356 0.419792 134.192 0.694313 134.112C0.968835 134.032 1.2615 134.039 1.53153 134.133C1.80155 134.227 2.0355 134.403 2.20078 134.637C2.36605 134.87 2.45442 135.149 2.45357 135.435H3.31894C3.31896 135.143 3.26082 134.853 3.14789 134.583C3.03497 134.313 2.8695 134.068 2.66111 133.862C2.45271 133.657 2.20555 133.495 1.93398 133.385C1.66241 133.276 1.37184 133.222 1.07916 133.226Z" fill="#21150B"/>
<path d="M13.8251 128.319C13.823 127.962 13.9273 127.612 14.1245 127.314C14.3217 127.016 14.6031 126.784 14.9327 126.646C15.2624 126.508 15.6256 126.472 15.9761 126.541C16.3266 126.61 16.6486 126.782 16.9012 127.035C17.1539 127.287 17.3257 127.609 17.3949 127.96C17.4641 128.31 17.4276 128.673 17.2899 129.003C17.1523 129.333 16.9197 129.614 16.6218 129.811C16.3239 130.009 15.9741 130.113 15.6169 130.111C15.1425 130.108 14.6883 129.919 14.3528 129.583C14.0174 129.248 13.8277 128.793 13.8251 128.319ZM18.2435 128.319C18.2435 127.8 18.0895 127.292 17.8009 126.86C17.5122 126.428 17.102 126.091 16.622 125.892C16.1421 125.694 15.614 125.642 15.1044 125.743C14.5949 125.844 14.1269 126.094 13.7596 126.462C13.3922 126.829 13.1421 127.297 13.0407 127.807C12.9394 128.316 12.9914 128.844 13.1902 129.324C13.389 129.804 13.7256 130.214 14.1576 130.503C14.5895 130.792 15.0974 130.946 15.6169 130.946C16.3127 130.943 16.9792 130.665 17.4712 130.173C17.9632 129.681 18.2408 129.015 18.2435 128.319Z" fill="#21150B"/>
<path d="M1.59882 108.11C1.60075 108.542 1.44618 108.961 1.16363 109.288C0.881089 109.616 0.489639 109.83 0.0615234 109.892L0.0615234 110.767C0.642085 110.723 1.19125 110.486 1.62206 110.094C2.05288 109.702 2.34073 109.178 2.44005 108.605C2.53937 108.031 2.44449 107.44 2.17041 106.927C1.89634 106.413 1.45874 106.005 0.92689 105.768H0.0615234L0.0615234 106.369C0.494311 106.426 0.891801 106.638 1.18016 106.965C1.46851 107.293 1.62813 107.714 1.62936 108.151" fill="#21150B"/>
<path d="M1.51703 146.237H0.692383L0.692383 153.424H1.51703L1.51703 146.237Z" fill="#21150B"/>
<path d="M3.58395 145.962L2.21973 147.438L3.32943 148.639L2.21973 149.831L3.32943 151.032L2.21973 152.233L3.58395 153.71L4.1948 153.15L3.34979 152.233L4.4595 151.032L3.34979 149.831L4.4595 148.639L3.34979 147.438L4.1948 146.522L3.58395 145.962Z" fill="#21150B"/>
<path d="M21.4415 139.273C21.6281 139.181 21.797 139.057 21.9403 138.907C22.1134 138.734 22.1643 138.703 22.2865 138.713C22.4086 138.723 22.5308 138.846 22.7039 139.029C22.9515 139.366 23.3134 139.601 23.722 139.691L23.8747 138.866C23.6566 138.801 23.4667 138.665 23.3351 138.479C23.1102 138.174 22.78 137.964 22.4086 137.889C22.2169 137.871 22.024 137.902 21.8465 137.976C21.6691 138.051 21.5126 138.167 21.3906 138.316C21.3209 138.394 21.2382 138.46 21.1462 138.51C20.739 138.683 20.6474 138.601 20.403 138.377C20.1338 138.095 19.7728 137.918 19.3849 137.878C19.1709 137.869 18.9576 137.909 18.7617 137.996C18.5657 138.082 18.3923 138.213 18.2549 138.377C18.0207 138.601 17.9596 138.652 17.6542 138.52L17.3895 138.326C16.8805 137.939 16.2493 137.471 15.7199 137.695C15.5863 137.756 15.4726 137.853 15.3916 137.976C15.3106 138.098 15.2656 138.241 15.2617 138.387L16.0864 138.489C16.3732 138.627 16.643 138.798 16.8906 138.998C17.02 139.107 17.1598 139.202 17.3081 139.283C17.5553 139.423 17.8449 139.47 18.1235 139.414C18.4022 139.358 18.6512 139.203 18.825 138.978C19.0286 138.795 19.1304 138.703 19.334 138.713C19.5482 138.738 19.7449 138.843 19.8838 139.008C20.0805 139.214 20.3382 139.351 20.6188 139.399C20.8994 139.446 21.1879 139.402 21.4415 139.273Z" fill="#21150B"/>
<path d="M10.2421 110.105L12.2783 106.532L14.3144 110.105H10.2421ZM8.80664 110.93H15.8008L12.7466 105.728H11.7285L8.80664 110.93Z" fill="#21150B"/>
<path d="M13.6215 146.593L17.195 148.629L13.6215 150.666V146.593ZM12.7969 152.152L18.8544 148.65L12.7969 145.158L12.7969 152.152Z" fill="#21150B"/>
<path d="M28.1701 119.217H21.8071V117.476L22.591 118.199L23.7923 117.1L24.9835 118.199L26.1848 117.1L27.3861 118.199L28.1701 117.476V119.217ZM28.9947 115.583L27.3861 117.069L26.1848 115.97L24.9835 117.069L23.7923 115.97L22.591 117.069L20.9824 115.583V120.052H28.9947V115.583Z" fill="#21150B"/>
<path d="M33.6577 106.288C33.7595 106.644 33.8002 106.817 33.7188 106.888C33.6373 106.96 33.4134 106.838 33.2097 106.746C32.9152 106.556 32.5663 106.468 32.2167 106.495C31.8672 106.523 31.5364 106.665 31.2754 106.899L31.8455 107.499C32.1306 107.224 32.3647 107.286 32.8636 107.499C33.1116 107.622 33.3815 107.695 33.6577 107.713C33.8701 107.711 34.0752 107.636 34.238 107.499C34.7572 107.072 34.5536 106.481 34.4213 106.023C34.4213 105.931 34.3602 105.809 34.3398 105.708H33.4948C33.5206 105.899 33.5684 106.087 33.6373 106.267" fill="#21150B"/>
<path d="M35.1025 105.738C35.3996 105.953 35.7543 106.073 36.1206 106.084C36.4265 106.069 36.7163 105.942 36.9351 105.728H35.1025" fill="#21150B"/>
<path d="M0.0302734 96.3816L0.0302734 96.4732L0.712386 96.8601L2.21914 94.2029L1.49631 93.7957L0.0302734 96.3816Z" fill="#21150B"/>
<path d="M17.798 57.9877L16.2959 60.647L17.0139 61.0525L18.516 58.3932L17.798 57.9877Z" fill="#21150B"/>
<path d="M21.5738 104.679L21.1665 103.956L18.5195 105.483L18.6621 105.728H19.7616L21.5738 104.679Z" fill="#21150B"/>
<path d="M17.2775 95.9233L18.3566 98.2445L20.1892 97.5624L19.8939 96.7785L18.7842 97.1959L17.644 94.7322L12.5536 97.7559L11.4846 96.6971L10.9043 97.2774L12.4212 98.7943L17.2775 95.9233Z" fill="#21150B"/>
<path d="M17.4185 76.4171V75.5822C17.1151 75.5617 16.8106 75.6037 16.5241 75.7056C16.2376 75.8076 15.9751 75.9673 15.7529 76.1749C15.5307 76.3826 15.3536 76.6337 15.2324 76.9126C15.1113 77.1916 15.0488 77.4924 15.0488 77.7965C15.0488 78.1007 15.1113 78.4015 15.2324 78.6805C15.3536 78.9595 15.5307 79.2105 15.7529 79.4182C15.9751 79.6258 16.2376 79.7855 16.5241 79.8875C16.8106 79.9895 17.1151 80.0315 17.4185 80.0109V79.2066C17.0513 79.2066 16.6991 79.0607 16.4394 78.801C16.1798 78.5414 16.0339 78.1892 16.0339 77.822C16.0339 77.4548 16.1798 77.1026 16.4394 76.843C16.6991 76.5833 17.0513 76.4374 17.4185 76.4374" fill="#21150B"/>
<path d="M8.82613 68.7205C9.18296 68.7185 9.53235 68.8224 9.83003 69.0192C10.1277 69.216 10.3602 69.4967 10.4982 69.8258C10.6362 70.1549 10.6733 70.5175 10.6049 70.8677C10.5365 71.218 10.3657 71.54 10.1141 71.793C9.86252 72.0461 9.54145 72.2187 9.19162 72.2891C8.8418 72.3594 8.47895 72.3243 8.14909 72.1883C7.81922 72.0522 7.53719 71.8212 7.33873 71.5246C7.14027 71.2281 7.03432 70.8793 7.03431 70.5225C7.0343 70.0463 7.22276 69.5895 7.5585 69.2519C7.89424 68.9142 8.34998 68.7232 8.82613 68.7205ZM8.82613 73.1491C9.34429 73.1431 9.84909 72.9839 10.277 72.6917C10.7049 72.3994 11.0368 71.9871 11.2309 71.5067C11.4251 71.0262 11.4728 70.499 11.368 69.9916C11.2632 69.4841 11.0107 69.0189 10.6421 68.6546C10.2736 68.2903 9.80556 68.0432 9.29689 67.9443C8.78822 67.8454 8.26167 67.8991 7.78349 68.0988C7.30531 68.2985 6.89687 68.6351 6.60958 69.0664C6.32229 69.4977 6.16898 70.0043 6.16895 70.5225C6.16895 71.2191 6.44568 71.8872 6.93827 72.3798C7.43086 72.8724 8.09896 73.1491 8.79559 73.1491" fill="#21150B"/>
<path d="M3.47043 59.5781C3.68464 59.6027 3.88132 59.7084 4.02019 59.8733C4.21754 60.0979 4.4861 60.2477 4.78082 60.2978C5.07555 60.3478 5.37852 60.295 5.63893 60.1482C5.82879 60.0619 5.99866 59.9371 6.13779 59.7817C6.32105 59.6086 6.37195 59.5781 6.49412 59.5883C6.61629 59.5984 6.72828 59.7206 6.90135 59.9039C7.15092 60.2388 7.512 60.4735 7.91943 60.5656L8.08232 59.7512C7.86282 59.6835 7.67266 59.5435 7.54274 59.3541C7.31608 59.0463 6.98157 58.8354 6.60611 58.7636C6.41458 58.7483 6.22218 58.7791 6.04503 58.8535C5.86788 58.9279 5.71117 59.0437 5.58803 59.1912C5.52392 59.2709 5.44425 59.3367 5.35387 59.3846C4.93646 59.5577 4.85501 59.4864 4.61067 59.2523C4.33989 58.9723 3.97975 58.7959 3.59259 58.7534C3.37847 58.7434 3.16495 58.7833 2.96885 58.8698C2.77274 58.9564 2.59942 59.0873 2.46253 59.2523C2.21819 59.4763 2.16729 59.5272 1.86186 59.3948L1.58698 59.2014C1.13903 58.8654 0.568902 58.448 0.100586 58.5193L0.100586 59.3439H0.28384C0.573096 59.4833 0.846212 59.654 1.0983 59.8529C1.22624 59.9587 1.36241 60.054 1.50553 60.138C1.75436 60.2789 2.04555 60.3255 2.32592 60.2694C2.60629 60.2134 2.85714 60.0583 3.03265 59.8326C3.22609 59.6493 3.32789 59.5577 3.54169 59.5679" fill="#21150B"/>
<path d="M0.864829 82.0063C0.83731 81.7942 0.760315 81.5916 0.640059 81.4147C0.519802 81.2379 0.359653 81.0918 0.172536 80.9882L0.0605469 80.9475L0.0605469 82.0674C0.0789289 82.1306 0.0789289 82.1977 0.0605469 82.2608L0.0605469 83.7065C0.308917 83.5 0.511454 83.2439 0.655205 82.9547C0.798955 82.6654 0.880755 82.3493 0.895371 82.0267" fill="#21150B"/>
<path d="M11.7588 105.727H12.7361L12.2475 104.882L11.7588 105.727Z" fill="#21150B"/>
<path d="M10.2416 86.3332L13.8151 88.3694L10.2416 90.4055V86.3332ZM9.41699 84.8977L9.41699 91.8919L15.4847 88.3694L9.41699 84.8977Z" fill="#21150B"/>
<path d="M25.44 88.5541L24.9375 89.2207L27.3764 91.0592L27.8789 90.3926L25.44 88.5541Z" fill="#21150B"/>
<path d="M27.376 52.1589L27.0273 52.9062L29.7952 54.1975L30.1438 53.4502L27.376 52.1589Z" fill="#21150B"/>
<path d="M47.1761 74.1016L44.3398 75.2349L44.6458 76.0006L47.482 74.8674L47.1761 74.1016Z" fill="#21150B"/>
<path d="M44.4914 14.8128L43.6934 15.0205L44.4627 17.9763L45.2608 17.7685L44.4914 14.8128Z" fill="#21150B"/>
<path d="M28.4729 75.2251L25.6367 76.3584L25.9427 77.1242L28.7789 75.9909L28.4729 75.2251Z" fill="#21150B"/>
<path d="M52.4005 83.513H53.2353C53.1972 82.9517 52.9474 82.4258 52.5363 82.0417C52.1252 81.6575 51.5836 81.4438 51.021 81.4438C50.4583 81.4438 49.9167 81.6575 49.5056 82.0417C49.0946 82.4258 48.8447 82.9517 48.8066 83.513H49.6415C49.625 83.3219 49.6485 83.1295 49.7104 82.9479C49.7722 82.7663 49.8711 82.5996 50.0008 82.4582C50.1305 82.3169 50.2882 82.2041 50.4638 82.1269C50.6394 82.0497 50.8291 82.0098 51.021 82.0098C51.2128 82.0098 51.4025 82.0497 51.5781 82.1269C51.7537 82.2041 51.9114 82.3169 52.0411 82.4582C52.1708 82.5996 52.2697 82.7663 52.3316 82.9479C52.3934 83.1295 52.4169 83.3219 52.4005 83.513Z" fill="#21150B"/>
<path d="M42.3624 7.61523L43.187 7.61523C43.187 7.02931 42.9543 6.4674 42.5399 6.05309C42.1256 5.63877 41.5637 5.40601 40.9778 5.40601C40.3919 5.40601 39.8299 5.63877 39.4156 6.05309C39.0013 6.4674 38.7686 7.02931 38.7686 7.61523H39.5932C39.5932 7.24802 39.7391 6.89585 39.9987 6.63619C40.2584 6.37653 40.6106 6.23066 40.9778 6.23066C41.345 6.23066 41.6972 6.37653 41.9568 6.63619C42.2165 6.89585 42.3624 7.24802 42.3624 7.61523Z" fill="#21150B"/>
<path d="M24.994 64.7805C25.1754 64.7805 25.3549 64.8164 25.5224 64.8861C25.6898 64.9558 25.8417 65.0579 25.9695 65.1866C26.0973 65.3153 26.1983 65.4681 26.2668 65.636C26.3352 65.8039 26.3698 65.9837 26.3684 66.1651H27.2033C27.2238 65.8616 27.1819 65.5572 27.0799 65.2707C26.9779 64.9842 26.8182 64.7217 26.6105 64.4995C26.4029 64.2773 26.1518 64.1001 25.8729 63.979C25.5939 63.8579 25.2931 63.7954 24.9889 63.7954C24.6848 63.7954 24.384 63.8579 24.105 63.979C23.8261 64.1001 23.575 64.2773 23.3673 64.4995C23.1597 64.7217 22.9999 64.9842 22.898 65.2707C22.796 65.5572 22.754 65.8616 22.7746 66.1651H23.6094C23.6094 65.9832 23.6453 65.8032 23.7148 65.6352C23.7844 65.4672 23.8864 65.3146 24.015 65.186C24.1436 65.0574 24.2962 64.9555 24.4642 64.8859C24.6322 64.8163 24.8122 64.7805 24.994 64.7805Z" fill="#21150B"/>
<path d="M49.7229 54.3961C50.0793 54.3981 50.4271 54.5058 50.7223 54.7055C51.0175 54.9051 51.2469 55.1879 51.3814 55.5179C51.516 55.8479 51.5496 56.2105 51.4781 56.5596C51.4066 56.9088 51.2332 57.2289 50.9797 57.4795C50.7263 57.73 50.4042 57.8998 50.0543 57.9674C49.7044 58.035 49.3423 57.9972 49.0138 57.859C48.6853 57.7208 48.4051 57.4882 48.2088 57.1908C48.0125 56.8933 47.9088 56.5443 47.9108 56.1879C47.9108 55.9518 47.9574 55.7179 48.0481 55.4999C48.1388 55.2818 48.2717 55.0838 48.4392 54.9173C48.6066 54.7508 48.8054 54.619 49.0239 54.5296C49.2425 54.4401 49.4766 54.3948 49.7128 54.3961M49.7128 58.8146C50.2323 58.8146 50.7401 58.6605 51.172 58.3719C51.604 58.0833 51.9407 57.673 52.1395 57.1931C52.3383 56.7131 52.3903 56.185 52.2889 55.6755C52.1876 55.166 51.9374 54.6979 51.5701 54.3306C51.2027 53.9633 50.7347 53.7131 50.2252 53.6117C49.7157 53.5104 49.1875 53.5624 48.7076 53.7612C48.2276 53.96 47.8174 54.2967 47.5288 54.7286C47.2402 55.1606 47.0861 55.6684 47.0861 56.1879C47.0821 56.5363 47.1473 56.882 47.2782 57.2048C47.409 57.5277 47.6027 57.8214 47.8481 58.0687C48.0935 58.3159 48.3857 58.5119 48.7075 58.6452C49.0294 58.7785 49.3746 58.8465 49.7229 58.8451" fill="#21150B"/>
<path d="M37.7911 44.47H30.6035V45.2946H37.7911V44.47Z" fill="#21150B"/>
<path d="M32.9959 42.6574L34.1972 43.7569L35.3884 42.6574L36.5897 43.7569L38.0761 42.3927L37.506 41.7819L36.5897 42.637L35.3884 41.5273L34.1972 42.637L32.9959 41.5273L31.8048 42.637L30.8885 41.7819L30.3184 42.3927L31.8048 43.7569L32.9959 42.6574Z" fill="#21150B"/>
<path d="M55.5557 8.22597C55.7456 8.13964 55.9154 8.01484 56.0546 7.85946C56.2378 7.68639 56.2887 7.65584 56.4109 7.66602C56.5331 7.6762 56.6451 7.79837 56.8181 7.98162C57.0677 8.31657 57.4288 8.55129 57.8362 8.64338L57.9991 7.82892C57.7796 7.76123 57.5894 7.6213 57.4595 7.43187C57.2329 7.12406 56.8983 6.91317 56.5229 6.84138C56.3314 6.82605 56.139 6.85688 55.9618 6.93128C55.7847 7.00568 55.6279 7.12148 55.5048 7.26897C55.4407 7.34868 55.361 7.4145 55.2707 7.46241C54.8634 7.63548 54.7718 7.56421 54.5275 7.33005C54.2567 7.05012 53.8965 6.87366 53.5094 6.83121C53.2953 6.82121 53.0817 6.86106 52.8856 6.94762C52.6895 7.03419 52.5162 7.1651 52.3793 7.33005C52.135 7.55403 52.0841 7.60494 51.7786 7.47259L51.5038 7.27916C51.0049 6.90247 50.3737 6.42397 49.8443 6.64794C49.7089 6.70741 49.593 6.80398 49.5102 6.92648C49.4273 7.04898 49.3808 7.19243 49.376 7.34025L50.2006 7.44204C50.488 7.57912 50.758 7.75001 51.0049 7.95108C51.1377 8.05505 51.2771 8.15028 51.4223 8.23614C51.6711 8.377 51.9623 8.42366 52.2427 8.36758C52.5231 8.31151 52.7739 8.15645 52.9494 7.93073C53.1429 7.74748 53.2447 7.65584 53.4585 7.66602C53.6727 7.69069 53.8694 7.79632 54.0082 7.96127C54.2056 8.18581 54.4741 8.33566 54.7689 8.38571C55.0636 8.43576 55.3666 8.38295 55.627 8.23614" fill="#21150B"/>
<path d="M41.8019 63.6909C41.7242 63.4993 41.6027 63.3286 41.4471 63.1925C41.2915 63.0564 41.1062 62.9585 40.906 62.9069C40.5247 62.8171 40.1281 62.8144 39.7456 62.899C39.3631 62.9836 39.0046 63.1534 38.6968 63.3956C38.347 63.6488 37.9356 63.8035 37.5056 63.8436C37.3733 63.8436 37.2817 63.7927 37.2613 63.752C37.2409 63.7112 37.19 63.3854 37.6176 62.5302L37.7907 62.2146C38.147 61.5733 38.8088 60.3719 37.7907 59.6084C37.5111 59.4576 37.2011 59.3719 36.8838 59.3578C36.5664 59.3437 36.25 59.4015 35.9582 59.5269C35.7628 59.5911 35.5872 59.7044 35.4481 59.856C35.3091 60.0075 35.2113 60.1921 35.1641 60.3923L35.9887 60.5348C35.9887 60.4534 36.1109 60.3618 36.2738 60.2905C36.6 60.157 36.9656 60.157 37.2918 60.2905C37.6889 60.5756 37.5464 60.993 37.0882 61.8176C37.017 61.95 36.9457 62.0619 36.8948 62.1739C36.5385 62.8866 36.2534 63.6298 36.5588 64.2101C36.6494 64.3669 36.7801 64.4968 36.9376 64.5863C37.0951 64.6758 37.2736 64.7216 37.4547 64.7191C38.0557 64.7093 38.639 64.5137 39.1244 64.1592C39.6843 63.8436 40.1425 63.5687 40.6515 63.7418C40.7344 63.7575 40.8129 63.7912 40.8815 63.8404C40.9501 63.8897 41.0071 63.9533 41.0486 64.0268C41.1605 64.3322 40.7737 64.994 40.4683 65.5234C39.9898 66.348 39.4502 67.2745 39.9694 68.0075L40.6413 67.5188C40.4275 67.2338 40.8348 66.5008 41.1809 65.9408C41.6187 65.1874 42.0768 64.4239 41.8223 63.7418" fill="#21150B"/>
<path d="M47.2188 27.7219C47.7177 27.1721 48.6442 26.1642 47.7788 25.1767C47.5409 24.9643 47.2577 24.809 46.9507 24.7226C46.6437 24.6361 46.3211 24.6208 46.0073 24.6778C45.7934 24.6845 45.5853 24.7497 45.4058 24.8664C45.2263 24.9831 45.0822 25.1467 44.9893 25.3396L45.7528 25.6552C45.7528 25.5839 45.9157 25.5228 46.0888 25.4923C46.2649 25.4605 46.4455 25.4639 46.6202 25.5024C46.795 25.5408 46.9604 25.6135 47.1069 25.7163C47.4326 26.0828 47.1985 26.4595 46.5673 27.1619L46.2924 27.4572C45.7834 28.0782 45.3354 28.7298 45.5085 29.3203C45.5602 29.4938 45.6573 29.6503 45.7898 29.7738C45.9222 29.8973 46.0852 29.9832 46.2619 30.0227C46.8506 30.1549 47.4659 30.1016 48.0231 29.87C48.6442 29.6868 49.1736 29.534 49.6012 29.8089C49.7946 29.9311 49.9066 30.0634 49.9168 30.1754C49.9168 30.5012 49.4383 31.0612 49.0107 31.4989C48.3591 32.1912 47.6159 32.9752 47.9926 33.7998L48.7561 33.4842C48.6238 33.1584 49.1736 32.5781 49.6521 32.0691C50.1306 31.56 50.8737 30.7965 50.7821 30.0838C50.7546 29.8717 50.6776 29.6691 50.5574 29.4922C50.4371 29.3154 50.2769 29.1693 50.0898 29.0657C49.7375 28.8954 49.3511 28.8069 48.9598 28.8069C48.5684 28.8069 48.1821 28.8954 47.8297 29.0657C47.4321 29.2361 46.995 29.2925 46.5673 29.2286C46.4451 29.2286 46.3637 29.137 46.3433 29.0861C46.3229 29.0352 46.3433 28.7196 46.9745 27.9764L47.2188 27.7117" fill="#21150B"/>
<path d="M37.2106 105.32C37.2965 105.067 37.3106 104.795 37.2513 104.534C37.192 104.274 37.0616 104.035 36.8746 103.844L36.2638 104.414C36.3458 104.49 36.4054 104.587 36.4359 104.695C36.4664 104.803 36.4668 104.917 36.4368 105.025C36.4056 105.098 36.3528 105.159 36.2854 105.201C36.218 105.243 36.1394 105.263 36.0602 105.259C35.8658 105.205 35.6805 105.123 35.5104 105.015C35.0319 104.74 34.136 104.231 33.5862 105.147C33.4923 105.325 33.4534 105.527 33.4742 105.727H34.3192C34.3063 105.677 34.3063 105.625 34.3192 105.574C34.4109 105.422 34.4516 105.361 35.1032 105.727H36.9662C37.0787 105.609 37.1684 105.471 37.2309 105.32" fill="#21150B"/>
<path d="M36.8748 92.7369L38.911 96.3103H34.8387L36.8748 92.7369ZM36.8748 91.0774L33.3828 97.1349H40.377L36.8748 91.0774Z" fill="#21150B"/>
<path d="M34.8186 27.9362L31.2553 25.9L34.8186 23.8638V27.9362ZM35.6534 22.3774L29.5449 25.8796L35.6534 29.3717V22.3774Z" fill="#21150B"/>
<path d="M36.3767 76.5798V82.9428H34.6765L35.3994 82.1588L34.2897 80.9575L35.3994 79.7664L34.2897 78.565L35.3994 77.3637L34.6765 76.5798H36.3767ZM37.2014 83.7674V75.7551H32.7422L34.2286 77.3637L33.1189 78.565L34.2286 79.7664L33.1189 80.9575L34.2286 82.1588L32.7422 83.7674H37.2014Z" fill="#21150B"/>
<path d="M5.43262 15.4397L5.08398 16.187L7.85184 17.4783L8.20048 16.731L5.43262 15.4397Z" fill="#21150B"/>
<path d="M9.14535 52.3798L8.52734 52.9258L10.5495 55.2147L11.1675 54.6687L9.14535 52.3798Z" fill="#21150B"/>
<path d="M18.6621 1.88354L18.937 2.36204L19.7616 1.88354L18.6621 1.88354Z" fill="#21150B"/>
<path d="M1.07916 29.382C0.702037 29.3814 0.330843 29.4759 0 29.6569L0 30.7361C0.177083 30.5116 0.419792 30.3479 0.694313 30.2678C0.968835 30.1877 1.2615 30.1952 1.53153 30.2894C1.80155 30.3835 2.0355 30.5595 2.20078 30.7929C2.36605 31.0262 2.45442 31.3053 2.45357 31.5913H3.31894C3.31896 31.2986 3.26082 31.0088 3.14789 30.7387C3.03497 30.4687 2.8695 30.2238 2.66111 30.0182C2.45271 29.8127 2.20555 29.6506 1.93398 29.5414C1.66241 29.4322 1.37184 29.378 1.07916 29.382Z" fill="#21150B"/>
<path d="M13.8251 24.475C13.823 24.1178 13.9273 23.768 14.1245 23.4701C14.3217 23.1722 14.6031 22.9397 14.9327 22.802C15.2624 22.6644 15.6256 22.6278 15.9761 22.697C16.3266 22.7662 16.6486 22.9381 16.9012 23.1907C17.1539 23.4433 17.3257 23.7653 17.3949 24.1158C17.4641 24.4663 17.4276 24.8295 17.2899 25.1592C17.1523 25.4889 16.9197 25.7702 16.6218 25.9674C16.3239 26.1646 15.9741 26.2689 15.6169 26.2668C15.1425 26.2642 14.6883 26.0745 14.3528 25.7391C14.0174 25.4036 13.8277 24.9494 13.8251 24.475ZM18.2435 24.475C18.2435 23.9555 18.0895 23.4477 17.8009 23.0157C17.5122 22.5838 17.102 22.2471 16.622 22.0483C16.1421 21.8495 15.614 21.7975 15.1044 21.8989C14.5949 22.0002 14.1269 22.2504 13.7596 22.6177C13.3922 22.9851 13.1421 23.4531 13.0407 23.9626C12.9394 24.4721 12.9914 25.0002 13.1902 25.4802C13.389 25.9602 13.7256 26.3704 14.1576 26.659C14.5895 26.9476 15.0974 27.1017 15.6169 27.1017C16.3127 27.099 16.9792 26.8214 17.4712 26.3294C17.9632 25.8374 18.2408 25.1708 18.2435 24.475Z" fill="#21150B"/>
<path d="M1.59882 4.2659C1.60075 4.6984 1.44618 5.117 1.16363 5.44445C0.881089 5.7719 0.489639 5.98611 0.0615234 6.04754L0.0615234 6.92308C0.642085 6.87867 1.19125 6.64188 1.62206 6.25019C2.05288 5.85849 2.34073 5.33428 2.44005 4.76055C2.53937 4.18683 2.44449 3.59638 2.17041 3.08266C1.89634 2.56894 1.45874 2.16131 0.92689 1.92432L0.0615234 1.92432L0.0615234 2.52498C0.494311 2.5817 0.891801 2.79358 1.18016 3.12126C1.46851 3.44894 1.62813 3.87013 1.62936 4.30662" fill="#21150B"/>
<path d="M1.51703 42.3928H0.692383L0.692383 49.5805H1.51703L1.51703 42.3928Z" fill="#21150B"/>
<path d="M3.58395 42.1182L2.21973 43.5944L3.32943 44.7957L2.21973 45.9869L3.32943 47.1882L2.21973 48.3895L3.58395 49.8657L4.1948 49.3058L3.34979 48.3895L4.4595 47.1882L3.34979 45.9869L4.4595 44.7957L3.34979 43.5944L4.1948 42.6781L3.58395 42.1182Z" fill="#21150B"/>
<path d="M21.4415 35.4292C21.6281 35.3374 21.797 35.2133 21.9403 35.0627C22.1134 34.8896 22.1643 34.859 22.2865 34.8692C22.4086 34.8794 22.5308 35.0016 22.7039 35.1848C22.9515 35.5218 23.3134 35.7571 23.722 35.8466L23.8747 35.0219C23.6566 34.9569 23.4667 34.8207 23.3351 34.6351C23.1102 34.3301 22.78 34.1197 22.4086 34.0446C22.2169 34.0275 22.024 34.0575 21.8465 34.1321C21.6691 34.2066 21.5126 34.3233 21.3906 34.4722C21.3209 34.5503 21.2382 34.6157 21.1462 34.6656C20.739 34.8387 20.6474 34.7572 20.403 34.5332C20.1338 34.2512 19.7728 34.0743 19.3849 34.0344C19.1709 34.0252 18.9576 34.0654 18.7617 34.1519C18.5657 34.2384 18.3923 34.3689 18.2549 34.5332C18.0207 34.7572 17.9596 34.8081 17.6542 34.6758L17.3895 34.4824C16.8805 34.0955 16.2493 33.6272 15.7199 33.8511C15.5863 33.9121 15.4726 34.0093 15.3916 34.1317C15.3106 34.2541 15.2656 34.3967 15.2617 34.5434L16.0864 34.6452C16.3732 34.7834 16.643 34.9542 16.8906 35.1543C17.02 35.2629 17.1598 35.3584 17.3081 35.4393C17.5553 35.5795 17.8449 35.6258 18.1235 35.5697C18.4022 35.5136 18.6512 35.3589 18.825 35.1339C19.0286 34.9507 19.1304 34.859 19.334 34.8692C19.5482 34.8939 19.7449 34.9995 19.8838 35.1645C20.0805 35.3702 20.3382 35.5071 20.6188 35.5547C20.8994 35.6024 21.1879 35.5584 21.4415 35.4292Z" fill="#21150B"/>
<path d="M10.2421 6.26128L12.2783 2.68782L14.3144 6.26128L10.2421 6.26128ZM8.80664 7.08593L15.8008 7.08593L12.7466 1.88354L11.7285 1.88354L8.80664 7.08593Z" fill="#21150B"/>
<path d="M13.6215 42.7495L17.195 44.7856L13.6215 46.8218V42.7495ZM12.7969 48.3082L18.8544 44.806L12.7969 41.314L12.7969 48.3082Z" fill="#21150B"/>
<path d="M28.1701 15.3731L21.8071 15.3731V13.6322L22.591 14.355L23.7923 13.2555L24.9835 14.355L26.1848 13.2555L27.3861 14.355L28.1701 13.6322V15.3731ZM28.9947 11.7385L27.3861 13.2249L26.1848 12.1254L24.9835 13.2249L23.7923 12.1254L22.591 13.2249L20.9824 11.7385V16.2079H28.9947V11.7385Z" fill="#21150B"/>
<path d="M33.6577 2.44335C33.7595 2.79968 33.8002 2.97275 33.7188 3.04401C33.6373 3.11528 33.4134 2.99311 33.2097 2.90148C32.9152 2.71125 32.5663 2.62314 32.2167 2.65074C31.8672 2.67833 31.5364 2.82009 31.2754 3.05419L31.8455 3.65485C32.1306 3.37997 32.3647 3.44105 32.8636 3.65485C33.1116 3.77782 33.3815 3.85049 33.6577 3.86865C33.8701 3.86679 34.0752 3.79121 34.238 3.65485C34.7572 3.22726 34.5536 2.63677 34.4213 2.17864C34.4213 2.08701 34.3602 1.96484 34.3398 1.86304H33.4948C33.5206 2.05456 33.5684 2.24246 33.6373 2.42298" fill="#21150B"/>
<path d="M35.1025 1.89372C35.3996 2.10831 35.7543 2.22888 36.1206 2.23986C36.4265 2.2247 36.7163 2.09794 36.9351 1.88354L35.1025 1.88354" fill="#21150B"/>
</svg>
