<svg width="77" height="391" viewBox="0 0 77 391" fill="none" xmlns="http://www.w3.org/2000/svg">
<path d="M76.0994 130.428V130.307L75.204 129.799L73.226 133.288L74.1749 133.822L76.0994 130.428Z" fill="#21150B"/>
<path d="M52.7773 180.81L54.7492 177.319L53.8066 176.787L51.8347 180.278L52.7773 180.81Z" fill="#21150B"/>
<path d="M47.8192 119.535L48.3538 120.484L51.8286 118.479L51.6415 118.158H50.1981L47.8192 119.535Z" fill="#21150B"/>
<path d="M53.4592 131.029L52.0425 127.982L49.6369 128.877L50.0244 129.906L51.4812 129.358L52.9781 132.593L59.6605 128.623L61.0638 130.013L61.8256 129.251L59.8342 127.26L53.4592 131.029Z" fill="#21150B"/>
<path d="M53.2722 156.636V157.732C53.6705 157.759 54.0701 157.704 54.4462 157.57C54.8223 157.436 55.1669 157.226 55.4586 156.954C55.7503 156.681 55.9829 156.352 56.1419 155.985C56.3009 155.619 56.3829 155.224 56.3829 154.825C56.3829 154.426 56.3009 154.031 56.1419 153.665C55.9829 153.298 55.7503 152.969 55.4586 152.696C55.1669 152.424 54.8223 152.214 54.4462 152.08C54.0701 151.946 53.6705 151.891 53.2722 151.918V152.974C53.7542 152.974 54.2166 153.165 54.5574 153.506C54.8983 153.847 55.0898 154.31 55.0898 154.792C55.0898 155.274 54.8983 155.736 54.5574 156.077C54.2166 156.418 53.7542 156.609 53.2722 156.609" fill="#21150B"/>
<path d="M64.5525 166.74C64.0841 166.743 63.6254 166.606 63.2347 166.348C62.8439 166.089 62.5386 165.721 62.3575 165.289C62.1764 164.857 62.1277 164.381 62.2174 163.921C62.3072 163.461 62.5314 163.039 62.8617 162.706C63.192 162.374 63.6135 162.148 64.0727 162.055C64.532 161.963 65.0083 162.009 65.4413 162.188C65.8743 162.366 66.2446 162.669 66.5051 163.059C66.7656 163.448 66.9047 163.906 66.9047 164.374C66.9047 164.999 66.6574 165.599 66.2166 166.042C65.7759 166.486 65.1776 166.736 64.5525 166.74ZM64.5525 160.926C63.8723 160.934 63.2096 161.143 62.6479 161.527C62.0862 161.91 61.6504 162.452 61.3956 163.082C61.1408 163.713 61.0782 164.405 61.2157 165.071C61.3532 165.738 61.6848 166.348 62.1686 166.826C62.6523 167.305 63.2668 167.629 63.9345 167.759C64.6023 167.889 65.2935 167.818 65.9213 167.556C66.549 167.294 67.0852 166.852 67.4623 166.286C67.8394 165.72 68.0407 165.055 68.0407 164.374C68.0407 163.46 67.6775 162.583 67.0308 161.936C66.3842 161.29 65.5071 160.926 64.5926 160.926" fill="#21150B"/>
<path d="M71.5825 178.741C71.3013 178.709 71.0431 178.57 70.8608 178.354C70.6018 178.059 70.2492 177.862 69.8623 177.797C69.4754 177.731 69.0777 177.8 68.7358 177.993C68.4866 178.106 68.2636 178.27 68.0809 178.474C67.8404 178.701 67.7736 178.741 67.6132 178.728C67.4528 178.715 67.3058 178.554 67.0786 178.314C66.751 177.874 66.2769 177.566 65.7421 177.445L65.5283 178.514C65.8164 178.603 66.066 178.787 66.2366 179.035C66.5341 179.44 66.9733 179.716 67.4662 179.811C67.7176 179.831 67.9702 179.79 68.2027 179.693C68.4353 179.595 68.641 179.443 68.8026 179.249C68.8868 179.145 68.9914 179.058 69.11 178.995C69.658 178.768 69.7649 178.862 70.0857 179.169C70.4411 179.537 70.9139 179.768 71.4221 179.824C71.7032 179.837 71.9835 179.785 72.241 179.671C72.4984 179.557 72.7259 179.386 72.9056 179.169C73.2264 178.875 73.2932 178.808 73.6942 178.982L74.055 179.236C74.6431 179.677 75.3915 180.225 76.0063 180.131V179.049H75.7657C75.386 178.866 75.0275 178.642 74.6965 178.381C74.5286 178.242 74.3498 178.117 74.1619 178.006C73.8353 177.821 73.453 177.76 73.085 177.834C72.7169 177.907 72.3876 178.111 72.1572 178.407C71.9033 178.648 71.7696 178.768 71.489 178.755" fill="#21150B"/>
<path d="M75.0035 149.299C75.0396 149.577 75.1407 149.843 75.2985 150.075C75.4564 150.307 75.6666 150.499 75.9123 150.635L76.0593 150.689V149.219C76.0352 149.136 76.0352 149.048 76.0593 148.965V147.067C75.7332 147.338 75.4674 147.674 75.2787 148.054C75.09 148.433 74.9826 148.848 74.9634 149.272" fill="#21150B"/>
<path d="M60.7031 118.159H59.4201L60.0616 119.268L60.7031 118.159Z" fill="#21150B"/>
<path d="M62.6944 143.619L58.0033 140.946L62.6944 138.273V143.619ZM63.7769 145.503L63.7769 136.322L55.8115 140.946L63.7769 145.503Z" fill="#21150B"/>
<path d="M42.743 140.703L43.4027 139.827L40.201 137.414L39.5413 138.289L42.743 140.703Z" fill="#21150B"/>
<path d="M40.1959 188.485L40.6536 187.504L37.0201 185.809L36.5624 186.79L40.1959 188.485Z" fill="#21150B"/>
<path d="M14.2181 159.674L17.9413 158.187L17.5396 157.181L13.8164 158.669L14.2181 159.674Z" fill="#21150B"/>
<path d="M17.7256 237.508L18.7733 237.235L17.7633 233.355L16.7156 233.628L17.7256 237.508Z" fill="#21150B"/>
<path d="M38.7575 158.199L42.4807 156.711L42.0791 155.706L38.3558 157.194L38.7575 158.199Z" fill="#21150B"/>
<path d="M7.35064 147.321H6.25472C6.30471 148.058 6.6327 148.748 7.17234 149.252C7.71198 149.757 8.42299 150.037 9.16157 150.037C9.90015 150.037 10.6112 149.757 11.1508 149.252C11.6904 148.748 12.0184 148.058 12.0684 147.321H10.9725C10.9941 147.572 10.9633 147.824 10.8821 148.063C10.8009 148.301 10.671 148.52 10.5007 148.706C10.3305 148.891 10.1235 149.039 9.89299 149.141C9.66246 149.242 9.41339 149.294 9.16157 149.294C8.90975 149.294 8.66068 149.242 8.43015 149.141C8.19962 149.039 7.99267 148.891 7.8224 148.706C7.65214 148.52 7.52228 148.301 7.44107 148.063C7.35986 147.824 7.32906 147.572 7.35064 147.321Z" fill="#21150B"/>
<path d="M20.5285 246.956H19.4459C19.4459 247.725 19.7515 248.462 20.2954 249.006C20.8393 249.55 21.5769 249.856 22.3461 249.856C23.1153 249.856 23.853 249.55 24.3968 249.006C24.9407 248.462 25.2463 247.725 25.2463 246.956H24.1637C24.1637 247.194 24.1167 247.431 24.0254 247.651C23.934 247.872 23.8001 248.072 23.6314 248.241C23.4626 248.41 23.2622 248.543 23.0417 248.635C22.8212 248.726 22.5848 248.773 22.3461 248.773C22.1074 248.773 21.8711 248.726 21.6505 248.635C21.43 248.543 21.2296 248.41 21.0609 248.241C20.8921 248.072 20.7582 247.872 20.6669 247.651C20.5755 247.431 20.5285 247.194 20.5285 246.956Z" fill="#21150B"/>
<path d="M43.3286 171.912C43.0906 171.912 42.8549 171.865 42.6351 171.773C42.4153 171.682 42.2158 171.548 42.0481 171.379C41.8804 171.21 41.7478 171.009 41.6579 170.789C41.568 170.568 41.5226 170.332 41.5244 170.094H40.4285C40.4014 170.493 40.4566 170.892 40.5904 171.268C40.7243 171.644 40.934 171.989 41.2066 172.281C41.4791 172.572 41.8087 172.805 42.1749 172.964C42.5411 173.123 42.9361 173.205 43.3353 173.205C43.7345 173.205 44.1295 173.123 44.4957 172.964C44.8619 172.805 45.1915 172.572 45.4641 172.281C45.7367 171.989 45.9464 171.644 46.0802 171.268C46.2141 170.892 46.2692 170.493 46.2422 170.094H45.1463C45.1463 170.576 44.9548 171.039 44.6139 171.38C44.273 171.72 43.8107 171.912 43.3286 171.912Z" fill="#21150B"/>
<path d="M10.8657 185.544C10.3979 185.542 9.94129 185.4 9.55376 185.138C9.16622 184.876 8.86511 184.505 8.68852 184.072C8.51192 183.638 8.46777 183.162 8.56164 182.704C8.65551 182.246 8.88318 181.826 9.21587 181.497C9.54857 181.168 9.97134 180.945 10.4307 180.856C10.8901 180.767 11.3655 180.817 11.7967 180.998C12.2279 181.18 12.5957 181.485 12.8534 181.876C13.1111 182.266 13.2473 182.724 13.2447 183.192C13.2447 183.502 13.1834 183.809 13.0643 184.095C12.9453 184.382 12.7708 184.641 12.551 184.86C12.3311 185.079 12.0703 185.252 11.7833 185.369C11.4964 185.486 11.1891 185.546 10.8791 185.544M10.8791 179.744C10.1971 179.744 9.53044 179.946 8.9634 180.325C8.39636 180.704 7.9544 181.242 7.69342 181.872C7.43244 182.503 7.36416 183.196 7.4972 183.865C7.63025 184.534 7.95865 185.148 8.44088 185.63C8.92311 186.112 9.53751 186.441 10.2064 186.574C10.8752 186.707 11.5686 186.639 12.1986 186.378C12.8287 186.117 13.3672 185.675 13.7461 185.108C14.125 184.541 14.3272 183.874 14.3272 183.192C14.3325 182.735 14.2468 182.281 14.0751 181.857C13.9033 181.433 13.649 181.048 13.3269 180.723C13.0047 180.398 12.6212 180.141 12.1987 179.966C11.7762 179.791 11.323 179.702 10.8657 179.704" fill="#21150B"/>
<path d="M26.529 198.588H35.9646V197.506H26.529V198.588Z" fill="#21150B"/>
<path d="M32.8243 200.954L31.2473 199.511L29.6836 200.954L28.1065 199.511L26.1553 201.301L26.9037 202.103L28.1065 200.981L29.6836 202.438L31.2473 200.981L32.8243 202.438L34.388 200.981L35.5908 202.103L36.3393 201.301L34.388 199.511L32.8243 200.954Z" fill="#21150B"/>
<path d="M3.20782 246.154C2.95858 246.267 2.73558 246.431 2.55294 246.635C2.31237 246.862 2.24555 246.902 2.08517 246.889C1.9248 246.875 1.77778 246.715 1.55058 246.475C1.22295 246.035 0.748941 245.727 0.214094 245.606L0.000257012 246.675C0.288409 246.764 0.538042 246.948 0.708592 247.196C1.00614 247.6 1.44528 247.877 1.93816 247.971C2.18958 247.992 2.44216 247.951 2.67471 247.853C2.90726 247.756 3.113 247.604 3.27464 247.41C3.35881 247.305 3.46339 247.219 3.58203 247.156C4.11663 246.929 4.23691 247.022 4.55767 247.33C4.91315 247.697 5.38591 247.929 5.89415 247.985C6.17524 247.998 6.45555 247.946 6.71298 247.832C6.97041 247.718 7.19794 247.546 7.37765 247.33C7.69841 247.036 7.76523 246.969 8.16617 247.143L8.52703 247.397C9.1819 247.891 10.0105 248.519 10.7055 248.225C10.8833 248.147 11.0353 248.02 11.1441 247.86C11.2529 247.699 11.314 247.511 11.3203 247.316L10.2377 247.183C9.86045 247.003 9.506 246.779 9.1819 246.515C9.00756 246.378 8.82452 246.253 8.63394 246.14C8.3073 245.955 7.92504 245.894 7.55698 245.968C7.18892 246.041 6.85962 246.245 6.62922 246.541C6.37528 246.782 6.24164 246.902 5.96097 246.889C5.67977 246.856 5.42158 246.718 5.23927 246.501C4.98019 246.206 4.62765 246.01 4.24075 245.944C3.85385 245.878 3.45612 245.948 3.11426 246.14" fill="#21150B"/>
<path d="M21.2637 173.342C21.3657 173.594 21.5253 173.818 21.7295 173.996C21.9337 174.175 22.177 174.304 22.4398 174.371C22.9403 174.489 23.461 174.493 23.9631 174.382C24.4652 174.271 24.9358 174.048 25.34 173.73C25.7992 173.397 26.3392 173.194 26.9037 173.142C27.0774 173.142 27.1977 173.142 27.2244 173.262C27.2511 173.382 27.318 173.743 26.7566 174.866L26.5294 175.28C26.0617 176.122 25.193 177.699 26.5294 178.702C26.8964 178.899 27.3035 179.012 27.72 179.03C28.1366 179.049 28.552 178.973 28.9351 178.808C29.1916 178.724 29.4221 178.575 29.6046 178.376C29.7872 178.178 29.9156 177.935 29.9776 177.672L28.895 177.485C28.895 177.592 28.7346 177.713 28.5208 177.806C28.0925 177.981 27.6126 177.981 27.1843 177.806C26.6631 177.432 26.8502 176.884 27.4516 175.801C27.5452 175.628 27.6387 175.481 27.7055 175.334C28.1733 174.398 28.5475 173.422 28.1466 172.661C28.0277 172.455 27.8561 172.284 27.6493 172.167C27.4426 172.049 27.2082 171.989 26.9705 171.992C26.1815 172.005 25.4159 172.262 24.7786 172.727C24.0436 173.142 23.4422 173.503 22.7739 173.275C22.665 173.255 22.562 173.21 22.472 173.146C22.382 173.081 22.3071 172.998 22.2527 172.901C22.1057 172.5 22.6135 171.565 23.0145 170.937C23.6426 169.854 24.351 168.638 23.6694 167.676L22.7873 168.317C23.0679 168.691 22.5334 169.653 22.0789 170.389C21.6245 171.124 20.9028 172.38 21.237 173.275" fill="#21150B"/>
<path d="M14.1534 220.56C13.4986 221.282 12.2824 222.605 13.4184 223.901C13.7307 224.18 14.1025 224.384 14.5054 224.498C14.9084 224.611 15.3319 224.631 15.7438 224.556C16.0248 224.548 16.2979 224.462 16.5335 224.309C16.7691 224.156 16.9583 223.941 17.0803 223.688L16.078 223.273C16.078 223.367 15.8641 223.447 15.6369 223.487C15.4058 223.529 15.1687 223.524 14.9393 223.474C14.7099 223.423 14.4927 223.328 14.3004 223.193C13.8728 222.712 14.1802 222.217 15.0088 221.295L15.3696 220.908C16.0379 220.092 16.6259 219.237 16.3987 218.462C16.3308 218.234 16.2033 218.029 16.0295 217.867C15.8556 217.704 15.6417 217.592 15.4097 217.54C14.6368 217.366 13.8291 217.436 13.0976 217.74C12.2824 217.981 11.5874 218.181 11.0261 217.82C10.7721 217.66 10.6251 217.486 10.6117 217.339C10.6117 216.912 11.2399 216.177 11.8012 215.602C12.6566 214.693 13.6322 213.664 13.1377 212.581L12.1353 212.996C12.3091 213.423 11.5874 214.185 10.9592 214.853C10.3311 215.522 9.35546 216.524 9.47574 217.46C9.51186 217.738 9.61294 218.004 9.77081 218.236C9.92867 218.468 10.1389 218.66 10.3845 218.796C10.8471 219.02 11.3543 219.136 11.868 219.136C12.3818 219.136 12.889 219.02 13.3515 218.796C13.8734 218.572 14.4472 218.498 15.0088 218.582C15.1692 218.582 15.2761 218.703 15.3028 218.769C15.3295 218.836 15.3028 219.25 14.4742 220.226L14.1534 220.574" fill="#21150B"/>
<path d="M27.2912 118.693C27.1784 119.026 27.1599 119.383 27.2378 119.725C27.3156 120.067 27.4868 120.381 27.7323 120.631L28.5342 119.883C28.4264 119.783 28.3483 119.655 28.3082 119.514C28.2681 119.372 28.2677 119.223 28.307 119.081C28.3479 118.985 28.4173 118.904 28.5058 118.849C28.5942 118.794 28.6975 118.768 28.8015 118.774C29.0566 118.844 29.2998 118.952 29.5232 119.094C30.1513 119.455 31.3274 120.123 32.0491 118.921C32.1724 118.687 32.2235 118.422 32.1961 118.159H31.0868C31.1038 118.225 31.1038 118.294 31.0868 118.359C30.9666 118.56 30.9131 118.64 30.0578 118.159H27.612C27.4644 118.314 27.3466 118.495 27.2645 118.693" fill="#21150B"/>
<path d="M27.7318 135.212L25.0588 130.521H30.4048L27.7318 135.212ZM27.7318 137.391L32.3159 129.372H23.1343L27.7318 137.391Z" fill="#21150B"/>
<path d="M30.4317 220.28L35.1094 222.953L30.4317 225.626V220.28ZM29.3358 227.577L37.3547 222.979L29.3358 218.395L29.3358 227.577Z" fill="#21150B"/>
<path d="M28.3866 156.422V148.069H30.6185L29.6696 149.098L31.1264 150.675L29.6696 152.239L31.1264 153.816L29.6696 155.393L30.6185 156.422H28.3866ZM27.3041 146.987V157.505H33.1579L31.2066 155.393L32.6634 153.816L31.2066 152.239L32.6634 150.675L31.2066 149.098L33.1579 146.987H27.3041Z" fill="#21150B"/>
<path d="M69.0019 236.688L69.4596 235.707L65.8261 234.012L65.3684 234.993L69.0019 236.688Z" fill="#21150B"/>
<path d="M64.1401 188.178L64.9514 187.462L62.2967 184.457L61.4854 185.174L64.1401 188.178Z" fill="#21150B"/>
<path d="M51.6416 254.48L51.2807 253.852L50.1982 254.48H51.6416Z" fill="#21150B"/>
<path d="M74.7226 218.381C75.2177 218.382 75.705 218.258 76.1393 218.021V216.604C75.9068 216.899 75.5882 217.114 75.2278 217.219C74.8674 217.324 74.4832 217.314 74.1288 217.19C73.7743 217.067 73.4672 216.836 73.2502 216.529C73.0332 216.223 72.9172 215.857 72.9183 215.481H71.7823C71.7823 215.866 71.8586 216.246 72.0069 216.6C72.1551 216.955 72.3723 217.277 72.6459 217.546C72.9195 217.816 73.2439 218.029 73.6004 218.172C73.9569 218.316 74.3384 218.387 74.7226 218.381Z" fill="#21150B"/>
<path d="M57.9903 224.823C57.9929 225.292 57.8561 225.751 57.5972 226.143C57.3383 226.534 56.969 226.839 56.5362 227.02C56.1034 227.2 55.6266 227.248 55.1665 227.157C54.7064 227.066 54.2837 226.841 53.952 226.509C53.6204 226.178 53.3948 225.755 53.304 225.295C53.2131 224.835 53.2611 224.358 53.4418 223.925C53.6225 223.492 53.9278 223.123 54.3188 222.864C54.7099 222.605 55.1691 222.468 55.6381 222.471C56.2608 222.475 56.8571 222.723 57.2975 223.164C57.7378 223.604 57.9868 224.2 57.9903 224.823ZM52.1899 224.823C52.1899 225.505 52.3922 226.172 52.7711 226.739C53.1499 227.306 53.6885 227.748 54.3185 228.009C54.9486 228.27 55.6419 228.338 56.3108 228.205C56.9796 228.072 57.594 227.744 58.0763 227.261C58.5585 226.779 58.8869 226.165 59.02 225.496C59.153 224.827 59.0847 224.134 58.8237 223.504C58.5628 222.874 58.1208 222.335 57.5538 221.956C56.9867 221.577 56.3201 221.375 55.6381 221.375C54.7247 221.379 53.8497 221.743 53.2038 222.389C52.5579 223.035 52.1935 223.91 52.1899 224.823Z" fill="#21150B"/>
<path d="M74.0406 251.353C74.0381 250.785 74.241 250.235 74.6119 249.805C74.9828 249.376 75.4967 249.094 76.0587 249.014V247.864C75.2966 247.923 74.5757 248.234 74.0101 248.748C73.4446 249.262 73.0667 249.95 72.9363 250.703C72.8059 251.456 72.9305 252.232 73.2903 252.906C73.6501 253.58 74.2245 254.115 74.9227 254.427H76.0587V253.638C75.4906 253.564 74.9688 253.285 74.5902 252.855C74.2117 252.425 74.0022 251.872 74.0005 251.299" fill="#21150B"/>
<path d="M74.148 201.301H75.2306V191.865H74.148V201.301Z" fill="#21150B"/>
<path d="M71.4347 201.662L73.2256 199.724L71.7688 198.147L73.2256 196.583L71.7688 195.006L73.2256 193.429L71.4347 191.491L70.6328 192.227L71.7421 193.429L70.2853 195.006L71.7421 196.583L70.2853 198.147L71.7421 199.724L70.6328 200.927L71.4347 201.662Z" fill="#21150B"/>
<path d="M47.9925 210.443C47.7476 210.563 47.5258 210.726 47.3377 210.924C47.1105 211.151 47.0436 211.191 46.8833 211.178C46.7229 211.165 46.5625 211.004 46.3353 210.764C46.0102 210.321 45.5351 210.012 44.9988 209.895L44.7984 210.977C45.0846 211.063 45.334 211.242 45.5067 211.485C45.8019 211.886 46.2354 212.162 46.7229 212.261C46.9745 212.283 47.2278 212.244 47.4608 212.146C47.6937 212.048 47.8992 211.895 48.0594 211.699C48.1508 211.597 48.2593 211.511 48.3801 211.445C48.9147 211.218 49.035 211.325 49.3558 211.619C49.7092 211.989 50.183 212.222 50.6922 212.274C50.9732 212.286 51.2532 212.233 51.5104 212.12C51.7677 212.006 51.9954 211.835 52.1757 211.619C52.4831 211.325 52.5633 211.258 52.9643 211.432L53.3118 211.686C53.98 212.194 54.8086 212.808 55.5036 212.514C55.6789 212.434 55.8281 212.307 55.9345 212.146C56.0408 211.986 56.0999 211.798 56.105 211.606L55.0225 211.472C54.646 211.291 54.2917 211.066 53.9666 210.804C53.7968 210.661 53.6133 210.536 53.4187 210.43C53.0941 210.246 52.714 210.185 52.3482 210.258C51.9824 210.332 51.6554 210.535 51.4273 210.83C51.16 211.071 51.0264 211.191 50.7591 211.178C50.4779 211.146 50.2197 211.007 50.0374 210.79C49.7792 210.52 49.4408 210.341 49.0725 210.278C48.7042 210.215 48.3254 210.273 47.9925 210.443Z" fill="#21150B"/>
<path d="M62.6944 248.733L60.0214 253.424L57.3484 248.733H62.6944ZM64.5788 247.651H55.3972L59.4066 254.48H60.7431L64.5788 247.651Z" fill="#21150B"/>
<path d="M58.2574 200.834L53.5664 198.161L58.2574 195.488V200.834ZM59.34 193.536L51.3879 198.134L59.34 202.718V193.536Z" fill="#21150B"/>
<path d="M39.1591 236.771H47.5121V239.057L46.483 238.108L44.906 239.551L43.3423 238.108L41.7653 239.551L40.1882 238.108L39.1591 239.057V236.771ZM38.0766 241.542L40.1882 239.591L41.7653 241.035L43.3423 239.591L44.906 241.035L46.483 239.591L48.5947 241.542V235.675H38.0766V241.542Z" fill="#21150B"/>
<path d="M31.9548 253.745C31.8212 253.277 31.7677 253.05 31.8746 252.956C31.9815 252.863 32.2756 252.957 32.5429 253.144C32.9295 253.393 33.3876 253.509 33.8464 253.473C34.3053 253.437 34.7395 253.25 35.0822 252.943L34.3337 252.155C33.9595 252.515 33.6521 252.435 32.9973 252.155C32.6717 251.993 32.3174 251.898 31.9548 251.874C31.676 251.876 31.4067 251.976 31.193 252.155C30.5114 252.716 30.7787 253.491 30.9524 254.093C30.9524 254.213 31.0326 254.373 31.0594 254.507H32.1686C32.1348 254.255 32.0721 254.009 31.9815 253.772" fill="#21150B"/>
<path d="M30.0577 254.467C29.6676 254.185 29.2021 254.027 28.7212 254.012C28.3196 254.032 27.9392 254.199 27.652 254.48H30.0577" fill="#21150B"/>
<path d="M76.0994 266.749V266.629L75.204 266.121L73.226 269.609L74.1749 270.144L76.0994 266.749Z" fill="#21150B"/>
<path d="M52.7793 317.125L54.7512 313.634L53.8087 313.101L51.8368 316.592L52.7793 317.125Z" fill="#21150B"/>
<path d="M47.8192 255.857L48.3538 256.806L51.8286 254.788L51.6416 254.48H50.1982L47.8192 255.857Z" fill="#21150B"/>
<path d="M53.4592 267.364L52.0425 264.303L49.6369 265.199L50.0244 266.228L51.4812 265.68L52.9781 268.914L59.6605 264.945L61.0638 266.335L61.8256 265.573L59.8342 263.582L53.4592 267.364Z" fill="#21150B"/>
<path d="M53.2722 292.958V294.053C53.6705 294.08 54.0701 294.025 54.4462 293.891C54.8223 293.758 55.1669 293.548 55.4586 293.275C55.7503 293.003 55.9829 292.673 56.1419 292.307C56.3009 291.941 56.3829 291.546 56.3829 291.147C56.3829 290.747 56.3009 290.352 56.1419 289.986C55.9829 289.62 55.7503 289.29 55.4586 289.018C55.1669 288.745 54.8223 288.536 54.4462 288.402C54.0701 288.268 53.6705 288.213 53.2722 288.24V289.296C53.7542 289.296 54.2166 289.487 54.5574 289.828C54.8983 290.169 55.0898 290.631 55.0898 291.113C55.0898 291.595 54.8983 292.058 54.5574 292.398C54.2166 292.739 53.7542 292.931 53.2722 292.931" fill="#21150B"/>
<path d="M64.5525 303.061C64.0841 303.064 63.6254 302.927 63.2347 302.669C62.8439 302.411 62.5386 302.042 62.3575 301.61C62.1764 301.178 62.1277 300.702 62.2174 300.242C62.3072 299.783 62.5314 299.36 62.8617 299.028C63.192 298.696 63.6135 298.469 64.0727 298.377C64.532 298.284 65.0083 298.33 65.4413 298.509C65.8743 298.688 66.2446 298.991 66.5051 299.38C66.7656 299.769 66.9047 300.227 66.9047 300.696C66.9047 301.321 66.6574 301.92 66.2166 302.364C65.7759 302.807 65.1776 303.058 64.5525 303.061ZM64.5525 297.248C63.8723 297.255 63.2096 297.464 62.6479 297.848C62.0862 298.232 61.6504 298.773 61.3956 299.404C61.1408 300.034 61.0782 300.726 61.2157 301.393C61.3532 302.059 61.6848 302.669 62.1686 303.148C62.6523 303.626 63.2668 303.95 63.9345 304.08C64.6023 304.21 65.2935 304.139 65.9213 303.877C66.549 303.615 67.0852 303.173 67.4623 302.607C67.8394 302.041 68.0407 301.376 68.0407 300.696C68.0407 299.781 67.6775 298.904 67.0308 298.258C66.3842 297.611 65.5071 297.248 64.5926 297.248" fill="#21150B"/>
<path d="M71.5822 315.063C71.301 315.031 71.0428 314.892 70.8605 314.675C70.6014 314.381 70.2489 314.184 69.862 314.118C69.4751 314.052 69.0773 314.122 68.7355 314.315C68.4862 314.428 68.2632 314.592 68.0806 314.796C67.84 315.023 67.7732 315.063 67.6128 315.05C67.4525 315.036 67.3054 314.876 67.0782 314.635C66.7506 314.196 66.2766 313.887 65.7418 313.767L65.5279 314.836C65.8161 314.925 66.0657 315.108 66.2363 315.357C66.5338 315.761 66.9729 316.038 67.4658 316.132C67.7172 316.152 67.9698 316.112 68.2024 316.014C68.4349 315.916 68.6407 315.764 68.8023 315.571C68.8865 315.466 68.9911 315.38 69.1097 315.317C69.6577 315.09 69.7646 315.183 70.0853 315.491C70.4408 315.858 70.9136 316.09 71.4218 316.145C71.7029 316.159 71.9832 316.106 72.2406 315.993C72.4981 315.879 72.7256 315.707 72.9053 315.491C73.2261 315.197 73.2929 315.13 73.6938 315.303L74.0547 315.557C74.7229 316.025 75.458 316.546 76.0594 316.453V315.37H75.8188C75.4292 315.185 75.0616 314.956 74.7229 314.689C74.555 314.55 74.3762 314.425 74.1883 314.315C73.8617 314.13 73.4794 314.068 73.1114 314.142C72.7433 314.216 72.414 314.419 72.1836 314.715C71.9297 314.956 71.796 315.076 71.5154 315.063" fill="#21150B"/>
<path d="M75.0035 285.62C75.0396 285.898 75.1407 286.164 75.2985 286.397C75.4564 286.629 75.6666 286.821 75.9123 286.957L76.0593 287.01V285.54C76.0352 285.457 76.0352 285.369 76.0593 285.286V283.415C75.7332 283.686 75.4674 284.022 75.2787 284.402C75.09 284.782 74.9826 285.196 74.9634 285.62" fill="#21150B"/>
<path d="M60.7031 254.48H59.4201L60.0616 255.589L60.7031 254.48Z" fill="#21150B"/>
<path d="M62.6944 279.94L58.0033 277.267L62.6944 274.594V279.94ZM63.7769 281.824L63.7769 272.643L55.8115 277.267L63.7769 281.824Z" fill="#21150B"/>
<path d="M42.7435 277.023L43.4032 276.148L40.2015 273.734L39.5418 274.61L42.7435 277.023Z" fill="#21150B"/>
<path d="M40.1907 324.824L40.6484 323.843L37.0149 322.148L36.5572 323.129L40.1907 324.824Z" fill="#21150B"/>
<path d="M14.2134 295.994L17.9366 294.506L17.5349 293.501L13.8117 294.989L14.2134 295.994Z" fill="#21150B"/>
<path d="M17.7178 373.83L18.7655 373.558L17.7555 369.677L16.7078 369.95L17.7178 373.83Z" fill="#21150B"/>
<path d="M38.7529 294.519L42.4761 293.031L42.0744 292.026L38.3512 293.514L38.7529 294.519Z" fill="#21150B"/>
<path d="M7.35064 283.642H6.25472C6.30471 284.379 6.6327 285.07 7.17234 285.574C7.71198 286.078 8.42299 286.359 9.16157 286.359C9.90015 286.359 10.6112 286.078 11.1508 285.574C11.6904 285.07 12.0184 284.379 12.0684 283.642H10.9725C10.9941 283.893 10.9633 284.146 10.8821 284.384C10.8009 284.623 10.671 284.841 10.5007 285.027C10.3305 285.212 10.1235 285.361 9.89299 285.462C9.66246 285.563 9.41339 285.616 9.16157 285.616C8.90975 285.616 8.66068 285.563 8.43015 285.462C8.19962 285.361 7.99266 285.212 7.8224 285.027C7.65214 284.841 7.52228 284.623 7.44107 284.384C7.35986 284.146 7.32906 283.893 7.35064 283.642Z" fill="#21150B"/>
<path d="M20.5285 383.277H19.4459C19.4459 384.046 19.7515 384.784 20.2954 385.328C20.8393 385.872 21.5769 386.177 22.3461 386.177C23.1153 386.177 23.853 385.872 24.3968 385.328C24.9407 384.784 25.2463 384.046 25.2463 383.277H24.1637C24.1637 383.759 23.9722 384.222 23.6314 384.562C23.2905 384.903 22.8282 385.095 22.3461 385.095C21.8641 385.095 21.4017 384.903 21.0609 384.562C20.72 384.222 20.5285 383.759 20.5285 383.277Z" fill="#21150B"/>
<path d="M43.3286 308.233C43.0906 308.233 42.8549 308.186 42.6351 308.095C42.4153 308.003 42.2158 307.869 42.0481 307.7C41.8804 307.531 41.7477 307.331 41.6579 307.11C41.568 306.89 41.5226 306.654 41.5244 306.416H40.4285C40.4014 306.814 40.4566 307.214 40.5904 307.59C40.7243 307.966 40.934 308.31 41.2066 308.602C41.4791 308.894 41.8087 309.126 42.1749 309.285C42.5411 309.444 42.9361 309.526 43.3353 309.526C43.7345 309.526 44.1295 309.444 44.4957 309.285C44.8619 309.126 45.1915 308.894 45.4641 308.602C45.7367 308.31 45.9464 307.966 46.0802 307.59C46.2141 307.214 46.2692 306.814 46.2422 306.416H45.1463C45.1463 306.898 44.9548 307.36 44.6139 307.701C44.273 308.042 43.8107 308.233 43.3286 308.233Z" fill="#21150B"/>
<path d="M10.8657 321.866C10.3979 321.863 9.94129 321.722 9.55376 321.459C9.16622 321.197 8.86511 320.826 8.68852 320.393C8.51192 319.96 8.46777 319.484 8.56164 319.025C8.65551 318.567 8.88318 318.147 9.21587 317.818C9.54857 317.489 9.97134 317.266 10.4307 317.177C10.8901 317.089 11.3655 317.138 11.7967 317.32C12.2279 317.501 12.5957 317.806 12.8534 318.197C13.1111 318.587 13.2473 319.045 13.2447 319.513C13.2447 319.823 13.1834 320.13 13.0643 320.417C12.9453 320.703 12.7708 320.963 12.551 321.181C12.3311 321.4 12.0703 321.573 11.7833 321.69C11.4964 321.808 11.1891 321.867 10.8791 321.866M10.8791 316.065C10.1971 316.065 9.53044 316.267 8.9634 316.646C8.39636 317.025 7.9544 317.564 7.69342 318.194C7.43244 318.824 7.36416 319.517 7.4972 320.186C7.63025 320.855 7.95865 321.469 8.44088 321.952C8.92311 322.434 9.53751 322.762 10.2064 322.895C10.8752 323.028 11.5686 322.96 12.1986 322.699C12.8287 322.438 13.3672 321.996 13.7461 321.429C14.125 320.862 14.3272 320.195 14.3272 319.513C14.3325 319.056 14.2468 318.602 14.0751 318.178C13.9033 317.754 13.649 317.369 13.3269 317.044C13.0047 316.72 12.6212 316.462 12.1987 316.287C11.7762 316.112 11.323 316.023 10.8657 316.025" fill="#21150B"/>
<path d="M26.529 334.896H35.9646V333.813H26.529V334.896Z" fill="#21150B"/>
<path d="M32.8243 337.275L31.2473 335.832L29.6836 337.275L28.1065 335.832L26.1553 337.623L26.9037 338.411L28.1065 337.302L29.6836 338.759L31.2473 337.302L32.8243 338.759L34.388 337.302L35.5908 338.411L36.3393 337.623L34.388 335.832L32.8243 337.275Z" fill="#21150B"/>
<path d="M3.20781 382.475C2.95857 382.589 2.73557 382.752 2.55293 382.956C2.31236 383.184 2.24554 383.224 2.08516 383.21C1.92478 383.197 1.77777 383.037 1.55057 382.796C1.22294 382.356 0.748928 382.048 0.214082 381.927L0.000244141 382.997C0.288396 383.085 0.538029 383.269 0.708579 383.518C1.00613 383.922 1.44526 384.199 1.93815 384.293C2.18957 384.313 2.44215 384.273 2.6747 384.175C2.90725 384.077 3.11298 383.925 3.27463 383.732C3.35879 383.627 3.46338 383.541 3.58202 383.478C4.11662 383.25 4.2369 383.344 4.55765 383.651C4.91313 384.019 5.3859 384.251 5.89414 384.306C6.17523 384.319 6.45554 384.267 6.71297 384.153C6.9704 384.04 7.19793 383.868 7.37764 383.651C7.69839 383.357 7.76522 383.291 8.16616 383.464L8.52701 383.718C9.23535 384.186 10.1041 384.841 10.799 384.547C10.9768 384.469 11.1289 384.342 11.2376 384.181C11.3464 384.02 11.4075 383.832 11.4138 383.638L10.3313 383.504C9.94069 383.331 9.57267 383.112 9.23535 382.849C9.061 382.713 8.87796 382.588 8.68739 382.475C8.36074 382.29 7.97849 382.229 7.61043 382.303C7.24237 382.376 6.91307 382.58 6.68266 382.876C6.42873 383.117 6.29508 383.237 6.01442 383.224C5.73322 383.191 5.47502 383.053 5.29272 382.836C5.03364 382.541 4.6811 382.345 4.2942 382.279C3.9073 382.213 3.50957 382.283 3.16771 382.475" fill="#21150B"/>
<path d="M21.2637 309.664C21.3657 309.915 21.5253 310.139 21.7295 310.318C21.9337 310.496 22.177 310.625 22.4398 310.693C22.9403 310.811 23.461 310.814 23.9631 310.703C24.4652 310.592 24.9358 310.369 25.34 310.051C25.7992 309.719 26.3392 309.516 26.9037 309.463C27.0774 309.463 27.1977 309.463 27.2244 309.583C27.2511 309.704 27.318 310.064 26.7566 311.187L26.5294 311.601C26.0617 312.443 25.193 314.02 26.5294 315.023C26.8964 315.221 27.3034 315.333 27.72 315.352C28.1366 315.37 28.552 315.294 28.9351 315.13C29.1916 315.045 29.4221 314.897 29.6046 314.698C29.7872 314.499 29.9156 314.256 29.9776 313.994L28.895 313.807C28.895 313.914 28.7346 314.034 28.5208 314.127C28.0925 314.303 27.6126 314.303 27.1843 314.127C26.6631 313.753 26.8502 313.205 27.4516 312.123C27.5452 311.949 27.6387 311.802 27.7055 311.655C28.1733 310.719 28.5475 309.744 28.1466 308.982C28.0277 308.776 27.8561 308.606 27.6493 308.488C27.4426 308.371 27.2082 308.31 26.9705 308.314C26.1815 308.327 25.4159 308.583 24.7786 309.049C24.0436 309.463 23.4422 309.824 22.7739 309.597C22.665 309.576 22.562 309.532 22.472 309.467C22.382 309.403 22.3071 309.319 22.2527 309.223C22.1057 308.822 22.6135 307.886 23.0145 307.258C23.6426 306.175 24.351 304.959 23.6694 303.997L22.7873 304.638C23.0679 305.013 22.5334 305.975 22.0789 306.71C21.5043 307.699 20.9028 308.701 21.237 309.597" fill="#21150B"/>
<path d="M14.1534 356.882C13.4986 357.603 12.2824 358.926 13.4184 360.223C13.7307 360.502 14.1025 360.705 14.5054 360.819C14.9084 360.932 15.3319 360.952 15.7438 360.878C16.0247 360.869 16.2979 360.783 16.5335 360.63C16.7691 360.477 16.9583 360.262 17.0803 360.009L16.078 359.595C16.078 359.688 15.8641 359.768 15.6369 359.808C15.4058 359.85 15.1687 359.846 14.9393 359.795C14.7099 359.745 14.4927 359.649 14.3004 359.514C13.8728 359.033 14.1802 358.539 15.0088 357.617L15.3696 357.229C16.0379 356.414 16.6259 355.558 16.3987 354.783C16.3308 354.556 16.2033 354.35 16.0295 354.188C15.8556 354.026 15.6417 353.913 15.4097 353.861C14.6368 353.688 13.8291 353.758 13.0976 354.062C12.2824 354.302 11.5874 354.503 11.0261 354.142C10.7721 353.981 10.6251 353.808 10.6117 353.661C10.6117 353.233 11.2399 352.498 11.8012 351.923C12.6566 351.014 13.6322 349.985 13.1377 348.903L12.1353 349.317C12.3091 349.745 11.5874 350.507 10.9592 351.175C10.3311 351.843 9.35546 352.845 9.47574 353.781C9.51186 354.059 9.61294 354.325 9.77081 354.558C9.92867 354.79 10.1389 354.981 10.3845 355.117C10.8471 355.341 11.3543 355.457 11.868 355.457C12.3818 355.457 12.889 355.341 13.3515 355.117C13.8734 354.894 14.4472 354.82 15.0088 354.904C15.1692 354.904 15.2761 355.024 15.3028 355.091C15.3295 355.158 15.3028 355.572 14.4742 356.547L14.1534 356.895" fill="#21150B"/>
<path d="M27.2912 255.015C27.1784 255.347 27.1599 255.704 27.2378 256.046C27.3156 256.388 27.4868 256.702 27.7323 256.953L28.5342 256.204C28.4264 256.104 28.3483 255.977 28.3082 255.835C28.2681 255.694 28.2677 255.544 28.307 255.402C28.3479 255.307 28.4173 255.226 28.5058 255.171C28.5942 255.116 28.6975 255.089 28.8015 255.095C29.0566 255.166 29.2998 255.274 29.5232 255.416C30.1513 255.777 31.3274 256.445 32.0491 255.242C32.1724 255.008 32.2235 254.743 32.1961 254.48H31.0868C31.1038 254.546 31.1038 254.615 31.0868 254.681C30.9666 254.881 30.913 254.961 30.0577 254.48L27.612 254.48C27.4644 254.636 27.3466 254.817 27.2645 255.015" fill="#21150B"/>
<path d="M27.7318 271.534L25.0588 266.843H30.4048L27.7318 271.534ZM27.7318 273.712L32.3159 265.693H23.1343L27.7318 273.712Z" fill="#21150B"/>
<path d="M30.4316 356.601L35.1093 359.274L30.4316 361.947L30.4316 356.601ZM29.2823 363.898L37.3012 359.3L29.2823 354.716V363.898Z" fill="#21150B"/>
<path d="M28.3866 292.743L28.3866 284.39H30.6185L29.6696 285.419L31.1264 286.996L29.6696 288.56L31.1264 290.137L29.6696 291.714L30.6185 292.743H28.3866ZM27.3041 283.308L27.3041 293.826H33.1579L31.2066 291.714L32.6634 290.137L31.2066 288.56L32.6634 286.996L31.2066 285.419L33.1579 283.308H27.3041Z" fill="#21150B"/>
<path d="M68.9967 373.027L69.4544 372.046L65.8209 370.351L65.3632 371.332L68.9967 373.027Z" fill="#21150B"/>
<path d="M64.1453 324.501L64.9566 323.784L62.302 320.779L61.4907 321.496L64.1453 324.501Z" fill="#21150B"/>
<path d="M74.7228 354.703C75.1907 354.691 75.6489 354.567 76.0593 354.342V352.926C75.8268 353.22 75.5082 353.435 75.1478 353.54C74.7875 353.645 74.4033 353.636 74.0488 353.512C73.6943 353.388 73.3872 353.157 73.1702 352.851C72.9533 352.545 72.8373 352.178 72.8384 351.803H71.7825C71.7825 352.187 71.8588 352.568 72.0071 352.922C72.1553 353.277 72.3726 353.598 72.6461 353.868C72.9197 354.138 73.2441 354.351 73.6007 354.494C73.9572 354.637 74.3386 354.708 74.7228 354.703Z" fill="#21150B"/>
<path d="M57.9898 361.145C57.9925 361.614 57.8556 362.073 57.5967 362.464C57.3378 362.855 56.9685 363.16 56.5357 363.341C56.1029 363.522 55.6262 363.57 55.1661 363.479C54.7059 363.388 54.2832 363.162 53.9516 362.831C53.6199 362.499 53.3944 362.076 53.3035 361.616C53.2127 361.156 53.2606 360.679 53.4413 360.246C53.622 359.814 53.9273 359.444 54.3184 359.185C54.7094 358.927 55.1686 358.79 55.6376 358.792C56.2604 358.796 56.8566 359.045 57.297 359.485C57.7374 359.926 57.9863 360.522 57.9898 361.145ZM52.1895 361.145C52.1895 361.827 52.3917 362.493 52.7706 363.06C53.1495 363.627 53.688 364.069 54.3181 364.33C54.9481 364.591 55.6414 364.66 56.3103 364.526C56.9792 364.393 57.5936 364.065 58.0758 363.583C58.558 363.101 58.8864 362.486 59.0195 361.817C59.1525 361.148 59.0843 360.455 58.8233 359.825C58.5623 359.195 58.1203 358.656 57.5533 358.278C56.9863 357.899 56.3196 357.696 55.6376 357.696C54.7242 357.7 53.8492 358.064 53.2033 358.71C52.5574 359.356 52.193 360.231 52.1895 361.145Z" fill="#21150B"/>
<path d="M74.0413 387.674C74.0388 387.106 74.2417 386.557 74.6126 386.127C74.9835 385.697 75.4974 385.416 76.0594 385.335V384.186C75.2792 384.228 74.5368 384.536 73.9548 385.057C73.3728 385.579 72.9861 386.283 72.8584 387.054C72.7307 387.825 72.8697 388.616 73.2524 389.298C73.6351 389.979 74.2387 390.509 74.9635 390.801H76.0594V390.013C75.4986 389.929 74.9863 389.647 74.6159 389.218C74.2455 388.789 74.0416 388.241 74.0413 387.674Z" fill="#21150B"/>
<path d="M74.148 337.623H75.2306V328.187H74.148V337.623Z" fill="#21150B"/>
<path d="M71.4347 337.983L73.2256 336.046L71.7688 334.468L73.2256 332.905L71.7688 331.328L73.2256 329.751L71.4347 327.813L70.6328 328.548L71.7421 329.751L70.2853 331.328L71.7421 332.905L70.2853 334.468L71.7421 336.046L70.6328 337.248L71.4347 337.983Z" fill="#21150B"/>
<path d="M47.9929 346.764C47.7479 346.884 47.5262 347.047 47.338 347.245C47.1108 347.472 47.044 347.512 46.8836 347.499C46.7232 347.486 46.5628 347.325 46.3356 347.085C46.0105 346.642 45.5354 346.334 44.9991 346.216L44.7987 347.299C45.0849 347.384 45.3343 347.563 45.507 347.806C45.8022 348.207 46.2357 348.483 46.7232 348.582C46.9748 348.604 47.2282 348.565 47.4611 348.467C47.694 348.369 47.8995 348.216 48.0597 348.02C48.1511 347.918 48.2597 347.832 48.3804 347.766C48.915 347.539 49.0353 347.646 49.3561 347.94C49.7095 348.31 50.1833 348.543 50.6926 348.595C50.9735 348.607 51.2535 348.554 51.5108 348.441C51.768 348.327 51.9957 348.156 52.176 347.94C52.4834 347.646 52.5636 347.579 52.9646 347.753L53.3388 348.02C54.007 348.528 54.8357 349.143 55.5306 348.849C55.7059 348.769 55.8552 348.641 55.9615 348.481C56.0678 348.32 56.1269 348.133 56.132 347.94L55.0495 347.806C54.673 347.625 54.3187 347.401 53.9937 347.138C53.8239 346.996 53.6403 346.87 53.4457 346.764C53.1211 346.58 52.741 346.519 52.3752 346.593C52.0094 346.667 51.6825 346.87 51.4543 347.165C51.1871 347.406 51.0534 347.526 50.7861 347.512C50.5049 347.48 50.2467 347.341 50.0644 347.125C49.806 346.847 49.4635 346.661 49.0894 346.595C48.7153 346.53 48.3301 346.59 47.9929 346.764Z" fill="#21150B"/>
<path d="M60.0214 389.745L57.3484 385.054H62.6943L60.0214 389.745ZM60.6629 390.801L64.6723 383.972H55.4773L59.4868 390.801H60.6629Z" fill="#21150B"/>
<path d="M58.2574 337.155L53.5664 334.482L58.2574 331.809V337.155ZM59.34 329.858L51.3879 334.455L59.34 339.04V329.858Z" fill="#21150B"/>
<path d="M39.1591 373.093H47.5121V375.378L46.483 374.429L44.906 375.872L43.3423 374.429L41.7653 375.872L40.1882 374.429L39.1591 375.378V373.093ZM38.0766 377.864L40.1882 375.913L41.7653 377.356L43.3423 375.913L44.906 377.356L46.483 375.913L48.5947 377.864V371.997H38.0766V377.864Z" fill="#21150B"/>
<path d="M31.9548 390.066C31.8212 389.599 31.7677 389.371 31.8746 389.278C31.9815 389.184 32.2756 389.278 32.5429 389.465C32.9295 389.715 33.3876 389.83 33.8464 389.794C34.3053 389.758 34.7395 389.572 35.0822 389.264L34.3337 388.476C33.9595 388.837 33.6521 388.757 32.9973 388.476C32.6717 388.314 32.3174 388.219 31.9548 388.195C31.676 388.198 31.4067 388.297 31.193 388.476C30.5114 389.037 30.7787 389.812 30.9524 390.414C30.9524 390.534 31.0326 390.694 31.0594 390.828H32.1686C32.1283 390.567 32.0565 390.311 31.9548 390.066Z" fill="#21150B"/>
<path d="M30.0577 390.788C29.6676 390.506 29.2021 390.348 28.7212 390.334C28.3196 390.353 27.9392 390.52 27.652 390.801H30.0577" fill="#21150B"/>
<path d="M52.7752 44.5081L54.7471 41.0171L53.8045 40.4847L51.8326 43.9757L52.7752 44.5081Z" fill="#21150B"/>
<path d="M53.2722 20.3146V21.4105C53.6705 21.4376 54.0701 21.3824 54.4462 21.2486C54.8223 21.1147 55.1669 20.905 55.4586 20.6325C55.7503 20.3599 55.9829 20.0303 56.1419 19.6641C56.3009 19.2979 56.3829 18.9029 56.3829 18.5037C56.3829 18.1045 56.3009 17.7095 56.1419 17.3433C55.9829 16.9771 55.7503 16.6475 55.4586 16.3749C55.1669 16.1023 54.8223 15.8926 54.4462 15.7588C54.0701 15.6249 53.6705 15.5698 53.2722 15.5968V16.6527C53.7542 16.6527 54.2166 16.8442 54.5574 17.185C54.8983 17.5259 55.0898 17.9882 55.0898 18.4703C55.0898 18.9523 54.8983 19.4147 54.5574 19.7555C54.2166 20.0964 53.7542 20.2879 53.2722 20.2879" fill="#21150B"/>
<path d="M64.5525 30.4186C64.0841 30.4213 63.6254 30.2848 63.2347 30.0264C62.8439 29.7681 62.5386 29.3996 62.3575 28.9676C62.1764 28.5356 62.1277 28.0595 62.2174 27.5998C62.3072 27.14 62.5314 26.7173 62.8617 26.3851C63.192 26.053 63.6135 25.8263 64.0727 25.7339C64.532 25.6416 65.0083 25.6876 65.4413 25.8663C65.8743 26.0449 66.2446 26.3481 66.5051 26.7374C66.7656 27.1267 66.9047 27.5846 66.9047 28.053C66.9047 28.6781 66.6574 29.2778 66.2166 29.721C65.7759 30.1643 65.1776 30.4151 64.5525 30.4186ZM64.5525 24.6049C63.8723 24.6128 63.2096 24.8218 62.6479 25.2054C62.0862 25.5891 61.6504 26.1303 61.3956 26.7611C61.1408 27.3918 61.0782 28.0838 61.2157 28.75C61.3532 29.4162 61.6848 30.0269 62.1686 30.5051C62.6523 30.9833 63.2668 31.3077 63.9345 31.4376C64.6023 31.5674 65.2935 31.4968 65.9213 31.2347C66.549 30.9726 67.0852 30.5306 67.4623 29.9645C67.8394 29.3984 68.0407 28.7333 68.0407 28.053C68.0407 27.1385 67.6775 26.2615 67.0308 25.6148C66.3842 24.9682 65.5071 24.6049 64.5926 24.6049" fill="#21150B"/>
<path d="M71.5825 42.4201C71.3013 42.3877 71.0431 42.249 70.8608 42.0325C70.6018 41.7377 70.2492 41.541 69.8623 41.4753C69.4754 41.4096 69.0777 41.4789 68.7358 41.6717C68.4866 41.785 68.2636 41.9488 68.0809 42.1528C67.8404 42.38 67.7736 42.4201 67.6132 42.4067C67.4528 42.3933 67.3058 42.233 67.0786 41.9924C66.751 41.5527 66.2769 41.2446 65.7421 41.1237L65.5283 42.1929C65.8164 42.2817 66.066 42.4654 66.2366 42.7141C66.5341 43.1182 66.9733 43.395 67.4662 43.4893C67.7176 43.5094 67.9702 43.4689 68.2027 43.3713C68.4353 43.2736 68.641 43.1216 68.8026 42.928C68.8868 42.8233 68.9914 42.7369 69.11 42.674C69.658 42.4468 69.7649 42.5404 70.0857 42.8478C70.4411 43.2153 70.9139 43.4469 71.4221 43.5026C71.7032 43.5158 71.9835 43.4634 72.241 43.3498C72.4984 43.2362 72.7259 43.0643 72.9056 42.8478C73.2264 42.5537 73.2932 42.4869 73.6942 42.6606L74.055 42.9146C74.6431 43.3556 75.3915 43.9036 76.0063 43.81V42.7275H75.7657C75.386 42.5444 75.0275 42.3204 74.6965 42.0592C74.5286 41.9205 74.3498 41.7953 74.1619 41.685C73.8353 41.5001 73.453 41.4389 73.085 41.5125C72.7169 41.5861 72.3876 41.7896 72.1572 42.086C71.9033 42.3265 71.7696 42.4468 71.489 42.4335" fill="#21150B"/>
<path d="M75.0035 12.9774C75.0396 13.2558 75.1407 13.5218 75.2985 13.754C75.4564 13.9862 75.6666 14.1779 75.9123 14.3139L76.0593 14.3673V12.8972C76.0352 12.8143 76.0352 12.7262 76.0593 12.6433V10.7454C75.7332 11.0165 75.4674 11.3527 75.2787 11.7324C75.09 12.1122 74.9826 12.5271 74.9634 12.9507" fill="#21150B"/>
<path d="M62.6944 7.29719L58.0033 4.62422L62.6944 1.95126V7.29719ZM63.7769 9.18164L63.7769 0L55.8115 4.62422L63.7769 9.18164Z" fill="#21150B"/>
<path d="M42.743 4.38171L43.4027 3.50659L40.201 1.09308L39.5413 1.9682L42.743 4.38171Z" fill="#21150B"/>
<path d="M40.2011 52.16L40.6588 51.179L37.0253 49.4838L36.5676 50.4649L40.2011 52.16Z" fill="#21150B"/>
<path d="M14.2092 23.3544L17.9325 21.8667L17.5308 20.8614L13.8075 22.3491L14.2092 23.3544Z" fill="#21150B"/>
<path d="M17.7339 101.186L18.7816 100.913L17.7716 97.0327L16.724 97.3054L17.7339 101.186Z" fill="#21150B"/>
<path d="M38.7622 21.8793L42.4854 20.3916L42.0838 19.3863L38.3605 20.874L38.7622 21.8793Z" fill="#21150B"/>
<path d="M7.35064 10.9994H6.25472C6.30471 11.7362 6.6327 12.4266 7.17234 12.9309C7.71198 13.4352 8.42299 13.7157 9.16157 13.7157C9.90015 13.7157 10.6112 13.4352 11.1508 12.9309C11.6904 12.4266 12.0184 11.7362 12.0684 10.9994H10.9725C10.9941 11.2502 10.9633 11.5029 10.8821 11.7413C10.8009 11.9796 10.671 12.1985 10.5007 12.384C10.3305 12.5696 10.1235 12.7177 9.89299 12.819C9.66246 12.9204 9.41339 12.9727 9.16157 12.9727C8.90975 12.9727 8.66068 12.9204 8.43015 12.819C8.19962 12.7177 7.99266 12.5696 7.8224 12.384C7.65214 12.1985 7.52228 11.9796 7.44107 11.7413C7.35986 11.5029 7.32906 11.2502 7.35064 10.9994Z" fill="#21150B"/>
<path d="M20.5285 110.634H19.4459C19.4459 111.403 19.7515 112.141 20.2954 112.685C20.8393 113.229 21.5769 113.534 22.3461 113.534C23.1153 113.534 23.853 113.229 24.3968 112.685C24.9407 112.141 25.2463 111.403 25.2463 110.634H24.1637C24.1637 111.116 23.9722 111.579 23.6314 111.919C23.2905 112.26 22.8282 112.452 22.3461 112.452C21.8641 112.452 21.4017 112.26 21.0609 111.919C20.72 111.579 20.5285 111.116 20.5285 110.634Z" fill="#21150B"/>
<path d="M43.3286 35.5906C43.0906 35.5906 42.8549 35.5435 42.6351 35.452C42.4153 35.3605 42.2158 35.2264 42.0481 35.0574C41.8804 34.8884 41.7477 34.688 41.6579 34.4675C41.568 34.2471 41.5226 34.011 41.5244 33.773H40.4285C40.4014 34.1713 40.4566 34.5709 40.5904 34.947C40.7243 35.3231 40.934 35.6677 41.2066 35.9594C41.4791 36.2511 41.8087 36.4837 42.1749 36.6427C42.5411 36.8017 42.9361 36.8837 43.3353 36.8837C43.7345 36.8837 44.1295 36.8017 44.4957 36.6427C44.8619 36.4837 45.1915 36.2511 45.4641 35.9594C45.7367 35.6677 45.9464 35.3231 46.0802 34.947C46.2141 34.5709 46.2692 34.1713 46.2422 33.773H45.1463C45.1463 34.0116 45.0992 34.248 45.0079 34.4685C44.9166 34.689 44.7827 34.8894 44.6139 35.0582C44.4451 35.227 44.2447 35.3609 44.0242 35.4522C43.8037 35.5435 43.5673 35.5906 43.3286 35.5906Z" fill="#21150B"/>
<path d="M10.8657 49.2229C10.3979 49.2202 9.94129 49.0789 9.55376 48.8168C9.16622 48.5547 8.86511 48.1835 8.68852 47.7502C8.51192 47.317 8.46777 46.8411 8.56164 46.3827C8.6555 45.9244 8.88318 45.5042 9.21587 45.1752C9.54857 44.8463 9.97133 44.6234 10.4307 44.5347C10.8901 44.446 11.3655 44.4955 11.7967 44.677C12.2279 44.8585 12.5957 45.1637 12.8534 45.5542C13.1111 45.9447 13.2473 46.4028 13.2447 46.8707C13.2447 47.1807 13.1834 47.4877 13.0643 47.7739C12.9453 48.0602 12.7708 48.3201 12.551 48.5387C12.3311 48.7573 12.0703 48.9303 11.7833 49.0477C11.4964 49.1651 11.1891 49.2247 10.8791 49.2229M10.8791 43.4226C10.1971 43.4226 9.53044 43.6248 8.9634 44.0037C8.39635 44.3826 7.9544 44.9211 7.69342 45.5512C7.43244 46.1812 7.36415 46.8745 7.4972 47.5434C7.63025 48.2123 7.95865 48.8267 8.44088 49.3089C8.92311 49.7911 9.53751 50.1195 10.2064 50.2526C10.8752 50.3856 11.5686 50.3173 12.1986 50.0563C12.8287 49.7954 13.3672 49.3534 13.7461 48.7864C14.125 48.2193 14.3272 47.5526 14.3272 46.8707C14.3325 46.4134 14.2468 45.9596 14.0751 45.5357C13.9033 45.1119 13.649 44.7264 13.3269 44.4018C13.0047 44.0771 12.6212 43.8198 12.1987 43.6448C11.7762 43.4699 11.323 43.3807 10.8657 43.3825" fill="#21150B"/>
<path d="M26.529 62.2534L35.9646 62.2534V61.1709H26.529V62.2534Z" fill="#21150B"/>
<path d="M32.8243 64.6325L31.2473 63.1891L29.6836 64.6325L28.1065 63.1891L26.1553 64.98L26.9037 65.7818L28.1065 64.6592L29.6836 66.116L31.2473 64.6592L32.8243 66.116L34.388 64.6592L35.5908 65.7818L36.3393 64.98L34.388 63.1891L32.8243 64.6325Z" fill="#21150B"/>
<path d="M3.20782 109.832C2.95858 109.946 2.73558 110.11 2.55294 110.314C2.31237 110.541 2.24555 110.581 2.08517 110.567C1.92479 110.554 1.77778 110.394 1.55058 110.153C1.22295 109.713 0.74894 109.405 0.214092 109.284L0.000255578 110.354C0.288407 110.442 0.53804 110.626 0.70859 110.875C1.00614 111.279 1.44528 111.556 1.93816 111.65C2.18958 111.67 2.44216 111.63 2.67471 111.532C2.90726 111.434 3.113 111.282 3.27464 111.089C3.3588 110.984 3.46339 110.898 3.58203 110.835C4.11663 110.608 4.23691 110.701 4.55767 111.008C4.91314 111.376 5.38591 111.608 5.89415 111.663C6.17524 111.676 6.45555 111.624 6.71298 111.511C6.97041 111.397 7.19794 111.225 7.37765 111.008C7.6984 110.714 7.76523 110.648 8.16617 110.821L8.52703 111.075C9.1819 111.57 10.0105 112.198 10.7055 111.904C10.8833 111.826 11.0353 111.699 11.1441 111.538C11.2529 111.377 11.314 111.189 11.3203 110.995L10.2377 110.861C9.86045 110.682 9.506 110.457 9.1819 110.193C9.00756 110.057 8.82452 109.932 8.63394 109.819C8.3073 109.634 7.92504 109.573 7.55698 109.646C7.18892 109.72 6.85962 109.924 6.62922 110.22C6.37528 110.461 6.24163 110.581 5.96097 110.567C5.67977 110.535 5.42158 110.396 5.23927 110.18C4.98019 109.885 4.62765 109.688 4.24075 109.623C3.85385 109.557 3.45612 109.626 3.11426 109.819" fill="#21150B"/>
<path d="M21.2637 37.0209C21.3657 37.2724 21.5253 37.4965 21.7295 37.6752C21.9337 37.8539 22.177 37.9823 22.4398 38.05C22.9403 38.1679 23.461 38.1715 23.9631 38.0604C24.4652 37.9493 24.9358 37.7265 25.34 37.4085C25.7992 37.0761 26.3392 36.873 26.9037 36.8205C27.0774 36.8205 27.1977 36.8873 27.2244 36.9407C27.2511 36.9942 27.318 37.4219 26.7566 38.5445L26.5294 38.9588C26.0617 39.8008 25.1929 41.3779 26.5294 42.3802C26.8964 42.5782 27.3034 42.6907 27.72 42.7092C28.1366 42.7277 28.552 42.6518 28.9351 42.4871C29.1916 42.4028 29.4221 42.2541 29.6046 42.0552C29.7872 41.8563 29.9156 41.6139 29.9776 41.3512L28.895 41.164C28.895 41.271 28.7346 41.3912 28.5208 41.4848C28.0925 41.6601 27.6126 41.6601 27.1843 41.4848C26.6631 41.1106 26.8502 40.5626 27.4516 39.48C27.5452 39.3063 27.6387 39.1593 27.7055 39.0123C28.1733 38.0768 28.5475 37.1011 28.1466 36.3393C28.0277 36.1334 27.8561 35.9629 27.6493 35.8454C27.4426 35.728 27.2082 35.6678 26.9705 35.6711C26.1815 35.684 25.4159 35.9408 24.7786 36.4062C24.0436 36.8205 23.4422 37.1813 22.7739 36.9541C22.665 36.9334 22.562 36.8892 22.472 36.8246C22.382 36.7599 22.3071 36.6764 22.2527 36.5799C22.1057 36.179 22.6135 35.3102 23.0145 34.6153C23.6426 33.5327 24.351 32.3165 23.6694 31.3542L22.7873 31.9958C23.0679 32.37 22.5333 33.3322 22.0789 34.0673C21.5043 35.0563 20.9028 36.0587 21.237 36.9541" fill="#21150B"/>
<path d="M14.1534 84.2389C13.4986 84.9606 12.2824 86.2837 13.4184 87.5801C13.7307 87.8589 14.1025 88.0627 14.5055 88.1762C14.9084 88.2897 15.332 88.3098 15.7439 88.2349C16.0248 88.2262 16.2979 88.1406 16.5335 87.9874C16.7692 87.8342 16.9583 87.6194 17.0803 87.3662L16.078 86.9519C16.078 87.0455 15.8641 87.1257 15.6369 87.1658C15.4058 87.2075 15.1687 87.203 14.9393 87.1525C14.7099 87.1021 14.4928 87.0066 14.3005 86.8717C13.8728 86.3906 14.1802 85.8961 15.0088 84.9739L15.3696 84.5863C16.0379 83.7711 16.6259 82.9157 16.3987 82.1406C16.3308 81.9128 16.2033 81.7073 16.0295 81.5452C15.8556 81.3831 15.6417 81.2703 15.4097 81.2184C14.6368 81.0449 13.8291 81.1149 13.0976 81.4189C12.2824 81.6595 11.5874 81.8599 11.0261 81.4991C10.7721 81.3387 10.6251 81.165 10.6118 81.0179C10.6118 80.5903 11.2399 79.8552 11.8012 79.2805C12.6566 78.3717 13.6322 77.3426 13.1377 76.2601L12.1354 76.6744C12.3091 77.102 11.5874 77.8638 10.9593 78.5321C10.3311 79.2003 9.35547 80.2027 9.47575 81.1382C9.51188 81.4166 9.61296 81.6827 9.77082 81.9148C9.92869 82.147 10.1389 82.3388 10.3846 82.4747C10.8471 82.6984 11.3543 82.8145 11.8681 82.8145C12.3819 82.8145 12.889 82.6984 13.3516 82.4747C13.8734 82.2511 14.4472 82.177 15.0088 82.2609C15.1692 82.2609 15.2761 82.3811 15.3028 82.448C15.3296 82.5148 15.3028 82.9291 14.4742 83.9048L14.1534 84.2522" fill="#21150B"/>
<path d="M30.4317 83.9582L35.1094 86.6311L30.4317 89.3041V83.9582ZM29.3358 91.2554L37.3547 86.6579L29.3358 82.0737L29.3358 91.2554Z" fill="#21150B"/>
<path d="M28.3866 20.1008V11.7477H30.6185L29.6696 12.7768L31.1263 14.3539L29.6696 15.9176L31.1263 17.4946L29.6696 19.0717L30.6185 20.1008H28.3866ZM27.304 10.6652V21.1833H33.1578L31.2065 19.0717L32.6633 17.4946L31.2065 15.9176L32.6633 14.3539L31.2065 12.7768L33.1578 10.6652H27.304Z" fill="#21150B"/>
<path d="M69.0076 100.363L69.4653 99.3816L65.8318 97.6865L65.3741 98.6675L69.0076 100.363Z" fill="#21150B"/>
<path d="M64.1349 51.8696L64.9462 51.1528L62.2915 48.1481L61.4803 48.8648L64.1349 51.8696Z" fill="#21150B"/>
<path d="M51.6415 118.158L51.2807 117.531L50.1981 118.158H51.6415Z" fill="#21150B"/>
<path d="M74.7226 82.0602C75.2177 82.0611 75.705 81.9369 76.1393 81.6993V80.2826C75.9068 80.5774 75.5882 80.7923 75.2278 80.8974C74.8674 81.0025 74.4832 80.9926 74.1288 80.8691C73.7743 80.7455 73.4672 80.5145 73.2502 80.2081C73.0332 79.9018 72.9172 79.5354 72.9183 79.16H71.7823C71.7823 79.5442 71.8586 79.9247 72.0069 80.2792C72.1551 80.6337 72.3723 80.9552 72.6459 81.225C72.9195 81.4949 73.2439 81.7076 73.6004 81.851C73.9569 81.9944 74.3384 82.0655 74.7226 82.0602Z" fill="#21150B"/>
<path d="M57.9903 88.5019C57.9929 88.9709 57.8561 89.4301 57.5972 89.8212C57.3383 90.2122 56.969 90.5175 56.5362 90.6982C56.1034 90.8789 55.6266 90.9269 55.1665 90.836C54.7064 90.7452 54.2837 90.5196 53.952 90.188C53.6204 89.8563 53.3948 89.4336 53.304 88.9735C53.2131 88.5134 53.2611 88.0366 53.4418 87.6038C53.6225 87.171 53.9278 86.8017 54.3188 86.5428C54.7099 86.2839 55.1691 86.1471 55.6381 86.1497C56.2608 86.1532 56.8571 86.4022 57.2975 86.8425C57.7378 87.2829 57.9868 87.8792 57.9903 88.5019ZM52.1899 88.5019C52.1899 89.1839 52.3922 89.8506 52.7711 90.4176C53.1499 90.9847 53.6885 91.4266 54.3185 91.6876C54.9486 91.9486 55.6419 92.0169 56.3108 91.8838C56.9796 91.7508 57.594 91.4224 58.0763 90.9401C58.5585 90.4579 58.8869 89.8435 59.02 89.1746C59.153 88.5058 59.0847 87.8125 58.8237 87.1824C58.5628 86.5523 58.1208 86.0138 57.5538 85.6349C56.9867 85.256 56.3201 85.0538 55.6381 85.0538C54.7247 85.0573 53.8497 85.4217 53.2038 86.0676C52.5579 86.7135 52.1935 87.5885 52.1899 88.5019Z" fill="#21150B"/>
<path d="M74.0406 115.031C74.0381 114.464 74.241 113.914 74.6119 113.484C74.9828 113.054 75.4967 112.773 76.0587 112.692V111.543C75.2966 111.601 74.5757 111.912 74.0101 112.426C73.4446 112.941 73.0667 113.629 72.9363 114.382C72.8059 115.135 72.9305 115.91 73.2903 116.585C73.6501 117.259 74.2245 117.794 74.9227 118.105H76.0587V117.317C75.4906 117.242 74.9688 116.964 74.5902 116.534C74.2117 116.104 74.0022 115.551 74.0005 114.978" fill="#21150B"/>
<path d="M74.148 64.9797H75.2306V55.5441H74.148V64.9797Z" fill="#21150B"/>
<path d="M71.4347 65.3408L73.2256 63.4029L71.7688 61.8259L73.2256 60.2622L71.7688 58.6851L73.2256 57.1081L71.4347 55.1702L70.6328 55.9052L71.7421 57.1081L70.2853 58.6851L71.7421 60.2622L70.2853 61.8259L71.7421 63.4029L70.6328 64.6058L71.4347 65.3408Z" fill="#21150B"/>
<path d="M47.9925 74.1216C47.7476 74.2421 47.5258 74.405 47.3377 74.6027C47.1105 74.8299 47.0436 74.87 46.8833 74.8567C46.7229 74.8433 46.5625 74.6829 46.3353 74.4424C46.0102 74 45.5351 73.6912 44.9988 73.5736L44.7984 74.6562C45.0846 74.7416 45.334 74.9204 45.5067 75.1641C45.8019 75.5644 46.2354 75.8407 46.7229 75.9392C46.9745 75.9616 47.2278 75.9222 47.4608 75.8244C47.6937 75.7266 47.8992 75.5733 48.0594 75.3779C48.1508 75.2754 48.2593 75.1895 48.3801 75.124C48.9147 74.8968 49.035 75.0037 49.3558 75.2977C49.7092 75.668 50.183 75.9002 50.6922 75.9526C50.9732 75.9647 51.2532 75.9119 51.5104 75.7983C51.7677 75.6848 51.9954 75.5135 52.1757 75.2977C52.4831 75.0037 52.5633 74.9369 52.9643 75.1106L53.3118 75.3645C53.98 75.8724 54.8086 76.4872 55.5036 76.1932C55.6789 76.1132 55.8281 75.9856 55.9345 75.8249C56.0408 75.6642 56.0999 75.4769 56.105 75.2843L55.0225 75.1507C54.646 74.9694 54.2917 74.7451 53.9666 74.4825C53.7968 74.3399 53.6133 74.2145 53.4187 74.1083C53.0941 73.9243 52.714 73.8635 52.3482 73.9372C51.9824 74.0108 51.6554 74.2139 51.4273 74.5092C51.16 74.7498 51.0264 74.87 50.7591 74.8567C50.4779 74.8243 50.2197 74.6856 50.0374 74.4691C49.7792 74.199 49.4408 74.0194 49.0725 73.9568C48.7042 73.8942 48.3254 73.952 47.9925 74.1216Z" fill="#21150B"/>
<path d="M62.6944 112.412L60.0214 117.103L57.3484 112.412H62.6944ZM64.5788 111.329H55.3972L59.4066 118.159H60.7431L64.5788 111.329Z" fill="#21150B"/>
<path d="M58.2574 64.5123L53.5664 61.8393L58.2574 59.1663V64.5123ZM59.34 57.2151L51.3879 61.8126L59.34 66.3967V57.2151Z" fill="#21150B"/>
<path d="M39.1591 100.45H47.5121V102.736L46.483 101.787L44.906 103.23L43.3423 101.787L41.7653 103.23L40.1882 101.787L39.1591 102.736V100.45ZM38.0766 105.221L40.1882 103.27L41.7653 104.714L43.3423 103.27L44.906 104.714L46.483 103.27L48.5947 105.221L48.5947 99.3543L38.0766 99.3543L38.0766 105.221Z" fill="#21150B"/>
<path d="M31.9548 117.424C31.8212 116.956 31.7677 116.729 31.8746 116.635C31.9815 116.542 32.2756 116.702 32.5429 116.822C32.9295 117.072 33.3876 117.188 33.8464 117.151C34.3053 117.115 34.7395 116.929 35.0822 116.622L34.3337 115.833C33.9595 116.194 33.6521 116.114 32.9973 115.833C32.6717 115.672 32.3174 115.577 31.9548 115.553C31.676 115.555 31.4067 115.654 31.193 115.833C30.5114 116.395 30.7787 117.17 30.9524 117.771C30.9524 117.892 31.0326 118.052 31.0594 118.186H32.1686C32.1348 117.934 32.0721 117.687 31.9815 117.45" fill="#21150B"/>
<path d="M30.0577 118.145C29.6676 117.864 29.2021 117.705 28.7212 117.691C28.3196 117.711 27.9392 117.877 27.652 118.159L30.0578 118.159" fill="#21150B"/>
</svg>
