<svg width="203" height="58" viewBox="0 0 203 58" fill="none" xmlns="http://www.w3.org/2000/svg">
<path d="M201.803 21.5733L202.525 21.166L200.998 18.519L200.754 18.6616L200.754 19.7611L201.803 21.5733Z" fill="#21150B"/>
<path d="M200.755 11.7588L200.755 12.7361L201.6 12.2475L200.755 11.7588Z" fill="#21150B"/>
<path d="M201.162 37.2106C201.416 37.2965 201.687 37.3106 201.948 37.2513C202.209 37.192 202.448 37.0616 202.639 36.8746L202.069 36.2638C201.992 36.3458 201.895 36.4054 201.787 36.4359C201.68 36.4664 201.566 36.4668 201.458 36.4368C201.385 36.4056 201.323 36.3528 201.281 36.2854C201.239 36.218 201.219 36.1394 201.224 36.0602C201.277 35.8658 201.36 35.6805 201.468 35.5104C201.743 35.0319 202.252 34.136 201.336 33.5862C201.157 33.4923 200.955 33.4534 200.755 33.4742L200.755 34.3192C200.805 34.3063 200.858 34.3063 200.908 34.3192C201.061 34.4109 201.122 34.4516 200.755 35.1032L200.755 36.9662C200.874 37.0787 201.012 37.1684 201.162 37.2309" fill="#21150B"/>
<path d="M2.41212 0.0302733L2.3205 0.0302733L1.93362 0.712386L4.59082 2.21914L4.99805 1.49631L2.41212 0.0302733Z" fill="#21150B"/>
<path d="M40.8117 17.8093L38.1523 16.3071L37.7468 17.0251L40.4061 18.5273L40.8117 17.8093Z" fill="#21150B"/>
<path d="M2.87137 17.277L0.550148 18.3561L1.23224 20.1887L2.01618 19.8934L1.59877 18.7837L4.0625 17.6435L1.03881 12.5531L2.09762 11.4841L1.5173 10.9038L0.000377112 12.4207L2.87137 17.277Z" fill="#21150B"/>
<path d="M22.3769 17.4192L23.2117 17.4192C23.2323 17.1158 23.1903 16.8114 23.0883 16.5249C22.9864 16.2384 22.8266 15.9759 22.619 15.7537C22.4114 15.5315 22.1603 15.3543 21.8813 15.2332C21.6024 15.1121 21.3015 15.0496 20.9974 15.0496C20.6933 15.0496 20.3924 15.1121 20.1134 15.2332C19.8345 15.3543 19.5834 15.5315 19.3758 15.7537C19.1681 15.9759 19.0084 16.2384 18.9064 16.5249C18.8045 16.8114 18.7625 17.1158 18.7831 17.4192L19.5874 17.4192C19.5874 17.052 19.7332 16.6998 19.9929 16.4402C20.2526 16.1805 20.6047 16.0346 20.9719 16.0346C21.3391 16.0346 21.6913 16.1805 21.951 16.4402C22.2106 16.6998 22.3565 17.052 22.3565 17.4192" fill="#21150B"/>
<path d="M30.074 8.82637C30.076 9.1832 29.972 9.5326 29.7752 9.83027C29.5784 10.1279 29.2977 10.3605 28.9686 10.4984C28.6395 10.6364 28.2769 10.6735 27.9267 10.6052C27.5765 10.5368 27.2544 10.366 27.0014 10.1144C26.7484 9.86276 26.5757 9.5417 26.5054 9.19187C26.435 8.84204 26.4701 8.4792 26.6062 8.14933C26.7423 7.81947 26.9732 7.53743 27.2698 7.33897C27.5663 7.14051 27.9151 7.03456 28.272 7.03456C28.7481 7.03455 29.2049 7.223 29.5426 7.55874C29.8802 7.89449 30.0713 8.35022 30.074 8.82637ZM25.6453 8.82637C25.6514 9.34453 25.8105 9.84933 26.1028 10.2772C26.395 10.7052 26.8073 11.0371 27.2878 11.2312C27.7682 11.4253 28.2954 11.473 28.8029 11.3682C29.3104 11.2635 29.7755 11.0109 30.1398 10.6424C30.5041 10.2739 30.7513 9.8058 30.8502 9.29713C30.9491 8.78847 30.8953 8.26191 30.6956 7.78373C30.4959 7.30555 30.1593 6.89712 29.728 6.60983C29.2968 6.32253 28.7902 6.16922 28.272 6.16919C27.5753 6.16919 26.9072 6.44592 26.4146 6.93852C25.922 7.43111 25.6453 8.0992 25.6453 8.79583" fill="#21150B"/>
<path d="M39.2164 3.4714C39.1917 3.68561 39.0861 3.88229 38.9211 4.02116C38.6966 4.21852 38.5467 4.48708 38.4967 4.7818C38.4466 5.07652 38.4994 5.37949 38.6462 5.63991C38.7326 5.82977 38.8574 5.99964 39.0127 6.13877C39.1858 6.32202 39.2164 6.37293 39.2062 6.49509C39.196 6.61726 39.0738 6.72925 38.8906 6.90233C38.5556 7.1519 38.3209 7.51298 38.2288 7.92041L39.0433 8.0833C39.111 7.8638 39.2509 7.67363 39.4403 7.54372C39.7482 7.31706 39.959 6.98254 40.0308 6.60708C40.0461 6.41556 40.0153 6.22315 39.9409 6.046C39.8665 5.86886 39.7507 5.71214 39.6032 5.58901C39.5235 5.52489 39.4577 5.44522 39.4098 5.35485C39.2367 4.93744 39.308 4.85599 39.5422 4.61165C39.8221 4.34086 39.9985 3.98073 40.041 3.59357C40.051 3.37945 40.0112 3.16592 39.9246 2.96982C39.838 2.77372 39.7071 2.6004 39.5422 2.4635C39.3182 2.21917 39.2673 2.16826 39.3996 1.86284L39.593 1.58796C39.929 1.14 40.3464 0.569879 40.2752 0.101562L39.4505 0.101562L39.4505 0.284816C39.3111 0.574073 39.1404 0.847189 38.9415 1.09928C38.8358 1.22721 38.7405 1.36339 38.6564 1.50651C38.5156 1.75534 38.4689 2.04652 38.525 2.3269C38.5811 2.60727 38.7361 2.85812 38.9618 3.03363C39.1451 3.22706 39.2367 3.32887 39.2266 3.54267" fill="#21150B"/>
<path d="M16.7888 0.865317C17.0009 0.837798 17.2036 0.760803 17.3804 0.640547C17.5573 0.52029 17.7034 0.360141 17.8069 0.173024L17.8477 0.0610352L16.7278 0.0610351C16.6646 0.0794172 16.5975 0.0794172 16.5343 0.0610351L15.0886 0.061035C15.2951 0.309405 15.5512 0.511942 15.8405 0.655693C16.1297 0.799444 16.4458 0.881243 16.7685 0.89586" fill="#21150B"/>
<path d="M12.461 10.2416L10.4248 13.8151L8.38868 10.2416L12.461 10.2416ZM13.8965 9.41699L6.90229 9.41699L10.4248 15.4847L13.8965 9.41699Z" fill="#21150B"/>
<path d="M10.2409 25.44L9.57422 24.9375L7.73571 27.3764L8.40234 27.8789L10.2409 25.44Z" fill="#21150B"/>
<path d="M46.6321 27.3721L45.8848 27.0234L44.5935 29.7913L45.3408 30.1399L46.6321 27.3721Z" fill="#21150B"/>
<path d="M24.6938 47.1721L23.5605 44.3359L22.7948 44.6419L23.928 47.4781L24.6938 47.1721Z" fill="#21150B"/>
<path d="M83.9812 44.4851L83.7734 43.687L80.8177 44.4564L81.0254 45.2544L83.9812 44.4851Z" fill="#21150B"/>
<path d="M23.5708 28.4695L22.4375 25.6333L21.6717 25.9393L22.805 28.7755L23.5708 28.4695Z" fill="#21150B"/>
<path d="M15.2824 52.4007L15.2824 53.2355C15.8437 53.1974 16.3696 52.9476 16.7538 52.5365C17.1379 52.1254 17.3516 51.5838 17.3516 51.0212C17.3516 50.4586 17.1379 49.917 16.7538 49.5059C16.3696 49.0948 15.8437 48.845 15.2824 48.8069L15.2824 49.6417C15.4735 49.6253 15.666 49.6487 15.8475 49.7106C16.0291 49.7725 16.1958 49.8714 16.3372 50.0011C16.4785 50.1308 16.5913 50.2884 16.6685 50.464C16.7457 50.6396 16.7856 50.8294 16.7856 51.0212C16.7856 51.213 16.7457 51.4028 16.6685 51.5784C16.5913 51.754 16.4785 51.9116 16.3372 52.0413C16.1958 52.171 16.0291 52.2699 15.8475 52.3318C15.666 52.3937 15.4735 52.4171 15.2824 52.4007Z" fill="#21150B"/>
<path d="M91.1795 42.362L91.1795 43.1866C91.7654 43.1866 92.3273 42.9539 92.7416 42.5396C93.1559 42.1253 93.3887 41.5633 93.3887 40.9774C93.3887 40.3915 93.1559 39.8296 92.7416 39.4153C92.3273 39.0009 91.7654 38.7682 91.1795 38.7682L91.1795 39.5928C91.5467 39.5928 91.8989 39.7387 92.1585 39.9984C92.4182 40.258 92.564 40.6102 92.564 40.9774C92.564 41.3446 92.4182 41.6968 92.1585 41.9565C91.8989 42.2161 91.5467 42.362 91.1795 42.362Z" fill="#21150B"/>
<path d="M34.0149 24.9939C34.015 25.1753 33.979 25.3548 33.9093 25.5222C33.8396 25.6897 33.7375 25.8416 33.6088 25.9694C33.4801 26.0971 33.3274 26.1982 33.1594 26.2666C32.9915 26.3351 32.8117 26.3697 32.6303 26.3683L32.6303 27.2031C32.9338 27.2237 33.2382 27.1817 33.5247 27.0798C33.8112 26.9778 34.0737 26.8181 34.2959 26.6104C34.5181 26.4028 34.6953 26.1517 34.8164 25.8728C34.9375 25.5938 35 25.2929 35 24.9888C35 24.6847 34.9375 24.3838 34.8164 24.1049C34.6953 23.8259 34.5181 23.5748 34.2959 23.3672C34.0737 23.1596 33.8112 22.9998 33.5247 22.8979C33.2382 22.7959 32.9338 22.7539 32.6303 22.7745L32.6303 23.6093C32.9976 23.6093 33.3497 23.7552 33.6094 24.0149C33.8691 24.2745 34.0149 24.6267 34.0149 24.9939Z" fill="#21150B"/>
<path d="M44.3996 49.7228C44.3975 50.0792 44.2899 50.427 44.0902 50.7222C43.8905 51.0174 43.6078 51.2468 43.2778 51.3813C42.9477 51.5158 42.5852 51.5495 42.236 51.478C41.8869 51.4065 41.5668 51.233 41.3162 50.9796C41.0656 50.7262 40.8958 50.4041 40.8283 50.0542C40.7607 49.7042 40.7984 49.3421 40.9367 49.0136C41.0749 48.6851 41.3075 48.405 41.6049 48.2087C41.9023 48.0124 42.2513 47.9086 42.6077 47.9106C42.8439 47.9106 43.0777 47.9573 43.2958 48.048C43.5138 48.1387 43.7118 48.2716 43.8784 48.439C44.0449 48.6065 44.1767 48.8052 44.2661 49.0238C44.3556 49.2424 44.4009 49.4765 44.3996 49.7126M39.9811 49.7126C39.9811 50.2321 40.1352 50.74 40.4238 51.1719C40.7124 51.6039 41.1226 51.9405 41.6026 52.1393C42.0825 52.3381 42.6107 52.3902 43.1202 52.2888C43.6297 52.1875 44.0977 51.9373 44.465 51.57C44.8324 51.2026 45.0825 50.7346 45.1839 50.2251C45.2852 49.7156 45.2333 49.1874 45.0345 48.7075C44.8356 48.2275 44.499 47.8173 44.067 47.5287C43.6351 47.24 43.1272 47.086 42.6077 47.086C42.2594 47.0819 41.9137 47.1472 41.5908 47.278C41.2679 47.4089 40.9743 47.6026 40.727 47.848C40.4797 48.0934 40.2837 48.3855 40.1504 48.7074C40.0171 49.0293 39.9492 49.3744 39.9506 49.7228" fill="#21150B"/>
<path d="M54.3242 37.7911L54.3242 30.6035L53.4995 30.6035L53.4995 37.7911L54.3242 37.7911Z" fill="#21150B"/>
<path d="M56.1375 32.9959L55.038 34.1972L56.1375 35.3884L55.038 36.5897L56.4022 38.0761L57.0131 37.506L56.1579 36.5897L57.2676 35.3884L56.1579 34.1972L57.2676 32.9959L56.1579 31.8048L57.0131 30.8885L56.4022 30.3184L55.038 31.8048L56.1375 32.9959Z" fill="#21150B"/>
<path d="M90.5677 55.5562C90.6541 55.7461 90.7789 55.9159 90.9342 56.0551C91.1073 56.2383 91.1379 56.2892 91.1277 56.4114C91.1175 56.5336 90.9953 56.6455 90.8121 56.8186C90.4771 57.0682 90.2424 57.4293 90.1503 57.8367L90.9648 57.9996C91.0325 57.7801 91.1724 57.5899 91.3618 57.46C91.6697 57.2334 91.8805 56.8988 91.9523 56.5234C91.9677 56.3319 91.9368 56.1394 91.8624 55.9623C91.788 55.7852 91.6722 55.6284 91.5247 55.5053C91.445 55.4412 91.3792 55.3615 91.3313 55.2711C91.1582 54.8639 91.2295 54.7723 91.4637 54.5279C91.7436 54.2572 91.9201 53.897 91.9625 53.5099C91.9725 53.2957 91.9327 53.0822 91.8461 52.8861C91.7595 52.69 91.6286 52.5167 91.4637 52.3798C91.2397 52.1355 91.1888 52.0846 91.3211 51.7791L91.5146 51.5042C91.8912 51.0054 92.3697 50.3742 92.1458 49.8448C92.0863 49.7094 91.9898 49.5935 91.8673 49.5107C91.7447 49.4278 91.6013 49.3813 91.4535 49.3765L91.3517 50.2011C91.2146 50.4885 91.0437 50.7585 90.8426 51.0054C90.7386 51.1382 90.6434 51.2776 90.5576 51.4228C90.4167 51.6716 90.3701 51.9628 90.4261 52.2432C90.4822 52.5236 90.6373 52.7744 90.863 52.9499C91.0463 53.1434 91.1379 53.2452 91.1277 53.459C91.103 53.6732 90.9974 53.8699 90.8325 54.0087C90.6079 54.2061 90.458 54.4746 90.408 54.7694C90.3579 55.0641 90.4108 55.3671 90.5576 55.6275" fill="#21150B"/>
<path d="M35.1043 41.8019C35.2959 41.7242 35.4665 41.6027 35.6027 41.4471C35.7388 41.2915 35.8366 41.1062 35.8882 40.906C35.978 40.5247 35.9807 40.1281 35.8961 39.7456C35.8115 39.3631 35.6418 39.0046 35.3995 38.6968C35.1463 38.347 34.9916 37.9356 34.9516 37.5056C34.9516 37.3733 35.0025 37.2817 35.0432 37.2613C35.0839 37.2409 35.4097 37.19 36.2649 37.6176L36.5805 37.7907C37.2219 38.147 38.4232 38.8088 39.1868 37.7907C39.3376 37.5111 39.4233 37.2011 39.4374 36.8838C39.4515 36.5664 39.3936 36.25 39.2682 35.9582C39.204 35.7628 39.0907 35.5872 38.9392 35.4481C38.7877 35.3091 38.603 35.2113 38.4029 35.1641L38.2603 35.9887C38.3418 35.9887 38.4334 36.1109 38.5047 36.2738C38.6382 36.6 38.6382 36.9656 38.5047 37.2918C38.2196 37.6889 37.8022 37.5464 36.9776 37.0882C36.8452 37.017 36.7332 36.9457 36.6213 36.8948C35.9086 36.5385 35.1654 36.2534 34.5851 36.5588C34.4282 36.6494 34.2983 36.7801 34.2088 36.9376C34.1194 37.0951 34.0735 37.2736 34.0761 37.4547C34.0859 38.0557 34.2815 38.639 34.636 39.1244C34.9516 39.6843 35.2265 40.1425 35.0534 40.6515C35.0376 40.7344 35.004 40.8129 34.9547 40.8815C34.9055 40.9501 34.8419 41.0071 34.7683 41.0486C34.4629 41.1605 33.8012 40.7737 33.2718 40.4683C32.4471 39.9898 31.5207 39.4502 30.7877 39.9694L31.2763 40.6413C31.5614 40.4275 32.2944 40.8348 32.8544 41.1809C33.6077 41.6187 34.3713 42.0768 35.0534 41.8223" fill="#21150B"/>
<path d="M71.0726 47.2184C71.6223 47.7172 72.6302 48.6437 73.6178 47.7783C73.8301 47.5404 73.9854 47.2572 74.0719 46.9502C74.1583 46.6433 74.1736 46.3206 74.1166 46.0068C74.1099 45.7929 74.0447 45.5848 73.928 45.4053C73.8113 45.2258 73.6477 45.0817 73.4549 44.9888L73.1393 45.7523C73.2105 45.7523 73.2716 45.9152 73.3022 46.0883C73.3339 46.2644 73.3305 46.445 73.2921 46.6198C73.2536 46.7945 73.1809 46.9599 73.0782 47.1064C72.7117 47.4322 72.335 47.198 71.6325 46.5668L71.3372 46.2919C70.7162 45.7829 70.0647 45.3349 69.4742 45.508C69.3007 45.5598 69.1441 45.6569 69.0206 45.7893C68.8971 45.9217 68.8112 46.0847 68.7717 46.2614C68.6395 46.8501 68.6929 47.4654 68.9244 48.0226C69.1077 48.6437 69.2604 49.1731 68.9855 49.6007C68.8633 49.7941 68.731 49.9061 68.619 49.9163C68.2932 49.9163 67.7332 49.4378 67.2955 49.0102C66.6032 48.3586 65.8193 47.6154 64.9946 47.9921L65.3102 48.7557C65.636 48.6233 66.2163 49.1731 66.7254 49.6516C67.2344 50.1301 67.998 50.8733 68.7106 50.7816C68.9227 50.7541 69.1254 50.6771 69.3022 50.5569C69.4791 50.4366 69.6251 50.2765 69.7287 50.0893C69.8991 49.737 69.9876 49.3507 69.9876 48.9593C69.9876 48.5679 69.8991 48.1816 69.7287 47.8292C69.5584 47.4317 69.5019 46.9946 69.5658 46.5668C69.5658 46.4446 69.6574 46.3632 69.7083 46.3428C69.7593 46.3225 70.0749 46.3428 70.818 46.974L71.0827 47.2184" fill="#21150B"/>
<path d="M6.05732 36.8753L2.48389 38.9115L2.48389 34.8392L6.05732 36.8753ZM7.7168 36.8753L1.65925 33.3833L1.65925 40.3775L7.7168 36.8753Z" fill="#21150B"/>
<path d="M70.8592 34.8181L72.8954 31.2548L74.9316 34.8181L70.8592 34.8181ZM76.418 35.6529L72.9158 29.5444L69.4238 35.6529L76.418 35.6529Z" fill="#21150B"/>
<path d="M22.2144 36.3762L15.8514 36.3762L15.8514 34.676L16.6353 35.3989L17.8367 34.2892L19.0278 35.3989L20.2292 34.2892L21.4305 35.3989L22.2144 34.676L22.2144 36.3762ZM15.0268 37.2009L23.0391 37.2009L23.0391 32.7417L21.4305 34.2281L20.2292 33.1184L19.0278 34.2281L17.8367 33.1184L16.6353 34.2281L15.0268 32.7417L15.0268 37.2009Z" fill="#21150B"/>
<path d="M83.3508 5.42872L82.6035 5.08008L81.3123 7.84793L82.0596 8.19657L83.3508 5.42872Z" fill="#21150B"/>
<path d="M46.4151 9.14828L45.8691 8.53027L43.5802 10.5525L44.1262 11.1705L46.4151 9.14828Z" fill="#21150B"/>
<path d="M96.9102 18.6616L96.4317 18.9365L96.9102 19.7611L96.9102 18.6616Z" fill="#21150B"/>
<path d="M69.4139 1.07916C69.4145 0.702037 69.32 0.330843 69.139 -1.20242e-08L68.0598 -5.91972e-08C68.2843 0.177083 68.4481 0.419792 68.5281 0.694313C68.6082 0.968834 68.6007 1.2615 68.5065 1.53153C68.4124 1.80155 68.2364 2.0355 68.0031 2.20078C67.7697 2.36605 67.4906 2.45442 67.2046 2.45357L67.2046 3.31894C67.4973 3.31896 67.7871 3.26082 68.0572 3.14789C68.3272 3.03497 68.5721 2.8695 68.7777 2.66111C68.9832 2.45271 69.1453 2.20555 69.2545 1.93398C69.3637 1.66241 69.4179 1.37184 69.4139 1.07916Z" fill="#21150B"/>
<path d="M74.3206 13.8253C74.6779 13.8233 75.0277 13.9275 75.3256 14.1247C75.6235 14.322 75.856 14.6033 75.9936 14.933C76.1313 15.2627 76.1678 15.6258 76.0986 15.9763C76.0294 16.3268 75.8576 16.6489 75.605 16.9015C75.3523 17.1541 75.0303 17.3259 74.6798 17.3951C74.3293 17.4643 73.9662 17.4278 73.6365 17.2902C73.3068 17.1525 73.0255 16.92 72.8282 16.6221C72.631 16.3242 72.5268 15.9744 72.5288 15.6171C72.5315 15.1427 72.7211 14.6885 73.0566 14.3531C73.392 14.0176 73.8462 13.828 74.3206 13.8253ZM74.3206 18.2438C74.8401 18.2438 75.3479 18.0897 75.7799 17.8011C76.2118 17.5125 76.5485 17.1022 76.7473 16.6223C76.9461 16.1423 76.9981 15.6142 76.8968 15.1047C76.7954 14.5952 76.5453 14.1271 76.1779 13.7598C75.8106 13.3925 75.3426 13.1423 74.833 13.0409C74.3235 12.9396 73.7954 12.9916 73.3154 13.1904C72.8355 13.3892 72.4253 13.7259 72.1366 14.1578C71.848 14.5898 71.694 15.0976 71.694 15.6171C71.6966 16.3129 71.9742 16.9795 72.4663 17.4715C72.9583 17.9635 73.6248 18.2411 74.3206 18.2438Z" fill="#21150B"/>
<path d="M94.5295 1.5987C94.097 1.60063 93.6784 1.44606 93.351 1.16351C93.0235 0.880966 92.8093 0.489517 92.7479 0.0614012L91.8723 0.0614011C91.9167 0.641963 92.1535 1.19112 92.5452 1.62194C92.9369 2.05276 93.4611 2.34061 94.0348 2.43993C94.6086 2.53925 95.199 2.44436 95.7128 2.17029C96.2265 1.89621 96.6341 1.45861 96.8711 0.926768L96.8711 0.0614014L96.2704 0.0614013C96.2137 0.494189 96.0018 0.891679 95.6741 1.18004C95.3465 1.46839 94.9253 1.62801 94.4888 1.62924" fill="#21150B"/>
<path d="M56.4023 1.51703L56.4023 0.692383L49.2147 0.692382L49.2147 1.51703L56.4023 1.51703Z" fill="#21150B"/>
<path d="M56.6758 3.58395L55.1996 2.21973L53.9982 3.32943L52.8071 2.21973L51.6057 3.32943L50.4044 2.21973L48.9282 3.58395L49.4882 4.1948L50.4044 3.34979L51.6057 4.4595L52.8071 3.34979L53.9982 4.4595L55.1996 3.34979L56.1158 4.1948L56.6758 3.58395Z" fill="#21150B"/>
<path d="M63.3658 21.4415C63.4575 21.6281 63.5816 21.797 63.7323 21.9403C63.9053 22.1134 63.9359 22.1643 63.9257 22.2865C63.9155 22.4086 63.7934 22.5308 63.6101 22.7039C63.2731 22.9515 63.0379 23.3134 62.9484 23.722L63.773 23.8747C63.838 23.6566 63.9742 23.4667 64.1599 23.3351C64.4648 23.1102 64.6753 22.78 64.7503 22.4086C64.7674 22.2169 64.7374 22.024 64.6629 21.8465C64.5884 21.6691 64.4716 21.5126 64.3228 21.3906C64.2447 21.3209 64.1792 21.2382 64.1293 21.1462C63.9563 20.739 64.0377 20.6474 64.2617 20.403C64.5438 20.1338 64.7206 19.7728 64.7605 19.3849C64.7698 19.1709 64.7295 18.9576 64.643 18.7617C64.5565 18.5657 64.426 18.3923 64.2617 18.2549C64.0377 18.0207 63.9868 17.9596 64.1191 17.6542L64.3126 17.3895C64.6994 16.8805 65.1678 16.2493 64.9438 15.7199C64.8828 15.5863 64.7856 15.4726 64.6633 15.3916C64.5409 15.3106 64.3982 15.2656 64.2515 15.2617L64.1497 16.0864C64.0115 16.3732 63.8407 16.643 63.6406 16.8906C63.532 17.02 63.4365 17.1598 63.3556 17.3081C63.2154 17.5553 63.1691 17.8449 63.2252 18.1235C63.2814 18.4022 63.4361 18.6512 63.661 18.825C63.8443 19.0286 63.9359 19.1304 63.9257 19.334C63.901 19.5482 63.7954 19.7449 63.6305 19.8838C63.4247 20.0805 63.2879 20.3382 63.2402 20.6188C63.1925 20.8994 63.2365 21.1879 63.3658 21.4415Z" fill="#21150B"/>
<path d="M92.5324 10.2416L96.1059 12.2778L92.5324 14.314L92.5324 10.2416ZM91.7078 8.80615L91.7078 15.8003L96.9102 12.7461L96.9102 11.728L91.7078 8.80615Z" fill="#21150B"/>
<path d="M56.045 13.6215L54.0088 17.195L51.9727 13.6215L56.045 13.6215ZM50.4863 12.7969L53.9885 18.8544L57.4805 12.7969L50.4863 12.7969Z" fill="#21150B"/>
<path d="M83.4221 28.1701L83.4221 21.8071L85.163 21.8071L84.4402 22.591L85.5397 23.7923L84.4402 24.9835L85.5397 26.1848L84.4402 27.3861L85.163 28.1701L83.4221 28.1701ZM87.0566 28.9947L85.5703 27.3861L86.6698 26.1848L85.5703 24.9835L86.6698 23.7923L85.5703 22.591L87.0566 20.9824L82.5873 20.9824L82.5873 28.9947L87.0566 28.9947Z" fill="#21150B"/>
<path d="M96.3513 33.6577C95.995 33.7595 95.8219 33.8002 95.7507 33.7188C95.6794 33.6373 95.8016 33.4134 95.8932 33.2097C96.0834 32.9152 96.1715 32.5663 96.1439 32.2167C96.1163 31.8672 95.9746 31.5364 95.7405 31.2754L95.1398 31.8455C95.4147 32.1306 95.3536 32.3647 95.1398 32.8636C95.0168 33.1116 94.9442 33.3815 94.926 33.6577C94.9279 33.8701 95.0034 34.0752 95.1398 34.238C95.5674 34.7572 96.1579 34.5536 96.616 34.4213C96.7077 34.4213 96.8298 34.3602 96.9316 34.3398L96.9316 33.4948C96.7401 33.5206 96.5522 33.5684 96.3717 33.6373" fill="#21150B"/>
<path d="M96.9019 35.103C96.6873 35.4001 96.5668 35.7548 96.5558 36.1211C96.5709 36.427 96.6977 36.7168 96.9121 36.9356L96.9121 35.103" fill="#21150B"/>
<path d="M106.258 0.0302733L106.166 0.0302733L105.779 0.712386L108.437 2.21914L108.844 1.49631L106.258 0.0302733Z" fill="#21150B"/>
<path d="M144.652 17.798L141.992 16.2959L141.587 17.0139L144.246 18.516L144.652 17.798Z" fill="#21150B"/>
<path d="M97.9588 21.5733L98.6816 21.166L97.1545 18.519L96.9102 18.6616L96.9102 19.7611L97.9588 21.5733Z" fill="#21150B"/>
<path d="M106.715 17.277L104.394 18.3561L105.076 20.1887L105.86 19.8934L105.443 18.7837L107.906 17.6435L104.883 12.5531L105.941 11.4841L105.361 10.9038L103.844 12.4207L106.715 17.277Z" fill="#21150B"/>
<path d="M126.221 17.4192L127.055 17.4192C127.076 17.1158 127.034 16.8114 126.932 16.5249C126.83 16.2384 126.67 15.9759 126.463 15.7537C126.255 15.5315 126.004 15.3543 125.725 15.2332C125.446 15.1121 125.145 15.0496 124.841 15.0496C124.537 15.0496 124.236 15.1121 123.957 15.2332C123.678 15.3543 123.427 15.5315 123.22 15.7537C123.012 15.9759 122.852 16.2384 122.75 16.5249C122.648 16.8114 122.606 17.1158 122.627 17.4192L123.431 17.4192C123.431 17.052 123.577 16.6998 123.837 16.4402C124.096 16.1805 124.448 16.0346 124.816 16.0346C125.183 16.0346 125.535 16.1805 125.795 16.4402C126.054 16.6998 126.2 17.052 126.2 17.4192" fill="#21150B"/>
<path d="M133.918 8.82637C133.92 9.1832 133.816 9.5326 133.619 9.83027C133.422 10.1279 133.141 10.3605 132.812 10.4984C132.483 10.6364 132.121 10.6735 131.77 10.6052C131.42 10.5368 131.098 10.366 130.845 10.1144C130.592 9.86276 130.419 9.5417 130.349 9.19187C130.279 8.84204 130.314 8.4792 130.45 8.14933C130.586 7.81947 130.817 7.53743 131.114 7.33897C131.41 7.14051 131.759 7.03456 132.116 7.03456C132.592 7.03455 133.049 7.223 133.386 7.55874C133.724 7.89449 133.915 8.35022 133.918 8.82637ZM129.489 8.82637C129.495 9.34453 129.654 9.84933 129.947 10.2772C130.239 10.7052 130.651 11.0371 131.132 11.2312C131.612 11.4253 132.139 11.473 132.647 11.3682C133.154 11.2635 133.619 11.0109 133.984 10.6424C134.348 10.2739 134.595 9.8058 134.694 9.29713C134.793 8.78847 134.739 8.26191 134.539 7.78373C134.34 7.30555 134.003 6.89712 133.572 6.60983C133.141 6.32253 132.634 6.16922 132.116 6.16919C131.419 6.16919 130.751 6.44592 130.258 6.93852C129.766 7.43111 129.489 8.0992 129.489 8.79583" fill="#21150B"/>
<path d="M143.06 3.4714C143.035 3.68561 142.93 3.88229 142.765 4.02116C142.54 4.21852 142.39 4.48708 142.34 4.7818C142.29 5.07652 142.343 5.37949 142.49 5.63991C142.576 5.82977 142.701 5.99964 142.856 6.13877C143.03 6.32202 143.06 6.37293 143.05 6.49509C143.04 6.61726 142.918 6.72925 142.734 6.90233C142.399 7.1519 142.165 7.51298 142.073 7.92041L142.887 8.0833C142.955 7.8638 143.095 7.67363 143.284 7.54372C143.592 7.31706 143.803 6.98254 143.875 6.60708C143.89 6.41556 143.859 6.22315 143.785 6.046C143.71 5.86886 143.594 5.71214 143.447 5.58901C143.367 5.52489 143.301 5.44522 143.254 5.35485C143.08 4.93744 143.152 4.85599 143.386 4.61165C143.666 4.34086 143.842 3.98073 143.885 3.59357C143.895 3.37945 143.855 3.16592 143.768 2.96982C143.682 2.77372 143.551 2.6004 143.386 2.4635C143.162 2.21917 143.111 2.16826 143.243 1.86284L143.437 1.58796C143.773 1.14 144.19 0.569879 144.119 0.101562L143.294 0.101562L143.294 0.284816C143.155 0.574073 142.984 0.847189 142.785 1.09928C142.68 1.22721 142.584 1.36339 142.5 1.50651C142.359 1.75534 142.313 2.04652 142.369 2.3269C142.425 2.60727 142.58 2.85812 142.806 3.03363C142.989 3.22706 143.08 3.32887 143.07 3.54267" fill="#21150B"/>
<path d="M120.633 0.865317C120.845 0.837798 121.047 0.760803 121.224 0.640547C121.401 0.52029 121.547 0.360141 121.651 0.173024L121.691 0.0610352L120.572 0.0610351C120.508 0.0794172 120.441 0.0794172 120.378 0.0610351L118.932 0.061035C119.139 0.309405 119.395 0.511942 119.684 0.655693C119.973 0.799444 120.29 0.881243 120.612 0.89586" fill="#21150B"/>
<path d="M96.9109 11.7588L96.9109 12.7361L97.7559 12.2475L96.9109 11.7588Z" fill="#21150B"/>
<path d="M116.305 10.2416L114.269 13.8151L112.232 10.2416L116.305 10.2416ZM117.74 9.41699L110.746 9.41699L114.269 15.4847L117.74 9.41699Z" fill="#21150B"/>
<path d="M114.085 25.44L113.418 24.9375L111.579 27.3764L112.246 27.8789L114.085 25.44Z" fill="#21150B"/>
<path d="M150.48 27.376L149.732 27.0273L148.441 29.7952L149.188 30.1438L150.48 27.376Z" fill="#21150B"/>
<path d="M128.538 47.1761L127.404 44.3398L126.639 44.6458L127.772 47.482L128.538 47.1761Z" fill="#21150B"/>
<path d="M187.825 44.4909L187.617 43.6929L184.661 44.4622L184.869 45.2603L187.825 44.4909Z" fill="#21150B"/>
<path d="M127.413 28.4724L126.279 25.6362L125.513 25.9422L126.647 28.7784L127.413 28.4724Z" fill="#21150B"/>
<path d="M119.126 52.4007L119.126 53.2355C119.687 53.1974 120.213 52.9476 120.598 52.5365C120.982 52.1254 121.195 51.5838 121.195 51.0212C121.195 50.4586 120.982 49.917 120.598 49.5059C120.213 49.0948 119.687 48.845 119.126 48.8069L119.126 49.6417C119.317 49.6253 119.51 49.6487 119.691 49.7106C119.873 49.7725 120.04 49.8714 120.181 50.0011C120.322 50.1308 120.435 50.2884 120.512 50.464C120.589 50.6396 120.629 50.8294 120.629 51.0212C120.629 51.213 120.589 51.4028 120.512 51.5784C120.435 51.754 120.322 51.9116 120.181 52.0413C120.04 52.171 119.873 52.2699 119.691 52.3318C119.51 52.3937 119.317 52.4171 119.126 52.4007Z" fill="#21150B"/>
<path d="M195.023 42.362L195.023 43.1866C195.609 43.1866 196.171 42.9539 196.585 42.5396C197 42.1253 197.232 41.5633 197.232 40.9774C197.232 40.3915 197 39.8296 196.585 39.4153C196.171 39.0009 195.609 38.7682 195.023 38.7682L195.023 39.5928C195.39 39.5928 195.743 39.7387 196.002 39.9984C196.262 40.258 196.408 40.6102 196.408 40.9774C196.408 41.3446 196.262 41.6968 196.002 41.9565C195.743 42.2161 195.39 42.362 195.023 42.362Z" fill="#21150B"/>
<path d="M137.859 24.9939C137.859 25.1753 137.823 25.3548 137.753 25.5222C137.683 25.6897 137.581 25.8416 137.453 25.9694C137.324 26.0971 137.171 26.1982 137.003 26.2666C136.835 26.3351 136.655 26.3697 136.474 26.3683L136.474 27.2031C136.778 27.2237 137.082 27.1817 137.368 27.0798C137.655 26.9778 137.917 26.8181 138.14 26.6104C138.362 26.4028 138.539 26.1517 138.66 25.8728C138.781 25.5938 138.844 25.2929 138.844 24.9888C138.844 24.6847 138.781 24.3838 138.66 24.1049C138.539 23.8259 138.362 23.5748 138.14 23.3672C137.917 23.1596 137.655 22.9998 137.368 22.8979C137.082 22.7959 136.778 22.7539 136.474 22.7745L136.474 23.6093C136.656 23.6093 136.836 23.6451 137.004 23.7147C137.172 23.7843 137.325 23.8863 137.453 24.0149C137.582 24.1434 137.684 24.2961 137.753 24.4641C137.823 24.632 137.859 24.8121 137.859 24.9939Z" fill="#21150B"/>
<path d="M148.243 49.7228C148.241 50.0792 148.134 50.427 147.934 50.7222C147.734 51.0174 147.452 51.2468 147.121 51.3813C146.791 51.5158 146.429 51.5495 146.08 51.478C145.731 51.4065 145.411 51.233 145.16 50.9796C144.909 50.7262 144.74 50.4041 144.672 50.0542C144.604 49.7042 144.642 49.3421 144.78 49.0136C144.919 48.6851 145.151 48.405 145.449 48.2087C145.746 48.0124 146.095 47.9086 146.451 47.9106C146.688 47.9106 146.921 47.9573 147.14 48.048C147.358 48.1387 147.556 48.2716 147.722 48.439C147.889 48.6065 148.02 48.8052 148.11 49.0238C148.199 49.2424 148.245 49.4765 148.243 49.7126M143.825 49.7126C143.825 50.2321 143.979 50.74 144.268 51.1719C144.556 51.6039 144.966 51.9405 145.446 52.1393C145.926 52.3381 146.454 52.3902 146.964 52.2888C147.473 52.1875 147.941 51.9373 148.309 51.57C148.676 51.2026 148.926 50.7346 149.028 50.2251C149.129 49.7156 149.077 49.1874 148.878 48.7075C148.679 48.2275 148.343 47.8173 147.911 47.5287C147.479 47.24 146.971 47.086 146.451 47.086C146.103 47.0819 145.757 47.1472 145.435 47.278C145.112 47.4089 144.818 47.6026 144.571 47.848C144.323 48.0934 144.127 48.3855 143.994 48.7074C143.861 49.0293 143.793 49.3744 143.794 49.7228" fill="#21150B"/>
<path d="M158.168 37.7911L158.168 30.6035L157.343 30.6035L157.343 37.7911L158.168 37.7911Z" fill="#21150B"/>
<path d="M159.981 32.9959L158.882 34.1972L159.981 35.3884L158.882 36.5897L160.246 38.0761L160.857 37.506L160.002 36.5897L161.111 35.3884L160.002 34.1972L161.111 32.9959L160.002 31.8048L160.857 30.8885L160.246 30.3184L158.882 31.8048L159.981 32.9959Z" fill="#21150B"/>
<path d="M194.413 55.5561C194.5 55.7459 194.625 55.9158 194.78 56.0549C194.953 56.2382 194.984 56.2891 194.973 56.4113C194.963 56.5334 194.841 56.6454 194.658 56.8185C194.323 57.0681 194.088 57.4292 193.996 57.8366L194.81 57.9995C194.878 57.78 195.018 57.5898 195.208 57.4599C195.515 57.2332 195.726 56.8987 195.798 56.5233C195.813 56.3317 195.783 56.1393 195.708 55.9622C195.634 55.785 195.518 55.6283 195.37 55.5052C195.291 55.4411 195.225 55.3614 195.177 55.271C195.004 54.8638 195.075 54.7722 195.309 54.5278C195.589 54.257 195.766 53.8969 195.808 53.5097C195.818 53.2956 195.778 53.0821 195.692 52.886C195.605 52.6899 195.474 52.5166 195.309 52.3797C195.085 52.1353 195.034 52.0844 195.167 51.779L195.36 51.5041C195.737 51.0053 196.215 50.3741 195.991 49.8447C195.932 49.7092 195.835 49.5934 195.713 49.5105C195.59 49.4277 195.447 49.3811 195.299 49.3763L195.197 50.201C195.06 50.4884 194.889 50.7584 194.688 51.0053C194.584 51.1381 194.489 51.2775 194.403 51.4227C194.262 51.6715 194.216 51.9627 194.272 52.2431C194.328 52.5234 194.483 52.7743 194.709 52.9498C194.892 53.1432 194.984 53.245 194.973 53.4588C194.949 53.6731 194.843 53.8697 194.678 54.0086C194.454 54.206 194.304 54.4745 194.254 54.7692C194.204 55.064 194.256 55.3669 194.403 55.6273" fill="#21150B"/>
<path d="M138.948 41.8019C139.14 41.7242 139.31 41.6027 139.446 41.4471C139.583 41.2915 139.68 41.1062 139.732 40.906C139.822 40.5247 139.824 40.1281 139.74 39.7456C139.655 39.3631 139.486 39.0046 139.243 38.6968C138.99 38.347 138.835 37.9356 138.795 37.5056C138.795 37.3733 138.846 37.2817 138.887 37.2613C138.928 37.2409 139.253 37.19 140.109 37.6176L140.424 37.7907C141.066 38.147 142.267 38.8088 143.031 37.7907C143.181 37.5111 143.267 37.2011 143.281 36.8838C143.295 36.5664 143.237 36.25 143.112 35.9582C143.048 35.7628 142.934 35.5872 142.783 35.4481C142.631 35.3091 142.447 35.2113 142.247 35.1641L142.104 35.9887C142.186 35.9887 142.277 36.1109 142.348 36.2738C142.482 36.6 142.482 36.9656 142.348 37.2918C142.063 37.6889 141.646 37.5464 140.821 37.0882C140.689 37.017 140.577 36.9457 140.465 36.8948C139.752 36.5385 139.009 36.2534 138.429 36.5588C138.272 36.6494 138.142 36.7801 138.053 36.9376C137.963 37.0951 137.917 37.2736 137.92 37.4547C137.93 38.0557 138.125 38.639 138.48 39.1244C138.795 39.6843 139.07 40.1425 138.897 40.6515C138.881 40.7344 138.848 40.8129 138.798 40.8815C138.749 40.9501 138.686 41.0071 138.612 41.0486C138.307 41.1605 137.645 40.7737 137.116 40.4683C136.291 39.9898 135.364 39.4502 134.631 39.9694L135.12 40.6413C135.405 40.4275 136.138 40.8348 136.698 41.1809C137.451 41.6187 138.215 42.0768 138.897 41.8223" fill="#21150B"/>
<path d="M174.918 47.2184C175.468 47.7172 176.476 48.6437 177.463 47.7783C177.676 47.5404 177.831 47.2572 177.918 46.9502C178.004 46.6433 178.019 46.3206 177.962 46.0068C177.956 45.7929 177.89 45.5848 177.774 45.4053C177.657 45.2258 177.493 45.0817 177.301 44.9888L176.985 45.7523C177.056 45.7523 177.117 45.9152 177.148 46.0883C177.18 46.2644 177.176 46.445 177.138 46.6198C177.099 46.7945 177.027 46.9599 176.924 47.1064C176.557 47.4322 176.181 47.198 175.478 46.5668L175.183 46.2919C174.562 45.7829 173.91 45.3349 173.32 45.508C173.146 45.5598 172.99 45.6569 172.866 45.7893C172.743 45.9217 172.657 46.0847 172.617 46.2614C172.485 46.8501 172.539 47.4654 172.77 48.0226C172.953 48.6437 173.106 49.1731 172.831 49.6007C172.709 49.7941 172.577 49.9061 172.465 49.9163C172.139 49.9163 171.579 49.4378 171.141 49.0102C170.449 48.3586 169.665 47.6154 168.84 47.9921L169.156 48.7557C169.482 48.6233 170.062 49.1731 170.571 49.6516C171.08 50.1301 171.844 50.8733 172.556 50.7816C172.768 50.7541 172.971 50.6771 173.148 50.5569C173.325 50.4366 173.471 50.2765 173.574 50.0893C173.745 49.737 173.833 49.3507 173.833 48.9593C173.833 48.5679 173.745 48.1816 173.574 47.8292C173.404 47.4317 173.348 46.9946 173.412 46.5668C173.412 46.4446 173.503 46.3632 173.554 46.3428C173.605 46.3225 173.921 46.3428 174.664 46.974L174.928 47.2184" fill="#21150B"/>
<path d="M97.3187 37.2105C97.5718 37.2964 97.8437 37.3105 98.1043 37.2512C98.3649 37.1919 98.604 37.0615 98.7949 36.8745L98.2248 36.2637C98.1486 36.3457 98.0514 36.4053 97.9436 36.4358C97.8359 36.4663 97.7219 36.4666 97.614 36.4367C97.541 36.4055 97.4794 36.3526 97.4375 36.2853C97.3957 36.2179 97.3755 36.1393 97.3798 36.06C97.4336 35.8657 97.5159 35.6804 97.6241 35.5103C97.899 35.0318 98.4081 34.1359 97.4918 33.5861C97.3137 33.4922 97.1118 33.4532 96.9115 33.4741L96.9115 34.3191C96.9616 34.3062 97.0141 34.3062 97.0642 34.3191C97.2169 34.4107 97.278 34.4515 96.9115 35.103L96.9115 36.9661C97.0299 37.0785 97.1679 37.1683 97.3187 37.2308" fill="#21150B"/>
<path d="M109.901 36.8753L106.328 38.9115L106.328 34.8392L109.901 36.8753ZM111.561 36.8753L105.503 33.3833L105.503 40.3775L111.561 36.8753Z" fill="#21150B"/>
<path d="M174.703 34.8181L176.739 31.2548L178.775 34.8181L174.703 34.8181ZM180.262 35.6529L176.76 29.5444L173.268 35.6529L180.262 35.6529Z" fill="#21150B"/>
<path d="M126.058 36.3762L119.695 36.3762L119.695 34.676L120.479 35.3989L121.68 34.2892L122.872 35.3989L124.073 34.2892L125.274 35.3989L126.058 34.676L126.058 36.3762ZM118.871 37.2009L126.883 37.2009L126.883 32.7417L125.274 34.2281L124.073 33.1184L122.872 34.2281L121.68 33.1184L120.479 34.2281L118.871 32.7417L118.871 37.2009Z" fill="#21150B"/>
<path d="M187.198 5.43262L186.451 5.08398L185.16 7.85184L185.907 8.20048L187.198 5.43262Z" fill="#21150B"/>
<path d="M150.259 9.14486L149.713 8.52686L147.424 10.5491L147.97 11.1671L150.259 9.14486Z" fill="#21150B"/>
<path d="M200.756 18.6616L200.277 18.9365L200.756 19.7611L200.756 18.6616Z" fill="#21150B"/>
<path d="M173.258 1.07916C173.258 0.702037 173.164 0.330843 172.983 -1.20249e-08L171.904 -5.91965e-08C172.128 0.177083 172.292 0.419792 172.372 0.694313C172.452 0.968834 172.444 1.2615 172.35 1.53153C172.256 1.80155 172.08 2.0355 171.847 2.20078C171.613 2.36605 171.334 2.45442 171.048 2.45357L171.048 3.31894C171.341 3.31896 171.631 3.26082 171.901 3.14789C172.171 3.03497 172.416 2.8695 172.621 2.66111C172.827 2.45271 172.989 2.20555 173.098 1.93398C173.207 1.66241 173.262 1.37184 173.258 1.07916Z" fill="#21150B"/>
<path d="M178.164 13.8253C178.522 13.8233 178.871 13.9275 179.169 14.1247C179.467 14.322 179.7 14.6033 179.837 14.933C179.975 15.2627 180.012 15.6258 179.942 15.9763C179.873 16.3268 179.701 16.6489 179.449 16.9015C179.196 17.1541 178.874 17.3259 178.524 17.3951C178.173 17.4643 177.81 17.4278 177.48 17.2902C177.151 17.1525 176.869 16.92 176.672 16.6221C176.475 16.3242 176.371 15.9744 176.373 15.6171C176.375 15.1427 176.565 14.6885 176.9 14.3531C177.236 14.0176 177.69 13.828 178.164 13.8253ZM178.164 18.2438C178.684 18.2438 179.192 18.0897 179.624 17.8011C180.056 17.5125 180.392 17.1022 180.591 16.6223C180.79 16.1423 180.842 15.6142 180.741 15.1047C180.639 14.5952 180.389 14.1271 180.022 13.7598C179.654 13.3925 179.186 13.1423 178.677 13.0409C178.167 12.9396 177.639 12.9916 177.159 13.1904C176.679 13.3892 176.269 13.7259 175.98 14.1578C175.692 14.5898 175.538 15.0976 175.538 15.6171C175.54 16.3129 175.818 16.9795 176.31 17.4715C176.802 17.9635 177.469 18.2411 178.164 18.2438Z" fill="#21150B"/>
<path d="M198.373 1.5987C197.941 1.60063 197.522 1.44606 197.195 1.16351C196.867 0.880966 196.653 0.489517 196.592 0.0614012L195.716 0.0614011C195.76 0.641963 195.997 1.19112 196.389 1.62194C196.781 2.05276 197.305 2.34061 197.879 2.43993C198.452 2.53925 199.043 2.44436 199.557 2.17029C200.07 1.89621 200.478 1.45861 200.715 0.926768L200.715 0.0614014L200.114 0.0614013C200.057 0.494189 199.846 0.891679 199.518 1.18004C199.19 1.46839 198.769 1.62801 198.333 1.62924" fill="#21150B"/>
<path d="M160.246 1.51703L160.246 0.692383L153.058 0.692382L153.058 1.51703L160.246 1.51703Z" fill="#21150B"/>
<path d="M160.52 3.58395L159.043 2.21973L157.842 3.32943L156.651 2.21973L155.45 3.32943L154.248 2.21973L152.772 3.58395L153.332 4.1948L154.248 3.34979L155.45 4.4595L156.651 3.34979L157.842 4.4595L159.043 3.34979L159.96 4.1948L160.52 3.58395Z" fill="#21150B"/>
<path d="M167.21 21.4415C167.301 21.6281 167.425 21.797 167.576 21.9403C167.749 22.1134 167.78 22.1643 167.769 22.2865C167.759 22.4086 167.637 22.5308 167.454 22.7039C167.117 22.9515 166.882 23.3134 166.792 23.722L167.617 23.8747C167.682 23.6566 167.818 23.4667 168.004 23.3351C168.309 23.1102 168.519 22.78 168.594 22.4086C168.611 22.2169 168.581 22.024 168.507 21.8465C168.432 21.6691 168.315 21.5126 168.167 21.3906C168.088 21.3209 168.023 21.2382 167.973 21.1462C167.8 20.739 167.881 20.6474 168.105 20.403C168.388 20.1338 168.564 19.7728 168.604 19.3849C168.613 19.1709 168.573 18.9576 168.487 18.7617C168.4 18.5657 168.27 18.3923 168.105 18.2549C167.881 18.0207 167.831 17.9596 167.963 17.6542L168.156 17.3895C168.543 16.8805 169.012 16.2493 168.788 15.7199C168.727 15.5863 168.629 15.4726 168.507 15.3916C168.385 15.3106 168.242 15.2656 168.095 15.2617L167.993 16.0864C167.855 16.3732 167.684 16.643 167.484 16.8906C167.376 17.02 167.28 17.1598 167.199 17.3081C167.059 17.5553 167.013 17.8449 167.069 18.1235C167.125 18.4022 167.28 18.6512 167.505 18.825C167.688 19.0286 167.78 19.1304 167.769 19.334C167.745 19.5482 167.639 19.7449 167.474 19.8838C167.268 20.0805 167.132 20.3382 167.084 20.6188C167.036 20.8994 167.08 21.1879 167.21 21.4415Z" fill="#21150B"/>
<path d="M196.378 10.2416L199.952 12.2778L196.378 14.314L196.378 10.2416ZM195.553 8.80615L195.553 15.8003L200.756 12.7461L200.756 11.728L195.553 8.80615Z" fill="#21150B"/>
<path d="M159.889 13.6215L157.853 17.195L155.816 13.6215L159.889 13.6215ZM154.33 12.7969L157.832 18.8544L161.324 12.7969L154.33 12.7969Z" fill="#21150B"/>
<path d="M187.266 28.1701L187.266 21.8071L189.007 21.8071L188.284 22.591L189.383 23.7923L188.284 24.9835L189.383 26.1848L188.284 27.3861L189.007 28.1701L187.266 28.1701ZM190.9 28.9947L189.414 27.3861L190.514 26.1848L189.414 24.9835L190.514 23.7923L189.414 22.591L190.9 20.9824L186.431 20.9824L186.431 28.9947L190.9 28.9947Z" fill="#21150B"/>
<path d="M200.195 33.6577C199.839 33.7595 199.666 33.8002 199.594 33.7188C199.523 33.6373 199.645 33.4134 199.737 33.2097C199.927 32.9152 200.015 32.5663 199.988 32.2167C199.96 31.8672 199.818 31.5364 199.584 31.2754L198.984 31.8455C199.258 32.1306 199.197 32.3647 198.984 32.8636C198.861 33.1116 198.788 33.3815 198.77 33.6577C198.772 33.8701 198.847 34.0752 198.984 34.238C199.411 34.7572 200.002 34.5536 200.46 34.4213C200.551 34.4213 200.674 34.3602 200.775 34.3398L200.775 33.4948C200.584 33.5206 200.396 33.5684 200.215 33.6373" fill="#21150B"/>
<path d="M200.746 35.103C200.531 35.4001 200.411 35.7548 200.4 36.1211C200.415 36.427 200.541 36.7168 200.756 36.9356L200.756 35.103" fill="#21150B"/>
</svg>
