<svg width="391" height="77" viewBox="0 0 391 77" fill="none" xmlns="http://www.w3.org/2000/svg">
<path d="M260.401 76.0992L260.521 76.0992L261.029 75.2038L257.54 73.2258L257.006 74.1747L260.401 76.0992Z" fill="#21150B"/>
<path d="M210.018 52.7771L213.509 54.749L214.041 53.8064L210.55 51.8345L210.018 52.7771Z" fill="#21150B"/>
<path d="M271.293 47.819L270.344 48.3536L272.348 51.8285L272.669 51.6414L272.669 50.198L271.293 47.819Z" fill="#21150B"/>
<path d="M259.799 53.459L262.846 52.0424L261.951 49.6367L260.922 50.0243L261.47 51.4811L258.235 52.9779L262.205 59.6603L260.815 61.0636L261.577 61.8254L263.568 59.8341L259.799 53.459Z" fill="#21150B"/>
<path d="M234.192 53.2719L233.097 53.2719C233.07 53.6702 233.125 54.0699 233.258 54.446C233.392 54.8221 233.602 55.1667 233.875 55.4584C234.147 55.7501 234.477 55.9826 234.843 56.1416C235.209 56.3006 235.604 56.3827 236.003 56.3827C236.403 56.3827 236.798 56.3006 237.164 56.1416C237.53 55.9826 237.86 55.7501 238.132 55.4584C238.405 55.1667 238.614 54.8221 238.748 54.446C238.882 54.0699 238.937 53.6702 238.91 53.2719L237.854 53.2719C237.854 53.754 237.663 54.2163 237.322 54.5572C236.981 54.8981 236.519 55.0896 236.037 55.0896C235.555 55.0896 235.092 54.8981 234.752 54.5572C234.411 54.2163 234.219 53.754 234.219 53.2719" fill="#21150B"/>
<path d="M224.088 64.5523C224.086 64.0839 224.222 63.6252 224.48 63.2344C224.739 62.8437 225.107 62.5384 225.539 62.3573C225.971 62.1762 226.447 62.1274 226.907 62.2172C227.367 62.307 227.79 62.5312 228.122 62.8615C228.454 63.1918 228.68 63.6133 228.773 64.0725C228.865 64.5317 228.819 65.0081 228.641 65.4411C228.462 65.8741 228.159 66.2444 227.769 66.5049C227.38 66.7654 226.922 66.9045 226.454 66.9045C225.829 66.9045 225.229 66.6571 224.786 66.2164C224.342 65.7756 224.092 65.1774 224.088 64.5523ZM229.902 64.5523C229.894 63.8721 229.685 63.2094 229.301 62.6477C228.918 62.0859 228.376 61.6502 227.746 61.3954C227.115 61.1405 226.423 61.0779 225.757 61.2155C225.091 61.353 224.48 61.6845 224.002 62.1683C223.524 62.6521 223.199 63.2666 223.069 63.9343C222.939 64.6021 223.01 65.2933 223.272 65.921C223.534 66.5488 223.976 67.0849 224.542 67.4621C225.108 67.8392 225.774 68.0405 226.454 68.0405C227.368 68.0405 228.245 67.6772 228.892 67.0306C229.539 66.3839 229.902 65.5069 229.902 64.5924" fill="#21150B"/>
<path d="M212.087 71.5823C212.119 71.3011 212.258 71.0429 212.475 70.8606C212.769 70.6016 212.966 70.249 213.032 69.8621C213.097 69.4752 213.028 69.0775 212.835 68.7356C212.722 68.4864 212.558 68.2634 212.354 68.0808C212.127 67.8402 212.087 67.7734 212.1 67.613C212.114 67.4526 212.274 67.3056 212.515 67.0784C212.954 66.7508 213.263 66.2768 213.383 65.7419L212.314 65.5281C212.225 65.8162 212.042 66.0659 211.793 66.2364C211.389 66.534 211.112 66.9731 211.018 67.466C210.998 67.7174 211.038 67.97 211.136 68.2025C211.234 68.4351 211.386 68.6408 211.579 68.8025C211.684 68.8866 211.77 68.9912 211.833 69.1098C212.06 69.6578 211.967 69.7647 211.659 70.0855C211.292 70.441 211.06 70.9137 211.004 71.422C210.991 71.7031 211.044 71.9834 211.157 72.2408C211.271 72.4982 211.443 72.7258 211.659 72.9055C211.953 73.2262 212.02 73.293 211.846 73.694L211.593 74.0548C211.151 74.6429 210.604 75.3913 210.697 76.0061L211.78 76.0061L211.78 75.7655C211.963 75.3858 212.187 75.0273 212.448 74.6963C212.587 74.5284 212.712 74.3496 212.822 74.1618C213.007 73.8351 213.068 73.4529 212.995 73.0848C212.921 72.7167 212.717 72.3874 212.421 72.157C212.181 71.9031 212.06 71.7694 212.074 71.4888" fill="#21150B"/>
<path d="M241.53 75.0033C241.251 75.0394 240.985 75.1405 240.753 75.2983C240.521 75.4562 240.329 75.6664 240.193 75.9121L240.14 76.0591L241.61 76.0591C241.693 76.035 241.781 76.035 241.864 76.0591L243.762 76.0591C243.49 75.733 243.154 75.4672 242.775 75.2784C242.395 75.0897 241.98 74.9824 241.556 74.9632" fill="#21150B"/>
<path d="M272.669 60.7029L272.669 59.4199L271.56 60.0614L272.669 60.7029Z" fill="#21150B"/>
<path d="M247.21 62.6942L249.883 58.0031L252.556 62.6942L247.21 62.6942ZM245.325 63.7767L254.507 63.7767L249.883 55.8113L245.325 63.7767Z" fill="#21150B"/>
<path d="M250.126 42.7428L251.001 43.4025L253.414 40.2008L252.539 39.5411L250.126 42.7428Z" fill="#21150B"/>
<path d="M202.342 40.1958L203.323 40.6534L205.018 37.0199L204.037 36.5623L202.342 40.1958Z" fill="#21150B"/>
<path d="M231.154 14.2179L232.642 17.9412L233.647 17.5395L232.159 13.8162L231.154 14.2179Z" fill="#21150B"/>
<path d="M153.32 17.7254L153.593 18.7731L157.473 17.7631L157.2 16.7154L153.32 17.7254Z" fill="#21150B"/>
<path d="M232.629 38.7574L234.116 42.4806L235.121 42.0789L233.634 38.3557L232.629 38.7574Z" fill="#21150B"/>
<path d="M243.507 7.35045L243.507 6.25453C242.77 6.30453 242.08 6.63251 241.576 7.17215C241.072 7.71179 240.791 8.42281 240.791 9.16139C240.791 9.89996 241.072 10.611 241.576 11.1506C242.08 11.6903 242.77 12.0182 243.507 12.0682L243.507 10.9723C243.256 10.9939 243.004 10.9631 242.765 10.8819C242.527 10.8007 242.308 10.6708 242.123 10.5006C241.937 10.3303 241.789 10.1233 241.688 9.89281C241.586 9.66228 241.534 9.4132 241.534 9.16139C241.534 8.90957 241.586 8.6605 241.688 8.42997C241.789 8.19944 241.937 7.99248 242.123 7.82221C242.308 7.65195 242.527 7.52209 242.765 7.44088C243.004 7.35967 243.256 7.32888 243.507 7.35045Z" fill="#21150B"/>
<path d="M143.873 20.5283L143.873 19.4458C143.104 19.4458 142.366 19.7513 141.822 20.2952C141.278 20.8391 140.973 21.5768 140.973 22.3459C140.973 23.1151 141.278 23.8528 141.822 24.3967C142.366 24.9405 143.104 25.2461 143.873 25.2461L143.873 24.1635C143.634 24.1635 143.398 24.1165 143.177 24.0252C142.957 23.9338 142.756 23.8 142.588 23.6312C142.419 23.4624 142.285 23.262 142.194 23.0415C142.102 22.821 142.055 22.5846 142.055 22.3459C142.055 22.1072 142.102 21.8709 142.194 21.6504C142.285 21.4298 142.419 21.2295 142.588 21.0607C142.756 20.8919 142.957 20.758 143.177 20.6667C143.398 20.5753 143.634 20.5283 143.873 20.5283Z" fill="#21150B"/>
<path d="M218.916 43.3284C218.916 43.0904 218.963 42.8547 219.055 42.6349C219.146 42.4151 219.28 42.2156 219.449 42.0479C219.618 41.8802 219.819 41.7476 220.039 41.6577C220.26 41.5678 220.496 41.5224 220.734 41.5242L220.734 40.4283C220.335 40.4012 219.936 40.4564 219.56 40.5902C219.184 40.7241 218.839 40.9338 218.547 41.2064C218.256 41.4789 218.023 41.8085 217.864 42.1747C217.705 42.5409 217.623 42.9359 217.623 43.3351C217.623 43.7343 217.705 44.1293 217.864 44.4955C218.023 44.8617 218.256 45.1913 218.547 45.4639C218.839 45.7365 219.184 45.9462 219.56 46.08C219.936 46.2139 220.335 46.269 220.734 46.242L220.734 45.1461C220.252 45.1461 219.789 44.9546 219.449 44.6137C219.108 44.2728 218.916 43.8105 218.916 43.3284Z" fill="#21150B"/>
<path d="M205.284 10.8655C205.287 10.3977 205.428 9.94112 205.691 9.55359C205.953 9.16605 206.324 8.86494 206.757 8.68835C207.19 8.51175 207.666 8.4676 208.125 8.56147C208.583 8.65534 209.003 8.88301 209.332 9.2157C209.661 9.5484 209.884 9.97117 209.973 10.4305C210.061 10.8899 210.012 11.3653 209.83 11.7965C209.649 12.2278 209.344 12.5955 208.953 12.8532C208.563 13.111 208.104 13.2471 207.637 13.2445C207.327 13.2445 207.02 13.1832 206.733 13.0642C206.447 12.9451 206.187 12.7707 205.969 12.5508C205.75 12.331 205.577 12.0701 205.46 11.7832C205.342 11.4962 205.283 11.1889 205.284 10.8789M211.085 10.8789C211.085 10.1969 210.882 9.53027 210.504 8.96323C210.125 8.39618 209.586 7.95423 208.956 7.69325C208.326 7.43227 207.633 7.36399 206.964 7.49703C206.295 7.63008 205.681 7.95848 205.198 8.44071C204.716 8.92294 204.388 9.53734 204.255 10.2062C204.122 10.8751 204.19 11.5684 204.451 12.1984C204.712 12.8285 205.154 13.367 205.721 13.7459C206.288 14.1248 206.955 14.327 207.637 14.327C208.094 14.3324 208.548 14.2467 208.972 14.0749C209.395 13.9032 209.781 13.6488 210.106 13.3267C210.43 13.0046 210.687 12.6211 210.862 12.1985C211.037 11.776 211.127 11.3229 211.125 10.8655" fill="#21150B"/>
<path d="M192.24 26.5288L192.24 35.9644L193.323 35.9644L193.323 26.5288L192.24 26.5288Z" fill="#21150B"/>
<path d="M189.874 32.8242L191.318 31.2471L189.874 29.6834L191.318 28.1064L189.527 26.1551L188.725 26.9035L189.847 28.1064L188.391 29.6834L189.847 31.2471L188.391 32.8242L189.847 34.3878L188.725 35.5907L189.527 36.3391L191.318 34.3878L189.874 32.8242Z" fill="#21150B"/>
<path d="M144.674 3.20761C144.561 2.95837 144.397 2.73537 144.193 2.55273C143.966 2.31216 143.926 2.24534 143.939 2.08496C143.953 1.92459 144.113 1.77757 144.353 1.55037C144.793 1.22274 145.101 0.748731 145.222 0.213883L144.153 4.6659e-05C144.064 0.288198 143.88 0.537831 143.632 0.708382C143.228 1.00593 142.951 1.44507 142.857 1.93795C142.836 2.18937 142.877 2.44195 142.975 2.6745C143.072 2.90705 143.224 3.11279 143.418 3.27443C143.523 3.3586 143.609 3.46318 143.672 3.58182C143.899 4.11642 143.805 4.2367 143.498 4.55746C143.131 4.91293 142.899 5.3857 142.843 5.89394C142.83 6.17503 142.882 6.45534 142.996 6.71277C143.11 6.9702 143.282 7.19773 143.498 7.37744C143.792 7.6982 143.859 7.76502 143.685 8.16597L143.431 8.52682C142.937 9.18169 142.309 10.0103 142.603 10.7053C142.681 10.8831 142.807 11.0351 142.968 11.1439C143.129 11.2527 143.317 11.3138 143.511 11.3201L143.645 10.2375C143.825 9.86024 144.049 9.50579 144.313 9.18169C144.45 9.00735 144.575 8.82431 144.688 8.63373C144.872 8.30709 144.934 7.92483 144.86 7.55677C144.786 7.18871 144.583 6.85941 144.287 6.62901C144.046 6.37507 143.926 6.24143 143.939 5.96076C143.972 5.67956 144.11 5.42137 144.327 5.23906C144.621 4.97998 144.818 4.62744 144.884 4.24054C144.95 3.85364 144.88 3.45591 144.688 3.11405" fill="#21150B"/>
<path d="M217.486 21.2634C217.234 21.3655 217.01 21.525 216.832 21.7292C216.653 21.9335 216.525 22.1767 216.457 22.4395C216.339 22.9401 216.335 23.4608 216.446 23.9629C216.557 24.465 216.78 24.9356 217.098 25.3397C217.431 25.7989 217.634 26.3389 217.686 26.9034C217.686 27.0771 217.686 27.1974 217.566 27.2241C217.446 27.2509 217.085 27.3177 215.962 26.7564L215.548 26.5292C214.706 26.0614 213.129 25.1927 212.127 26.5292C211.929 26.8962 211.816 27.3032 211.798 27.7198C211.779 28.1363 211.855 28.5517 212.02 28.9348C212.104 29.1913 212.253 29.4218 212.452 29.6044C212.651 29.7869 212.893 29.9153 213.156 29.9773L213.343 28.8947C213.236 28.8947 213.116 28.7344 213.022 28.5205C212.847 28.0923 212.847 27.6123 213.022 27.184C213.396 26.6628 213.944 26.8499 215.027 27.4513C215.201 27.5449 215.348 27.6384 215.495 27.7053C216.43 28.173 217.406 28.5473 218.168 28.1463C218.373 28.0274 218.544 27.8558 218.661 27.649C218.779 27.4423 218.839 27.208 218.836 26.9702C218.823 26.1812 218.566 25.4156 218.101 24.7784C217.686 24.0433 217.326 23.4419 217.553 22.7736C217.573 22.6648 217.618 22.5617 217.682 22.4717C217.747 22.3817 217.83 22.3069 217.927 22.2524C218.328 22.1054 219.263 22.6133 219.892 23.0142C220.974 23.6424 222.19 24.3507 223.153 23.6691L222.511 22.787C222.137 23.0677 221.175 22.5331 220.44 22.0787C219.704 21.6243 218.448 20.9026 217.553 21.2367" fill="#21150B"/>
<path d="M170.268 14.1532C169.546 13.4983 168.223 12.2821 166.927 13.4181C166.648 13.7304 166.444 14.1022 166.331 14.5052C166.217 14.9082 166.197 15.3317 166.272 15.7436C166.281 16.0245 166.366 16.2976 166.519 16.5333C166.673 16.7689 166.887 16.958 167.141 17.0801L167.555 16.0777C167.461 16.0777 167.381 15.8639 167.341 15.6367C167.299 15.4055 167.304 15.1684 167.354 14.939C167.405 14.7096 167.5 14.4925 167.635 14.3002C168.116 13.8725 168.611 14.1799 169.533 15.0085L169.92 15.3694C170.736 16.0376 171.591 16.6257 172.366 16.3985C172.594 16.3305 172.8 16.203 172.962 16.0292C173.124 15.8554 173.237 15.6414 173.288 15.4095C173.462 14.6366 173.392 13.8289 173.088 13.0974C172.847 12.2821 172.647 11.5871 173.008 11.0258C173.168 10.7719 173.342 10.6249 173.489 10.6115C173.917 10.6115 174.652 11.2396 175.226 11.801C176.135 12.6563 177.164 13.6319 178.247 13.1374L177.832 12.1351C177.405 12.3088 176.643 11.5871 175.975 10.959C175.307 10.3308 174.304 9.3552 173.369 9.47549C173.09 9.51161 172.824 9.61269 172.592 9.77055C172.36 9.92842 172.168 10.1387 172.032 10.3843C171.808 10.8469 171.692 11.354 171.692 11.8678C171.692 12.3816 171.808 12.8887 172.032 13.3513C172.256 13.8732 172.33 14.447 172.246 15.0085C172.246 15.1689 172.126 15.2758 172.059 15.3026C171.992 15.3293 171.578 15.3026 170.602 14.4739L170.255 14.1532" fill="#21150B"/>
<path d="M272.134 27.291C271.802 27.1782 271.445 27.1597 271.103 27.2376C270.761 27.3154 270.447 27.4866 270.196 27.7321L270.945 28.534C271.045 28.4262 271.172 28.3481 271.314 28.308C271.455 28.2679 271.605 28.2675 271.747 28.3068C271.842 28.3477 271.923 28.4171 271.978 28.5056C272.033 28.594 272.06 28.6973 272.054 28.8013C271.983 29.0564 271.875 29.2996 271.733 29.523C271.372 30.1511 270.704 31.3272 271.907 32.0489C272.141 32.1722 272.406 32.2233 272.669 32.1959L272.669 31.0866C272.603 31.1036 272.534 31.1036 272.468 31.0866C272.268 30.9664 272.188 30.9129 272.669 30.0576L272.669 27.6118C272.513 27.4642 272.332 27.3464 272.134 27.2643" fill="#21150B"/>
<path d="M255.616 27.7317L260.307 25.0587L260.307 30.4046L255.616 27.7317ZM253.437 27.7317L261.456 32.3158L261.456 23.1342L253.437 27.7317Z" fill="#21150B"/>
<path d="M170.548 30.4315L167.875 35.1092L165.202 30.4315L170.548 30.4315ZM163.251 29.3356L167.848 37.3545L172.433 29.3356L163.251 29.3356Z" fill="#21150B"/>
<path d="M234.406 28.3865L242.759 28.3865L242.759 30.6184L241.73 29.6695L240.153 31.1263L238.589 29.6695L237.012 31.1263L235.435 29.6695L234.406 30.6184L234.406 28.3865ZM243.841 27.3039L233.323 27.3039L233.323 33.1577L235.435 31.2064L237.012 32.6632L238.589 31.2064L240.153 32.6632L241.73 31.2064L243.841 33.1577L243.841 27.3039Z" fill="#21150B"/>
<path d="M154.14 69.0017L155.121 69.4594L156.816 65.8258L155.835 65.3682L154.14 69.0017Z" fill="#21150B"/>
<path d="M202.649 64.1399L203.366 64.9512L206.371 62.2965L205.654 61.4852L202.649 64.1399Z" fill="#21150B"/>
<path d="M136.348 51.6414L136.976 51.2805L136.348 50.198L136.348 51.6414Z" fill="#21150B"/>
<path d="M172.447 74.7225C172.446 75.2176 172.57 75.7048 172.807 76.1392L174.224 76.1392C173.929 75.9067 173.714 75.5881 173.609 75.2277C173.504 74.8673 173.514 74.4831 173.638 74.1286C173.761 73.7742 173.992 73.4671 174.299 73.2501C174.605 73.0331 174.971 72.9171 175.347 72.9182L175.347 71.7822C174.962 71.7822 174.582 71.8585 174.228 72.0068C173.873 72.155 173.552 72.3722 173.282 72.6458C173.012 72.9194 172.799 73.2438 172.656 73.6003C172.512 73.9568 172.441 74.3383 172.447 74.7225Z" fill="#21150B"/>
<path d="M166.005 57.9901C165.536 57.9928 165.077 57.856 164.686 57.597C164.294 57.3381 163.989 56.9688 163.808 56.536C163.628 56.1032 163.58 55.6265 163.671 55.1664C163.762 54.7062 163.987 54.2835 164.319 53.9519C164.65 53.6203 165.073 53.3947 165.533 53.3038C165.993 53.213 166.47 53.261 166.903 53.4417C167.336 53.6224 167.705 53.9276 167.964 54.3187C168.223 54.7097 168.36 55.1689 168.357 55.6379C168.353 56.2607 168.105 56.857 167.664 57.2973C167.224 57.7377 166.628 57.9866 166.005 57.9901ZM166.005 52.1898C165.323 52.1898 164.656 52.392 164.089 52.7709C163.522 53.1498 163.08 53.6883 162.819 54.3184C162.558 54.9485 162.49 55.6418 162.623 56.3106C162.756 56.9795 163.084 57.5939 163.567 58.0761C164.049 58.5584 164.663 58.8868 165.332 59.0198C166.001 59.1528 166.694 59.0846 167.324 58.8236C167.954 58.5626 168.493 58.1206 168.872 57.5536C169.251 56.9866 169.453 56.3199 169.453 55.6379C169.449 54.7245 169.085 53.8495 168.439 53.2036C167.793 52.5577 166.918 52.1933 166.005 52.1898Z" fill="#21150B"/>
<path d="M139.475 74.0405C140.043 74.038 140.593 74.2409 141.022 74.6118C141.452 74.9827 141.733 75.4966 141.814 76.0586L142.964 76.0586C142.905 75.2965 142.594 74.5755 142.08 74.01C141.566 73.4444 140.878 73.0666 140.125 72.9362C139.371 72.8058 138.596 72.9304 137.922 73.2901C137.248 73.6499 136.712 74.2244 136.401 74.9226L136.401 76.0586L137.19 76.0586C137.264 75.4905 137.542 74.9686 137.973 74.5901C138.403 74.2116 138.956 74.002 139.529 74.0004" fill="#21150B"/>
<path d="M189.527 74.1478L189.527 75.2303L198.963 75.2303L198.963 74.1478L189.527 74.1478Z" fill="#21150B"/>
<path d="M189.166 71.4346L191.104 73.2255L192.681 71.7687L194.245 73.2255L195.822 71.7687L197.399 73.2255L199.337 71.4346L198.602 70.6327L197.399 71.742L195.822 70.2852L194.245 71.742L192.681 70.2852L191.104 71.742L189.901 70.6327L189.166 71.4346Z" fill="#21150B"/>
<path d="M180.385 47.9924C180.265 47.7474 180.102 47.5257 179.904 47.3375C179.677 47.1103 179.637 47.0435 179.65 46.8831C179.664 46.7227 179.824 46.5624 180.064 46.3352C180.507 46.01 180.816 45.5349 180.933 44.9987L179.851 44.7982C179.765 45.0844 179.586 45.3338 179.343 45.5065C178.942 45.8017 178.666 46.2352 178.568 46.7227C178.545 46.9744 178.585 47.2277 178.682 47.4606C178.78 47.6936 178.934 47.8991 179.129 48.0592C179.231 48.1507 179.317 48.2592 179.383 48.38C179.61 48.9146 179.503 49.0349 179.209 49.3556C178.839 49.709 178.607 50.1829 178.554 50.6921C178.542 50.9731 178.595 51.253 178.708 51.5103C178.822 51.7676 178.993 51.9952 179.209 52.1756C179.503 52.483 179.57 52.5632 179.396 52.9641L179.142 53.3116C178.634 53.9798 178.02 54.8085 178.314 55.5034C178.394 55.6787 178.521 55.828 178.682 55.9343C178.843 56.0406 179.03 56.0997 179.222 56.1049L179.356 55.0223C179.537 54.6458 179.762 54.2915 180.024 53.9665C180.167 53.7967 180.292 53.6131 180.399 53.4185C180.583 53.0939 180.643 52.7138 180.57 52.348C180.496 51.9822 180.293 51.6553 179.998 51.4272C179.757 51.1599 179.637 51.0262 179.65 50.7589C179.683 50.4777 179.821 50.2195 180.038 50.0372C180.308 49.7791 180.487 49.4407 180.55 49.0724C180.613 48.704 180.555 48.3253 180.385 47.9924Z" fill="#21150B"/>
<path d="M142.095 62.6942L137.403 60.0212L142.095 57.3482L142.095 62.6942ZM143.177 64.5786L143.177 55.397L136.348 59.4064L136.348 60.7429L143.177 64.5786Z" fill="#21150B"/>
<path d="M189.995 58.2573L192.668 53.5662L195.341 58.2573L189.995 58.2573ZM197.292 59.3398L192.695 51.3878L188.11 59.3398L197.292 59.3398Z" fill="#21150B"/>
<path d="M154.056 39.1589L154.056 47.5119L151.771 47.5119L152.72 46.4828L151.277 44.9058L152.72 43.3421L151.277 41.765L152.72 40.188L151.771 39.1589L154.056 39.1589ZM149.285 38.0764L151.236 40.188L149.793 41.765L151.236 43.3421L149.793 44.9058L151.236 46.4828L149.285 48.5945L155.152 48.5945L155.152 38.0764L149.285 38.0764Z" fill="#21150B"/>
<path d="M137.083 31.9547C137.551 31.821 137.778 31.7675 137.872 31.8745C137.965 31.9814 137.872 32.2754 137.685 32.5427C137.435 32.9294 137.319 33.3874 137.355 33.8463C137.392 34.3051 137.578 34.7394 137.885 35.082L138.674 34.3336C138.313 33.9594 138.393 33.652 138.674 32.9971C138.835 32.6716 138.93 32.3173 138.954 31.9547C138.952 31.6759 138.853 31.4066 138.674 31.1929C138.112 30.5113 137.337 30.7786 136.736 30.9523C136.615 30.9523 136.455 31.0325 136.321 31.0592L136.321 32.1685C136.573 32.1347 136.819 32.0719 137.056 31.9814" fill="#21150B"/>
<path d="M136.361 30.0575C136.643 29.6675 136.801 29.2019 136.815 28.721C136.796 28.3194 136.629 27.939 136.348 27.6518L136.348 30.0575" fill="#21150B"/>
<path d="M124.079 76.0992L124.2 76.0992L124.707 75.2038L121.219 73.2258L120.685 74.1747L124.079 76.0992Z" fill="#21150B"/>
<path d="M73.7033 52.7792L77.1943 54.7511L77.7268 53.8085L74.2357 51.8366L73.7033 52.7792Z" fill="#21150B"/>
<path d="M134.971 47.819L134.022 48.3536L136.041 51.8285L136.348 51.6414L136.348 50.198L134.971 47.819Z" fill="#21150B"/>
<path d="M123.464 53.459L126.525 52.0424L125.629 49.6367L124.6 50.0243L125.148 51.4811L121.914 52.9779L125.883 59.6603L124.493 61.0636L125.255 61.8254L127.247 59.8341L123.464 53.459Z" fill="#21150B"/>
<path d="M97.8702 53.2719L96.7743 53.2719C96.7472 53.6702 96.8024 54.0699 96.9362 54.446C97.0701 54.8221 97.2798 55.1667 97.5523 55.4584C97.8249 55.7501 98.1545 55.9826 98.5207 56.1416C98.8869 56.3006 99.2819 56.3827 99.6811 56.3827C100.08 56.3827 100.475 56.3006 100.841 56.1416C101.208 55.9826 101.537 55.7501 101.81 55.4584C102.082 55.1667 102.292 54.8221 102.426 54.446C102.56 54.0699 102.615 53.6702 102.588 53.2719L101.532 53.2719C101.532 53.754 101.341 54.2163 101 54.5572C100.659 54.8981 100.197 55.0896 99.7145 55.0896C99.2325 55.0896 98.7701 54.8981 98.4293 54.5572C98.0884 54.2163 97.8969 53.754 97.8969 53.2719" fill="#21150B"/>
<path d="M87.7669 64.5523C87.7642 64.0839 87.9007 63.6252 88.159 63.2344C88.4174 62.8437 88.7859 62.5384 89.2179 62.3573C89.6499 62.1762 90.126 62.1274 90.5857 62.2172C91.0455 62.307 91.4682 62.5312 91.8004 62.8615C92.1326 63.1918 92.3592 63.6133 92.4516 64.0725C92.5439 64.5317 92.4979 65.0081 92.3192 65.4411C92.1406 65.8741 91.8374 66.2444 91.4481 66.5049C91.0588 66.7654 90.6009 66.9045 90.1325 66.9045C89.5074 66.9045 88.9077 66.6571 88.4645 66.2164C88.0212 65.7756 87.7704 65.1774 87.7669 64.5523ZM93.5806 64.5523C93.5727 63.8721 93.3638 63.2094 92.9801 62.6477C92.5964 62.0859 92.0552 61.6502 91.4245 61.3954C90.7937 61.1405 90.1017 61.0779 89.4355 61.2155C88.7693 61.353 88.1587 61.6845 87.6805 62.1683C87.2022 62.6521 86.8778 63.2666 86.748 63.9343C86.6181 64.6021 86.6887 65.2933 86.9508 65.921C87.2129 66.5488 87.6549 67.0849 88.221 67.4621C88.7872 67.8392 89.4522 68.0405 90.1325 68.0405C91.047 68.0405 91.924 67.6772 92.5707 67.0306C93.2173 66.3839 93.5806 65.5069 93.5806 64.5924" fill="#21150B"/>
<path d="M75.7652 71.582C75.7976 71.3008 75.9362 71.0426 76.1528 70.8603C76.4475 70.6012 76.6443 70.2487 76.71 69.8618C76.7757 69.4749 76.7063 69.0771 76.5136 68.7353C76.4003 68.486 76.2365 68.263 76.0325 68.0804C75.8053 67.8398 75.7652 67.773 75.7786 67.6126C75.7919 67.4522 75.9523 67.3052 76.1929 67.078C76.6326 66.7504 76.9407 66.2764 77.0616 65.7415L75.9924 65.5277C75.9035 65.8159 75.7198 66.0655 75.4712 66.236C75.0671 66.5336 74.7902 66.9727 74.696 67.4656C74.6759 67.717 74.7163 67.9696 74.814 68.2022C74.9117 68.4347 75.0637 68.6404 75.2573 68.8021C75.362 68.8863 75.4484 68.9908 75.5113 69.1095C75.7385 69.6574 75.6449 69.7644 75.3375 70.0851C74.97 70.4406 74.7384 70.9134 74.6826 71.4216C74.6695 71.7027 74.7218 71.983 74.8355 72.2404C74.9491 72.4979 75.121 72.7254 75.3375 72.9051C75.6315 73.2259 75.6984 73.2927 75.5246 73.6936L75.2707 74.0545C74.8029 74.7227 74.2817 75.4578 74.3752 76.0592L75.4578 76.0592L75.4578 75.8186C75.6433 75.429 75.872 75.0614 76.1394 74.7227C76.2782 74.5548 76.4033 74.376 76.5136 74.1881C76.6985 73.8615 76.7598 73.4792 76.6862 73.1112C76.6125 72.7431 76.409 72.4138 76.1127 72.1834C75.8721 71.9295 75.7518 71.7958 75.7652 71.5152" fill="#21150B"/>
<path d="M105.208 75.0033C104.93 75.0394 104.664 75.1405 104.432 75.2983C104.2 75.4562 104.008 75.6664 103.872 75.9121L103.818 76.0591L105.288 76.0591C105.371 76.035 105.46 76.035 105.542 76.0591L107.414 76.0591C107.142 75.733 106.806 75.4672 106.427 75.2784C106.047 75.0897 105.632 74.9824 105.208 74.9632" fill="#21150B"/>
<path d="M136.348 60.7029L136.348 59.4199L135.238 60.0614L136.348 60.7029Z" fill="#21150B"/>
<path d="M110.888 62.6942L113.561 58.0031L116.234 62.6942L110.888 62.6942ZM109.004 63.7767L118.186 63.7767L113.561 55.8113L109.004 63.7767Z" fill="#21150B"/>
<path d="M113.805 42.7433L114.68 43.403L117.093 40.2013L116.218 39.5416L113.805 42.7433Z" fill="#21150B"/>
<path d="M66.0033 40.1905L66.9844 40.6482L68.6795 37.0147L67.6984 36.557L66.0033 40.1905Z" fill="#21150B"/>
<path d="M94.8336 14.2132L96.3213 17.9364L97.3266 17.5347L95.8389 13.8115L94.8336 14.2132Z" fill="#21150B"/>
<path d="M16.9978 17.7176L17.2705 18.7653L21.1507 17.7553L20.878 16.7076L16.9978 17.7176Z" fill="#21150B"/>
<path d="M96.3092 38.7527L97.7969 42.476L98.8021 42.0743L97.3145 38.351L96.3092 38.7527Z" fill="#21150B"/>
<path d="M107.185 7.35045L107.185 6.25453C106.448 6.30453 105.758 6.63251 105.254 7.17215C104.749 7.71179 104.469 8.42281 104.469 9.16139C104.469 9.89996 104.749 10.611 105.254 11.1506C105.758 11.6903 106.448 12.0182 107.185 12.0682L107.185 10.9723C106.934 10.9939 106.682 10.9631 106.443 10.8819C106.205 10.8007 105.986 10.6708 105.8 10.5006C105.615 10.3303 105.467 10.1233 105.365 9.89281C105.264 9.66228 105.212 9.4132 105.212 9.16139C105.212 8.90957 105.264 8.6605 105.365 8.42997C105.467 8.19944 105.615 7.99248 105.8 7.82221C105.986 7.65195 106.205 7.52209 106.443 7.44088C106.682 7.35967 106.934 7.32888 107.185 7.35045Z" fill="#21150B"/>
<path d="M7.55056 20.5283L7.55056 19.4458C6.78139 19.4458 6.04372 19.7513 5.49983 20.2952C4.95594 20.8391 4.65039 21.5768 4.65039 22.3459C4.65039 23.1151 4.95594 23.8528 5.49983 24.3967C6.04372 24.9405 6.78139 25.2461 7.55056 25.2461L7.55056 24.1635C7.0685 24.1635 6.60618 23.972 6.26531 23.6312C5.92444 23.2903 5.73294 22.828 5.73294 22.3459C5.73294 21.8639 5.92444 21.4015 6.26531 21.0607C6.60618 20.7198 7.0685 20.5283 7.55056 20.5283Z" fill="#21150B"/>
<path d="M82.5949 43.3284C82.5949 43.0904 82.642 42.8547 82.7335 42.6349C82.825 42.4151 82.9591 42.2156 83.1281 42.0479C83.297 41.8802 83.4975 41.7476 83.7179 41.6577C83.9384 41.5678 84.1744 41.5224 84.4125 41.5242L84.4125 40.4283C84.0142 40.4012 83.6146 40.4564 83.2385 40.5902C82.8623 40.7241 82.5177 40.9338 82.2261 41.2064C81.9344 41.4789 81.7018 41.8085 81.5428 42.1747C81.3838 42.5409 81.3018 42.9359 81.3018 43.3351C81.3018 43.7343 81.3838 44.1293 81.5428 44.4955C81.7018 44.8617 81.9344 45.1913 82.2261 45.4639C82.5177 45.7365 82.8623 45.9462 83.2385 46.08C83.6146 46.2139 84.0142 46.269 84.4125 46.242L84.4125 45.1461C83.9304 45.1461 83.4681 44.9546 83.1273 44.6137C82.7864 44.2728 82.5949 43.8105 82.5949 43.3284Z" fill="#21150B"/>
<path d="M68.9621 10.8655C68.9648 10.3977 69.1061 9.94112 69.3682 9.55359C69.6304 9.16605 70.0015 8.86494 70.4348 8.68835C70.868 8.51175 71.3439 8.4676 71.8023 8.56147C72.2606 8.65534 72.6809 8.88301 73.0098 9.2157C73.3388 9.5484 73.5617 9.97117 73.6504 10.4305C73.739 10.8899 73.6895 11.3653 73.508 11.7965C73.3266 12.2278 73.0213 12.5955 72.6308 12.8532C72.2403 13.111 71.7822 13.2471 71.3143 13.2445C71.0043 13.2445 70.6974 13.1832 70.4111 13.0642C70.1248 12.9451 69.8649 12.7707 69.6463 12.5508C69.4277 12.331 69.2547 12.0701 69.1373 11.7832C69.0199 11.4962 68.9604 11.1889 68.9621 10.8789M74.7625 10.8789C74.7625 10.1969 74.5602 9.53027 74.1814 8.96323C73.8025 8.39618 73.2639 7.95423 72.6339 7.69325C72.0038 7.43227 71.3105 7.36399 70.6416 7.49703C69.9728 7.63008 69.3584 7.95848 68.8761 8.44071C68.3939 8.92294 68.0655 9.53734 67.9325 10.2062C67.7994 10.8751 67.8677 11.5684 68.1287 12.1984C68.3897 12.8285 68.8316 13.367 69.3987 13.7459C69.9657 14.1248 70.6324 14.327 71.3143 14.327C71.7716 14.3324 72.2254 14.2467 72.6493 14.0749C73.0732 13.9032 73.4586 13.6488 73.7833 13.3267C74.1079 13.0046 74.3652 12.6211 74.5402 12.1985C74.7152 11.776 74.8044 11.3229 74.8026 10.8655" fill="#21150B"/>
<path d="M55.9316 26.5288L55.9316 35.9644L57.0142 35.9644L57.0142 26.5288L55.9316 26.5288Z" fill="#21150B"/>
<path d="M53.5528 32.8242L54.9962 31.2471L53.5528 29.6834L54.9962 28.1064L53.2053 26.1551L52.4168 26.9035L53.5261 28.1064L52.0693 29.6834L53.5261 31.2471L52.0693 32.8242L53.5261 34.3878L52.4168 35.5907L53.2054 36.3391L54.9962 34.3878L53.5528 32.8242Z" fill="#21150B"/>
<path d="M8.35284 3.20756C8.23951 2.95832 8.07568 2.73532 7.87171 2.55268C7.6445 2.31212 7.60441 2.24529 7.61777 2.08492C7.63114 1.92454 7.79152 1.77752 8.03208 1.55032C8.47179 1.2227 8.7799 0.748684 8.9008 0.213838L7.83161 -7.097e-08C7.74275 0.288152 7.55906 0.537785 7.31038 0.708335C6.9063 1.00588 6.62946 1.44502 6.53522 1.9379C6.51509 2.18933 6.55556 2.44191 6.65323 2.67446C6.7509 2.90701 6.90292 3.11274 7.09655 3.27439C7.20118 3.35855 7.28758 3.46314 7.35048 3.58178C7.57768 4.11637 7.48413 4.23665 7.17673 4.55741C6.80924 4.91289 6.57759 5.38565 6.52186 5.89389C6.50873 6.17499 6.56105 6.45529 6.67469 6.71272C6.78833 6.97016 6.96019 7.19769 7.17673 7.37739C7.47076 7.69815 7.53759 7.76497 7.36384 8.16592L7.10991 8.52677C6.64214 9.23511 5.98726 10.1038 6.28129 10.7988C6.35935 10.9766 6.48611 11.1286 6.64693 11.2374C6.80774 11.3462 6.99605 11.4073 7.1901 11.4136L7.32375 10.331C7.49667 9.94045 7.71658 9.57242 7.97862 9.2351C8.11511 9.06076 8.24012 8.87772 8.35284 8.68715C8.53774 8.3605 8.59898 7.97824 8.52537 7.61018C8.45176 7.24212 8.24821 6.91282 7.9519 6.68242C7.71133 6.42849 7.59104 6.29484 7.60441 6.01418C7.63679 5.73297 7.77545 5.47478 7.99199 5.29248C8.28675 5.0334 8.48348 4.68085 8.54918 4.29395C8.61488 3.90705 8.54556 3.50932 8.35284 3.16747" fill="#21150B"/>
<path d="M81.1646 21.2634C80.9131 21.3655 80.6891 21.525 80.5103 21.7292C80.3316 21.9335 80.2033 22.1767 80.1355 22.4395C80.0176 22.9401 80.0141 23.4608 80.1251 23.9629C80.2362 24.465 80.459 24.9356 80.777 25.3397C81.1094 25.7989 81.3125 26.3389 81.3651 26.9034C81.3651 27.0771 81.3651 27.1974 81.2448 27.2241C81.1245 27.2509 80.7636 27.3177 79.641 26.7564L79.2267 26.5292C78.3847 26.0614 76.8077 25.1927 75.8053 26.5292C75.6073 26.8962 75.4949 27.3032 75.4764 27.7198C75.4578 28.1363 75.5337 28.5517 75.6984 28.9348C75.7827 29.1913 75.9314 29.4218 76.1303 29.6044C76.3292 29.7869 76.5716 29.9153 76.8344 29.9773L77.0215 28.8947C76.9146 28.8947 76.7943 28.7344 76.7007 28.5205C76.5255 28.0923 76.5255 27.6123 76.7007 27.184C77.0749 26.6628 77.6229 26.8499 78.7055 27.4513C78.8792 27.5449 79.0262 27.6384 79.1732 27.7053C80.1088 28.173 81.0844 28.5473 81.8462 28.1463C82.0521 28.0274 82.2226 27.8558 82.3401 27.649C82.4576 27.4423 82.5178 27.208 82.5144 26.9702C82.5015 26.1812 82.2448 25.4156 81.7794 24.7784C81.3651 24.0433 81.0042 23.4419 81.2314 22.7736C81.2521 22.6648 81.2963 22.5617 81.361 22.4717C81.4256 22.3817 81.5091 22.3069 81.6056 22.2524C82.0066 22.1054 82.9421 22.6133 83.5703 23.0142C84.6528 23.6424 85.869 24.3507 86.8313 23.6691L86.1898 22.787C85.8156 23.0677 84.8533 22.5331 84.1182 22.0787C83.1292 21.504 82.1269 20.9026 81.2314 21.2367" fill="#21150B"/>
<path d="M33.9467 14.1532C33.225 13.4983 31.9019 12.2821 30.6055 13.4181C30.3267 13.7304 30.1228 14.1022 30.0093 14.5052C29.8958 14.9082 29.8758 15.3317 29.9506 15.7436C29.9594 16.0245 30.045 16.2976 30.1981 16.5333C30.3513 16.7689 30.5662 16.958 30.8193 17.0801L31.2336 16.0777C31.1401 16.0777 31.0599 15.8639 31.0198 15.6367C30.9781 15.4055 30.9826 15.1684 31.033 14.939C31.0835 14.7096 31.1789 14.4925 31.3138 14.3002C31.7949 13.8725 32.2894 14.1799 33.2116 15.0085L33.5992 15.3694C34.4144 16.0376 35.2698 16.6257 36.045 16.3985C36.2727 16.3305 36.4783 16.203 36.6404 16.0292C36.8024 15.8554 36.9153 15.6414 36.9671 15.4095C37.1407 14.6366 37.0706 13.8289 36.7667 13.0974C36.5261 12.2821 36.3256 11.5871 36.6865 11.0258C36.8468 10.7719 37.0206 10.6249 37.1676 10.6115C37.5953 10.6115 38.3303 11.2396 38.905 11.801C39.8138 12.6563 40.8429 13.6319 41.9255 13.1374L41.5112 12.1351C41.0835 12.3088 40.3217 11.5871 39.6535 10.959C38.9852 10.3308 37.9829 9.3552 37.0473 9.47549C36.7689 9.51161 36.5029 9.61269 36.2707 9.77055C36.0386 9.92842 35.8468 10.1387 35.7108 10.3843C35.4872 10.8469 35.371 11.354 35.371 11.8678C35.371 12.3816 35.4872 12.8887 35.7108 13.3513C35.9345 13.8732 36.0085 14.447 35.9247 15.0085C35.9247 15.1689 35.8044 15.2758 35.7376 15.3026C35.6707 15.3293 35.2564 15.3026 34.2808 14.4739L33.9333 14.1532" fill="#21150B"/>
<path d="M135.813 27.291C135.481 27.1782 135.124 27.1597 134.782 27.2376C134.44 27.3154 134.126 27.4866 133.875 27.7321L134.623 28.534C134.723 28.4262 134.851 28.3481 134.993 28.308C135.134 28.2679 135.284 28.2675 135.425 28.3068C135.521 28.3477 135.602 28.4171 135.657 28.5056C135.712 28.594 135.738 28.6973 135.733 28.8013C135.662 29.0564 135.554 29.2996 135.412 29.523C135.051 30.1511 134.383 31.3272 135.586 32.0489C135.82 32.1722 136.085 32.2233 136.348 32.1959L136.348 31.0866C136.282 31.1036 136.213 31.1036 136.147 31.0866C135.947 30.9664 135.866 30.9129 136.348 30.0576L136.348 27.6118C136.192 27.4642 136.011 27.3464 135.813 27.2643" fill="#21150B"/>
<path d="M119.295 27.7317L123.986 25.0587L123.986 30.4046L119.295 27.7317ZM117.116 27.7317L125.135 32.3158L125.135 23.1342L117.116 27.7317Z" fill="#21150B"/>
<path d="M34.2269 30.4315L31.5539 35.1092L28.881 30.4315L34.2269 30.4315ZM26.9297 29.2821L31.5272 37.301L36.1113 29.2821L26.9297 29.2821Z" fill="#21150B"/>
<path d="M98.0845 28.3865L106.438 28.3865L106.438 30.6184L105.408 29.6695L103.831 31.1263L102.268 29.6695L100.691 31.1263L99.1136 29.6695L98.0845 30.6184L98.0845 28.3865ZM107.52 27.3039L97.002 27.3039L97.002 33.1577L99.1136 31.2064L100.691 32.6632L102.268 31.2064L103.831 32.6632L105.408 31.2064L107.52 33.1577L107.52 27.3039Z" fill="#21150B"/>
<path d="M17.8012 68.9965L18.7822 69.4542L20.4773 65.8207L19.4963 65.363L17.8012 68.9965Z" fill="#21150B"/>
<path d="M66.3272 64.1451L67.0439 64.9564L70.0487 62.3018L69.3319 61.4905L66.3272 64.1451Z" fill="#21150B"/>
<path d="M36.1243 74.7226C36.1365 75.1905 36.2602 75.6487 36.4852 76.0591L37.9018 76.0591C37.6071 75.8266 37.3922 75.508 37.287 75.1476C37.1819 74.7872 37.1918 74.4031 37.3154 74.0486C37.4389 73.6941 37.67 73.387 37.9763 73.17C38.2827 72.953 38.6491 72.837 39.0245 72.8382L39.0245 71.7823C38.6402 71.7823 38.2598 71.8586 37.9053 72.0069C37.5508 72.1551 37.2293 72.3723 36.9594 72.6459C36.6896 72.9195 36.4768 73.2439 36.3334 73.6004C36.1901 73.9569 36.119 74.3384 36.1243 74.7226Z" fill="#21150B"/>
<path d="M29.6835 57.9897C29.2145 57.9923 28.7553 57.8555 28.3642 57.5966C27.9732 57.3376 27.6679 56.9683 27.4872 56.5355C27.3065 56.1027 27.2585 55.626 27.3494 55.1659C27.4402 54.7058 27.6658 54.283 27.9974 53.9514C28.3291 53.6198 28.7518 53.3942 29.2119 53.3033C29.672 53.2125 30.1488 53.2605 30.5816 53.4412C31.0144 53.6219 31.3837 53.9271 31.6426 54.3182C31.9015 54.7093 32.0383 55.1684 32.0357 55.6374C32.0322 56.2602 31.7832 56.8565 31.3429 57.2968C30.9025 57.7372 30.3062 57.9861 29.6835 57.9897ZM29.6835 52.1893C29.0015 52.1893 28.3348 52.3915 27.7678 52.7704C27.2008 53.1493 26.7588 53.6878 26.4978 54.3179C26.2368 54.948 26.1686 55.6413 26.3016 56.3101C26.4347 56.979 26.7631 57.5934 27.2453 58.0756C27.7275 58.5579 28.3419 58.8863 29.0108 59.0193C29.6797 59.1524 30.373 59.0841 31.003 58.8231C31.6331 58.5621 32.1716 58.1202 32.5505 57.5531C32.9294 56.9861 33.1316 56.3194 33.1316 55.6374C33.1281 54.724 32.7637 53.849 32.1178 53.2031C31.4719 52.5572 30.5969 52.1928 29.6835 52.1893Z" fill="#21150B"/>
<path d="M3.15374 74.0411C3.7215 74.0386 4.27102 74.2415 4.70088 74.6124C5.13074 74.9833 5.41194 75.4972 5.49259 76.0592L6.64196 76.0592C6.59929 75.2789 6.29185 74.5366 5.77038 73.9546C5.2489 73.3726 4.54458 72.9859 3.77366 72.8582C3.00275 72.7305 2.21133 72.8694 1.53005 73.2522C0.848774 73.6349 0.31836 74.2385 0.0263671 74.9633L0.0263672 76.0592L0.814893 76.0592C0.89818 75.4984 1.18014 74.9861 1.60942 74.6157C2.0387 74.2453 2.58674 74.0414 3.15374 74.0411Z" fill="#21150B"/>
<path d="M53.2051 74.1478L53.2051 75.2303L62.6407 75.2303L62.6407 74.1478L53.2051 74.1478Z" fill="#21150B"/>
<path d="M52.8447 71.4346L54.7826 73.2255L56.3597 71.7687L57.9234 73.2255L59.5004 71.7687L61.0775 73.2255L63.0154 71.4346L62.2803 70.6327L61.0775 71.742L59.5004 70.2852L57.9234 71.742L56.3597 70.2852L54.7826 71.742L53.5798 70.6327L52.8447 71.4346Z" fill="#21150B"/>
<path d="M44.0636 47.9926C43.9432 47.7477 43.7803 47.5259 43.5825 47.3378C43.3553 47.1106 43.3152 47.0437 43.3286 46.8834C43.3419 46.723 43.5023 46.5626 43.7429 46.3354C44.1852 46.0103 44.4941 45.5352 44.6116 44.9989L43.529 44.7985C43.4436 45.0847 43.2648 45.3341 43.0212 45.5068C42.6208 45.802 42.3446 46.2355 42.246 46.723C42.2236 46.9746 42.263 47.2279 42.3608 47.4609C42.4587 47.6938 42.6119 47.8993 42.8073 48.0595C42.9099 48.1509 42.9958 48.2594 43.0613 48.3802C43.2885 48.9148 43.1815 49.0351 42.8875 49.3559C42.5172 49.7093 42.285 50.1831 42.2326 50.6923C42.2205 50.9733 42.2733 51.2533 42.3869 51.5105C42.5005 51.7678 42.6718 51.9955 42.8875 52.1758C43.1815 52.4832 43.2484 52.5634 43.0746 52.9644L42.8073 53.3386C42.2995 54.0068 41.6847 54.8354 41.9787 55.5304C42.0587 55.7057 42.1863 55.855 42.347 55.9613C42.5076 56.0676 42.6949 56.1267 42.8875 56.1318L43.0212 55.0493C43.2025 54.6728 43.4267 54.3185 43.6894 53.9935C43.832 53.8237 43.9574 53.6401 44.0636 53.4455C44.2476 53.1209 44.3084 52.7408 44.2347 52.375C44.1611 52.0092 43.958 51.6823 43.6627 51.4541C43.4221 51.1868 43.3018 51.0532 43.3152 50.7859C43.3476 50.5047 43.4862 50.2465 43.7028 50.0642C43.981 49.8058 44.167 49.4633 44.2322 49.0892C44.2973 48.7151 44.2381 48.3299 44.0636 47.9926Z" fill="#21150B"/>
<path d="M1.08219 60.0212L5.77325 57.3482L5.77325 62.6941L1.08219 60.0212ZM0.026367 60.6627L6.8558 64.6721L6.8558 55.4771L0.026367 59.4866L0.026367 60.6627Z" fill="#21150B"/>
<path d="M53.6725 58.2573L56.3455 53.5662L59.0185 58.2573L53.6725 58.2573ZM60.9697 59.3398L56.3722 51.3878L51.7881 59.3398L60.9697 59.3398Z" fill="#21150B"/>
<path d="M17.7351 39.1589L17.7351 47.5119L15.4497 47.5119L16.3986 46.4828L14.9552 44.9058L16.3986 43.3421L14.9552 41.765L16.3986 40.188L15.4497 39.1589L17.7351 39.1589ZM12.9639 38.0764L14.9151 40.188L13.4717 41.765L14.9151 43.3421L13.4717 44.9058L14.9151 46.4828L12.9639 48.5945L18.831 48.5945L18.831 38.0764L12.9639 38.0764Z" fill="#21150B"/>
<path d="M0.761796 31.9547C1.22957 31.821 1.45677 31.7675 1.55032 31.8745C1.64388 31.9814 1.55032 32.2754 1.36321 32.5427C1.11348 32.9294 0.997822 33.3874 1.03405 33.8463C1.07027 34.3051 1.25638 34.7394 1.56369 35.082L2.35221 34.3336C1.99136 33.9594 2.07155 33.652 2.35221 32.9971C2.51365 32.6716 2.60903 32.3173 2.63287 31.9547C2.63043 31.6759 2.53122 31.4066 2.35221 31.1929C1.79089 30.5113 1.01573 30.7786 0.41431 30.9523C0.294026 30.9523 0.133648 31.0325 -1.75843e-07 31.0592L-1.27355e-07 32.1685C0.261614 32.1281 0.517398 32.0563 0.761796 31.9547Z" fill="#21150B"/>
<path d="M0.039732 30.0575C0.321439 29.6675 0.479723 29.2019 0.494136 28.721C0.474227 28.3194 0.307808 27.939 0.0263671 27.6518L0.0263672 30.0575" fill="#21150B"/>
<path d="M346.32 52.775L349.811 54.7469L350.343 53.8044L346.852 51.8325L346.32 52.775Z" fill="#21150B"/>
<path d="M370.514 53.2719L369.418 53.2719C369.391 53.6702 369.446 54.0699 369.58 54.446C369.714 54.8221 369.923 55.1667 370.196 55.4584C370.468 55.7501 370.798 55.9826 371.164 56.1416C371.53 56.3006 371.925 56.3827 372.325 56.3827C372.724 56.3827 373.119 56.3006 373.485 56.1416C373.851 55.9826 374.181 55.7501 374.453 55.4584C374.726 55.1667 374.936 54.8221 375.07 54.446C375.203 54.0699 375.259 53.6702 375.232 53.2719L374.176 53.2719C374.176 53.754 373.984 54.2163 373.643 54.5572C373.302 54.8981 372.84 55.0896 372.358 55.0896C371.876 55.0896 371.414 54.8981 371.073 54.5572C370.732 54.2163 370.54 53.754 370.54 53.2719" fill="#21150B"/>
<path d="M360.409 64.5523C360.407 64.0839 360.543 63.6252 360.802 63.2344C361.06 62.8437 361.428 62.5384 361.861 62.3573C362.293 62.1762 362.769 62.1274 363.228 62.2172C363.688 62.307 364.111 62.5312 364.443 62.8615C364.775 63.1918 365.002 63.6133 365.094 64.0725C365.187 64.5317 365.14 65.0081 364.962 65.4411C364.783 65.8741 364.48 66.2444 364.091 66.5049C363.701 66.7654 363.243 66.9045 362.775 66.9045C362.15 66.9045 361.55 66.6571 361.107 66.2164C360.664 65.7756 360.413 65.1774 360.409 64.5523ZM366.223 64.5523C366.215 63.8721 366.006 63.2094 365.623 62.6477C365.239 62.0859 364.698 61.6502 364.067 61.3954C363.436 61.1405 362.744 61.0779 362.078 61.2155C361.412 61.353 360.801 61.6845 360.323 62.1683C359.845 62.6521 359.52 63.2666 359.391 63.9343C359.261 64.6021 359.331 65.2933 359.593 65.921C359.856 66.5488 360.297 67.0849 360.864 67.4621C361.43 67.8392 362.095 68.0405 362.775 68.0405C363.69 68.0405 364.567 67.6772 365.213 67.0306C365.86 66.3839 366.223 65.5069 366.223 64.5924" fill="#21150B"/>
<path d="M348.408 71.5823C348.441 71.3011 348.579 71.0429 348.796 70.8606C349.091 70.6016 349.287 70.249 349.353 69.8621C349.419 69.4752 349.349 69.0775 349.157 68.7356C349.043 68.4864 348.88 68.2634 348.676 68.0808C348.448 67.8402 348.408 67.7734 348.422 67.613C348.435 67.4526 348.595 67.3056 348.836 67.0784C349.276 66.7508 349.584 66.2768 349.705 65.7419L348.636 65.5281C348.547 65.8162 348.363 66.0659 348.114 66.2364C347.71 66.534 347.433 66.9731 347.339 67.466C347.319 67.7174 347.359 67.97 347.457 68.2025C347.555 68.4351 347.707 68.6408 347.9 68.8025C348.005 68.8866 348.091 68.9912 348.154 69.1098C348.382 69.6578 348.288 69.7647 347.981 70.0855C347.613 70.441 347.381 70.9137 347.326 71.422C347.313 71.7031 347.365 71.9834 347.479 72.2408C347.592 72.4982 347.764 72.7258 347.981 72.9055C348.275 73.2262 348.341 73.293 348.168 73.694L347.914 74.0548C347.473 74.6429 346.925 75.3913 347.018 76.0061L348.101 76.0061L348.101 75.7655C348.284 75.3858 348.508 75.0273 348.769 74.6963C348.908 74.5284 349.033 74.3496 349.143 74.1618C349.328 73.8351 349.389 73.4529 349.316 73.0848C349.242 72.7167 349.039 72.3874 348.742 72.157C348.502 71.9031 348.382 71.7694 348.395 71.4888" fill="#21150B"/>
<path d="M377.851 75.0033C377.572 75.0394 377.306 75.1405 377.074 75.2983C376.842 75.4562 376.65 75.6664 376.514 75.9121L376.461 76.0591L377.931 76.0591C378.014 76.035 378.102 76.035 378.185 76.0591L380.083 76.0591C379.812 75.733 379.476 75.4672 379.096 75.2784C378.716 75.0897 378.301 74.9824 377.878 74.9632" fill="#21150B"/>
<path d="M383.531 62.6942L386.204 58.0031L388.877 62.6942L383.531 62.6942ZM381.646 63.7767L390.828 63.7767L386.204 55.8113L381.646 63.7767Z" fill="#21150B"/>
<path d="M386.446 42.7428L387.321 43.4025L389.735 40.2008L388.86 39.5411L386.446 42.7428Z" fill="#21150B"/>
<path d="M338.668 40.2009L339.649 40.6586L341.345 37.0251L340.363 36.5674L338.668 40.2009Z" fill="#21150B"/>
<path d="M367.473 14.209L368.961 17.9323L369.966 17.5306L368.479 13.8073L367.473 14.209Z" fill="#21150B"/>
<path d="M289.642 17.7337L289.915 18.7814L293.795 17.7714L293.523 16.7237L289.642 17.7337Z" fill="#21150B"/>
<path d="M368.949 38.762L370.437 42.4852L371.442 42.0835L369.954 38.3603L368.949 38.762Z" fill="#21150B"/>
<path d="M379.829 7.35045L379.829 6.25453C379.092 6.30453 378.401 6.63251 377.897 7.17215C377.393 7.71179 377.112 8.42281 377.112 9.16139C377.112 9.89996 377.393 10.611 377.897 11.1506C378.401 11.6903 379.092 12.0182 379.829 12.0682L379.829 10.9723C379.578 10.9939 379.325 10.9631 379.087 10.8819C378.848 10.8007 378.629 10.6708 378.444 10.5006C378.258 10.3303 378.11 10.1233 378.009 9.89281C377.908 9.66228 377.855 9.4132 377.855 9.16139C377.855 8.90957 377.908 8.6605 378.009 8.42997C378.11 8.19944 378.258 7.99248 378.444 7.82221C378.629 7.65195 378.848 7.52209 379.087 7.44088C379.325 7.35967 379.578 7.32888 379.829 7.35045Z" fill="#21150B"/>
<path d="M280.194 20.5283L280.194 19.4458C279.425 19.4458 278.687 19.7513 278.143 20.2952C277.6 20.8391 277.294 21.5768 277.294 22.3459C277.294 23.1151 277.6 23.8528 278.143 24.3967C278.687 24.9405 279.425 25.2461 280.194 25.2461L280.194 24.1635C279.712 24.1635 279.25 23.972 278.909 23.6312C278.568 23.2903 278.377 22.828 278.377 22.3459C278.377 21.8639 278.568 21.4015 278.909 21.0607C279.25 20.7198 279.712 20.5283 280.194 20.5283Z" fill="#21150B"/>
<path d="M355.237 43.3284C355.237 43.0904 355.285 42.8547 355.376 42.6349C355.468 42.4151 355.602 42.2156 355.771 42.0479C355.94 41.8802 356.14 41.7476 356.361 41.6577C356.581 41.5678 356.817 41.5224 357.055 41.5242L357.055 40.4283C356.657 40.4012 356.257 40.4564 355.881 40.5902C355.505 40.7241 355.16 40.9338 354.869 41.2064C354.577 41.4789 354.344 41.8085 354.185 42.1747C354.026 42.5409 353.944 42.9359 353.944 43.3351C353.944 43.7343 354.026 44.1293 354.185 44.4955C354.344 44.8617 354.577 45.1913 354.869 45.4639C355.16 45.7365 355.505 45.9462 355.881 46.08C356.257 46.2139 356.657 46.269 357.055 46.242L357.055 45.1461C356.816 45.1461 356.58 45.099 356.36 45.0077C356.139 44.9164 355.939 44.7825 355.77 44.6137C355.601 44.4449 355.467 44.2445 355.376 44.024C355.285 43.8035 355.237 43.5671 355.237 43.3284Z" fill="#21150B"/>
<path d="M341.606 10.8655C341.608 10.3977 341.75 9.94112 342.012 9.55359C342.274 9.16605 342.645 8.86494 343.078 8.68835C343.512 8.51175 343.987 8.4676 344.446 8.56147C344.904 8.65534 345.324 8.88301 345.653 9.2157C345.982 9.5484 346.205 9.97117 346.294 10.4305C346.383 10.8899 346.333 11.3653 346.152 11.7965C345.97 12.2278 345.665 12.5955 345.274 12.8532C344.884 13.111 344.426 13.2471 343.958 13.2445C343.648 13.2445 343.341 13.1832 343.055 13.0642C342.768 12.9451 342.508 12.7707 342.29 12.5508C342.071 12.331 341.898 12.0701 341.781 11.7832C341.663 11.4962 341.604 11.1889 341.606 10.8789M347.406 10.8789C347.406 10.1969 347.204 9.53027 346.825 8.96323C346.446 8.39618 345.907 7.95423 345.277 7.69325C344.647 7.43227 343.954 7.36399 343.285 7.49703C342.616 7.63008 342.002 7.95848 341.52 8.44071C341.037 8.92294 340.709 9.53734 340.576 10.2062C340.443 10.8751 340.511 11.5684 340.772 12.1984C341.033 12.8285 341.475 13.367 342.042 13.7459C342.609 14.1248 343.276 14.327 343.958 14.327C344.415 14.3324 344.869 14.2467 345.293 14.0749C345.717 13.9032 346.102 13.6488 346.427 13.3267C346.751 13.0046 347.009 12.6211 347.184 12.1985C347.359 11.776 347.448 11.3229 347.446 10.8655" fill="#21150B"/>
<path d="M328.574 26.5288L328.574 35.9644L329.657 35.9644L329.657 26.5288L328.574 26.5288Z" fill="#21150B"/>
<path d="M326.195 32.8242L327.639 31.2471L326.195 29.6834L327.639 28.1064L325.848 26.1551L325.046 26.9035L326.169 28.1064L324.712 29.6834L326.169 31.2471L324.712 32.8242L326.169 34.3878L325.046 35.5907L325.848 36.3391L327.639 34.3878L326.195 32.8242Z" fill="#21150B"/>
<path d="M280.995 3.20761C280.882 2.95837 280.718 2.73537 280.514 2.55273C280.287 2.31216 280.247 2.24534 280.26 2.08496C280.274 1.92459 280.434 1.77757 280.675 1.55037C281.114 1.22274 281.423 0.748731 281.543 0.213883L280.474 4.6659e-05C280.385 0.288198 280.202 0.537831 279.953 0.708382C279.549 1.00593 279.272 1.44507 279.178 1.93795C279.158 2.18937 279.198 2.44195 279.296 2.6745C279.394 2.90705 279.546 3.11279 279.739 3.27443C279.844 3.3586 279.93 3.46318 279.993 3.58182C280.22 4.11642 280.127 4.2367 279.819 4.55746C279.452 4.91293 279.22 5.3857 279.165 5.89394C279.151 6.17503 279.204 6.45534 279.317 6.71277C279.431 6.9702 279.603 7.19773 279.819 7.37744C280.113 7.6982 280.18 7.76502 280.006 8.16597L279.753 8.52682C279.258 9.18169 278.63 10.0103 278.924 10.7053C279.002 10.8831 279.129 11.0351 279.29 11.1439C279.45 11.2527 279.639 11.3138 279.833 11.3201L279.966 10.2375C280.146 9.86024 280.371 9.50579 280.635 9.18169C280.771 9.00735 280.896 8.82431 281.009 8.63373C281.194 8.30709 281.255 7.92483 281.181 7.55677C281.108 7.18871 280.904 6.85941 280.608 6.62901C280.367 6.37507 280.247 6.24143 280.26 5.96076C280.293 5.67956 280.431 5.42137 280.648 5.23906C280.943 4.97998 281.139 4.62744 281.205 4.24054C281.271 3.85364 281.202 3.45591 281.009 3.11405" fill="#21150B"/>
<path d="M353.807 21.2635C353.556 21.3656 353.332 21.5251 353.153 21.7294C352.974 21.9336 352.846 22.1769 352.778 22.4396C352.66 22.9402 352.657 23.4609 352.768 23.963C352.879 24.4651 353.102 24.9357 353.42 25.3398C353.752 25.799 353.955 26.339 354.008 26.9035C354.008 27.0772 353.941 27.1975 353.887 27.2243C353.834 27.251 353.406 27.3178 352.284 26.7565L351.869 26.5293C351.027 26.0615 349.45 25.1928 348.448 26.5293C348.25 26.8963 348.137 27.3033 348.119 27.7199C348.1 28.1365 348.176 28.5518 348.341 28.935C348.425 29.1914 348.574 29.422 348.773 29.6045C348.972 29.787 349.214 29.9154 349.477 29.9774L349.664 28.8949C349.557 28.8949 349.437 28.7345 349.343 28.5206C349.168 28.0924 349.168 27.6124 349.343 27.1842C349.718 26.6629 350.266 26.85 351.348 27.4515C351.522 27.545 351.669 27.6386 351.816 27.7054C352.751 28.1732 353.727 28.5474 354.489 28.1464C354.695 28.0276 354.865 27.8559 354.983 27.6492C355.1 27.4424 355.16 27.2081 355.157 26.9703C355.144 26.1814 354.887 25.4157 354.422 24.7785C354.008 24.0434 353.647 23.442 353.874 22.7738C353.895 22.6649 353.939 22.5619 354.004 22.4718C354.068 22.3818 354.152 22.307 354.248 22.2525C354.649 22.1055 355.518 22.6134 356.213 23.0143C357.295 23.6425 358.512 24.3508 359.474 23.6692L358.832 22.7871C358.458 23.0678 357.496 22.5332 356.761 22.0788C355.772 21.5041 354.769 20.9027 353.874 21.2368" fill="#21150B"/>
<path d="M306.589 14.1533C305.868 13.4984 304.544 12.2822 303.248 13.4182C302.969 13.7306 302.765 14.1023 302.652 14.5053C302.538 14.9083 302.518 15.3318 302.593 15.7437C302.602 16.0246 302.688 16.2977 302.841 16.5334C302.994 16.769 303.209 16.9581 303.462 17.0802L303.876 16.0778C303.783 16.0778 303.702 15.864 303.662 15.6368C303.621 15.4057 303.625 15.1685 303.676 14.9391C303.726 14.7097 303.822 14.4926 303.956 14.3003C304.438 13.8726 304.932 14.18 305.854 15.0087L306.242 15.3695C307.057 16.0377 307.912 16.6258 308.688 16.3986C308.915 16.3306 309.121 16.2032 309.283 16.0293C309.445 15.8555 309.558 15.6416 309.61 15.4096C309.783 14.6367 309.713 13.829 309.409 13.0975C309.169 12.2822 308.968 11.5873 309.329 11.0259C309.489 10.772 309.663 10.625 309.81 10.6116C310.238 10.6116 310.973 11.2398 311.548 11.8011C312.456 12.6564 313.486 13.6321 314.568 13.1376L314.154 12.1352C313.726 12.309 312.964 11.5873 312.296 10.9591C311.628 10.331 310.625 9.35532 309.69 9.47561C309.411 9.51173 309.145 9.61281 308.913 9.77068C308.681 9.92854 308.489 10.1388 308.353 10.3844C308.13 10.847 308.014 11.3541 308.014 11.8679C308.014 12.3817 308.13 12.8889 308.353 13.3514C308.577 13.8733 308.651 14.4471 308.567 15.0087C308.567 15.169 308.447 15.2759 308.38 15.3027C308.313 15.3294 307.899 15.3027 306.923 14.4741L306.576 14.1533" fill="#21150B"/>
<path d="M306.869 30.4315L304.197 35.1092L301.524 30.4315L306.869 30.4315ZM299.572 29.3356L304.17 37.3545L308.754 29.3356L299.572 29.3356Z" fill="#21150B"/>
<path d="M370.727 28.3863L379.08 28.3863L379.08 30.6183L378.051 29.6694L376.474 31.1261L374.91 29.6694L373.333 31.1261L371.756 29.6694L370.727 30.6183L370.727 28.3863ZM380.163 27.3038L369.645 27.3038L369.645 33.1576L371.756 31.2063L373.333 32.6631L374.91 31.2063L376.474 32.6631L378.051 31.2063L380.163 33.1576L380.163 27.3038Z" fill="#21150B"/>
<path d="M290.465 69.0074L291.446 69.4651L293.141 65.8316L292.16 65.3739L290.465 69.0074Z" fill="#21150B"/>
<path d="M338.958 64.1348L339.675 64.946L342.68 62.2914L341.963 61.4801L338.958 64.1348Z" fill="#21150B"/>
<path d="M272.669 51.6414L273.297 51.2805L272.669 50.198L272.669 51.6414Z" fill="#21150B"/>
<path d="M308.768 74.7225C308.767 75.2176 308.891 75.7048 309.129 76.1392L310.545 76.1392C310.251 75.9067 310.036 75.5881 309.931 75.2277C309.825 74.8673 309.835 74.4831 309.959 74.1286C310.082 73.7742 310.314 73.4671 310.62 73.2501C310.926 73.0331 311.293 72.9171 311.668 72.9182L311.668 71.7822C311.284 71.7822 310.903 71.8585 310.549 72.0068C310.194 72.155 309.873 72.3722 309.603 72.6458C309.333 72.9194 309.12 73.2438 308.977 73.6003C308.834 73.9568 308.763 74.3383 308.768 74.7225Z" fill="#21150B"/>
<path d="M302.326 57.9901C301.857 57.9928 301.398 57.856 301.007 57.597C300.616 57.3381 300.31 56.9688 300.13 56.536C299.949 56.1032 299.901 55.6265 299.992 55.1664C300.083 54.7062 300.308 54.2835 300.64 53.9519C300.972 53.6203 301.394 53.3947 301.854 53.3038C302.315 53.213 302.791 53.261 303.224 53.4417C303.657 53.6224 304.026 53.9276 304.285 54.3187C304.544 54.7097 304.681 55.1689 304.678 55.6379C304.675 56.2607 304.426 56.857 303.985 57.2973C303.545 57.7377 302.949 57.9866 302.326 57.9901ZM302.326 52.1898C301.644 52.1898 300.977 52.392 300.41 52.7709C299.843 53.1498 299.401 53.6883 299.14 54.3184C298.879 54.9485 298.811 55.6418 298.944 56.3106C299.077 56.9795 299.406 57.5939 299.888 58.0761C300.37 58.5584 300.984 58.8868 301.653 59.0198C302.322 59.1528 303.016 59.0846 303.646 58.8236C304.276 58.5626 304.814 58.1206 305.193 57.5536C305.572 56.9866 305.774 56.3199 305.774 55.6379C305.771 54.7245 305.406 53.8495 304.76 53.2036C304.114 52.5577 303.239 52.1933 302.326 52.1898Z" fill="#21150B"/>
<path d="M275.797 74.0405C276.364 74.038 276.914 74.2409 277.344 74.6118C277.774 74.9827 278.055 75.4966 278.135 76.0586L279.285 76.0586C279.226 75.2965 278.916 74.5755 278.401 74.01C277.887 73.4444 277.199 73.0666 276.446 72.9362C275.693 72.8058 274.918 72.9304 274.243 73.2901C273.569 73.6499 273.034 74.2244 272.723 74.9226L272.723 76.0586L273.511 76.0586C273.586 75.4905 273.864 74.9686 274.294 74.5901C274.724 74.2116 275.277 74.002 275.85 74.0004" fill="#21150B"/>
<path d="M325.849 74.1478L325.849 75.2303L335.284 75.2303L335.284 74.1478L325.849 74.1478Z" fill="#21150B"/>
<path d="M325.487 71.4346L327.425 73.2255L329.002 71.7687L330.566 73.2255L332.143 71.7687L333.72 73.2255L335.658 71.4346L334.923 70.6327L333.72 71.742L332.143 70.2852L330.566 71.742L329.002 70.2852L327.425 71.742L326.222 70.6327L325.487 71.4346Z" fill="#21150B"/>
<path d="M316.707 47.9924C316.586 47.7474 316.423 47.5257 316.225 47.3375C315.998 47.1103 315.958 47.0435 315.971 46.8831C315.985 46.7227 316.145 46.5624 316.386 46.3352C316.828 46.01 317.137 45.5349 317.254 44.9987L316.172 44.7982C316.087 45.0844 315.908 45.3338 315.664 45.5065C315.264 45.8017 314.987 46.2352 314.889 46.7227C314.866 46.9744 314.906 47.2277 315.004 47.4606C315.102 47.6936 315.255 47.8991 315.45 48.0592C315.553 48.1507 315.639 48.2592 315.704 48.38C315.931 48.9146 315.824 49.0349 315.53 49.3556C315.16 49.709 314.928 50.1829 314.876 50.6921C314.863 50.9731 314.916 51.253 315.03 51.5103C315.143 51.7676 315.315 51.9952 315.53 52.1756C315.824 52.483 315.891 52.5632 315.718 52.9641L315.464 53.3116C314.956 53.9798 314.341 54.8085 314.635 55.5034C314.715 55.6787 314.843 55.828 315.003 55.9343C315.164 56.0406 315.351 56.0997 315.544 56.1049L315.677 55.0223C315.859 54.6458 316.083 54.2915 316.346 53.9665C316.488 53.7967 316.614 53.6131 316.72 53.4185C316.904 53.0939 316.965 52.7138 316.891 52.348C316.817 51.9822 316.614 51.6553 316.319 51.4272C316.078 51.1599 315.958 51.0262 315.971 50.7589C316.004 50.4777 316.142 50.2195 316.359 50.0372C316.629 49.7791 316.809 49.4407 316.871 49.0724C316.934 48.704 316.876 48.3253 316.707 47.9924Z" fill="#21150B"/>
<path d="M278.416 62.6942L273.725 60.0212L278.416 57.3482L278.416 62.6942ZM279.498 64.5786L279.498 55.397L272.669 59.4064L272.669 60.7429L279.498 64.5786Z" fill="#21150B"/>
<path d="M326.316 58.2573L328.989 53.5662L331.662 58.2573L326.316 58.2573ZM333.613 59.3398L329.016 51.3878L324.432 59.3398L333.613 59.3398Z" fill="#21150B"/>
<path d="M290.378 39.1589L290.378 47.5119L288.092 47.5119L289.041 46.4828L287.598 44.9058L289.041 43.3421L287.598 41.765L289.041 40.188L288.092 39.1589L290.378 39.1589ZM285.606 38.0764L287.558 40.188L286.114 41.765L287.558 43.3421L286.114 44.9058L287.558 46.4828L285.606 48.5945L291.474 48.5945L291.474 38.0764L285.606 38.0764Z" fill="#21150B"/>
<path d="M273.404 31.9547C273.872 31.821 274.099 31.7675 274.193 31.8745C274.286 31.9814 274.126 32.2754 274.006 32.5427C273.756 32.9294 273.64 33.3874 273.677 33.8463C273.713 34.3051 273.899 34.7394 274.206 35.082L274.995 34.3336C274.634 33.9594 274.714 33.652 274.995 32.9971C275.156 32.6716 275.252 32.3173 275.275 31.9547C275.273 31.6759 275.174 31.4066 274.995 31.1929C274.433 30.5113 273.658 30.7786 273.057 30.9523C272.937 30.9523 272.776 31.0325 272.643 31.0592L272.643 32.1685C272.894 32.1347 273.141 32.0719 273.378 31.9814" fill="#21150B"/>
<path d="M272.682 30.0575C272.964 29.6675 273.122 29.2019 273.137 28.721C273.117 28.3194 272.95 27.939 272.669 27.6518L272.669 30.0575" fill="#21150B"/>
</svg>
