<svg width="77" height="391" viewBox="0 0 77 391" fill="none" xmlns="http://www.w3.org/2000/svg">
<path d="M0.0400391 260.401L0.0400391 260.521L0.935483 261.029L2.91348 257.54L1.96458 257.006L0.0400391 260.401Z" fill="#21150B"/>
<path d="M23.3625 210.018L21.3906 213.509L22.3332 214.041L24.3051 210.55L23.3625 210.018Z" fill="#21150B"/>
<path d="M28.32 271.293L27.7854 270.344L24.3105 272.349L24.4977 272.67H25.9411L28.32 271.293Z" fill="#21150B"/>
<path d="M22.6799 259.799L24.0965 262.846L26.5022 261.951L26.1146 260.922L24.6579 261.47L23.161 258.236L16.4786 262.205L15.0753 260.815L14.3135 261.577L16.3048 263.568L22.6799 259.799Z" fill="#21150B"/>
<path d="M22.8676 234.192V233.096C22.4693 233.069 22.0697 233.124 21.6935 233.258C21.3174 233.392 20.9728 233.602 20.6811 233.874C20.3894 234.147 20.1569 234.477 19.9979 234.843C19.8389 235.209 19.7568 235.604 19.7568 236.003C19.7568 236.402 19.8389 236.797 19.9979 237.164C20.1569 237.53 20.3894 237.859 20.6811 238.132C20.9728 238.404 21.3174 238.614 21.6935 238.748C22.0697 238.882 22.4693 238.937 22.8676 238.91V237.854C22.3855 237.854 21.9232 237.663 21.5823 237.322C21.2415 236.981 21.05 236.519 21.05 236.037C21.05 235.554 21.2415 235.092 21.5823 234.751C21.9232 234.41 22.3855 234.219 22.8676 234.219" fill="#21150B"/>
<path d="M11.5869 224.088C12.0553 224.086 12.514 224.222 12.9047 224.48C13.2955 224.739 13.6008 225.107 13.7819 225.539C13.963 225.971 14.0117 226.447 13.922 226.907C13.8322 227.367 13.608 227.79 13.2777 228.122C12.9474 228.454 12.5259 228.68 12.0667 228.773C11.6074 228.865 11.1311 228.819 10.6981 228.641C10.265 228.462 9.89479 228.159 9.63426 227.769C9.37373 227.38 9.23465 226.922 9.23464 226.454C9.23463 225.829 9.48203 225.229 9.92277 224.786C10.3635 224.342 10.9618 224.092 11.5869 224.088ZM11.5869 229.902C12.2671 229.894 12.9297 229.685 13.4915 229.301C14.0532 228.918 14.4889 228.376 14.7438 227.746C14.9986 227.115 15.0612 226.423 14.9237 225.757C14.7861 225.091 14.4546 224.48 13.9708 224.002C13.487 223.524 12.8726 223.199 12.2048 223.069C11.5371 222.939 10.8459 223.01 10.2181 223.272C9.5904 223.534 9.05422 223.976 8.67708 224.542C8.29994 225.108 8.09868 225.774 8.09863 226.454C8.09863 227.368 8.46192 228.245 9.10857 228.892C9.75522 229.539 10.6323 229.902 11.5468 229.902" fill="#21150B"/>
<path d="M4.55657 212.087C4.83778 212.119 5.09597 212.258 5.27828 212.474C5.53735 212.769 5.8899 212.966 6.2768 213.032C6.6637 213.097 7.06143 213.028 7.40329 212.835C7.65252 212.722 7.87552 212.558 8.05816 212.354C8.29873 212.127 8.36555 212.087 8.52593 212.1C8.68631 212.113 8.83332 212.274 9.06053 212.514C9.38815 212.954 9.86216 213.262 10.397 213.383L10.6108 212.314C10.3227 212.225 10.0731 212.041 9.90251 211.793C9.60496 211.389 9.16583 211.112 8.67295 211.018C8.42152 210.997 8.16894 211.038 7.93639 211.136C7.70384 211.233 7.49811 211.385 7.33646 211.579C7.2523 211.684 7.14771 211.77 7.02907 211.833C6.48111 212.06 6.37419 211.966 6.05344 211.659C5.69796 211.292 5.22519 211.06 4.71695 211.004C4.43586 210.991 4.15556 211.043 3.89813 211.157C3.64069 211.271 3.41316 211.443 3.23346 211.659C2.9127 211.953 2.84588 212.02 2.44493 211.846L2.08408 211.592C1.49603 211.151 0.747595 210.603 0.132812 210.697L0.132812 211.779H0.373379C0.753101 211.962 1.11163 212.187 1.44257 212.448C1.61051 212.586 1.78928 212.712 1.97716 212.822C2.30381 213.007 2.68606 213.068 3.05412 212.994C3.42218 212.921 3.75148 212.717 3.98189 212.421C4.23582 212.18 4.36947 212.06 4.65013 212.073" fill="#21150B"/>
<path d="M1.1359 241.529C1.09978 241.251 0.9987 240.985 0.840833 240.753C0.682966 240.521 0.47273 240.329 0.227092 240.193L0.0800781 240.139L0.0800781 241.61C0.104209 241.692 0.104209 241.781 0.0800781 241.863L0.0800781 243.761C0.406126 243.49 0.672007 243.154 0.860716 242.774C1.04943 242.395 1.15681 241.98 1.176 241.556" fill="#21150B"/>
<path d="M15.4365 272.669H16.7195L16.078 271.56L15.4365 272.669Z" fill="#21150B"/>
<path d="M13.4449 247.209L18.1359 249.882L13.4449 252.555L13.4449 247.209ZM12.3623 245.325L12.3623 254.507L20.3277 249.882L12.3623 245.325Z" fill="#21150B"/>
<path d="M33.396 250.126L32.7363 251.001L35.938 253.414L36.5977 252.539L33.396 250.126Z" fill="#21150B"/>
<path d="M35.944 202.343L35.4863 203.324L39.1198 205.019L39.5775 204.038L35.944 202.343Z" fill="#21150B"/>
<path d="M61.9215 231.154L58.1982 232.642L58.5999 233.647L62.3232 232.159L61.9215 231.154Z" fill="#21150B"/>
<path d="M58.4139 153.32L57.3662 153.593L58.3762 157.473L59.4238 157.2L58.4139 153.32Z" fill="#21150B"/>
<path d="M37.3824 232.629L33.6592 234.117L34.0609 235.122L37.7841 233.634L37.3824 232.629Z" fill="#21150B"/>
<path d="M68.7891 243.507H69.885C69.835 242.77 69.507 242.08 68.9674 241.576C68.4277 241.071 67.7167 240.791 66.9781 240.791C66.2396 240.791 65.5285 241.071 64.9889 241.576C64.4493 242.08 64.1213 242.77 64.0713 243.507H65.1672C65.1456 243.256 65.1764 243.004 65.2576 242.765C65.3388 242.527 65.4687 242.308 65.639 242.122C65.8092 241.937 66.0162 241.789 66.2467 241.687C66.4773 241.586 66.7263 241.534 66.9781 241.534C67.23 241.534 67.479 241.586 67.7096 241.687C67.9401 241.789 68.147 241.937 68.3173 242.122C68.4876 242.308 68.6174 242.527 68.6986 242.765C68.7799 243.004 68.8106 243.256 68.7891 243.507Z" fill="#21150B"/>
<path d="M55.6113 143.873H56.6939C56.6939 143.103 56.3883 142.366 55.8445 141.822C55.3006 141.278 54.5629 140.972 53.7937 140.972C53.0245 140.972 52.2869 141.278 51.743 141.822C51.1991 142.366 50.8936 143.103 50.8936 143.873H51.9761C51.9761 143.634 52.0231 143.398 52.1145 143.177C52.2058 142.956 52.3397 142.756 52.5085 142.587C52.6773 142.419 52.8776 142.285 53.0982 142.193C53.3187 142.102 53.555 142.055 53.7937 142.055C54.0324 142.055 54.2688 142.102 54.4893 142.193C54.7098 142.285 54.9102 142.419 55.079 142.587C55.2478 142.756 55.3816 142.956 55.473 143.177C55.5643 143.398 55.6113 143.634 55.6113 143.873Z" fill="#21150B"/>
<path d="M32.8108 218.916C33.0489 218.916 33.2846 218.963 33.5044 219.055C33.7242 219.146 33.9237 219.28 34.0914 219.449C34.2591 219.618 34.3917 219.819 34.4816 220.039C34.5715 220.26 34.6169 220.496 34.6151 220.734H35.711C35.738 220.335 35.6829 219.936 35.5491 219.56C35.4152 219.184 35.2055 218.839 34.9329 218.547C34.6604 218.256 34.3307 218.023 33.9645 217.864C33.5984 217.705 33.2034 217.623 32.8042 217.623C32.4049 217.623 32.01 217.705 31.6438 217.864C31.2776 218.023 30.948 218.256 30.6754 218.547C30.4028 218.839 30.1931 219.184 30.0593 219.56C29.9254 219.936 29.8703 220.335 29.8973 220.734H30.9932C30.9932 220.252 31.1847 219.789 31.5256 219.449C31.8665 219.108 32.3288 218.916 32.8108 218.916Z" fill="#21150B"/>
<path d="M65.2742 205.284C65.7421 205.287 66.1986 205.428 66.5862 205.69C66.9737 205.952 67.2748 206.323 67.4514 206.757C67.628 207.19 67.6722 207.666 67.5783 208.124C67.4844 208.582 67.2568 209.003 66.9241 209.332C66.5914 209.661 66.1686 209.883 65.7092 209.972C65.2498 210.061 64.7745 210.011 64.3432 209.83C63.912 209.648 63.5443 209.343 63.2865 208.953C63.0288 208.562 62.8927 208.104 62.8953 207.636C62.8953 207.326 62.9566 207.019 63.0756 206.733C63.1947 206.447 63.3691 206.187 63.589 205.968C63.8088 205.75 64.0697 205.577 64.3566 205.459C64.6435 205.342 64.9508 205.282 65.2609 205.284M65.2609 211.084C65.9428 211.084 66.6095 210.882 67.1765 210.503C67.7436 210.124 68.1855 209.586 68.4465 208.956C68.7075 208.326 68.7758 207.632 68.6427 206.963C68.5097 206.295 68.1813 205.68 67.6991 205.198C67.2168 204.716 66.6024 204.387 65.9336 204.254C65.2647 204.121 64.5714 204.189 63.9413 204.45C63.3113 204.711 62.7727 205.153 62.3939 205.72C62.015 206.287 61.8127 206.954 61.8127 207.636C61.8074 208.093 61.8931 208.547 62.0649 208.971C62.2366 209.395 62.4909 209.78 62.8131 210.105C63.1352 210.43 63.5187 210.687 63.9412 210.862C64.3638 211.037 64.8169 211.126 65.2742 211.124" fill="#21150B"/>
<path d="M49.6104 192.24H40.1748V193.323H49.6104V192.24Z" fill="#21150B"/>
<path d="M43.3148 189.874L44.8918 191.318L46.4555 189.874L48.0325 191.318L49.9838 189.527L49.2354 188.725L48.0325 189.847L46.4555 188.391L44.8918 189.847L43.3148 188.391L41.7511 189.847L40.5482 188.725L39.7998 189.527L41.7511 191.318L43.3148 189.874Z" fill="#21150B"/>
<path d="M72.9318 144.674C73.181 144.561 73.404 144.397 73.5867 144.193C73.8272 143.966 73.8941 143.926 74.0544 143.939C74.2148 143.953 74.3618 144.113 74.589 144.354C74.9167 144.793 75.3907 145.102 75.9255 145.222L76.1394 144.153C75.8512 144.064 75.6016 143.881 75.431 143.632C75.1335 143.228 74.6943 142.951 74.2015 142.857C73.95 142.837 73.6975 142.877 73.4649 142.975C73.2324 143.072 73.0266 143.225 72.865 143.418C72.7808 143.523 72.6762 143.609 72.5576 143.672C72.023 143.899 71.9027 143.806 71.5819 143.498C71.2265 143.131 70.7537 142.899 70.2455 142.843C69.9644 142.83 69.6841 142.883 69.4266 142.996C69.1692 143.11 68.9417 143.282 68.762 143.498C68.4412 143.792 68.3744 143.859 67.9734 143.685L67.6126 143.432C66.9577 142.937 66.1291 142.309 65.4341 142.603C65.2564 142.681 65.1043 142.808 64.9955 142.969C64.8867 143.129 64.8256 143.318 64.8193 143.512L65.9019 143.645C66.2792 143.825 66.6336 144.05 66.9577 144.314C67.1321 144.45 67.3151 144.575 67.5057 144.688C67.8323 144.873 68.2146 144.934 68.5826 144.86C68.9507 144.787 69.28 144.583 69.5104 144.287C69.7643 144.046 69.898 143.926 70.1786 143.939C70.4598 143.972 70.718 144.11 70.9003 144.327C71.1594 144.622 71.512 144.818 71.8989 144.884C72.2858 144.95 72.6835 144.881 73.0254 144.688" fill="#21150B"/>
<path d="M54.876 217.486C54.7739 217.234 54.6144 217.01 54.4102 216.832C54.2059 216.653 53.9627 216.525 53.6999 216.457C53.1993 216.339 52.6787 216.335 52.1765 216.446C51.6744 216.557 51.2038 216.78 50.7997 217.098C50.3405 217.431 49.8005 217.634 49.236 217.686C49.0623 217.686 48.942 217.686 48.9153 217.566C48.8885 217.446 48.8217 217.085 49.383 215.962L49.6102 215.548C50.078 214.706 50.9467 213.129 49.6102 212.127C49.2432 211.929 48.8362 211.816 48.4196 211.798C48.0031 211.779 47.5877 211.855 47.2046 212.02C46.9481 212.104 46.7176 212.253 46.535 212.452C46.3525 212.651 46.2241 212.893 46.1621 213.156L47.2447 213.343C47.2447 213.236 47.405 213.116 47.6189 213.022C48.0471 212.847 48.5271 212.847 48.9554 213.022C49.4766 213.396 49.2895 213.944 48.6881 215.027C48.5945 215.201 48.501 215.348 48.4341 215.495C47.9664 216.43 47.5921 217.406 47.9931 218.168C48.112 218.373 48.2836 218.544 48.4904 218.661C48.6971 218.779 48.9314 218.839 49.1692 218.836C49.9582 218.823 50.7238 218.566 51.361 218.101C52.0961 217.686 52.6975 217.326 53.3658 217.553C53.4746 217.573 53.5777 217.618 53.6677 217.682C53.7577 217.747 53.8326 217.83 53.887 217.927C54.034 218.328 53.5261 219.263 53.1252 219.892C52.497 220.974 51.7887 222.19 52.4703 223.153L53.3524 222.511C53.0717 222.137 53.6063 221.175 54.0607 220.44C54.5151 219.704 55.2368 218.448 54.9027 217.553" fill="#21150B"/>
<path d="M61.9865 170.268C62.6413 169.546 63.8575 168.223 62.7215 166.927C62.4092 166.648 62.0374 166.444 61.6345 166.331C61.2315 166.217 60.808 166.197 60.3961 166.272C60.1152 166.281 59.842 166.366 59.6064 166.519C59.3708 166.673 59.1816 166.887 59.0596 167.141L60.0619 167.555C60.0619 167.461 60.2758 167.381 60.503 167.341C60.7341 167.299 60.9712 167.304 61.2006 167.354C61.43 167.405 61.6472 167.5 61.8395 167.635C62.2671 168.116 61.9597 168.611 61.1311 169.533L60.7703 169.92C60.102 170.736 59.514 171.591 59.7412 172.366C59.8091 172.594 59.9366 172.8 60.1104 172.962C60.2843 173.124 60.4982 173.237 60.7302 173.288C61.5031 173.462 62.3108 173.392 63.0423 173.088C63.8575 172.847 64.5525 172.647 65.1138 173.008C65.3678 173.168 65.5148 173.342 65.5282 173.489C65.5282 173.917 64.9 174.652 64.3387 175.226C63.4833 176.135 62.5077 177.164 63.0022 178.247L64.0046 177.832C63.8308 177.405 64.5525 176.643 65.1807 175.975C65.8088 175.307 66.7844 174.304 66.6642 173.369C66.628 173.09 66.527 172.824 66.3691 172.592C66.2112 172.36 66.001 172.168 65.7554 172.032C65.2928 171.808 64.7856 171.692 64.2719 171.692C63.7581 171.692 63.2509 171.808 62.7884 172.032C62.2665 172.256 61.6927 172.33 61.1311 172.246C60.9707 172.246 60.8638 172.126 60.8371 172.059C60.8104 171.992 60.8371 171.578 61.6657 170.602L61.9865 170.255" fill="#21150B"/>
<path d="M48.8486 272.135C48.9614 271.802 48.9799 271.445 48.9021 271.103C48.8242 270.761 48.653 270.447 48.4076 270.197L47.6057 270.945C47.7134 271.045 47.7916 271.173 47.8317 271.314C47.8717 271.456 47.8722 271.605 47.8329 271.747C47.7919 271.843 47.7225 271.924 47.6341 271.979C47.5456 272.034 47.4424 272.06 47.3384 272.054C47.0833 271.984 46.8401 271.876 46.6167 271.734C45.9885 271.373 44.8124 270.705 44.0907 271.907C43.9675 272.141 43.9163 272.406 43.9437 272.669H45.053C45.036 272.604 45.036 272.535 45.053 272.469C45.1733 272.268 45.2267 272.188 46.0821 272.669H48.5279C48.6754 272.514 48.7932 272.333 48.8753 272.135" fill="#21150B"/>
<path d="M48.4074 255.616L51.0804 260.307H45.7344L48.4074 255.616ZM48.4074 253.437L43.8232 261.456H53.0049L48.4074 253.437Z" fill="#21150B"/>
<path d="M45.7081 170.548L41.0304 167.875L45.7081 165.202V170.548ZM46.8041 163.251L38.7852 167.849L46.8041 172.433V163.251Z" fill="#21150B"/>
<path d="M47.7527 234.406V242.759H45.5208L46.4697 241.73L45.0129 240.153L46.4697 238.589L45.0129 237.012L46.4697 235.435L45.5208 234.406H47.7527ZM48.8352 243.842V233.323H42.9814L44.9327 235.435L43.4759 237.012L44.9327 238.589L43.4759 240.153L44.9327 241.73L42.9814 243.842H48.8352Z" fill="#21150B"/>
<path d="M7.13736 154.14L6.67969 155.121L10.3132 156.816L10.7709 155.835L7.13736 154.14Z" fill="#21150B"/>
<path d="M11.9998 202.65L11.1885 203.366L13.8431 206.371L14.6544 205.654L11.9998 202.65Z" fill="#21150B"/>
<path d="M24.498 136.348L24.8589 136.976L25.9414 136.348H24.498Z" fill="#21150B"/>
<path d="M1.41667 172.447C0.9216 172.446 0.434314 172.57 0 172.807L0 174.224C0.232466 173.929 0.551082 173.714 0.911461 173.609C1.27184 173.504 1.65603 173.514 2.01051 173.638C2.36499 173.761 2.67211 173.992 2.88907 174.299C3.10603 174.605 3.22204 174.971 3.22093 175.347H4.35694C4.35697 174.962 4.28065 174.582 4.1324 174.228C3.98416 173.873 3.76694 173.552 3.49337 173.282C3.2198 173.012 2.89534 172.799 2.53884 172.656C2.18233 172.512 1.80089 172.441 1.41667 172.447Z" fill="#21150B"/>
<path d="M18.1487 166.005C18.146 165.536 18.2828 165.077 18.5418 164.686C18.8007 164.294 19.17 163.989 19.6028 163.808C20.0356 163.628 20.5123 163.58 20.9724 163.671C21.4325 163.762 21.8553 163.987 22.1869 164.319C22.5185 164.65 22.7441 165.073 22.835 165.533C22.9258 165.993 22.8778 166.47 22.6971 166.903C22.5164 167.336 22.2112 167.705 21.8201 167.964C21.4291 168.223 20.9699 168.36 20.5009 168.357C19.8781 168.353 19.2818 168.105 18.8415 167.664C18.4011 167.224 18.1522 166.628 18.1487 166.005ZM23.949 166.005C23.949 165.323 23.7468 164.656 23.3679 164.089C22.989 163.522 22.4505 163.08 21.8204 162.819C21.1903 162.558 20.497 162.49 19.8282 162.623C19.1593 162.756 18.5449 163.084 18.0627 163.567C17.5804 164.049 17.252 164.663 17.119 165.332C16.9859 166.001 17.0542 166.694 17.3152 167.324C17.5762 167.954 18.0181 168.493 18.5852 168.872C19.1522 169.251 19.8189 169.453 20.5009 169.453C21.4143 169.449 22.2893 169.085 22.9352 168.439C23.5811 167.793 23.9455 166.918 23.949 166.005Z" fill="#21150B"/>
<path d="M2.09915 139.476C2.10168 140.043 1.89876 140.593 1.52785 141.023C1.15694 141.453 0.643064 141.734 0.0810547 141.814L0.0810547 142.964C0.843188 142.905 1.5641 142.595 2.12965 142.08C2.69521 141.566 3.07309 140.878 3.20347 140.125C3.33386 139.372 3.20929 138.597 2.8495 137.922C2.48971 137.248 1.91525 136.713 1.21707 136.402H0.0810547L0.0810547 137.19C0.649197 137.265 1.171 137.543 1.54954 137.973C1.92808 138.403 2.13762 138.956 2.13924 139.529" fill="#21150B"/>
<path d="M1.99173 189.527H0.90918L0.90918 198.963H1.99173L1.99173 189.527Z" fill="#21150B"/>
<path d="M4.70495 189.166L2.91406 191.104L4.37083 192.681L2.91406 194.245L4.37083 195.822L2.91406 197.399L4.70495 199.337L5.50684 198.602L4.39756 197.399L5.85433 195.822L4.39756 194.245L5.85433 192.681L4.39756 191.104L5.50684 189.901L4.70495 189.166Z" fill="#21150B"/>
<path d="M28.1466 180.385C28.3916 180.265 28.6133 180.102 28.8015 179.904C29.0287 179.677 29.0955 179.637 29.2559 179.65C29.4163 179.664 29.5767 179.824 29.8039 180.064C30.129 180.507 30.6041 180.816 31.1404 180.933L31.3408 179.851C31.0546 179.765 30.8052 179.586 30.6325 179.343C30.3373 178.942 29.9038 178.666 29.4163 178.568C29.1647 178.545 28.9113 178.585 28.6784 178.682C28.4455 178.78 28.24 178.934 28.0798 179.129C27.9884 179.231 27.8798 179.317 27.7591 179.383C27.2245 179.61 27.1042 179.503 26.7834 179.209C26.43 178.839 25.9561 178.607 25.4469 178.554C25.166 178.542 24.886 178.595 24.6287 178.708C24.3715 178.822 24.1438 178.993 23.9634 179.209C23.6561 179.503 23.5759 179.57 23.1749 179.396L22.8274 179.142C22.1592 178.634 21.3306 178.02 20.6356 178.314C20.4603 178.394 20.311 178.521 20.2047 178.682C20.0984 178.843 20.0393 179.03 20.0342 179.222L21.1167 179.356C21.4932 179.537 21.8475 179.762 22.1726 180.024C22.3423 180.167 22.5259 180.292 22.7205 180.399C23.0451 180.583 23.4252 180.643 23.791 180.57C24.1568 180.496 24.4838 180.293 24.7119 179.998C24.9792 179.757 25.1128 179.637 25.3801 179.65C25.6613 179.683 25.9195 179.821 26.1018 180.038C26.36 180.308 26.6983 180.487 27.0667 180.55C27.435 180.613 27.8137 180.555 28.1466 180.385Z" fill="#21150B"/>
<path d="M13.445 142.095L16.118 137.404L18.7909 142.095H13.445ZM11.5605 143.178H20.7422L16.7327 136.348H15.3963L11.5605 143.178Z" fill="#21150B"/>
<path d="M17.8824 189.995L22.5734 192.668L17.8824 195.34V189.995ZM16.7998 197.292L24.7519 192.694L16.7998 188.11V197.292Z" fill="#21150B"/>
<path d="M36.9805 154.057H28.6275V151.771L29.6566 152.72L31.2336 151.277L32.7973 152.72L34.3744 151.277L35.9514 152.72L36.9805 151.771V154.057ZM38.063 149.286L35.9514 151.237L34.3744 149.794L32.7973 151.237L31.2336 149.794L29.6566 151.237L27.5449 149.286V155.153H38.063V149.286Z" fill="#21150B"/>
<path d="M44.185 137.083C44.3186 137.551 44.3721 137.778 44.2652 137.872C44.1583 137.965 43.8642 137.872 43.5969 137.685C43.2103 137.435 42.7522 137.319 42.2934 137.355C41.8345 137.392 41.4003 137.578 41.0576 137.885L41.8061 138.674C42.1803 138.313 42.4877 138.393 43.1425 138.674C43.4681 138.835 43.8224 138.93 44.185 138.954C44.4638 138.952 44.7331 138.853 44.9468 138.674C45.6284 138.112 45.3611 137.337 45.1874 136.736C45.1874 136.615 45.1072 136.455 45.0804 136.321H43.9712C44.005 136.573 44.0677 136.819 44.1583 137.056" fill="#21150B"/>
<path d="M46.082 136.362C46.4721 136.643 46.9376 136.801 47.4185 136.816C47.8201 136.796 48.2005 136.63 48.4877 136.348H46.082" fill="#21150B"/>
<path d="M0.0400391 124.079L0.0400391 124.2L0.935483 124.707L2.91348 121.219L1.96458 120.685L0.0400391 124.079Z" fill="#21150B"/>
<path d="M23.3606 73.7033L21.3887 77.1943L22.3313 77.7268L24.3032 74.2357L23.3606 73.7033Z" fill="#21150B"/>
<path d="M28.32 134.971L27.7854 134.022L24.3105 136.041L24.4977 136.348H25.9411L28.32 134.971Z" fill="#21150B"/>
<path d="M22.6799 123.464L24.0965 126.525L26.5022 125.629L26.1146 124.6L24.6579 125.148L23.161 121.914L16.4786 125.883L15.0753 124.493L14.3135 125.255L16.3048 127.246L22.6799 123.464Z" fill="#21150B"/>
<path d="M22.8676 97.8707V96.7747C22.4693 96.7477 22.0697 96.8028 21.6935 96.9367C21.3174 97.0705 20.9728 97.2803 20.6811 97.5528C20.3894 97.8254 20.1569 98.155 19.9979 98.5212C19.8389 98.8874 19.7568 99.2824 19.7568 99.6816C19.7568 100.081 19.8389 100.476 19.9979 100.842C20.1569 101.208 20.3894 101.538 20.6811 101.81C20.9728 102.083 21.3174 102.293 21.6935 102.427C22.0697 102.56 22.4693 102.615 22.8676 102.588V101.533C22.3855 101.533 21.9232 101.341 21.5823 101C21.2415 100.659 21.05 100.197 21.05 99.715C21.05 99.2329 21.2415 98.7706 21.5823 98.4298C21.9232 98.0889 22.3855 97.8974 22.8676 97.8974" fill="#21150B"/>
<path d="M11.5869 87.7669C12.0553 87.7642 12.514 87.9007 12.9047 88.159C13.2955 88.4174 13.6008 88.7859 13.7819 89.2179C13.963 89.6499 14.0117 90.126 13.922 90.5857C13.8322 91.0455 13.608 91.4682 13.2777 91.8004C12.9474 92.1326 12.5259 92.3592 12.0667 92.4516C11.6074 92.5439 11.1311 92.4979 10.6981 92.3192C10.265 92.1406 9.89479 91.8374 9.63426 91.4481C9.37373 91.0588 9.23465 90.6009 9.23464 90.1325C9.23463 89.5074 9.48203 88.9077 9.92277 88.4645C10.3635 88.0212 10.9618 87.7704 11.5869 87.7669ZM11.5869 93.5806C12.2671 93.5727 12.9297 93.3638 13.4915 92.9801C14.0532 92.5964 14.4889 92.0552 14.7438 91.4245C14.9986 90.7937 15.0612 90.1017 14.9237 89.4355C14.7861 88.7693 14.4546 88.1587 13.9708 87.6805C13.487 87.2022 12.8726 86.8778 12.2048 86.748C11.5371 86.6181 10.8459 86.6887 10.2181 86.9508C9.5904 87.2129 9.05422 87.6549 8.67708 88.221C8.29994 88.7872 8.09868 89.4522 8.09863 90.1325C8.09863 91.047 8.46192 91.924 9.10857 92.5707C9.75522 93.2173 10.6323 93.5806 11.5468 93.5806" fill="#21150B"/>
<path d="M4.5573 75.7652C4.83851 75.7976 5.0967 75.9362 5.279 76.1528C5.53808 76.4475 5.89063 76.6443 6.27753 76.71C6.66443 76.7757 7.06215 76.7063 7.40401 76.5136C7.65325 76.4003 7.87625 76.2365 8.05889 76.0325C8.29945 75.8053 8.36628 75.7652 8.52666 75.7786C8.68703 75.7919 8.83405 75.9523 9.06125 76.1929C9.38888 76.6326 9.86289 76.9407 10.3977 77.0616L10.6116 75.9924C10.3234 75.9035 10.0738 75.7198 9.90324 75.4712C9.60569 75.0671 9.16655 74.7902 8.67367 74.696C8.42225 74.6759 8.16966 74.7163 7.93711 74.814C7.70456 74.9117 7.49883 75.0637 7.33719 75.2573C7.25302 75.362 7.14843 75.4484 7.02979 75.5113C6.48184 75.7385 6.37492 75.6449 6.05416 75.3375C5.69868 74.97 5.22592 74.7384 4.71768 74.6826C4.43658 74.6695 4.15628 74.7218 3.89885 74.8355C3.64142 74.9491 3.41389 75.121 3.23418 75.3375C2.91342 75.6315 2.8466 75.6984 2.44565 75.5246L2.0848 75.2707C1.41656 74.8029 0.681496 74.2817 0.0800781 74.3752L0.0800781 75.4578H0.320645C0.710276 75.6433 1.07788 75.872 1.41656 76.1394C1.58451 76.2782 1.76327 76.4033 1.95116 76.5136C2.2778 76.6985 2.66006 76.7598 3.02812 76.6862C3.39618 76.6125 3.72548 76.409 3.95588 76.1127C4.20981 75.8721 4.34346 75.7518 4.62412 75.7652" fill="#21150B"/>
<path d="M1.1359 105.208C1.09978 104.93 0.9987 104.664 0.840833 104.431C0.682966 104.199 0.47273 104.008 0.227092 103.872L0.0800781 103.818L0.0800781 105.288C0.104209 105.371 0.104209 105.459 0.0800781 105.542L0.0800781 107.413C0.406126 107.142 0.672007 106.806 0.860716 106.426C1.04943 106.047 1.15681 105.632 1.176 105.208" fill="#21150B"/>
<path d="M15.4365 136.348H16.7195L16.078 135.239L15.4365 136.348Z" fill="#21150B"/>
<path d="M13.4449 110.888L18.1359 113.561L13.4449 116.234L13.4449 110.888ZM12.3623 109.004L12.3623 118.185L20.3277 113.561L12.3623 109.004Z" fill="#21150B"/>
<path d="M33.396 113.805L32.7363 114.68L35.938 117.094L36.5977 116.219L33.396 113.805Z" fill="#21150B"/>
<path d="M35.9489 66.0038L35.4912 66.9849L39.1247 68.68L39.5824 67.6989L35.9489 66.0038Z" fill="#21150B"/>
<path d="M61.9264 94.8341L58.2031 96.3218L58.6048 97.327L62.328 95.8394L61.9264 94.8341Z" fill="#21150B"/>
<path d="M58.4217 16.9978L57.374 17.2705L58.384 21.1507L59.4317 20.878L58.4217 16.9978Z" fill="#21150B"/>
<path d="M37.3863 96.3092L33.6631 97.7969L34.0648 98.8021L37.788 97.3145L37.3863 96.3092Z" fill="#21150B"/>
<path d="M68.7891 107.186H69.885C69.835 106.449 69.507 105.759 68.9674 105.254C68.4277 104.75 67.7167 104.469 66.9781 104.469C66.2396 104.469 65.5285 104.75 64.9889 105.254C64.4493 105.759 64.1213 106.449 64.0713 107.186H65.1672C65.1456 106.935 65.1764 106.682 65.2576 106.444C65.3388 106.206 65.4687 105.987 65.639 105.801C65.8092 105.616 66.0162 105.467 66.2467 105.366C66.4773 105.265 66.7263 105.212 66.9781 105.212C67.23 105.212 67.479 105.265 67.7096 105.366C67.9401 105.467 68.147 105.616 68.3173 105.801C68.4876 105.987 68.6174 106.206 68.6986 106.444C68.7799 106.682 68.8106 106.935 68.7891 107.186Z" fill="#21150B"/>
<path d="M55.6113 7.55105H56.6939C56.6939 6.78188 56.3883 6.04421 55.8445 5.50032C55.3006 4.95643 54.5629 4.65088 53.7937 4.65088C53.0245 4.65088 52.2869 4.95643 51.743 5.50032C51.1991 6.04421 50.8936 6.78188 50.8936 7.55105H51.9761C51.9761 7.06899 52.1676 6.60667 52.5085 6.2658C52.8493 5.92493 53.3117 5.73343 53.7937 5.73343C54.2758 5.73343 54.7381 5.92493 55.079 6.2658C55.4198 6.60667 55.6113 7.06899 55.6113 7.55105Z" fill="#21150B"/>
<path d="M32.8108 82.5949C33.0489 82.5949 33.2846 82.642 33.5044 82.7335C33.7242 82.825 33.9237 82.9591 34.0914 83.1281C34.2591 83.297 34.3917 83.4975 34.4816 83.7179C34.5715 83.9384 34.6169 84.1744 34.6151 84.4125H35.711C35.738 84.0142 35.6829 83.6146 35.5491 83.2385C35.4152 82.8623 35.2055 82.5177 34.9329 82.2261C34.6604 81.9344 34.3307 81.7018 33.9645 81.5428C33.5984 81.3838 33.2034 81.3018 32.8042 81.3018C32.4049 81.3018 32.01 81.3838 31.6438 81.5428C31.2776 81.7018 30.948 81.9344 30.6754 82.2261C30.4028 82.5177 30.1931 82.8623 30.0593 83.2385C29.9254 83.6146 29.8703 84.0142 29.8973 84.4125H30.9932C30.9932 83.9304 31.1847 83.4681 31.5256 83.1273C31.8665 82.7864 32.3288 82.5949 32.8108 82.5949Z" fill="#21150B"/>
<path d="M65.2742 68.9626C65.7421 68.9653 66.1986 69.1066 66.5862 69.3687C66.9737 69.6309 67.2748 70.002 67.4514 70.4353C67.628 70.8685 67.6722 71.3444 67.5783 71.8028C67.4844 72.2611 67.2568 72.6813 66.9241 73.0103C66.5914 73.3392 66.1686 73.5622 65.7092 73.6508C65.2498 73.7395 64.7745 73.69 64.3432 73.5085C63.912 73.327 63.5443 73.0218 63.2865 72.6313C63.0288 72.2408 62.8927 71.7827 62.8953 71.3148C62.8953 71.0048 62.9566 70.6978 63.0756 70.4116C63.1947 70.1253 63.3691 69.8654 63.589 69.6468C63.8088 69.4282 64.0697 69.2552 64.3566 69.1378C64.6435 69.0204 64.9508 68.9609 65.2609 68.9626M65.2609 74.763C65.9428 74.763 66.6095 74.5607 67.1765 74.1818C67.7436 73.803 68.1855 73.2644 68.4465 72.6344C68.7075 72.0043 68.7758 71.311 68.6427 70.6421C68.5097 69.9733 68.1813 69.3589 67.6991 68.8766C67.2168 68.3944 66.6024 68.066 65.9336 67.933C65.2647 67.7999 64.5714 67.8682 63.9413 68.1292C63.3113 68.3902 62.7727 68.8321 62.3939 69.3992C62.015 69.9662 61.8127 70.6329 61.8127 71.3148C61.8074 71.7721 61.8931 72.2259 62.0649 72.6498C62.2366 73.0737 62.4909 73.4591 62.8131 73.7837C63.1352 74.1084 63.5187 74.3657 63.9412 74.5407C64.3638 74.7157 64.8169 74.8049 65.2742 74.8031" fill="#21150B"/>
<path d="M49.6104 55.9321H40.1748V57.0147H49.6104V55.9321Z" fill="#21150B"/>
<path d="M43.3148 53.5528L44.8918 54.9962L46.4555 53.5528L48.0325 54.9962L49.9838 53.2054L49.2354 52.4168L48.0325 53.5261L46.4555 52.0693L44.8918 53.5261L43.3148 52.0693L41.7511 53.5261L40.5482 52.4168L39.7998 53.2054L41.7511 54.9962L43.3148 53.5528Z" fill="#21150B"/>
<path d="M72.9316 8.35284C73.1808 8.23952 73.4038 8.07568 73.5865 7.87171C73.827 7.6445 73.8939 7.60441 74.0542 7.61777C74.2146 7.63114 74.3616 7.79152 74.5888 8.03208C74.9165 8.47179 75.3905 8.7799 75.9253 8.9008L76.1392 7.83161C75.851 7.74275 75.6014 7.55906 75.4308 7.31038C75.1333 6.9063 74.6941 6.62946 74.2013 6.53522C73.9498 6.51509 73.6973 6.55556 73.4647 6.65323C73.2322 6.7509 73.0264 6.90292 72.8648 7.09655C72.7806 7.20118 72.676 7.28758 72.5574 7.35048C72.0228 7.57768 71.9025 7.48413 71.5817 7.17673C71.2263 6.80924 70.7535 6.57759 70.2453 6.52186C69.9642 6.50873 69.6839 6.56105 69.4264 6.67469C69.169 6.78833 68.9415 6.96019 68.7618 7.17673C68.441 7.47076 68.3742 7.53759 67.9732 7.36384L67.6124 7.10991C66.9041 6.64214 66.0353 5.98726 65.3404 6.28129C65.1626 6.35935 65.0105 6.48611 64.9018 6.64693C64.793 6.80774 64.7319 6.99605 64.7256 7.1901L65.8081 7.32375C66.1987 7.49667 66.5667 7.71658 66.9041 7.97863C67.0784 8.11511 67.2614 8.24012 67.452 8.35284C67.7787 8.53774 68.1609 8.59898 68.529 8.52537C68.897 8.45176 69.2263 8.24821 69.4567 7.9519C69.7107 7.71133 69.8443 7.59104 70.125 7.60441C70.4062 7.63679 70.6644 7.77545 70.8467 7.99199C71.1058 8.28675 71.4583 8.48348 71.8452 8.54918C72.2321 8.61488 72.6298 8.54556 72.9717 8.35284" fill="#21150B"/>
<path d="M54.876 81.1646C54.7739 80.9131 54.6144 80.6891 54.4102 80.5103C54.2059 80.3316 53.9627 80.2033 53.6999 80.1355C53.1993 80.0176 52.6787 80.0141 52.1765 80.1251C51.6744 80.2362 51.2038 80.459 50.7997 80.777C50.3405 81.1094 49.8005 81.3125 49.236 81.3651C49.0623 81.3651 48.942 81.3651 48.9153 81.2448C48.8885 81.1245 48.8217 80.7636 49.383 79.641L49.6102 79.2267C50.078 78.3847 50.9467 76.8077 49.6102 75.8053C49.2432 75.6073 48.8362 75.4949 48.4196 75.4764C48.0031 75.4578 47.5877 75.5337 47.2046 75.6984C46.9481 75.7827 46.7176 75.9314 46.535 76.1303C46.3525 76.3292 46.2241 76.5716 46.1621 76.8344L47.2447 77.0215C47.2447 76.9146 47.405 76.7943 47.6189 76.7007C48.0471 76.5255 48.5271 76.5255 48.9554 76.7007C49.4766 77.0749 49.2895 77.6229 48.6881 78.7055C48.5945 78.8792 48.501 79.0262 48.4341 79.1732C47.9664 80.1088 47.5921 81.0844 47.9931 81.8462C48.112 82.0521 48.2836 82.2226 48.4904 82.3401C48.6971 82.4576 48.9314 82.5178 49.1692 82.5144C49.9582 82.5015 50.7238 82.2448 51.361 81.7794C52.0961 81.3651 52.6975 81.0042 53.3658 81.2314C53.4746 81.2521 53.5777 81.2963 53.6677 81.361C53.7577 81.4256 53.8326 81.5091 53.887 81.6056C54.034 82.0066 53.5261 82.9421 53.1252 83.5703C52.497 84.6528 51.7887 85.869 52.4703 86.8313L53.3524 86.1898C53.0717 85.8156 53.6063 84.8533 54.0607 84.1182C54.6354 83.1292 55.2368 82.1269 54.9027 81.2314" fill="#21150B"/>
<path d="M61.9865 33.9464C62.6413 33.2247 63.8575 31.9016 62.7215 30.6052C62.4092 30.3264 62.0374 30.1226 61.6345 30.0091C61.2315 29.8956 60.808 29.8755 60.3961 29.9503C60.1152 29.9591 59.842 30.0447 59.6064 30.1979C59.3708 30.3511 59.1816 30.5659 59.0596 30.8191L60.0619 31.2334C60.0619 31.1398 60.2758 31.0596 60.503 31.0195C60.7341 30.9778 60.9712 30.9823 61.2006 31.0328C61.43 31.0832 61.6472 31.1787 61.8395 31.3136C62.2671 31.7947 61.9597 32.2892 61.1311 33.2114L60.7703 33.5989C60.102 34.4142 59.514 35.2696 59.7412 36.0447C59.8091 36.2725 59.9366 36.478 60.1104 36.6401C60.2843 36.8022 60.4982 36.915 60.7302 36.9669C61.5031 37.1404 62.3108 37.0704 63.0423 36.7664C63.8575 36.5258 64.5525 36.3254 65.1138 36.6862C65.3678 36.8466 65.5148 37.0203 65.5282 37.1674C65.5282 37.595 64.9 38.3301 64.3387 38.9048C63.4833 39.8136 62.5077 40.8427 63.0022 41.9252L64.0046 41.5109C63.8308 41.0833 64.5525 40.3215 65.1807 39.6532C65.8088 38.985 66.7844 37.9826 66.6642 37.0471C66.628 36.7687 66.527 36.5026 66.3691 36.2705C66.2112 36.0383 66.001 35.8465 65.7554 35.7106C65.2928 35.4869 64.7856 35.3708 64.2719 35.3708C63.7581 35.3708 63.2509 35.4869 62.7884 35.7106C62.2665 35.9342 61.6927 36.0083 61.1311 35.9244C60.9707 35.9244 60.8638 35.8041 60.8371 35.7373C60.8104 35.6705 60.8371 35.2562 61.6657 34.2806L61.9865 33.9331" fill="#21150B"/>
<path d="M48.8486 135.813C48.9614 135.481 48.9799 135.124 48.9021 134.782C48.8242 134.44 48.653 134.126 48.4076 133.875L47.6057 134.624C47.7134 134.724 47.7916 134.852 47.8317 134.993C47.8717 135.134 47.8722 135.284 47.8329 135.426C47.7919 135.522 47.7225 135.602 47.6341 135.657C47.5456 135.712 47.4424 135.739 47.3384 135.733C47.0833 135.663 46.8401 135.555 46.6167 135.412C45.9885 135.052 44.8124 134.383 44.0907 135.586C43.9675 135.82 43.9163 136.085 43.9437 136.348H45.053C45.036 136.282 45.036 136.213 45.053 136.148C45.1733 135.947 45.2267 135.867 46.0821 136.348H48.5279C48.6754 136.193 48.7932 136.011 48.8753 135.813" fill="#21150B"/>
<path d="M48.4074 119.294L51.0804 123.985H45.7344L48.4074 119.294ZM48.4074 117.116L43.8232 125.135H53.0049L48.4074 117.116Z" fill="#21150B"/>
<path d="M45.7074 34.2274L41.0297 31.5544L45.7074 28.8814V34.2274ZM46.8568 26.9302L38.8379 31.5277L46.8568 36.1118V26.9302Z" fill="#21150B"/>
<path d="M47.7527 98.0847V106.438H45.5208L46.4697 105.409L45.0129 103.832L46.4697 102.268L45.0129 100.691L46.4697 99.1138L45.5208 98.0847H47.7527ZM48.8352 107.52V97.0022H42.9814L44.9327 99.1138L43.4759 100.691L44.9327 102.268L43.4759 103.832L44.9327 105.409L42.9814 107.52H48.8352Z" fill="#21150B"/>
<path d="M7.14322 17.8012L6.68555 18.7822L10.319 20.4773L10.7767 19.4963L7.14322 17.8012Z" fill="#21150B"/>
<path d="M11.9939 66.3272L11.1826 67.0439L13.8373 70.0487L14.6485 69.3319L11.9939 66.3272Z" fill="#21150B"/>
<path d="M1.41656 36.125C0.948697 36.1372 0.490504 36.2609 0.0800781 36.4859L0.0800781 37.9026C0.312544 37.6078 0.631161 37.3929 0.991539 37.2878C1.35192 37.1827 1.73611 37.1926 2.09059 37.3161C2.44507 37.4397 2.75219 37.6707 2.96915 37.9771C3.18611 38.2834 3.30212 38.6498 3.301 39.0252H4.35683C4.35686 38.641 4.28054 38.2605 4.13229 37.906C3.98404 37.5515 3.76683 37.23 3.49326 36.9602C3.21969 36.6903 2.89523 36.4775 2.53873 36.3342C2.18222 36.1908 1.80078 36.1197 1.41656 36.125Z" fill="#21150B"/>
<path d="M18.1496 29.6835C18.147 29.2145 18.2838 28.7553 18.5427 28.3642C18.8016 27.9732 19.171 27.6679 19.6037 27.4872C20.0365 27.3065 20.5133 27.2585 20.9734 27.3494C21.4335 27.4402 21.8562 27.6658 22.1879 27.9974C22.5195 28.3291 22.7451 28.7518 22.8359 29.2119C22.9268 29.672 22.8788 30.1488 22.6981 30.5816C22.5174 31.0144 22.2121 31.3837 21.8211 31.6426C21.43 31.9015 20.9708 32.0383 20.5018 32.0357C19.8791 32.0322 19.2828 31.7832 18.8425 31.3429C18.4021 30.9025 18.1531 30.3062 18.1496 29.6835ZM23.95 29.6835C23.95 29.0015 23.7477 28.3348 23.3689 27.7678C22.99 27.2008 22.4514 26.7588 21.8214 26.4978C21.1913 26.2368 20.498 26.1686 19.8291 26.3016C19.1603 26.4347 18.5459 26.7631 18.0636 27.2453C17.5814 27.7275 17.253 28.3419 17.12 29.0108C16.9869 29.6797 17.0552 30.373 17.3162 31.003C17.5772 31.6331 18.0191 32.1716 18.5862 32.5505C19.1532 32.9294 19.8199 33.1316 20.5018 33.1316C21.4153 33.1281 22.2903 32.7637 22.9361 32.1178C23.582 31.4719 23.9465 30.5969 23.95 29.6835Z" fill="#21150B"/>
<path d="M2.09817 3.15423C2.1007 3.72199 1.89779 4.2715 1.52688 4.70137C1.15596 5.13123 0.642088 5.41243 0.0800781 5.49307L0.0800781 6.64245C0.860333 6.59978 1.60272 6.29234 2.18468 5.77086C2.76665 5.24939 3.15341 4.54507 3.28111 3.77415C3.40882 3.00324 3.26984 2.21182 2.88712 1.53054C2.5044 0.849263 1.90081 0.318848 1.176 0.0268555L0.0800781 0.0268555L0.0800781 0.815381C0.640923 0.898668 1.1532 1.18063 1.52361 1.60991C1.89401 2.03919 2.09791 2.58723 2.09817 3.15423Z" fill="#21150B"/>
<path d="M1.99173 53.2056H0.90918L0.90918 62.6411H1.99173L1.99173 53.2056Z" fill="#21150B"/>
<path d="M4.70495 52.8447L2.91406 54.7826L4.37083 56.3597L2.91406 57.9234L4.37083 59.5004L2.91406 61.0775L4.70495 63.0154L5.50684 62.2803L4.39756 61.0775L5.85433 59.5004L4.39756 57.9234L5.85433 56.3597L4.39756 54.7826L5.50684 53.5798L4.70495 52.8447Z" fill="#21150B"/>
<path d="M28.147 44.0641C28.392 43.9436 28.6137 43.7808 28.8019 43.583C29.0291 43.3558 29.0959 43.3157 29.2563 43.329C29.4167 43.3424 29.577 43.5028 29.8042 43.7434C30.1294 44.1857 30.6045 44.4945 31.1407 44.6121L31.3412 43.5295C31.055 43.4441 30.8056 43.2653 30.6329 43.0216C30.3377 42.6213 29.9042 42.3451 29.4167 42.2465C29.165 42.2241 28.9117 42.2635 28.6788 42.3613C28.4458 42.4592 28.2403 42.6124 28.0802 42.8078C27.9887 42.9103 27.8802 42.9963 27.7594 43.0617C27.2248 43.2889 27.1045 43.182 26.7838 42.888C26.4304 42.5177 25.9565 42.2855 25.4473 42.2331C25.1663 42.221 24.8864 42.2738 24.6291 42.3874C24.3718 42.5009 24.1442 42.6723 23.9638 42.888C23.6564 43.182 23.5762 43.2489 23.1753 43.0751L22.8011 42.8078C22.1328 42.2999 21.3042 41.6852 20.6092 41.9792C20.434 42.0592 20.2847 42.1868 20.1783 42.3475C20.072 42.5081 20.0129 42.6954 20.0078 42.888L21.0904 43.0216C21.4669 43.203 21.8212 43.4272 22.1462 43.6899C22.316 43.8325 22.4995 43.9579 22.6941 44.0641C23.0188 44.2481 23.3988 44.3089 23.7646 44.2352C24.1304 44.1616 24.4574 43.9585 24.6855 43.6632C24.9528 43.4226 25.0865 43.3023 25.3537 43.3157C25.635 43.3481 25.8931 43.4867 26.0755 43.7033C26.3339 43.9815 26.6763 44.1675 27.0504 44.2326C27.4246 44.2978 27.8097 44.2386 28.147 44.0641Z" fill="#21150B"/>
<path d="M16.1178 1.08268L18.7907 5.77374L13.4448 5.77374L16.1178 1.08268ZM15.4762 0.0268555L11.4668 6.85629L20.6618 6.85629L16.6524 0.0268555L15.4762 0.0268555Z" fill="#21150B"/>
<path d="M17.8824 53.673L22.5734 56.346L17.8824 59.019V53.673ZM16.7998 60.9702L24.7519 56.3727L16.7998 51.7886V60.9702Z" fill="#21150B"/>
<path d="M36.9805 17.7356H28.6275V15.4502L29.6566 16.3991L31.2336 14.9557L32.7973 16.3991L34.3744 14.9557L35.9514 16.3991L36.9805 15.4502V17.7356ZM38.063 12.9644L35.9514 14.9156L34.3744 13.4722L32.7973 14.9156L31.2336 13.4722L29.6566 14.9156L27.5449 12.9644V18.8315H38.063V12.9644Z" fill="#21150B"/>
<path d="M44.185 0.761796C44.3186 1.22957 44.3721 1.45677 44.2652 1.55032C44.1583 1.64388 43.8642 1.55032 43.5969 1.36321C43.2103 1.11348 42.7522 0.997822 42.2934 1.03405C41.8345 1.07027 41.4003 1.25638 41.0576 1.56369L41.8061 2.35221C42.1803 1.99136 42.4877 2.07155 43.1425 2.35221C43.4681 2.51365 43.8224 2.60903 44.185 2.63287C44.4638 2.63043 44.7331 2.53122 44.9468 2.35221C45.6284 1.79089 45.3611 1.01573 45.1874 0.41431C45.1874 0.294026 45.1072 0.133648 45.0804 0L43.9712 0C44.0115 0.261614 44.0833 0.517398 44.185 0.761796Z" fill="#21150B"/>
<path d="M46.082 0.0402203C46.4721 0.321927 46.9376 0.480211 47.4185 0.494625C47.8201 0.474715 48.2005 0.308296 48.4877 0.0268555L46.082 0.0268555" fill="#21150B"/>
<path d="M23.3645 346.32L21.3926 349.811L22.3352 350.343L24.3071 346.852L23.3645 346.32Z" fill="#21150B"/>
<path d="M22.8676 370.513V369.418C22.4693 369.391 22.0697 369.446 21.6935 369.58C21.3174 369.713 20.9728 369.923 20.6811 370.196C20.3894 370.468 20.1569 370.798 19.9979 371.164C19.8389 371.53 19.7568 371.925 19.7568 372.324C19.7568 372.724 19.8389 373.119 19.9979 373.485C20.1569 373.851 20.3894 374.181 20.6811 374.453C20.9728 374.726 21.3174 374.935 21.6935 375.069C22.0697 375.203 22.4693 375.258 22.8676 375.231V374.175C22.3855 374.175 21.9232 373.984 21.5823 373.643C21.2415 373.302 21.05 372.84 21.05 372.358C21.05 371.876 21.2415 371.413 21.5823 371.073C21.9232 370.732 22.3855 370.54 22.8676 370.54" fill="#21150B"/>
<path d="M11.5869 360.409C12.0553 360.407 12.514 360.543 12.9047 360.802C13.2955 361.06 13.6008 361.428 13.7819 361.861C13.963 362.293 14.0117 362.769 13.922 363.228C13.8322 363.688 13.608 364.111 13.2777 364.443C12.9474 364.775 12.5259 365.002 12.0667 365.094C11.6074 365.187 11.1311 365.14 10.6981 364.962C10.265 364.783 9.89479 364.48 9.63426 364.091C9.37373 363.701 9.23465 363.243 9.23464 362.775C9.23463 362.15 9.48203 361.55 9.92277 361.107C10.3635 360.664 10.9618 360.413 11.5869 360.409ZM11.5869 366.223C12.2671 366.215 12.9297 366.006 13.4915 365.623C14.0532 365.239 14.4889 364.698 14.7438 364.067C14.9986 363.436 15.0612 362.744 14.9237 362.078C14.7861 361.412 14.4546 360.801 13.9708 360.323C13.487 359.845 12.8726 359.52 12.2048 359.391C11.5371 359.261 10.8459 359.331 10.2181 359.593C9.5904 359.856 9.05422 360.297 8.67708 360.864C8.29994 361.43 8.09868 362.095 8.09863 362.775C8.09863 363.69 8.46192 364.567 9.10857 365.213C9.75522 365.86 10.6323 366.223 11.5468 366.223" fill="#21150B"/>
<path d="M4.55657 348.408C4.83778 348.44 5.09597 348.579 5.27828 348.796C5.53735 349.09 5.8899 349.287 6.2768 349.353C6.6637 349.419 7.06143 349.349 7.40329 349.156C7.65252 349.043 7.87552 348.879 8.05816 348.675C8.29873 348.448 8.36555 348.408 8.52593 348.421C8.68631 348.435 8.83332 348.595 9.06053 348.836C9.38815 349.275 9.86216 349.584 10.397 349.704L10.6108 348.635C10.3227 348.546 10.0731 348.363 9.90251 348.114C9.60496 347.71 9.16583 347.433 8.67295 347.339C8.42152 347.319 8.16894 347.359 7.93639 347.457C7.70384 347.555 7.49811 347.707 7.33646 347.9C7.2523 348.005 7.14771 348.091 7.02907 348.154C6.48111 348.381 6.37419 348.288 6.05344 347.98C5.69796 347.613 5.22519 347.381 4.71695 347.326C4.43586 347.312 4.15556 347.365 3.89813 347.478C3.64069 347.592 3.41316 347.764 3.23346 347.98C2.9127 348.274 2.84588 348.341 2.44493 348.168L2.08408 347.914C1.49603 347.473 0.747595 346.925 0.132812 347.018L0.132812 348.101H0.373379C0.753101 348.284 1.11163 348.508 1.44257 348.769C1.61051 348.908 1.78928 349.033 1.97716 349.143C2.30381 349.328 2.68606 349.389 3.05412 349.316C3.42218 349.242 3.75148 349.038 3.98189 348.742C4.23582 348.502 4.36947 348.381 4.65013 348.395" fill="#21150B"/>
<path d="M1.1359 377.851C1.09978 377.572 0.9987 377.306 0.840833 377.074C0.682966 376.842 0.47273 376.65 0.227092 376.514L0.0800781 376.461L0.0800781 377.931C0.104209 378.014 0.104209 378.102 0.0800781 378.185L0.0800781 380.083C0.406126 379.812 0.672007 379.475 0.860716 379.096C1.04943 378.716 1.15681 378.301 1.176 377.877" fill="#21150B"/>
<path d="M13.4449 383.531L18.1359 386.204L13.4449 388.877L13.4449 383.531ZM12.3623 381.646L12.3623 390.828L20.3277 386.204L12.3623 381.646Z" fill="#21150B"/>
<path d="M33.396 386.446L32.7363 387.322L35.938 389.735L36.5977 388.86L33.396 386.446Z" fill="#21150B"/>
<path d="M35.9381 338.668L35.4805 339.649L39.114 341.344L39.5716 340.363L35.9381 338.668Z" fill="#21150B"/>
<path d="M61.9303 367.474L58.207 368.961L58.6087 369.967L62.3319 368.479L61.9303 367.474Z" fill="#21150B"/>
<path d="M58.4051 289.643L57.3574 289.915L58.3674 293.795L59.415 293.523L58.4051 289.643Z" fill="#21150B"/>
<path d="M37.3775 368.949L33.6543 370.437L34.056 371.442L37.7792 369.954L37.3775 368.949Z" fill="#21150B"/>
<path d="M68.7891 379.829H69.885C69.835 379.092 69.507 378.402 68.9674 377.897C68.4277 377.393 67.7167 377.113 66.9781 377.113C66.2396 377.113 65.5285 377.393 64.9889 377.897C64.4493 378.402 64.1213 379.092 64.0713 379.829H65.1672C65.1456 379.578 65.1764 379.325 65.2576 379.087C65.3388 378.849 65.4687 378.63 65.639 378.444C65.8092 378.259 66.0162 378.111 66.2467 378.009C66.4773 377.908 66.7263 377.856 66.9781 377.856C67.23 377.856 67.479 377.908 67.7096 378.009C67.9401 378.111 68.147 378.259 68.3173 378.444C68.4876 378.63 68.6174 378.849 68.6986 379.087C68.7799 379.325 68.8106 379.578 68.7891 379.829Z" fill="#21150B"/>
<path d="M55.6113 280.194H56.6939C56.6939 279.425 56.3883 278.687 55.8445 278.143C55.3006 277.599 54.5629 277.294 53.7937 277.294C53.0245 277.294 52.2869 277.599 51.743 278.143C51.1991 278.687 50.8936 279.425 50.8936 280.194H51.9761C51.9761 279.712 52.1676 279.25 52.5085 278.909C52.8493 278.568 53.3117 278.376 53.7937 278.376C54.2758 278.376 54.7381 278.568 55.079 278.909C55.4198 279.25 55.6113 279.712 55.6113 280.194Z" fill="#21150B"/>
<path d="M32.8108 355.237C33.0489 355.237 33.2846 355.285 33.5044 355.376C33.7242 355.468 33.9237 355.602 34.0914 355.771C34.2591 355.94 34.3917 356.14 34.4816 356.361C34.5715 356.581 34.6169 356.817 34.6151 357.055H35.711C35.738 356.657 35.6829 356.257 35.5491 355.881C35.4152 355.505 35.2055 355.16 34.9329 354.869C34.6604 354.577 34.3307 354.344 33.9645 354.185C33.5984 354.026 33.2034 353.944 32.8042 353.944C32.4049 353.944 32.01 354.026 31.6438 354.185C31.2776 354.344 30.948 354.577 30.6754 354.869C30.4028 355.16 30.1931 355.505 30.0593 355.881C29.9254 356.257 29.8703 356.657 29.8973 357.055H30.9932C30.9932 356.816 31.0402 356.58 31.1316 356.36C31.2229 356.139 31.3568 355.939 31.5256 355.77C31.6944 355.601 31.8947 355.467 32.1153 355.376C32.3358 355.285 32.5722 355.237 32.8108 355.237Z" fill="#21150B"/>
<path d="M65.2742 341.605C65.7421 341.608 66.1986 341.749 66.5862 342.011C66.9737 342.273 67.2748 342.645 67.4514 343.078C67.628 343.511 67.6722 343.987 67.5783 344.445C67.4844 344.904 67.2568 345.324 66.9241 345.653C66.5914 345.982 66.1686 346.205 65.7092 346.293C65.2498 346.382 64.7745 346.333 64.3432 346.151C63.912 345.97 63.5443 345.664 63.2865 345.274C63.0288 344.883 62.8927 344.425 62.8953 343.957C62.8953 343.647 62.9566 343.34 63.0756 343.054C63.1947 342.768 63.3691 342.508 63.589 342.289C63.8088 342.071 64.0697 341.898 64.3566 341.78C64.6435 341.663 64.9508 341.603 65.2609 341.605M65.2609 347.406C65.9428 347.406 66.6095 347.203 67.1765 346.824C67.7436 346.446 68.1855 345.907 68.4465 345.277C68.7075 344.647 68.7758 343.954 68.6427 343.285C68.5097 342.616 68.1813 342.001 67.6991 341.519C67.2168 341.037 66.6024 340.709 65.9336 340.576C65.2647 340.442 64.5714 340.511 63.9413 340.772C63.3113 341.033 62.7727 341.475 62.3939 342.042C62.015 342.609 61.8127 343.275 61.8127 343.957C61.8074 344.415 61.8931 344.868 62.0649 345.292C62.2366 345.716 62.4909 346.102 62.8131 346.426C63.1352 346.751 63.5187 347.008 63.9412 347.183C64.3638 347.358 64.8169 347.447 65.2742 347.446" fill="#21150B"/>
<path d="M49.6104 328.575H40.1748V329.657H49.6104V328.575Z" fill="#21150B"/>
<path d="M43.3148 326.196L44.8918 327.639L46.4555 326.196L48.0325 327.639L49.9838 325.848L49.2354 325.046L48.0325 326.169L46.4555 324.712L44.8918 326.169L43.3148 324.712L41.7511 326.169L40.5482 325.046L39.7998 325.848L41.7511 327.639L43.3148 326.196Z" fill="#21150B"/>
<path d="M72.9318 280.996C73.181 280.882 73.404 280.719 73.5867 280.515C73.8272 280.287 73.8941 280.247 74.0544 280.261C74.2148 280.274 74.3618 280.434 74.589 280.675C74.9167 281.115 75.3907 281.423 75.9255 281.544L76.1394 280.475C75.8512 280.386 75.6016 280.202 75.431 279.953C75.1335 279.549 74.6943 279.272 74.2015 279.178C73.95 279.158 73.6975 279.198 73.4649 279.296C73.2324 279.394 73.0266 279.546 72.865 279.739C72.7808 279.844 72.6762 279.93 72.5576 279.993C72.023 280.221 71.9027 280.127 71.5819 279.82C71.2265 279.452 70.7537 279.22 70.2455 279.165C69.9644 279.152 69.6841 279.204 69.4266 279.318C69.1692 279.431 68.9417 279.603 68.762 279.82C68.4412 280.114 68.3744 280.18 67.9734 280.007L67.6126 279.753C66.9577 279.258 66.1291 278.63 65.4341 278.924C65.2564 279.002 65.1043 279.129 64.9955 279.29C64.8867 279.451 64.8256 279.639 64.8193 279.833L65.9019 279.967C66.2792 280.147 66.6336 280.371 66.9577 280.635C67.1321 280.771 67.3151 280.896 67.5057 281.009C67.8323 281.194 68.2146 281.255 68.5826 281.182C68.9507 281.108 69.28 280.904 69.5104 280.608C69.7643 280.368 69.898 280.247 70.1786 280.261C70.4598 280.293 70.718 280.432 70.9003 280.648C71.1594 280.943 71.512 281.14 71.8989 281.205C72.2858 281.271 72.6835 281.202 73.0254 281.009" fill="#21150B"/>
<path d="M54.876 353.807C54.7739 353.556 54.6144 353.332 54.4102 353.153C54.2059 352.974 53.9627 352.846 53.6999 352.778C53.1993 352.66 52.6787 352.657 52.1765 352.768C51.6744 352.879 51.2038 353.102 50.7997 353.42C50.3405 353.752 49.8005 353.955 49.236 354.008C49.0623 354.008 48.942 353.941 48.9153 353.887C48.8885 353.834 48.8217 353.406 49.383 352.284L49.6102 351.869C50.078 351.027 50.9467 349.45 49.6102 348.448C49.2432 348.25 48.8362 348.137 48.4196 348.119C48.0031 348.1 47.5877 348.176 47.2046 348.341C46.9481 348.425 46.7176 348.574 46.535 348.773C46.3525 348.972 46.2241 349.214 46.1621 349.477L47.2447 349.664C47.2447 349.557 47.405 349.437 47.6189 349.343C48.0471 349.168 48.5271 349.168 48.9554 349.343C49.4766 349.718 49.2895 350.266 48.6881 351.348C48.5945 351.522 48.501 351.669 48.4341 351.816C47.9664 352.751 47.5921 353.727 47.9931 354.489C48.112 354.695 48.2836 354.865 48.4904 354.983C48.6971 355.1 48.9314 355.16 49.1692 355.157C49.9582 355.144 50.7238 354.887 51.361 354.422C52.0961 354.008 52.6975 353.647 53.3658 353.874C53.4746 353.895 53.5777 353.939 53.6677 354.004C53.7577 354.068 53.8326 354.152 53.887 354.248C54.034 354.649 53.5261 355.518 53.1252 356.213C52.497 357.295 51.7887 358.512 52.4703 359.474L53.3524 358.832C53.0717 358.458 53.6063 357.496 54.0607 356.761C54.6354 355.772 55.2368 354.769 54.9027 353.874" fill="#21150B"/>
<path d="M61.9865 306.589C62.6413 305.868 63.8575 304.544 62.7215 303.248C62.4092 302.969 62.0374 302.765 61.6345 302.652C61.2315 302.538 60.808 302.518 60.3961 302.593C60.1152 302.602 59.842 302.688 59.6064 302.841C59.3708 302.994 59.1816 303.209 59.0596 303.462L60.0619 303.876C60.0619 303.783 60.2758 303.702 60.503 303.662C60.7341 303.621 60.9712 303.625 61.2006 303.676C61.43 303.726 61.6472 303.822 61.8395 303.956C62.2671 304.438 61.9597 304.932 61.1311 305.854L60.7703 306.242C60.102 307.057 59.514 307.912 59.7412 308.688C59.8091 308.915 59.9366 309.121 60.1104 309.283C60.2843 309.445 60.4982 309.558 60.7302 309.61C61.5031 309.783 62.3108 309.713 63.0423 309.409C63.8575 309.169 64.5525 308.968 65.1138 309.329C65.3678 309.489 65.5148 309.663 65.5282 309.81C65.5282 310.238 64.9 310.973 64.3387 311.548C63.4833 312.456 62.5077 313.486 63.0022 314.568L64.0046 314.154C63.8308 313.726 64.5525 312.964 65.1807 312.296C65.8088 311.628 66.7844 310.625 66.6642 309.69C66.628 309.411 66.527 309.145 66.3691 308.913C66.2112 308.681 66.001 308.489 65.7554 308.353C65.2928 308.13 64.7856 308.014 64.2719 308.014C63.7581 308.014 63.2509 308.13 62.7884 308.353C62.2665 308.577 61.6927 308.651 61.1311 308.567C60.9707 308.567 60.8638 308.447 60.8371 308.38C60.8104 308.313 60.8371 307.899 61.6657 306.923L61.9865 306.576" fill="#21150B"/>
<path d="M45.7081 306.87L41.0304 304.197L45.7081 301.524V306.87ZM46.8041 299.573L38.7852 304.17L46.8041 308.754V299.573Z" fill="#21150B"/>
<path d="M47.7527 370.727V379.08H45.5208L46.4697 378.051L45.0129 376.474L46.4697 374.911L45.0129 373.333L46.4697 371.756L45.5208 370.727H47.7527ZM48.8352 380.163V369.645H42.9814L44.9327 371.756L43.4759 373.333L44.9327 374.911L43.4759 376.474L44.9327 378.051L42.9814 380.163H48.8352Z" fill="#21150B"/>
<path d="M7.13151 290.465L6.67383 291.447L10.3073 293.142L10.765 292.161L7.13151 290.465Z" fill="#21150B"/>
<path d="M12.0046 338.959L11.1934 339.675L13.848 342.68L14.6593 341.963L12.0046 338.959Z" fill="#21150B"/>
<path d="M24.498 272.669L24.8589 273.298L25.9414 272.669H24.498Z" fill="#21150B"/>
<path d="M1.41667 308.768C0.9216 308.767 0.434314 308.891 0 309.129L0 310.545C0.232466 310.251 0.551082 310.036 0.911461 309.931C1.27184 309.825 1.65603 309.835 2.01051 309.959C2.36499 310.082 2.67211 310.314 2.88907 310.62C3.10603 310.926 3.22204 311.293 3.22093 311.668H4.35694C4.35697 311.284 4.28065 310.903 4.1324 310.549C3.98416 310.194 3.76694 309.873 3.49337 309.603C3.2198 309.333 2.89534 309.12 2.53884 308.977C2.18233 308.834 1.80089 308.763 1.41667 308.768Z" fill="#21150B"/>
<path d="M18.1487 302.326C18.146 301.857 18.2828 301.398 18.5418 301.007C18.8007 300.616 19.17 300.311 19.6028 300.13C20.0356 299.949 20.5123 299.901 20.9724 299.992C21.4325 300.083 21.8553 300.309 22.1869 300.64C22.5185 300.972 22.7441 301.395 22.835 301.855C22.9258 302.315 22.8778 302.792 22.6971 303.224C22.5164 303.657 22.2112 304.027 21.8201 304.285C21.4291 304.544 20.9699 304.681 20.5009 304.679C19.8781 304.675 19.2818 304.426 18.8415 303.986C18.4011 303.545 18.1522 302.949 18.1487 302.326ZM23.949 302.326C23.949 301.644 23.7468 300.978 23.3679 300.411C22.989 299.844 22.4505 299.402 21.8204 299.141C21.1903 298.88 20.497 298.811 19.8282 298.944C19.1593 299.077 18.5449 299.406 18.0627 299.888C17.5804 300.37 17.252 300.985 17.119 301.654C16.9859 302.322 17.0542 303.016 17.3152 303.646C17.5762 304.276 18.0181 304.814 18.5852 305.193C19.1522 305.572 19.8189 305.774 20.5009 305.774C21.4143 305.771 22.2893 305.407 22.9352 304.761C23.5811 304.115 23.9455 303.24 23.949 302.326Z" fill="#21150B"/>
<path d="M2.09915 275.797C2.10168 276.365 1.89876 276.914 1.52785 277.344C1.15694 277.774 0.643064 278.055 0.0810547 278.136L0.0810547 279.285C0.843188 279.227 1.5641 278.916 2.12965 278.402C2.69521 277.887 3.07309 277.199 3.20347 276.446C3.33386 275.693 3.20929 274.918 2.8495 274.244C2.48971 273.569 1.91525 273.034 1.21707 272.723H0.0810547L0.0810547 273.511C0.649197 273.586 1.171 273.864 1.54954 274.294C1.92808 274.724 2.13762 275.277 2.13924 275.85" fill="#21150B"/>
<path d="M1.99173 325.848H0.90918L0.90918 335.284H1.99173L1.99173 325.848Z" fill="#21150B"/>
<path d="M4.70495 325.487L2.91406 327.425L4.37083 329.002L2.91406 330.566L4.37083 332.143L2.91406 333.72L4.70495 335.658L5.50684 334.923L4.39756 333.72L5.85433 332.143L4.39756 330.566L5.85433 329.002L4.39756 327.425L5.50684 326.222L4.70495 325.487Z" fill="#21150B"/>
<path d="M28.1466 316.707C28.3916 316.586 28.6133 316.423 28.8015 316.225C29.0287 315.998 29.0955 315.958 29.2559 315.971C29.4163 315.985 29.5767 316.145 29.8039 316.386C30.129 316.828 30.6041 317.137 31.1404 317.254L31.3408 316.172C31.0546 316.087 30.8052 315.908 30.6325 315.664C30.3373 315.264 29.9038 314.987 29.4163 314.889C29.1647 314.866 28.9113 314.906 28.6784 315.004C28.4455 315.102 28.24 315.255 28.0798 315.45C27.9884 315.553 27.8798 315.639 27.7591 315.704C27.2245 315.931 27.1042 315.824 26.7834 315.53C26.43 315.16 25.9561 314.928 25.4469 314.876C25.166 314.863 24.886 314.916 24.6287 315.03C24.3715 315.143 24.1438 315.315 23.9634 315.53C23.6561 315.824 23.5759 315.891 23.1749 315.718L22.8274 315.464C22.1592 314.956 21.3306 314.341 20.6356 314.635C20.4603 314.715 20.311 314.843 20.2047 315.003C20.0984 315.164 20.0393 315.351 20.0342 315.544L21.1167 315.677C21.4932 315.859 21.8475 316.083 22.1726 316.346C22.3423 316.488 22.5259 316.614 22.7205 316.72C23.0451 316.904 23.4252 316.965 23.791 316.891C24.1568 316.817 24.4838 316.614 24.7119 316.319C24.9792 316.078 25.1128 315.958 25.3801 315.971C25.6613 316.004 25.9195 316.142 26.1018 316.359C26.36 316.629 26.6983 316.809 27.0667 316.871C27.435 316.934 27.8137 316.876 28.1466 316.707Z" fill="#21150B"/>
<path d="M13.445 278.416L16.118 273.725L18.7909 278.416H13.445ZM11.5605 279.499H20.7422L16.7327 272.669H15.3963L11.5605 279.499Z" fill="#21150B"/>
<path d="M17.8824 326.316L22.5734 328.989L17.8824 331.662V326.316ZM16.7998 333.613L24.7519 329.016L16.7998 324.431V333.613Z" fill="#21150B"/>
<path d="M36.9805 290.378H28.6275V288.093L29.6566 289.041L31.2336 287.598L32.7973 289.041L34.3744 287.598L35.9514 289.041L36.9805 288.093V290.378ZM38.063 285.607L35.9514 287.558L34.3744 286.115L32.7973 287.558L31.2336 286.115L29.6566 287.558L27.5449 285.607V291.474H38.063V285.607Z" fill="#21150B"/>
<path d="M44.185 273.404C44.3186 273.872 44.3721 274.099 44.2652 274.193C44.1583 274.286 43.8642 274.126 43.5969 274.006C43.2103 273.756 42.7522 273.64 42.2934 273.677C41.8345 273.713 41.4003 273.899 41.0576 274.206L41.8061 274.995C42.1803 274.634 42.4877 274.714 43.1425 274.995C43.4681 275.156 43.8224 275.252 44.185 275.275C44.4638 275.273 44.7331 275.174 44.9468 274.995C45.6284 274.433 45.3611 273.658 45.1874 273.057C45.1874 272.937 45.1072 272.776 45.0804 272.643H43.9712C44.005 272.894 44.0677 273.141 44.1583 273.378" fill="#21150B"/>
<path d="M46.082 272.683C46.4721 272.964 46.9376 273.123 47.4185 273.137C47.8201 273.117 48.2005 272.951 48.4877 272.669H46.082" fill="#21150B"/>
</svg>
