<svg width="43" height="43" viewBox="0 0 43 43" fill="none" xmlns="http://www.w3.org/2000/svg"><path fill-rule="evenodd" clip-rule="evenodd" d="M21.9336 42.9999C33.5682 42.9999 42.9999 33.5682 42.9999 21.9336C42.9999 10.2989 33.5682 0.867188 21.9336 0.867188C10.2989 0.867188 0.867188 10.2989 0.867188 21.9336C0.867188 33.5682 10.2989 42.9999 21.9336 42.9999ZM32.4349 15.3331C33.5763 15.199 34.6618 14.9005 35.6725 14.459C34.9146 15.5747 33.961 16.5487 32.8562 17.3353C32.868 17.5733 32.8734 17.8123 32.8734 18.053C32.8734 25.3854 27.2032 33.8406 16.8354 33.8406C13.652 33.8406 10.6896 32.9213 8.19462 31.3465C8.63583 31.3988 9.08526 31.4255 9.54 31.4255C12.1802 31.4255 14.6111 30.5381 16.5403 29.0494C14.0743 29.0041 11.9925 27.4 11.2752 25.1962C11.6199 25.26 11.9727 25.2939 12.3363 25.2939C12.8507 25.2939 13.3478 25.2271 13.8216 25.0994C11.2427 24.5895 9.29997 22.3476 9.29997 19.6588V19.5887C10.0827 20.0173 10.9583 20.2552 11.8536 20.2825C10.3413 19.2876 9.34603 17.5893 9.34603 15.6644C9.34603 14.6475 9.62389 13.6943 10.1093 12.8745C12.8894 16.2312 17.0429 18.4402 21.7277 18.672C21.6322 18.2652 21.5825 17.8415 21.5825 17.4072C21.5825 14.3419 24.1064 11.8583 27.2185 11.8583C28.8399 11.8583 30.3054 12.5316 31.3331 13.6099C32.596 13.3658 33.807 12.9103 34.9135 12.2634C34.4921 13.5584 33.5998 14.6465 32.4349 15.3331Z" fill="white"/></svg>