<svg width="19" height="19" viewBox="0 0 19 19" fill="none" xmlns="http://www.w3.org/2000/svg">
<path d="M4.08028 2.82575H18.2682L16.3379 9.58181H5.1197M17.3031 13.4424H5.72127L3.79096 0.895447H0.895508M6.68642 17.303C6.68642 17.8361 6.2543 18.2682 5.72127 18.2682C5.18823 18.2682 4.75611 17.8361 4.75611 17.303C4.75611 16.77 5.18823 16.3379 5.72127 16.3379C6.2543 16.3379 6.68642 16.77 6.68642 17.303ZM17.3031 17.303C17.3031 17.8361 16.871 18.2682 16.3379 18.2682C15.8049 18.2682 15.3728 17.8361 15.3728 17.303C15.3728 16.77 15.8049 16.3379 16.3379 16.3379C16.871 16.3379 17.3031 16.77 17.3031 17.303Z" stroke="#567982" stroke-width="1.2" stroke-linecap="round" stroke-linejoin="round"/>
</svg>
