<svg width="20" height="18" viewBox="0 0 20 18" fill="none" xmlns="http://www.w3.org/2000/svg">
<path d="M17.9525 4.92023C17.9647 5.09654 17.9647 5.27286 17.9647 5.4508C17.9647 10.8727 13.8371 17.1258 6.28966 17.1258V17.1225C4.06013 17.1258 1.8769 16.4872 0 15.283C0.324193 15.322 0.65001 15.3415 0.97664 15.3423C2.82429 15.3439 4.61913 14.724 6.07272 13.5824C4.31688 13.5491 2.77717 12.4043 2.23928 10.7329C2.85436 10.8516 3.48812 10.8272 4.09181 10.6623C2.17753 10.2755 0.800325 8.5936 0.800325 6.64031C0.800325 6.62244 0.800325 6.60538 0.800325 6.58831C1.37071 6.90601 2.00934 7.08232 2.6626 7.10182C0.859638 5.89687 0.30388 3.49833 1.39265 1.62305C3.47593 4.18653 6.54966 5.74493 9.84928 5.90987C9.51859 4.48472 9.97034 2.99132 11.0364 1.98949C12.689 0.435968 15.2882 0.515594 16.8418 2.16743C17.7607 1.98624 18.6415 1.64905 19.4475 1.17129C19.1412 2.12112 18.5001 2.92794 17.6437 3.44064C18.457 3.34476 19.2517 3.12701 20 2.79469C19.4491 3.62021 18.7552 4.33928 17.9525 4.92023Z" fill="white"/>
</svg>
